<svg id="v2" xmlns="http://www.w3.org/2000/svg" viewBox="0 0 135 150"><defs><style>.cls-1{fill:#333;}</style></defs><g id="Academic"><path class="cls-1" d="M21.79,107.18h2.52l5.48,13.51H26.6l-1-2.73H20.48l-1,2.73h-3.2Zm3,8.35L23,110.72l-1.71,4.81Z"/><path class="cls-1" d="M30.17,116.29a4.43,4.43,0,0,1,4.66-4.57c2.85,0,4.66,1.69,4.79,3.72H36.67A1.46,1.46,0,0,0,35.06,114c-1.35,0-1.91,1.12-1.91,2.26s.56,2.29,1.91,2.29a1.46,1.46,0,0,0,1.61-1.41h2.95c-.13,2-1.94,3.71-4.79,3.71A4.44,4.44,0,0,1,30.17,116.29Z"/><path class="cls-1" d="M40.5,116.31a4.26,4.26,0,0,1,4.35-4.59,3.71,3.71,0,0,1,3,1.27v-1h3v8.74h-3v-1.06a3.62,3.62,0,0,1-3,1.25A4.24,4.24,0,0,1,40.5,116.31Zm7.35,0a2.09,2.09,0,1,0-2.09,2.19A2,2,0,0,0,47.85,116.31Z"/><path class="cls-1" d="M52.46,116.31a4.26,4.26,0,0,1,4.35-4.59,3.71,3.71,0,0,1,3,1.27v-7.2h3v14.9h-3v-1.06a3.62,3.62,0,0,1-3,1.25A4.24,4.24,0,0,1,52.46,116.31Zm7.35,0a2.09,2.09,0,1,0-2.09,2.19A2,2,0,0,0,59.81,116.31Z"/><path class="cls-1" d="M64.34,116.31c0-2.73,2.16-4.59,5.1-4.59,2.67,0,4.85,1.61,4.85,4.4v.75H67.5a1.86,1.86,0,0,0,1.88,1.89,1.7,1.7,0,0,0,1.79-1.15h3c-.58,2.18-2.4,3.27-4.75,3.27C66.42,120.88,64.34,119.1,64.34,116.31Zm6.79-1a1.66,1.66,0,0,0-1.79-1.51,1.71,1.71,0,0,0-1.8,1.51Z"/><path class="cls-1" d="M90.59,115v5.65h-3V116c0-1.25-.28-1.93-1.35-1.93s-1.53.68-1.53,1.93v4.65h-3V116c0-1.25-.34-1.93-1.33-1.93s-1.55.68-1.55,1.93v4.65h-3v-8.76h3V113a3.24,3.24,0,0,1,2.62-1.27,2.73,2.73,0,0,1,2.61,1.39,3.63,3.63,0,0,1,3.11-1.39A3.09,3.09,0,0,1,90.59,115Z"/><path class="cls-1" d="M92.49,108.73A1.74,1.74,0,0,1,94.23,107a1.75,1.75,0,1,1-1.74,1.75Zm.26,3.2h3v8.76h-3Z"/><path class="cls-1" d="M97.32,116.29a4.43,4.43,0,0,1,4.66-4.57c2.84,0,4.66,1.69,4.79,3.72h-3A1.45,1.45,0,0,0,102.2,114c-1.34,0-1.91,1.12-1.91,2.26s.57,2.29,1.91,2.29a1.45,1.45,0,0,0,1.61-1.41h3c-.13,2-2,3.71-4.79,3.71A4.44,4.44,0,0,1,97.32,116.29Z"/><path class="cls-1" d="M107.61,117.43h3c0,1.29,1.17,1.38,1.91,1.38s1.36-.21,1.36-.76c0-1.74-5.85-.24-5.85-3.62,0-1.69,1.42-2.71,4.15-2.71,2.5,0,4.09.86,4.37,2.87h-2.93c-.1-.8-.83-1-1.42-1s-1.18.11-1.18.59c0,1.19,5.86-.1,5.86,3.64,0,2.3-2,3.07-4.42,3.07C109.69,120.88,107.78,119.93,107.61,117.43Z"/><path class="cls-1" d="M29.22,144.52l-.62-.78a5.7,5.7,0,0,1-3.35,1c-2.64,0-4.49-1.37-4.49-3.83A4.44,4.44,0,0,1,23.29,137a5,5,0,0,1-1.12-2.89c0-2.25,2.09-3.26,4.09-3.26,2.36,0,4.12,1.35,4.12,3.18s-1.64,2.68-3.29,3.55l1.77,2.12,1.54-1.8,2.1,1.8-1.87,2.12,2.29,2.73ZM27,141.7l-2.2-2.77a2.34,2.34,0,0,0-1.05,1.84,1.49,1.49,0,0,0,1.63,1.53A2.57,2.57,0,0,0,27,141.7Zm-1.33-5.95c1.06-.52,1.87-1,1.87-1.82a1,1,0,0,0-1.15-1,1.21,1.21,0,0,0-1.33,1.25A2.94,2.94,0,0,0,25.66,135.75Z"/><path class="cls-1" d="M48.4,140.61c0,2.24-1.49,3.91-5.29,3.91H38.65V131H42.5c3.7,0,4.91,1.74,4.91,3.58a2.79,2.79,0,0,1-1.54,2.69A3.16,3.16,0,0,1,48.4,140.61Zm-6.77-7v2.9H43.2a1.29,1.29,0,0,0,1.37-1.43A1.38,1.38,0,0,0,43,133.6Zm3.79,6.81c0-1.53-1.37-1.53-1.91-1.53H41.63v3.06h1.88C44,141.94,45.42,141.94,45.42,140.41Z"/><path class="cls-1" d="M49.8,140.73v-5h3v5c0,1,.39,1.61,1.33,1.61s1.67-.7,1.67-2v-4.57h3v8.76h-3v-1.07a3.38,3.38,0,0,1-2.69,1.27C50.76,144.72,49.8,143.12,49.8,140.73Z"/><path class="cls-1" d="M60.36,141.26h3c0,1.29,1.17,1.39,1.91,1.39s1.36-.21,1.36-.77c0-1.73-5.85-.24-5.85-3.61,0-1.69,1.42-2.71,4.15-2.71,2.5,0,4.09.85,4.37,2.86H66.33a1.26,1.26,0,0,0-1.42-1c-.46,0-1.18.12-1.18.59,0,1.2,5.86-.09,5.86,3.64,0,2.31-2,3.08-4.42,3.08C62.44,144.72,60.53,143.77,60.36,141.26Z"/><path class="cls-1" d="M71,132.56a1.73,1.73,0,0,1,1.74-1.74,1.75,1.75,0,0,1,1.75,1.74,1.77,1.77,0,0,1-1.75,1.75A1.75,1.75,0,0,1,71,132.56Zm.26,3.2h3v8.76h-3Z"/><path class="cls-1" d="M76.56,135.76h3v1.07a3.37,3.37,0,0,1,2.69-1.27c2.34,0,3.29,1.61,3.29,4v5h-3v-5c0-1-.4-1.61-1.33-1.61s-1.67.7-1.67,2v4.57h-3Z"/><path class="cls-1" d="M86.86,140.15c0-2.74,2.16-4.59,5.1-4.59,2.66,0,4.85,1.61,4.85,4.39v.76H90a1.84,1.84,0,0,0,1.88,1.88,1.67,1.67,0,0,0,1.78-1.14h3c-.58,2.18-2.41,3.27-4.75,3.27C88.94,144.72,86.86,142.93,86.86,140.15Zm6.78-1.05a1.65,1.65,0,0,0-1.78-1.51,1.71,1.71,0,0,0-1.8,1.51Z"/><path class="cls-1" d="M97.66,141.26h3c0,1.29,1.17,1.39,1.91,1.39s1.37-.21,1.37-.77c0-1.73-5.86-.24-5.86-3.61,0-1.69,1.42-2.71,4.15-2.71,2.5,0,4.09.85,4.37,2.86h-2.92a1.27,1.27,0,0,0-1.43-1c-.46,0-1.17.12-1.17.59,0,1.2,5.85-.09,5.85,3.64,0,2.31-2,3.08-4.42,3.08C99.75,144.72,97.83,143.77,97.66,141.26Z"/><path class="cls-1" d="M107.79,141.26h2.95c0,1.29,1.18,1.39,1.92,1.39s1.36-.21,1.36-.77c0-1.73-5.86-.24-5.86-3.61,0-1.69,1.43-2.71,4.16-2.71,2.5,0,4.09.85,4.37,2.86h-2.93a1.26,1.26,0,0,0-1.42-1c-.46,0-1.18.12-1.18.59,0,1.2,5.86-.09,5.86,3.64,0,2.31-2,3.08-4.42,3.08C109.87,144.72,108,143.77,107.79,141.26Z"/><path class="cls-1" d="M31.91,93.65a13.09,13.09,0,0,1,.18-26.18l18.48.12L48.7,65.92a32.29,32.29,0,0,1-9.62-17.1c-1.83-8.35-.56-16.74,3.48-23a19.13,19.13,0,0,1,12-8.64,17.39,17.39,0,0,1,3.8-.39,18.77,18.77,0,0,1,5.16.78,25.16,25.16,0,0,0,3.43.77L68,18.5l0-5.47a6.6,6.6,0,0,0-6.52-6.66H59.59l0-4.08h2A10.65,10.65,0,0,1,72,11.19l.22,1.3,1.16-.63a10.16,10.16,0,0,1,4.83-1.19l9.54.06,0,5.24c0,.25,0,.49,0,.74l-.06.76.74.22a19.23,19.23,0,0,1,9.11,6.11l1.1,1.29a9.31,9.31,0,0,0,2.88,18.14,8.88,8.88,0,0,0,1.86-.17c-.48,3.31-.86,5.53-1.07,6.27A34.75,34.75,0,0,1,92,66.22l-1.81,1.64,28.47.19,0,4.13a9.09,9.09,0,0,0-8,7.64l0,2.4a9.13,9.13,0,0,0,7.92,7.88l0,4.13ZM75.7,71.84a9,9,0,1,0-.12,18l34.26.23-1-1.5a13.08,13.08,0,0,1-2.06-4.79l-.15-.75-30.13-.2,0-4.09,30.16.21.16-.75a13,13,0,0,1,2.11-4.66L110,72.07ZM44,71.63a9,9,0,0,0-.12,18l22.07.15-1.05-1.5a13,13,0,0,1,.11-15l1.06-1.49Zm-11.92-.08a9,9,0,0,0-.12,18h2.27l-1.05-1.5a13,13,0,0,1,.11-15l1.06-1.48Zm38.46-6.11a21.6,21.6,0,0,0,8.72,2.35,12.09,12.09,0,0,0,6.81-2.06A29.93,29.93,0,0,0,98.3,48.24c.09-.33.17-.66.25-1l.22-.91-.92-.22A12.3,12.3,0,0,1,92,25.5l.75-.76-.83-.65a14.21,14.21,0,0,0-5.16-2.6l-.62-.17-.39.52A10.11,10.11,0,0,1,77.54,26L68,25.93l0-3.33-.83-.11a31.14,31.14,0,0,1-4.83-1,14.57,14.57,0,0,0-4-.62,14.33,14.33,0,0,0-2.92.3A14.9,14.9,0,0,0,46,28C42.53,33.38,41.47,40.64,43.07,48A27.84,27.84,0,0,0,52,63.35a16.83,16.83,0,0,0,10.67,4.29,13.07,13.07,0,0,0,2.93-.3C66.12,67.22,68.86,66.12,70.52,65.44Zm7.65-50.69a6,6,0,0,0-6.06,6v1.15l5.46,0a6,6,0,0,0,6.06-6V14.79Z"/></g></svg>