<svg xmlns="http://www.w3.org/2000/svg" viewBox="0 0 398.15 398.2"><defs><style>.cls-1{fill:#333;}</style></defs><g id="Layer_2" data-name="Layer 2"><g id="Layer_1-2" data-name="Layer 1"><path class="cls-1" d="M140.59,155.73a84.84,84.84,0,0,1,28.32-36.54,83.08,83.08,0,0,1,129.52,44c.82,2.88,2,4,4.95,4.47,21.35,3.39,36.38,15.15,45.05,34.9,1.05,2.4,2.3,3.05,4.76,3,8.29-.15,16.59-.1,24.88,0,11.78.08,20,8.21,20.05,19.9q.06,76.25,0,152.49c0,12-8.15,20.23-20.11,20.25q-37.51.07-75,0c-12.29,0-20.39-8.09-20.41-20.35q0-45.13,0-90.29v-4.95h-4.82q-93.3,0-186.58,0c-21.43,0-39.31-13.35-44.55-33a44.91,44.91,0,0,1,34.11-55.87c2.31-.49,3.25-1.2,3.76-3.63,5.25-24.91,29.2-40.17,54.18-34.7Zm7.82,17.46c-12.33-7.15-24.72-9-37-1.23s-16,19.65-15.08,33.58c-2.88,0-5.15-.06-7.42,0a32.15,32.15,0,0,0-31.08,32c0,18,14.34,32.17,32.93,32.18q94.07.07,188.14,0c1.15,0,2.3-.14,3.66-.23,0-13,.61-25.73-.15-38.37-1-17.48,8.11-27,25.79-25.7,9,.64,18,.11,27.77.11-1.44-2.47-2.36-4.37-3.57-6.06-9.66-13.57-22.9-20.07-39.5-19.51-3.12.1-4.34-.63-4.83-4-4.81-32.84-30.87-57.23-64.07-60.21C192.48,113,162,133,151.55,163.58,150.52,166.58,149.58,169.61,148.41,173.19ZM385,346.63V244.38h-89.4V346.63Zm.24,13.29H295.39c0,5.88,0,11.47,0,17.07,0,6.2,2.17,8.3,8.51,8.32q16.83,0,33.66,0,20,0,40.06,0c4.75,0,7.45-2.19,7.57-6.39C385.38,372.66,385.25,366.4,385.25,359.92Zm0-128.87c0-2.27.08-4.13,0-6-.21-4.23-2.57-6.67-6.88-6.68q-38.06-.07-76.12,0c-4.27,0-6.63,2.5-6.82,6.74-.09,1.94,0,3.89,0,5.91Z"/><path class="cls-1" d="M109.33,115.87v12.51h12.5V141H45.2V128.54H57.49V115.6H53.21c-13.11,0-26.22,0-39.33,0C5.33,115.56,0,110.32,0,101.87Q0,57.92,0,14C0,5.28,5.33,0,14.06,0Q83.5,0,152.92,0C161.67,0,167,5.26,167,14q0,43.95,0,87.91c0,8.45-5.34,13.69-13.87,13.72-14.18,0-28.36,0-42.54,0A8.69,8.69,0,0,0,109.33,115.87ZM13,76.79H153.8V13.06H13Zm0,25.68H153.93V90.13H13.07Zm83.1,13.34H70.88v12.38H96.17Z"/><path class="cls-1" d="M377.2,20.62l-8.75,8.57q-40.68-33.14-82,0l-8.39-8.57C301.93-4.95,348.08-8.53,377.2,20.62Z"/><path class="cls-1" d="M98.54,337.57c-22.91-21.71-58-22.15-81.63.19l-8.53-8.84C34,301.5,81.6,301.41,107.28,329Z"/><path class="cls-1" d="M327.54,51.39a19.26,19.26,0,1,1-19.29,19A19.27,19.27,0,0,1,327.54,51.39Zm6.32,19.28a6.45,6.45,0,0,0-6.35-6.39,6.38,6.38,0,0,0-6.38,6.33,6.37,6.37,0,1,0,12.73.06Z"/><path class="cls-1" d="M77.05,379.05a19.25,19.25,0,1,1-18.91-19.39A19.29,19.29,0,0,1,77.05,379.05Zm-19.24-6.53a6.39,6.39,0,1,0,6.38,6.4A6.45,6.45,0,0,0,57.81,372.52Z"/><path class="cls-1" d="M304.81,47.76c-2.87-3.06-5.58-6-8.32-8.9,12.39-15.31,43.6-19.54,62.45,0l-9.41,8.34a32.24,32.24,0,0,0-22.13-8.62C318.72,38.58,311.34,41.93,304.81,47.76Z"/><path class="cls-1" d="M35,355.93l-8.33-8.73c13-15.57,44-19.5,62.56-.07L80,355.42C65.4,343.61,50.22,343.71,35,355.93Z"/><path class="cls-1" d="M218.15,128.74v12.31c-22,1.64-36.58,12.83-43.54,33.88L163,171.88C165.86,151.92,188.85,127.84,218.15,128.74Z"/><path class="cls-1" d="M115.42,244.05v12.69c-9.48,0-18.83.56-28.08-.16-10.1-.79-17.22-10-16.66-20.16.55-9.81,8.58-17.53,18.94-17.92v12.39A23.51,23.51,0,0,0,87,232c-2.78,1.56-4,4-3.2,7.07.82,3.21,3.16,4.88,6.5,4.9,6.82.05,13.63,0,20.45,0Z"/><path class="cls-1" d="M141,256.73H128.66V244.37H141Z"/></g></g></svg>