<svg xmlns="http://www.w3.org/2000/svg" viewBox="0 0 398.15 398.03"><defs><style>.cls-1{fill:#333;}</style></defs><g id="Layer_2" data-name="Layer 2"><g id="Layer_1-2" data-name="Layer 1"><path class="cls-1" d="M392.48,104.49h0l-25.7-3.67a6.6,6.6,0,0,1-3-11.82L384.5,73.41a6.61,6.61,0,0,0,1.32-9.25L362,32.45a6.61,6.61,0,0,0-9.25-1.32L332,46.71a6.6,6.6,0,0,1-10.53-6.22l3.67-25.7a6.61,6.61,0,0,0-5.6-7.48h0l-39.22-5.6a6.59,6.59,0,0,0-7.47,5.6h0L269.19,33a6.6,6.6,0,0,1-11.82,3L241.8,15.27A6.61,6.61,0,0,0,232.55,14l-19.86,14.9a128.44,128.44,0,0,0-27,0A125.52,125.52,0,0,0,75,141.4c-.18,1.87-.25,3.73-.34,5.59h-2a6.59,6.59,0,0,0-6.46,5.28L61.65,174,43.36,161.37a6.6,6.6,0,0,0-8.42.77L15.12,182a6.61,6.61,0,0,0-.76,8.42l12.55,18.25L5.19,213.19A6.61,6.61,0,0,0,0,219.66v26.42a6.61,6.61,0,0,0,5.25,6.47L27,257.12,14.41,275.37a6.6,6.6,0,0,0,.77,8.42L35,303.61a6.62,6.62,0,0,0,8.43.76l18.25-12.58,4.57,21.71a6.61,6.61,0,0,0,6.46,5.29H99.12a6.61,6.61,0,0,0,6.47-5.25l4.57-21.71,18.25,12.55a6.61,6.61,0,0,0,8.42-.77l10.26-10.29v18.83A26.32,26.32,0,0,0,160.3,334.9v36.71A26.42,26.42,0,0,0,186.72,398h26.43a26.43,26.43,0,0,0,26.43-26.42V334.9a26.34,26.34,0,0,0,13.21-22.75V286a32.37,32.37,0,0,1,15.28-27,126.15,126.15,0,0,0,15.55-11.89l-8.81-9.84a113.11,113.11,0,0,1-13.92,10.64A45.48,45.48,0,0,0,239.58,286v26.15a13.21,13.21,0,0,1-13.22,13.21H173.51a13.2,13.2,0,0,1-13.21-13.21v-26.7a44.45,44.45,0,0,0-21-37.29A112,112,0,0,1,198.52,41.38a6.93,6.93,0,0,0-.26.72,6.6,6.6,0,0,0,1.26,4.9l15.57,20.76a6.49,6.49,0,0,1,.4,7.34,6.56,6.56,0,0,1-6.61,3.17l-25.7-3.67a6.59,6.59,0,0,0-7.47,5.6h0l-5.6,39.23a6.6,6.6,0,0,0,5.6,7.48h0l25.7,3.68a6.61,6.61,0,0,1,3,11.82L183.67,158a6.61,6.61,0,0,0-1.32,9.25L206.13,199a6.61,6.61,0,0,0,9.25,1.32l20.77-15.57a6.61,6.61,0,0,1,10.5,6.22L243,216.62a6.62,6.62,0,0,0,5.61,7.48h0l39.24,5.61a7.26,7.26,0,0,0,.93.06,6.62,6.62,0,0,0,6.55-5.67L299,198.4a6.61,6.61,0,0,1,11.83-3l15.58,20.76a6.61,6.61,0,0,0,9.25,1.32l31.71-23.78a6.61,6.61,0,0,0,1.32-9.25l-15.57-20.77a6.49,6.49,0,0,1-.4-7.33,6.42,6.42,0,0,1,6.61-3.17l25.7,3.67a6.61,6.61,0,0,0,7.48-5.6h0l5.6-39.25A6.61,6.61,0,0,0,392.48,104.49Zm-219,234.08h52.85v13.22H173.51Zm0,26.43h52.85v6.61a13.21,13.21,0,0,1-13.21,13.21H186.72a13.22,13.22,0,0,1-13.21-13.21ZM120.92,251.07a123.35,123.35,0,0,0,11.29,8.23,32.23,32.23,0,0,1,13.31,16.9l-14.17,14.15-13.72-9.46a13.21,13.21,0,0,0-20.43,8.16l-3.46,16.49H78l-3.47-16.47a13.2,13.2,0,0,0-20.42-8.16l-13.73,9.44-12-12,9.46-13.72a13.21,13.21,0,0,0-8.16-20.43l-16.47-3.47V225l16.47-3.47a13.2,13.2,0,0,0,8.16-20.39l-9.46-13.75,12-12,13.73,9.46a13.2,13.2,0,0,0,20.42-8.16l1.16-5.5A125.76,125.76,0,0,0,81,193.6a39.64,39.64,0,1,0,40,57.47Zm-10.26-9.31a26.39,26.39,0,1,1-24.78-35.32h.25A125.28,125.28,0,0,0,110.66,241.76Zm269.63-99-19.16-2.74a19.81,19.81,0,0,0-18.65,31.51L354.09,187,332.94,202.9l-11.61-15.48a19.82,19.82,0,0,0-35.48,9.09l-2.67,19.18L257,212l2.74-19.15a19.82,19.82,0,0,0-31.51-18.67l-15.48,11.61L196.91,164.6,212.38,153a19.82,19.82,0,0,0-9.08-35.48l-19.16-2.74,3.74-26.15L207,91.35A19.81,19.81,0,0,0,225.7,59.84L214.06,44.35,235.2,28.49,246.81,44a19.82,19.82,0,0,0,35.48-9.08L285,15.73l26.16,3.73-2.74,19.16A19.82,19.82,0,0,0,340,57.28l15.48-11.61,15.86,21.14L355.81,78.43a19.81,19.81,0,0,0,9.08,35.47l19.16,2.74Z"/><path class="cls-1" d="M284.08,62.85a52.85,52.85,0,1,0,52.85,52.85A52.85,52.85,0,0,0,284.08,62.85Zm0,92.49a39.64,39.64,0,1,1,39.64-39.64A39.64,39.64,0,0,1,284.08,155.34Z"/><rect class="cls-1" x="193.33" y="292.33" width="13.21" height="19.82"/><path class="cls-1" d="M171,227.45A79.28,79.28,0,0,1,157.66,86.51l-7.07-11.18a92.5,92.5,0,0,0,15.65,164.41,42.17,42.17,0,0,1,27.09,39.38h13.21A55.27,55.27,0,0,0,171,227.45Z"/><rect class="cls-1" x="325.46" y="246.08" width="46.25" height="13.21"/><rect class="cls-1" x="332.07" y="276.43" width="13.21" height="51.6" transform="translate(-110.31 368.98) rotate(-50.2)"/><rect class="cls-1" x="285.82" y="298.94" width="13.21" height="46.25"/><rect class="cls-1" x="7.53" y="107.34" width="54.47" height="13.21" transform="translate(-26.6 11.83) rotate(-14.03)"/><rect class="cls-1" x="38.08" y="29.39" width="13.21" height="56.83" transform="translate(-28.33 60.56) rotate(-54.46)"/><rect class="cls-1" x="80.87" y="0.79" width="13.21" height="54.55" transform="translate(-4.22 22.54) rotate(-14.34)"/></g></g></svg>