<svg xmlns="http://www.w3.org/2000/svg" viewBox="0 0 358.3 398.15"><defs><style>.cls-1{fill:#333;}</style></defs><g id="Layer_2" data-name="Layer 2"><g id="Layer_1-2" data-name="Layer 1"><path class="cls-1" d="M355.44,53.52l-17-15,17-15a8.4,8.4,0,0,0-5.55-14.7h-70.4v-3a5.84,5.84,0,1,0-11.67,0V84.53l-47.93,26a18.32,18.32,0,0,0-1.89-6.13l-6.76-13.19a18.45,18.45,0,0,0-24.81-8l-5.22,2.67a18.43,18.43,0,0,0-8,24.82L180,123.92a18.43,18.43,0,0,0,6.65,7.22c-3.59,4.82-5.29,10.76-7,16.93l-1.26,4.45a5.83,5.83,0,1,0,11.23,3.17l1.26-4.44c2.56-9,4.13-13.85,9.13-16.57l9-4.86,1.11-.57c.37-.19.71-.4,1.06-.61L274.94,94a24.74,24.74,0,0,1-11.78,19.83L221.61,139l-.14.08L208.54,147a5.84,5.84,0,0,0,5.58,10.24l-9.82,29.66-7.17,2.94-19.5,8,5.62-19.87A5.84,5.84,0,0,0,172,174.74l-8.88,31.4a5.53,5.53,0,0,0-.21,1.27L160.6,250.1c-.07,1.63.28,4.7-.47,6.29l-25.81,54.3H115.57a19.94,19.94,0,0,0-19.93,19.92v16.84a19.74,19.74,0,0,0-8.25-1.79H39.77a19.94,19.94,0,0,0-19.93,19.92v20.9h-14a5.84,5.84,0,1,0,0,11.67H349.89a5.84,5.84,0,0,0,0-11.67H334.71V236.07a19.94,19.94,0,0,0-19.92-19.92h-35.3V114.35a36.41,36.41,0,0,0,5.86-31.19,5.83,5.83,0,0,0-5.86-4.28V68.22h70.4a8.4,8.4,0,0,0,5.55-14.7ZM183.17,100.25a6.66,6.66,0,0,1,3.35-4l5.23-2.67a6.63,6.63,0,0,1,3.07-.75,6.8,6.8,0,0,1,6,3.68l6.75,13.19a6.77,6.77,0,0,1-2.25,8.7l-1.9,1-4,2a6.76,6.76,0,0,1-9.11-2.94l-6.76-13.18A6.71,6.71,0,0,1,183.17,100.25ZM171.44,312.48a19.93,19.93,0,0,0-6.4-1.71l6.4-8.5Zm27.71-47c2.81-3.36,3.58-7.29,4.21-10.45.15-.76,3-16.48,3-16.48s2.73,1.69,3,1.81a.63.63,0,0,1,.36.52l3.18,32.26H193.38Zm34.51-32.2-4.93,39.84h-4.07l-3.28-33.39a12.29,12.29,0,0,0-6.88-9.86l-5.86-3.72,3.9-21.67S229,224,229.4,224.52C232.81,229,234,230.73,233.66,233.26Zm-63,28.24a31.89,31.89,0,0,0,1.63-10.84l2.12-38.93,27-11.06-4.91,27.18c0,.07,0,.15,0,.22l-4,22.47c-.53,2.33-1,5.86-2.45,7.77l-39.43,52.38h-3.25ZM31.52,365.57a8.26,8.26,0,0,1,8.25-8.24H87.39a8.26,8.26,0,0,1,8.26,8.24v20.91H31.52Zm75.79,0v-35a8.27,8.27,0,0,1,8.26-8.25h47.62a8.26,8.26,0,0,1,8.25,8.25v55.87H107.32V365.57ZM323,236.07V386.48H258.91v-35a5.84,5.84,0,1,0-11.67,0v35H183.11V293a8.26,8.26,0,0,1,8.25-8.25H239a8.26,8.26,0,0,1,8.25,8.25v29.25a5.84,5.84,0,1,0,11.67,0V236.07a8.26,8.26,0,0,1,8.25-8.25h47.63A8.26,8.26,0,0,1,323,236.07Zm-55.88-19.92a19.94,19.94,0,0,0-19.92,19.92v38.85a19.89,19.89,0,0,0-6.76-1.74l4.76-38.49c.93-7.5-2.89-12.47-6.59-17.29-.4-.51-23.08-27.44-23.08-27.44l13.92-42.07,38.33-23.28v91.54Zm12.33-159.6v-36h61.73L327.93,32.24a8.4,8.4,0,0,0,0,12.61l13.29,11.7Z"/></g></g></svg>