<svg xmlns="http://www.w3.org/2000/svg" viewBox="0 0 572 392"><defs><style>.cls-1{fill:#333;}</style></defs><g id="Layer_2" data-name="Layer 2"><g id="Layer_4" data-name="Layer 4"><path class="cls-1" d="M562,56H456V10A10,10,0,0,0,446,0H361a10,10,0,0,0,0,20h75V372H376V276a10,10,0,0,0-10-10H206a10,10,0,0,0-10,10v96H136V20H271a10,10,0,0,0,0-20H126a10,10,0,0,0-10,10V56H10A10,10,0,0,0,0,66V382a10,10,0,0,0,10,10H562a10,10,0,0,0,10-10V66A10,10,0,0,0,562,56ZM20,126H76v20H20Zm0,40H76v20H20Zm0,40H76v20H20ZM56,372H20V286H56Zm60,0H76V276a10,10,0,0,0-10-10H20V246H86a10,10,0,0,0,10-10V116a10,10,0,0,0-10-10H20V76h96Zm240,0H216V286H356Zm196,0H516V286h36Zm0-146H496V206h56Zm0-40H496V166h56Zm0-40H496V126h56Zm0-40H486a10,10,0,0,0-10,10V236a10,10,0,0,0,10,10h66v20H506a10,10,0,0,0-10,10v96H456V76h96Z"/><circle class="cls-1" cx="316" cy="10" r="10"/><path class="cls-1" d="M405,55.6H165a10,10,0,0,0-10,10v39.72a9.82,9.82,0,0,0-.06,1.09v120a10,10,0,0,0,10,10H405a10,10,0,0,0,10-10V186.69a9.82,9.82,0,0,0,.06-1.09V65.6A10,10,0,0,0,405,55.6ZM235,216.41H175v-20h60ZM235,175.6H235v.81H175v-20H175v-.81h60Zm0-40H235v.81H175v-20H175v-.81h60Zm0-40H175v-20h60ZM315,216.41H255v-20h60ZM315,175.6H315v.81H255v-20H255v-.81h60Zm0-40H315v.81H255v-20H255v-.81h60Zm0-40H255v-20h60ZM395,216.41H335v-20h60ZM395,175.6H395v.81H335v-20H335v-.81h60Zm0-40H395v.81H335v-20H335v-.81h60Zm0-40H335v-20h60Z"/></g></g></svg>