<svg xmlns="http://www.w3.org/2000/svg" viewBox="0 0 398.15 398.15"><defs><style>.cls-1{fill:#333;}</style></defs><g id="Layer_2" data-name="Layer 2"><g id="Layer_1-2" data-name="Layer 1"><path class="cls-1" d="M245.73,238a46.66,46.66,0,1,0-46.66,46.66A46.71,46.71,0,0,0,245.73,238Zm-46.66,31.11A31.11,31.11,0,1,1,230.18,238,31.14,31.14,0,0,1,199.07,269.06Z"/><path class="cls-1" d="M118.2,238a46.66,46.66,0,1,0-46.66,46.66A46.71,46.71,0,0,0,118.2,238ZM71.54,269.06A31.11,31.11,0,1,1,102.65,238,31.14,31.14,0,0,1,71.54,269.06Z"/><path class="cls-1" d="M373.26,238a46.66,46.66,0,1,0-46.66,46.66A46.71,46.71,0,0,0,373.26,238ZM326.6,269.06A31.11,31.11,0,1,1,357.71,238,31.14,31.14,0,0,1,326.6,269.06Z"/><path class="cls-1" d="M326.6,284.61a72.4,72.4,0,0,0-63.76,38.47,72.08,72.08,0,0,0-127.53,0,72.4,72.4,0,0,0-63.77-38.47C32.77,284.61,0,316,0,354.6v35.77a7.78,7.78,0,0,0,7.78,7.78H390.37a7.79,7.79,0,0,0,7.78-7.78V354.6C398.15,316,365.37,284.61,326.6,284.61ZM199.07,300.16c30.35,0,56,24.93,56,54.44v28h-112v-28C143.08,325.09,168.72,300.16,199.07,300.16ZM15.55,354.6c0-29.51,25.64-54.44,56-54.44s56,24.93,56,54.44v28h-112Zm367,28h-112v-28c0-29.51,25.64-54.44,56-54.44s56,24.93,56,54.44Z"/><path class="cls-1" d="M199.07,46.66A23.33,23.33,0,1,0,222.4,70,23.36,23.36,0,0,0,199.07,46.66Zm0,31.1A7.78,7.78,0,1,1,206.85,70,7.78,7.78,0,0,1,199.07,77.76Z"/><path class="cls-1" d="M113.53,70a23.33,23.33,0,1,0,23.33-23.33A23.36,23.36,0,0,0,113.53,70Zm31.11,0a7.78,7.78,0,1,1-7.78-7.78A7.79,7.79,0,0,1,144.64,70Z"/><path class="cls-1" d="M284.61,70a23.33,23.33,0,1,0-23.33,23.33A23.35,23.35,0,0,0,284.61,70Zm-31.1,0a7.78,7.78,0,1,1,7.77,7.77A7.79,7.79,0,0,1,253.51,70Z"/><circle class="cls-1" cx="199.07" cy="7.78" r="7.78"/><path class="cls-1" d="M207.49,129.1l-8.42,19.36-8.42-19.36a7.77,7.77,0,0,0-7.13-4.68H105.76a54.44,54.44,0,1,1,0-108.87h58.32a7.78,7.78,0,1,0,0-15.55H105.76a70,70,0,1,0,0,140h72.66l13.52,31.1a7.78,7.78,0,0,0,14.26,0L219.72,140h72.67a70,70,0,0,0,0-140H234.07a7.78,7.78,0,1,0,0,15.55h58.32a54.44,54.44,0,0,1,0,108.87H214.63a7.79,7.79,0,0,0-7.14,4.68Z"/></g></g></svg>