<svg xmlns="http://www.w3.org/2000/svg" viewBox="0 0 572 572"><defs><style>.cls-1{fill:#333;}</style></defs><g id="Layer_2" data-name="Layer 2"><g id="Layer_4" data-name="Layer 4"><path class="cls-1" d="M547.51,490.85a56.62,56.62,0,0,0-87.2-47.69l-39.43-39.43a179.29,179.29,0,0,0,43.83-105.61H482.6a45.53,45.53,0,1,0,0-24.26H464.7a179.18,179.18,0,0,0-43.82-105.62l39.43-39.42a56,56,0,0,0,30.54,9,56.66,56.66,0,1,0-56.66-56.66,56.11,56.11,0,0,0,9,30.54l-39.42,39.43A179.14,179.14,0,0,0,298.13,107.3V89.4a45.52,45.52,0,1,0-24.26,0v17.89a179.31,179.31,0,0,0-105.62,43.82l-39.42-39.42a56.08,56.08,0,0,0,9-30.54A56.66,56.66,0,1,0,27.39,99.1a12.13,12.13,0,0,0,23-7.67,32.42,32.42,0,1,1,18.9,19.89,12.13,12.13,0,1,0-8.87,22.57,56.59,56.59,0,0,0,51.27-5l39.42,39.41A179.36,179.36,0,0,0,107.3,273.87H89.4a45.51,45.51,0,1,0,0,24.25H107.3a179.25,179.25,0,0,0,43.82,105.6l-39.43,39.43A56.63,56.63,0,1,0,81.15,547.5a56.71,56.71,0,0,0,56.66-56.66,56.1,56.1,0,0,0-9-30.54l39.42-39.42A179.28,179.28,0,0,0,273.87,464.7v17.89a45.54,45.54,0,1,0,24.25,0V464.7a179.28,179.28,0,0,0,105.61-43.82l39.42,39.42a56.61,56.61,0,0,0,16,77.54,12.12,12.12,0,0,0,13.56-20.1,32.4,32.4,0,1,1,27,4.3,12.13,12.13,0,0,0,6.63,23.33A56.88,56.88,0,0,0,547.51,490.85ZM518.34,266.33a21.39,21.39,0,1,1-6.89,4.63A21.39,21.39,0,0,1,518.34,266.33ZM286,66.8a21.32,21.32,0,1,1,15-6.25A21.17,21.17,0,0,1,286,66.8ZM45.53,307.28a21.32,21.32,0,1,1,15-6.25A21.3,21.3,0,0,1,45.53,307.28ZM307.28,526.47a21.17,21.17,0,1,1-1.61-8.13A21.14,21.14,0,0,1,307.28,526.47ZM458.45,81.14a32.45,32.45,0,1,1,9.5,22.91A32.15,32.15,0,0,1,458.45,81.14ZM113.56,490.85a32.39,32.39,0,1,1-32.41-32.41,32.45,32.45,0,0,1,32.41,32.41Zm172.44-50A155.06,155.06,0,0,1,131.13,286c0-85.4,69.47-154.87,154.87-154.87A155,155,0,0,1,440.87,286C440.87,371.4,371.4,440.87,286,440.87Z"/><path class="cls-1" d="M356.33,236.6A76.32,76.32,0,0,0,284.82,190c-40.62.58-74.3,33.9-75.09,74.27a75.77,75.77,0,0,0,30.88,62.38c6.21,4.59,9.92,12.5,9.92,21.17v21.57c0,15.12,9.89,22,19.07,22h32.67a19.09,19.09,0,0,0,19.06-19.08V347.83c0-8.66,3.86-16.66,10.23-21.4a75.65,75.65,0,0,0,24.77-89.83Zm-32.07-9.1a53.7,53.7,0,0,1,10.35,62.37,54.17,54.17,0,0,1-16.08,19,47.31,47.31,0,0,0-17.83,28H271.2a46.53,46.53,0,0,0-17.64-27.85,53.87,53.87,0,0,1-22-44.37c.52-28.26,25-52.47,53.5-52.87h.86A54.22,54.22,0,0,1,324.26,227.5ZM299.51,358.74v10.84l-27.14.25c0-.14,0-.3,0-.46V358.74Z"/></g></g></svg>