<svg xmlns="http://www.w3.org/2000/svg" viewBox="0 0 572 572"><defs><style>.cls-1{fill:#333;}</style></defs><g id="Layer_2" data-name="Layer 2"><g id="Layer_4" data-name="Layer 4"><path class="cls-1" d="M122.7,554.36l-16.82-23.69A11.17,11.17,0,1,0,87.67,543.6l16.81,23.69a11.17,11.17,0,1,0,18.22-12.93Z"/><path class="cls-1" d="M251.6,558.53l-18.31-87.24A164.53,164.53,0,0,0,163.71,368l-39.08-26.27a39.31,39.31,0,0,0-49.83,5.08V212.2A37.4,37.4,0,0,0,14,183,37.21,37.21,0,0,0,0,212.2V385.42a108.17,108.17,0,0,0,20.08,63L40,476.46a11.17,11.17,0,0,0,18.22-12.94L38.3,435.46a86,86,0,0,1-16-50V212.2a15.06,15.06,0,1,1,30.11,0V349.63A78,78,0,0,0,72.59,402c.55.67,1.13,1.33,1.73,2,7.42,7.86,16.14,17.12,24.36,25.85l11.5,12.24.11.11,17.25,18.36a11.17,11.17,0,0,0,16.29-15.3c-.21-.21-13.28-14.14-28.22-30L90,388l-.19-.21a18.84,18.84,0,0,1,.36-24.7,16.88,16.88,0,0,1,22-2.81l39.08,26.28a142.26,142.26,0,0,1,60.18,89.33l18.31,87.24A11.17,11.17,0,0,0,240.65,572a11.47,11.47,0,0,0,2.31-.24A11.19,11.19,0,0,0,251.6,558.53Z"/><path class="cls-1" d="M82.77,498.11l-.07-.1a11.17,11.17,0,1,0-18.19,13l.07.1a11.17,11.17,0,0,0,18.19-13Z"/><path class="cls-1" d="M558,183A37.4,37.4,0,0,0,497.2,212.2V346.81a39.31,39.31,0,0,0-49.83-5.08L408.29,368a164.53,164.53,0,0,0-69.58,103.29L320.4,558.53A11.18,11.18,0,0,0,329,571.76a11.4,11.4,0,0,0,2.31.24,11.18,11.18,0,0,0,10.92-8.88l18.3-87.24a142.27,142.27,0,0,1,60.18-89.33l39.08-26.28a16.89,16.89,0,0,1,22,2.81,18.85,18.85,0,0,1,.39,24.68c-.08.07-.14.15-.22.23l-53.83,57.28a11.17,11.17,0,0,0,16.29,15.3c.15-.16,45.8-48.7,53.22-56.56.6-.64,1.18-1.3,1.73-2a78,78,0,0,0,20.13-52.41V212.2a15.06,15.06,0,0,1,30.12,0V385.42a86,86,0,0,1-16,50l-84.4,118.9a11.17,11.17,0,1,0,18.21,12.93L551.92,448.4a108.22,108.22,0,0,0,20.08-63V212.2A37.21,37.21,0,0,0,558,183Z"/><path class="cls-1" d="M427.5,214.12l-19.88-4.75v-3.56a50,50,0,0,0,21.39-41V139a50,50,0,0,0-82.44-38,65.23,65.23,0,0,0-120.9.09A50,50,0,0,0,143.13,139v25.84a50,50,0,0,0,21.38,41v3.56l-19.87,4.75a52.34,52.34,0,0,0-40.31,51.07v20.86a11.18,11.18,0,0,0,11.17,11.17h51.34c-.08,1.36-.13,2.72-.13,4.09v40.17a11.18,11.18,0,0,0,11.17,11.18H245a11.18,11.18,0,1,0,0-22.35H233.49V307.23a11.17,11.17,0,1,0-22.34,0v23.08h-22.1v-29a46.26,46.26,0,0,1,35.59-45.12l30.66-7.34,20.51,46.67A11.18,11.18,0,0,0,286,302.2h0a11.18,11.18,0,0,0,10.23-6.68l20.49-46.6,30.56,7.3a46.24,46.24,0,0,1,35.62,45.13v29H360.85V307.23a11.18,11.18,0,1,0-22.35,0v23.08H325.84a11.18,11.18,0,0,0,0,22.35h68.28a11.17,11.17,0,0,0,11.17-11.17V301.35c0-1.39-.06-2.76-.14-4.13h51.48a11.18,11.18,0,0,0,11.18-11.17V265.19A52.34,52.34,0,0,0,427.5,214.12ZM379,111.34a27.7,27.7,0,0,1,27.6,25.83H391.08A81.38,81.38,0,0,1,353.62,128,27.7,27.7,0,0,1,379,111.34Zm-27.66,51.87c0-.55,0-1.09,0-1.64v-9.95a103.7,103.7,0,0,0,39.68,7.9h15.59v5.32a27.66,27.66,0,0,1-55.32,0ZM243.23,125.58h0a42.91,42.91,0,0,1,85.28-6.82L309.7,107.71a11.18,11.18,0,0,0-14.22,2.46,48.13,48.13,0,0,1-37,17.26H243.23v-1.85Zm-50.1-14.24A27.7,27.7,0,0,1,218.52,128a81.38,81.38,0,0,1-37.46,9.13H165.53A27.69,27.69,0,0,1,193.13,111.34Zm-27.66,48.18h15.59a103.91,103.91,0,0,0,39.72-7.91v13.23a27.66,27.66,0,0,1-55.31,0v-5.32Zm54,74.94A68.51,68.51,0,0,0,172,274.88H126.68v-9.69a30.07,30.07,0,0,1,23.15-29.34l28.45-6.8a11.17,11.17,0,0,0,8.58-10.86v-3.76a49.77,49.77,0,0,0,6.27.41,51,51,0,0,0,6.22-.4v3.18c0,.17,0,.34,0,.5a11.21,11.21,0,0,0,9.08,11l16.66,4Zm31.17-17.34a52.35,52.35,0,0,0-8.95-3l-20-4.78v-3.48a50.59,50.59,0,0,0,9.69-8.85,65.74,65.74,0,0,0,19.22,19.27v.86Zm48.52,16.41L286,263.27l-13.1-29.81v-8a65.57,65.57,0,0,0,26.18,0Zm-13-29.05a43,43,0,0,1-42.91-42.91v-11.8H258.5A70.34,70.34,0,0,0,306,131.43L329,145v18.24A43,43,0,0,1,286.14,204.48Zm35.32,12.68v-.76a65.7,65.7,0,0,0,19.38-19.31,50.51,50.51,0,0,0,9.6,8.75v3.48l-20,4.78A52.35,52.35,0,0,0,321.46,217.16Zm124,57.72H400a68.49,68.49,0,0,0-47.5-40.4l-5.61-1.34,16.75-4a11.19,11.19,0,0,0,9.13-11v-3.69a51,51,0,0,0,6.22.4,50,50,0,0,0,6.27-.41v3.76a11.17,11.17,0,0,0,8.57,10.86l28.46,6.8a30.07,30.07,0,0,1,23.15,29.34v9.69Z"/><path class="cls-1" d="M293.9,333.58a11.19,11.19,0,1,0,3.27,7.91A11.26,11.26,0,0,0,293.9,333.58Z"/><path class="cls-1" d="M286,0a11.17,11.17,0,0,0-11.17,11.17V27.89a11.17,11.17,0,0,0,22.34,0V11.17A11.17,11.17,0,0,0,286,0Z"/><path class="cls-1" d="M244.84,36.44,233.12,24.73a11.17,11.17,0,0,0-15.79,15.81l11.72,11.71a11.17,11.17,0,1,0,15.79-15.81Z"/><path class="cls-1" d="M354.39,25a11.16,11.16,0,0,0-15.79,0L327,36.67a11.17,11.17,0,1,0,15.8,15.79L354.4,40.82A11.17,11.17,0,0,0,354.39,25Z"/></g></g></svg>