<svg xmlns="http://www.w3.org/2000/svg" viewBox="0 0 384.76 402.26"><defs><style>.cls-1{fill:#333;}</style></defs><g id="Layer_2" data-name="Layer 2"><g id="Layer_1-2" data-name="Layer 1"><path class="cls-1" d="M282.31,368.71a7,7,0,1,1,7-7A7,7,0,0,1,282.31,368.71Z"/><path class="cls-1" d="M202.52,402.26A118.78,118.78,0,0,1,88.19,251.17l.18-.63H43.51A43.47,43.47,0,0,1,12.89,238a42.47,42.47,0,0,1,0-60.95,43.37,43.37,0,0,1,23.46-12l.41-.07v-1a57.61,57.61,0,0,1,57.55-57.55,57.45,57.45,0,0,1,49.3,28l.26.44.43-.27a43,43,0,0,1,50.45,3.86l.82.7V96.44A15.43,15.43,0,0,0,180.15,81,74.16,74.16,0,0,1,106.08,7a7,7,0,0,1,7-6.95h22.37a74.58,74.58,0,0,1,66.65,41.8l.45.92.45-.92A74.63,74.63,0,0,1,269.64,0H292a7,7,0,0,1,7,7A74.16,74.16,0,0,1,224.89,81a15.43,15.43,0,0,0-15.41,15.41v68.41l.47,0A120.7,120.7,0,0,1,226.17,167l.21,0a118.91,118.91,0,0,1,85.34,69.56l.21.49.47-.24a32.07,32.07,0,0,1,45.85,22.34l.07.33.32.06a32.43,32.43,0,0,1,16.52,8.75,31.69,31.69,0,0,1,0,45.44,32.41,32.41,0,0,1-22.81,9.35H314.51l-.12.33a116.24,116.24,0,0,1-6.22,14.31,6.92,6.92,0,0,1-6.18,3.77,7,7,0,0,1-6.62-4.84,6.91,6.91,0,0,1,.44-5.31c1.23-2.39,2.42-4.94,3.53-7.57a102.08,102.08,0,0,0,4.77-14.13c.23-.9.45-1.81.66-2.72a104.69,104.69,0,0,0,2.63-22.24v-.42l-27.57-5.06a7,7,0,0,1-5.69-6.85,9.2,9.2,0,0,0-9.19-9.18,23.23,23.23,0,0,1-17.25-7.71,23,23,0,0,1-5.91-15.39v-9.46q0-.78.06-1.56a23.41,23.41,0,0,1,4.82-12.55,21.83,21.83,0,0,1,1.95-2.22c.68-.68.73-.71,5.05-3.2,2.74-1.58,7.19-4.15,14.58-8.48l.62-.37-.56-.45A104.5,104.5,0,0,0,228,181.68l-.3-.07-.2.24c-1,1.13-2.41,2.84-4,4.64-14.7,16.71-33.25,34.23-41.59,35.7l-9.6,1.69a9.13,9.13,0,0,0-5.94,3.78c-2.33,3.34-1.66,6.46-1.12,9l0,.26a17.19,17.19,0,0,1,.36,2.17c.5,2,1.4,5.62-1.69,8.49a7,7,0,0,1-4.73,1.85A6.87,6.87,0,0,1,157,249a6.48,6.48,0,0,1-3.79-3.12l-.4-.72-.45.69a20.07,20.07,0,0,0-2.38,5,18.31,18.31,0,0,0-.89,6.25c.2,6,3.45,11.44,9.16,15.22l.16.1.21.12.23-.09a36.57,36.57,0,0,1,13.63-2.64,35.74,35.74,0,0,1,28.95,14.65,22.19,22.19,0,0,0,5.39,5.16,21.94,21.94,0,0,0,12.43,3.82c.66,0,1.33,0,2-.09s1.33-.15,1.9-.25l14-2.47a7.09,7.09,0,0,1,1.22-.1,6.92,6.92,0,0,1,6.83,5.75L248,312.21a39.1,39.1,0,0,1-6.65,29.52c-5.61,7.91-11.32,12.89-16.36,17.28-7.67,6.68-12.73,11.09-14.52,23.14a7,7,0,0,1-3.65,5.14l.25.94a104.75,104.75,0,0,0,32.13-6.53A79.83,79.83,0,0,0,253,375.46l0,0a6.94,6.94,0,0,1,8.63,3.19,6.94,6.94,0,0,1-2.81,9.42A118.85,118.85,0,0,1,202.52,402.26ZM100,261.25a105.38,105.38,0,0,0-2.38,22.2,105,105,0,0,0,102.7,104.87l.23-.95a7,7,0,0,1-2.83-2.52l-7.6-12.07c-2.87-3.83-4.54-4.88-6.16-5.91-4.76-3-7-5.89-8.83-16.07a15.11,15.11,0,0,0-6.28-9.85l-11.16-7.82a6.95,6.95,0,0,1-1.7-9.69l3.91-5.58a15.25,15.25,0,0,0-.25-17.85L148.8,285.38l-38.65-17a23.27,23.27,0,0,1-9.25-7.36l-.65-.88Zm72.4,22.54a22.74,22.74,0,0,0-6,.82l-.7.19,5.13,6.92a29.27,29.27,0,0,1,.83,33.61l-.27.4,5.44,3.82a28.92,28.92,0,0,1,12,18.84,24.24,24.24,0,0,0,1.51,6l.06.11.1.07c.38.27.79.54,1.24.83a32.24,32.24,0,0,1,9.34,8.83l.46.61.37-.66c3.78-6.76,8.94-11.26,13.93-15.61,4.73-4.12,9.55-8.32,14.19-14.86a25,25,0,0,0,4.33-10.54,24.63,24.63,0,0,0-.05-8.52l-1.59-9-7.17,1.26a37,37,0,0,1-6.37.56,36,36,0,0,1-28.94-14.62A22,22,0,0,0,172.41,283.79Zm154.4-37.3a18.88,18.88,0,0,0-10.07,2.9l-.32.2.11.36a118.95,118.95,0,0,1,1.91,59.51l-.14.61h34.05a19,19,0,1,0,0-38h-6.52v-6.53A19,19,0,0,0,326.81,246.49Zm-68.87-21.74-.06.07a9.2,9.2,0,0,0-2.17,5.84v9.46A9.23,9.23,0,0,0,265,249.3a23.2,23.2,0,0,1,22.25,16.86l.09.3L306.55,270l-.09-.68a104.25,104.25,0,0,0-21.91-51.19c-1.53-1.92-3.15-3.81-4.81-5.62l-.27-.29Zm-55.42-46.2a105.24,105.24,0,0,0-91.14,53l-.09.17,0,.19a22.32,22.32,0,0,1,.56,4.6,23.45,23.45,0,0,1-1.25,8.36,8.17,8.17,0,0,0,.48,6.36,9.23,9.23,0,0,0,4.62,4.41l20.47,9-.23-1a30.72,30.72,0,0,1-.8-6.08,31.82,31.82,0,0,1,.45-6.48,34.38,34.38,0,0,1,6.06-14.3,35.9,35.9,0,0,1,7.42-7.56,9.63,9.63,0,0,1,1.95-1.16l.23-.1.05-.25a23.22,23.22,0,0,1,18.51-17.58l9.36-1.64c4.27-1.63,18.28-13.85,31.7-28.81l.75-.83-1.1,0h-.18C207.75,178.66,205.1,178.55,202.52,178.55Zm-159-.57c-16.54,0-30,13.24-30,29.52S27,237,43.51,237H93.16l.13-.3A118.3,118.3,0,0,1,195.1,164.88l.47,0v-.66a29.49,29.49,0,0,0-49.35-14l-7.27,7.14-3.75-9.48A44,44,0,0,0,50.27,164a40.58,40.58,0,0,0,.56,5.57L52.05,178ZM269.64,13.9a60.19,60.19,0,0,0-60,56.63l-.05.92.8-.46a29.18,29.18,0,0,1,14.55-3.88,60.24,60.24,0,0,0,59.69-52.65l.07-.56Zm-149.17.57a60.23,60.23,0,0,0,59.68,52.64A29.26,29.26,0,0,1,194.72,71l.8.46-.06-.92a60.18,60.18,0,0,0-60-56.62h-15Z"/></g></g></svg>