<svg id="Blog_1" data-name="Blog 1" xmlns="http://www.w3.org/2000/svg" viewBox="0 0 1079.7 716.97"><defs><style>.cls-1{fill:#cdebfc;}.cls-2{fill:#710600;}.cls-3{fill:#fff;}.cls-4{fill:#333;}.cls-5{fill:#c1272d;}.cls-6{fill:#754c24;}.cls-7{fill:#f15a24;}.cls-8{fill:#0071bc;}.cls-9{fill:#e6e6e6;}.cls-10{fill:#00a99d;}.cls-11{fill:#c69c6d;}.cls-12{fill:#ddf5ff;}.cls-13{fill:#4d4d4d;}.cls-14{fill:#67a99d;}.cls-15{fill:#e8be52;}.cls-16{fill:#f4c4b2;}.cls-17{fill:#ffbca2;}.cls-18{fill:#666;opacity:0.3;}.cls-19{fill:#8f375d;}.cls-20{fill:#004b9b;}.cls-21{fill:#008b9d;}.cls-22{fill:none;stroke:#1a1a1a;stroke-miterlimit:10;stroke-width:2px;}.cls-23{fill:#1a1a1a;}.cls-24{fill:#c7b299;}.cls-25{fill:#ccc;}.cls-26{fill:#22ca73;}.cls-27{fill:#f2f2f2;}.cls-28{fill:#ffb700;}.cls-29{fill:#e9e3e0;}</style></defs><title>Blog</title><path id="Light_Blue_Blob_2" data-name="Light Blue Blob 2" class="cls-1" d="M111.08,934.11h959.19c.49-1.27,214.12-559.73-59.68-503C794.88,475.87,888.43,333.73,647.8,263,489.84,216.5,509.47,360,431.44,369.35c-42.87,5.13-120.83-95.29-236.61-74.66C-59.36,340,293.68,684.26,106.9,795.34,22.85,845.32,110,931.73,111.08,934.11Z" transform="translate(-70.38 -253.72)"/><g id="Bookshelf-_Books" data-name="Bookshelf- Books"><g id="Bookshelf-_Dark_Red" data-name="Bookshelf- Dark Red"><polygon class="cls-2" points="1001.01 102.78 1001.01 674.08 983.18 674.08 983.18 636.93 790.89 636.93 790.89 674.08 773.08 674.08 773.08 102.78 1001.01 102.78"/><rect class="cls-3" x="861.27" y="369.74" width="192.28" height="118.46" transform="translate(1844.45 604.22) rotate(-180)"/><rect class="cls-3" x="861.27" y="499.66" width="192.28" height="118.46" transform="translate(1844.45 864.04) rotate(-180)"/><rect class="cls-3" x="861.27" y="629.57" width="192.28" height="118.46" transform="translate(1844.45 1123.87) rotate(-180)"/><rect class="cls-3" x="861.27" y="759.48" width="192.28" height="118.46" transform="translate(1844.45 1383.69) rotate(-180)"/></g><g id="Books-_Upright_RBO" data-name="Books- Upright RBO"><rect class="cls-4" x="1024.75" y="410.51" width="18.96" height="77.69" transform="translate(1998.09 644.99) rotate(-180)"/><rect class="cls-5" x="1005.79" y="396.06" width="18.96" height="92.14" transform="translate(1960.16 630.54) rotate(-180)"/><rect class="cls-6" x="986.82" y="432.17" width="18.96" height="3.39" transform="translate(1922.23 614) rotate(-180)"/><rect class="cls-6" x="986.82" y="439.64" width="18.96" height="3.39" transform="translate(1922.23 628.94) rotate(-180)"/><circle class="cls-6" cx="963.86" cy="174.76" r="5.38"/><rect class="cls-7" x="986.82" y="417.05" width="18.96" height="71.15" transform="translate(1922.23 651.53) rotate(-180)"/></g><g id="Books-_Upright_BRO" data-name="Books- Upright BRO"><rect class="cls-4" x="799.72" y="286.7" width="18.96" height="77.69"/><rect class="cls-7" x="837.65" y="293.24" width="18.96" height="71.15"/><rect class="cls-5" x="818.68" y="272.25" width="18.96" height="92.14"/><rect class="cls-6" x="837.65" y="308.35" width="18.96" height="3.39"/><rect class="cls-6" x="837.65" y="315.83" width="18.96" height="3.39"/><circle class="cls-6" cx="809.2" cy="304.67" r="5.38"/></g><g id="Books-_Upright_ORB" data-name="Books- Upright ORB"><rect class="cls-4" x="1016.72" y="800.24" width="18.96" height="77.69" transform="translate(1982.02 1424.45) rotate(-180)"/><rect class="cls-7" x="978.79" y="806.78" width="18.96" height="71.15" transform="translate(1906.17 1431) rotate(-180)"/><rect class="cls-5" x="997.75" y="785.8" width="18.96" height="92.14" transform="translate(1944.1 1410.01) rotate(-180)"/><rect class="cls-6" x="978.79" y="821.9" width="18.96" height="3.39" transform="translate(1906.17 1393.46) rotate(-180)"/><rect class="cls-6" x="978.79" y="829.37" width="18.96" height="3.39" transform="translate(1906.17 1408.41) rotate(-180)"/><circle class="cls-6" cx="955.82" cy="564.49" r="5.38"/></g><g id="Books-_Down_BR" data-name="Books- Down BR"><path class="cls-8" d="M951.45,456.79V441.92a1,1,0,0,1,1.1-.84h0a1,1,0,0,0,1.1-.85v-.77a1,1,0,0,0-1.1-.85h-74.4c-3.55,0-6.44,2.21-6.44,4.95v11.59c0,2.74,2.89,5,6.44,5h74.4a1,1,0,0,0,1.1-.85v-.78a1,1,0,0,0-1.1-.84h0A1,1,0,0,1,951.45,456.79Z" transform="translate(-70.38 -253.72)"/><path class="cls-9" d="M952.41,457.63V441.08H906.89c-1.64,0-3,1-3,2.24v12.07c0,1.24,1.33,2.24,3,2.24Z" transform="translate(-70.38 -253.72)"/><rect class="cls-10" x="797.54" y="206.31" width="86.21" height="6.96"/><path class="cls-5" d="M886.57,484.89V470a1,1,0,0,0-1.1-.84h0a1,1,0,0,1-1.09-.84v-.78a1,1,0,0,1,1.09-.84h74.4c3.55,0,6.44,2.21,6.44,4.95v11.58c0,2.74-2.89,4.95-6.44,4.95h-74.4a1,1,0,0,1-1.09-.84v-.78a1,1,0,0,1,1.09-.84h0A1,1,0,0,0,886.57,484.89Z" transform="translate(-70.38 -253.72)"/><path class="cls-9" d="M885.62,485.74V469.18h45.51c1.64,0,3,1,3,2.24V483.5c0,1.23-1.33,2.24-3,2.24Z" transform="translate(-70.38 -253.72)"/></g><g id="Books-_Down_RB" data-name="Books- Down RB"><path class="cls-8" d="M1030.88,599.94v14.87a1,1,0,0,0,1.1.84h0a1,1,0,0,1,1.09.84v.78a1,1,0,0,1-1.09.84H957.57c-3.54,0-6.43-2.21-6.43-4.94V601.58c0-2.74,2.89-5,6.43-5H1032a1,1,0,0,1,1.09.84v.78a1,1,0,0,1-1.09.84h0A1,1,0,0,0,1030.88,599.94Z" transform="translate(-70.38 -253.72)"/><path class="cls-9" d="M1031.83,599.09v16.56H986.32c-1.64,0-3-1-3-2.24V601.33c0-1.23,1.33-2.24,3-2.24Z" transform="translate(-70.38 -253.72)"/><rect class="cls-10" x="876.97" y="336.01" width="86.21" height="6.96"/><path class="cls-5" d="M966,571.83V586.7a1,1,0,0,1-1.09.84h0a1,1,0,0,0-1.1.85v.77a1,1,0,0,0,1.1.85h74.4c3.55,0,6.43-2.21,6.43-5V573.47c0-2.73-2.88-4.94-6.43-4.94H964.9c-.61,0-1.1.37-1.1.84v.78a1,1,0,0,0,1.1.84h0A1,1,0,0,1,966,571.83Z" transform="translate(-70.38 -253.72)"/><path class="cls-9" d="M965,571v16.55h45.51c1.64,0,3-1,3-2.24V573.23c0-1.24-1.33-2.24-3-2.24Z" transform="translate(-70.38 -253.72)"/></g><g id="Books-_Down_RB-2" data-name="Books- Down RB"><path class="cls-8" d="M927.85,729.85v14.87a1,1,0,0,1-1.1.84h0a1,1,0,0,0-1.09.84v.78a1,1,0,0,0,1.09.84h74.41c3.54,0,6.43-2.21,6.43-4.94V731.49c0-2.74-2.89-5-6.43-5H926.75a1,1,0,0,0-1.09.84v.78a1,1,0,0,0,1.09.85h0C927.36,729,927.85,729.38,927.85,729.85Z" transform="translate(-70.38 -253.72)"/><path class="cls-9" d="M926.9,729v16.55h45.51c1.64,0,3-1,3-2.24V731.25c0-1.24-1.33-2.24-3-2.24Z" transform="translate(-70.38 -253.72)"/><rect class="cls-10" x="925.18" y="719.65" width="86.21" height="6.96" transform="translate(1866.19 1192.53) rotate(-180)"/><path class="cls-5" d="M992.74,701.74v14.87a1,1,0,0,0,1.09.85h0c.61,0,1.1.37,1.1.84v.78a1,1,0,0,1-1.1.84h-74.4c-3.55,0-6.43-2.21-6.43-4.95V703.38c0-2.73,2.88-4.94,6.43-4.94h74.4c.61,0,1.1.37,1.1.84v.78a1,1,0,0,1-1.1.84h0A1,1,0,0,0,992.74,701.74Z" transform="translate(-70.38 -253.72)"/><path class="cls-9" d="M993.69,700.9v16.56H948.18c-1.64,0-3-1-3-2.24V703.14c0-1.24,1.33-2.24,3-2.24Z" transform="translate(-70.38 -253.72)"/></g><g id="Books-_Down_BR-2" data-name="Books- Down BR"><path class="cls-8" d="M947.34,846.32V831.45a1,1,0,0,1,1.09-.85h0c.61,0,1.1-.37,1.1-.84V829a1,1,0,0,0-1.1-.84H874c-3.55,0-6.43,2.21-6.43,5v11.58c0,2.74,2.88,5,6.43,5h74.4a1,1,0,0,0,1.1-.84V848c0-.47-.49-.84-1.1-.84h0A1,1,0,0,1,947.34,846.32Z" transform="translate(-70.38 -253.72)"/><path class="cls-9" d="M948.29,847.16V830.6H902.78c-1.64,0-3,1-3,2.24v12.08c0,1.23,1.33,2.24,3,2.24Z" transform="translate(-70.38 -253.72)"/><rect class="cls-10" x="793.42" y="595.83" width="86.21" height="6.96"/><path class="cls-5" d="M882.45,874.42V859.55a1,1,0,0,0-1.1-.84h0a1,1,0,0,1-1.09-.84v-.78a1,1,0,0,1,1.09-.85h74.41c3.54,0,6.43,2.21,6.43,5v11.59c0,2.74-2.89,5-6.43,5H881.35a1,1,0,0,1-1.09-.85v-.77a1,1,0,0,1,1.09-.85h0C882,875.26,882.45,874.89,882.45,874.42Z" transform="translate(-70.38 -253.72)"/><path class="cls-9" d="M881.5,875.26V858.71H927c1.64,0,3,1,3,2.24V873c0,1.24-1.33,2.24-3,2.24Z" transform="translate(-70.38 -253.72)"/></g></g><g id="Curtained_Window" data-name="Curtained Window"><g id="Window-_Wood_Medium" data-name="Window- Wood Medium"><rect class="cls-11" x="366.75" y="292.08" width="219.16" height="42.02" transform="translate(882.28 372.45) rotate(-180)"/><rect class="cls-11" x="366.75" y="578.96" width="219.16" height="42.02" transform="translate(882.28 946.22) rotate(-180)"/><rect class="cls-12" x="371.37" y="309.74" width="209.91" height="290.23" transform="translate(882.28 655.99) rotate(-180)"/><rect class="cls-11" x="469.43" y="402.87" width="13.79" height="120.2" transform="translate(-57.02 685.57) rotate(-90)"/><rect class="cls-11" x="469.43" y="309.74" width="13.79" height="306.46" transform="translate(882.28 672.21) rotate(-180)"/></g><g id="Rod-_Curtain" data-name="Rod- Curtain"><rect class="cls-13" x="333.89" y="273.11" width="284.87" height="12.6" transform="translate(882.28 305.09) rotate(-180)"/><rect class="cls-13" x="594.59" y="259.65" width="11.2" height="39.52" rx="3.81" transform="translate(1130 305.09) rotate(-180)"/><rect class="cls-13" x="349.64" y="259.65" width="11.2" height="39.52" rx="3.81" transform="translate(640.11 305.09) rotate(-180)"/></g><g id="Curtain_Green" data-name="Curtain Green"><path class="cls-14" d="M357.87,666.77c44,0,70.81-95.27,70.81-140.21l13.25-227.39H362.29Z" transform="translate(-70.38 -253.72)"/><path class="cls-14" d="M594.93,666.77c-44,0-70.81-95.27-70.81-140.21L510.88,299.17h79.64Z" transform="translate(-70.38 -253.72)"/></g></g><g id="Rae_Willowsmith_v1" data-name="Rae Willowsmith v1"><path class="cls-15" d="M726,511c-1.74-14.19-.73-32.72,3.92-38.89,2.86-3.8-9.05-26.06-3.19-24.94,6.12,1.14,5.18-11.49-27.2-11.27-15.42.12-36.18,23.3-35.77,34.18.83,21.85,1.22,19.89-6.69,41C651,527.36,728.37,530.43,726,511Z" transform="translate(-70.38 -253.72)"/><path class="cls-16" d="M685.31,499.44a19.43,19.43,0,0,0,3.75,3.92,27.62,27.62,0,0,0,4.45,2.72,52,52,0,0,0,14.18,2.16l-.13-1c-4.55-1-11.1-2.7-14-3.58-1.32-.64-6.5-3.51-8.17-4.54Z" transform="translate(-70.38 -253.72)"/><path class="cls-17" d="M685.34,499.09c1.67,1,6.85,3.9,8.17,4.54,3,.88,9.5,2.55,14,3.58l-2.3-18.81-.35-2.9a12.53,12.53,0,0,1-4.38,3.63,12.18,12.18,0,0,1-2.15.76,10.93,10.93,0,0,1-7.15-.78,16.48,16.48,0,0,1-2.3-1.38,12.2,12.2,0,0,1-2.55-2.79l-.23,2.94Z" transform="translate(-70.38 -253.72)"/><polygon class="cls-16" points="635.4 285.01 697.44 346.72 715.38 337.13 651.9 274.49 635.4 285.01"/><path class="cls-16" d="M682,546l29.85-3.8L708,510.7l-.3-2.46a52,52,0,0,1-14.18-2.16,27.62,27.62,0,0,1-4.45-2.72,19.43,19.43,0,0,1-3.75-3.92l-.15,2.23Z" transform="translate(-70.38 -253.72)"/><path class="cls-16" d="M784.92,495.62c2.92-1.12,7.08,8.48,7.08,8.48s.86-22,4.71-21.05c1.7.4.77,16.05.77,16.05.5-.26,4.17-19.07,6.48-18.77,3.64.47-1.52,20.46-1.14,20.51,0,0,6.46-17.46,8.11-17.06,4.17,1-2.54,18.51-2.23,18.81,0,0,5.41-14.74,7.67-14,4.67,1.53-14,36.12-16.5,35.86l-7.58-1.35C787.35,510.56,782.84,496.42,784.92,495.62Z" transform="translate(-70.38 -253.72)"/><polygon class="cls-16" points="610.64 293.31 548.98 363.12 540.89 348.69 591.67 284.5 610.64 293.31"/><path class="cls-18" d="M685.26,500.27c4.48,4.83,15.09,9.35,22.56,9.06l-.26-2.12c-4.55-1-11.1-2.7-14-3.58-1.32-.64-6.5-3.51-8.17-4.54Z" transform="translate(-70.38 -253.72)"/><path class="cls-16" d="M674.57,473c0,10,4.93,18.35,10.24,25.79,0,.05,4.66,2.79,8.7,4.88,10,5.2,18.27,4.47,18.75,4.42,1.8-.52,7.11-5.92,11.26-13.52,3.23-6,5.76-13.3,5.33-20.73a25.35,25.35,0,0,0-1.42-6.8c-4-11.85-15.9-24.24-28.92-23C684.71,445.29,674.57,457.73,674.57,473Z" transform="translate(-70.38 -253.72)"/><path class="cls-15" d="M678.66,439.54c8.65,3.52-25,17.94-12,14.82,5.18-1.25,50.91,14.89,53.8-4.22C722.48,436.41,670,436,678.66,439.54Z" transform="translate(-70.38 -253.72)"/><path class="cls-16" d="M618.37,601.32l18.86,72.79-13.48,1.07L603.1,617.83c-1.71-5.3,6.22-15.45,11.06-17.1Z" transform="translate(-70.38 -253.72)"/><path class="cls-16" d="M766.24,597.91l25.59-78.4a3,3,0,0,1,2.94-2.08l4.84.12a3,3,0,0,1,2.9,3.56L790.07,588.7a3.58,3.58,0,0,1-.14.54c-2.55,7-9.57,13.16-14.79,12.91l-6.18-.29A3,3,0,0,1,766.24,597.91Z" transform="translate(-70.38 -253.72)"/><polygon class="cls-19" points="620.23 384.88 663.66 394.18 661.38 321.25 597.39 325.27 620.23 384.88"/><path class="cls-20" d="M766.37,929.15l-14.88,2.37s-22.36-105.24-16.84-142.21c5.08-34-17.8-106.65-20.26-78.27-9.66,111.42-47.78,210.39-47.78,210.39l-13.36-10.51s6.24-100.06,16.8-128.11c17-45.15,12.38-68.91,9.32-86.38,0,0-17.79-35.82,10.89-58.95,3.83-3.09,34.5-3.37,43.78-3.37,8.72,0,29.69,148.28,29.1,149Z" transform="translate(-70.38 -253.72)"/><path class="cls-21" d="M746.65,935.32l.87,4.21,4.29,27.67c.44,2.13,47.47,2.5,51.27.85,8.69-3.78-17.82-27.72-34.13-39.24-1.91-1.35-8.85,3.78-19.87-1.24C746.85,926.55,746.27,931.48,746.65,935.32Z" transform="translate(-70.38 -253.72)"/><path class="cls-21" d="M648.24,912.58l-1,4.24L639.72,944c-.49,2.14,40.63,26.24,44.64,26.67,9.17,1-4.28-34-13.88-52.7-1.13-2.19-9.31-1.06-16.93-11.17C652,904.75,649.48,908.91,648.24,912.58Z" transform="translate(-70.38 -253.72)"/><path class="cls-19" d="M658.25,549.85c3.75,32.38,24,57,45.27,55.07s35.43-29.8,31.68-62.18S654.49,517.48,658.25,549.85Z" transform="translate(-70.38 -253.72)"/><ellipse class="cls-16" cx="610.68" cy="225.18" rx="11.61" ry="11.26"/><path class="cls-3" d="M715.13,489.91c.11,2.58-3.06,4.79-7.07,4.94s-7.34-1.82-7.45-4.4C700.55,488.75,715.06,488,715.13,489.91Z" transform="translate(-70.38 -253.72)"/><rect class="cls-22" x="620.96" y="208.95" width="19.21" height="16.21" rx="4.35"/><rect class="cls-22" x="645.83" y="208.95" width="17.04" height="16.21" rx="4.35"/><rect class="cls-23" x="640.21" y="214.9" width="5.83" height="4.32"/><path class="cls-15" d="M711.83,455.45" transform="translate(-70.38 -253.72)"/><path class="cls-16" d="M655.9,671.7c-.39,3.1-10.81,2.22-10.81,2.22S664,685.08,661.41,688c-1.16,1.31-14.51-6.91-14.51-6.91,0,.56,14.83,12.69,13.47,14.59-2.13,3-17.35-11-17.53-10.72,0,0,12.32,14,11.19,15.23-2.87,3.19-15.11-11-15.52-10.88,0,0,10.43,11.75,8.71,13.39-3.56,3.39-25.22-29.38-23.78-31.5l4.77-6C641.59,666.77,656.19,669.49,655.9,671.7Z" transform="translate(-70.38 -253.72)"/><path class="cls-19" d="M651.12,581.55c9,12.14,40.8-49.63,24.45-54.87-12.27-3.93-52.79,41.22-38.56,44.91C645,573.65,644.35,572.41,651.12,581.55Z" transform="translate(-70.38 -253.72)"/><path class="cls-19" d="M752.27,558.49c13.23-3-27.68-37.78-36.07-34-11.55,5.15,15.34,55.73,22,44.1C741.7,562.55,743.16,560.53,752.27,558.49Z" transform="translate(-70.38 -253.72)"/><path class="cls-19" d="M702.55,577.65c9.21,13.61,24,19.92,33.06,14.1s8.92-21.57-.29-35.18S693.34,564,702.55,577.65Z" transform="translate(-70.38 -253.72)"/><path class="cls-21" d="M780.14,458.17h57.58a5.34,5.34,0,0,1,5.34,5.34v47a0,0,0,0,1,0,0H777.4a0,0,0,0,1,0,0V460.91A2.74,2.74,0,0,1,780.14,458.17Z" transform="translate(512.35 -685.51) rotate(45.18)"/><path class="cls-21" d="M807.33,526.53,762,480.94a.61.61,0,0,1,.4-1l6.14-.37,46.28,46.58Z" transform="translate(-70.38 -253.72)"/><path class="cls-21" d="M780.2,435.36h.57a.61.61,0,0,1,.61.61v52.48a0,0,0,0,1,0,0H780a.41.41,0,0,1-.41-.41V436A.61.61,0,0,1,780.2,435.36Z" transform="translate(487.64 -671.03) rotate(45.18)"/><path class="cls-24" d="M802.39,445.29l-33.72,33.5a.18.18,0,0,1-.25-.25L802.14,445a.18.18,0,0,1,.25,0A.17.17,0,0,1,802.39,445.29Z" transform="translate(-70.38 -253.72)"/><path class="cls-24" d="M801.23,445.12l-34.22,34a.18.18,0,0,1-.25-.25l34.22-34a.18.18,0,0,1,.25,0A.17.17,0,0,1,801.23,445.12Z" transform="translate(-70.38 -253.72)"/><path class="cls-24" d="M799.8,445.22l-34.22,34a.18.18,0,0,1-.25-.25l34.22-34a.18.18,0,0,1,.25.25Z" transform="translate(-70.38 -253.72)"/><path class="cls-16" d="M788,486.43c3.09-.48,5.11,9.78,5.11,9.78s5.82,22.35,3.39,21.55l-7.12-2.92C787.22,501.55,785.82,486.77,788,486.43Z" transform="translate(-70.38 -253.72)"/><g id="UTD"><path class="cls-3" d="M691.31,565.11c0-.65,0-1.7.09-2.74,0-.51.07-1,.13-1.51,0-.32.07-.34.39-.31s.85.12,1.28.18l.91.15h.06c.21.07.24.1.23.32,0,.77-.07,1.54-.13,2.31a34.34,34.34,0,0,0-.15,3.93c0,.52,0,1,.08,1.58a3.83,3.83,0,0,0,1,2.42,2,2,0,0,0,1.58.66,2.06,2.06,0,0,0,1.07-.4,4,4,0,0,0,1-1.13,5.83,5.83,0,0,0,.85-2.08c.1-.56.17-1.13.22-1.7a23.56,23.56,0,0,0,.09-2.66c0-1.28,0-2.57,0-3.85,0-.09,0-.13.11-.13l.74,0c.27,0,.53,0,.8,0l.87.08h0c.18,0,.18,0,.19.23,0,.35.06.7.06,1.05,0,1.07,0,2.14,0,3.2,0,.81,0,1.62,0,2.43a15.81,15.81,0,0,1-.2,2.38,14.23,14.23,0,0,1-.44,2.06,6.54,6.54,0,0,1-1.25,2.43,4,4,0,0,1-3.14,1.52c-.41,0-.83,0-1.24,0a4.2,4.2,0,0,1-1.73-.49,5.76,5.76,0,0,1-3-3.65,10.36,10.36,0,0,1-.42-2.34C691.34,567.92,691.33,566.71,691.31,565.11Z" transform="translate(-70.38 -253.72)"/><path class="cls-3" d="M715.69,567.51q-.09-3.13-.05-6.25l0-1.34c0-.06,0-.1.09-.11a2.7,2.7,0,0,1,.28,0,16.14,16.14,0,0,1,2.41.09,7.94,7.94,0,0,1,2.39.71,8.19,8.19,0,0,1,1.52.87,5.15,5.15,0,0,1,1.39,1.65,5.32,5.32,0,0,1,.62,1.74,4.39,4.39,0,0,1,.07.72c0,.65,0,1.31,0,2a8,8,0,0,1-2.95,6,6.93,6.93,0,0,1-1.62,1.05,10.88,10.88,0,0,1-2.22.66,5.07,5.07,0,0,1-.55,0l-.74,0a1.84,1.84,0,0,1-.33,0c-.15,0-.19-.1-.19-.25,0-.87,0-1.74,0-2.61,0-1.28-.06-2.57-.09-3.86Zm2.67,4.79c.18-.09.36-.15.52-.24a4.35,4.35,0,0,0,1.35-1.28,7.53,7.53,0,0,0,1.31-3.85c0-.34,0-.68.05-1a2.49,2.49,0,0,0-.89-2.18A3.32,3.32,0,0,0,719,563l-.7-.07C718.31,566.06,718.35,569.16,718.36,572.3Z" transform="translate(-70.38 -253.72)"/><path class="cls-3" d="M707.82,562.27h-.58c-.76.06-1.52,0-2.29,0H704c-.18,0-.22,0-.24-.22,0-.34,0-.67-.06-1l0-1.31a1.5,1.5,0,0,0,0-.22.18.18,0,0,1,.16-.22.82.82,0,0,1,.22,0l2.19,0,2.74-.08c.86,0,1.72-.06,2.57-.09l2.26-.07.35,0c.06,0,.09,0,.09.1a1.23,1.23,0,0,1,0,.19v2.23a2.9,2.9,0,0,1-.06.41c0,.09-.06.12-.16.12a4.43,4.43,0,0,0-.52,0l-2.82,0h0v.58l0,1.1c0,.6.07,1.2.1,1.81l.06,1.78c0,1.19.08,2.39.12,3.59l.12,2.87c0,.32,0,.65,0,1a2.12,2.12,0,0,1,0,.44.2.2,0,0,1-.2.17,14,14,0,0,1-1.71,0c-.22,0-.43,0-.64-.07l-.19,0a.18.18,0,0,1-.11-.16l-.18-4.32c-.06-1.3-.11-2.6-.15-3.91s-.05-2.6-.07-3.9C707.86,562.81,707.84,562.54,707.82,562.27Z" transform="translate(-70.38 -253.72)"/></g></g><g id="Student_Desk-_Black_Laptop_Red_Chair" data-name="Student Desk- Black Laptop Red Chair"><g id="Table-_Steel" data-name="Table- Steel"><polygon class="cls-25" points="412.3 461.76 412.3 642.4 386.09 642.4 386.09 457.97 412.3 461.76"/><rect class="cls-23" x="382.64" y="641.29" width="33.86" height="7.8"/><rect class="cls-25" x="50.99" y="794.62" width="178.96" height="26.22" transform="translate(877.82 413.53) rotate(90)"/><rect class="cls-23" x="53.54" y="642.37" width="33.86" height="7.8"/><rect class="cls-13" x="32.5" y="445.72" width="406.62" height="19.9"/></g><g id="Laptop-_Black_with_Crane" data-name="Laptop- Black with Crane"><path class="cls-4" d="M218.54,689.7H351.48a7.6,7.6,0,0,0,7.58-8.23l-7.55-90.89a7.6,7.6,0,0,0-7.58-7H211a7.6,7.6,0,0,0-7.57,8.23L211,682.73A7.6,7.6,0,0,0,218.54,689.7Z" transform="translate(-70.38 -253.72)"/><path class="cls-26" d="M228.05,680.93H340.89a5.41,5.41,0,0,0,5.39-5.85l-6.46-77.74a5.42,5.42,0,0,0-5.39-5H221.59a5.41,5.41,0,0,0-5.39,5.85L222.66,676A5.4,5.4,0,0,0,228.05,680.93Z" transform="translate(-70.38 -253.72)"/><rect class="cls-4" x="216.55" y="688.38" width="182.09" height="11.06" rx="2.51" transform="translate(544.82 1134.1) rotate(180)"/><rect class="cls-27" x="361.08" y="687.19" width="8.87" height="1.86" rx="0.32" transform="translate(660.65 1122.53) rotate(-180)"/><rect class="cls-27" x="237.66" y="687.19" width="8.87" height="1.86" rx="0.32" transform="translate(413.82 1122.53) rotate(-180)"/><rect class="cls-27" x="251.38" y="687.19" width="8.87" height="1.86" rx="0.32" transform="translate(441.24 1122.53) rotate(-180)"/><rect class="cls-27" x="265.09" y="687.19" width="8.87" height="1.86" rx="0.32" transform="translate(468.67 1122.53) rotate(-180)"/><rect class="cls-27" x="278.8" y="687.19" width="8.87" height="1.86" rx="0.32" transform="translate(496.1 1122.53) rotate(-180)"/><rect class="cls-27" x="292.52" y="687.19" width="8.87" height="1.86" rx="0.32" transform="translate(523.52 1122.53) rotate(-180)"/><rect class="cls-27" x="306.23" y="687.19" width="8.87" height="1.86" rx="0.32" transform="translate(550.95 1122.53) rotate(-180)"/><rect class="cls-27" x="319.94" y="687.19" width="8.87" height="1.86" rx="0.32" transform="translate(578.37 1122.53) rotate(-180)"/><rect class="cls-27" x="333.65" y="687.19" width="8.87" height="1.86" rx="0.32" transform="translate(605.8 1122.53) rotate(-180)"/><rect class="cls-27" x="347.37" y="687.19" width="8.87" height="1.86" rx="0.32" transform="translate(633.22 1122.53) rotate(-180)"/><rect class="cls-28" x="191.49" y="356.55" width="8.94" height="58.98"/><rect class="cls-28" x="178.78" y="367" width="77.38" height="7.61"/><rect class="cls-28" x="183.31" y="408.71" width="25.31" height="18.24"/><circle class="cls-27" cx="244.03" cy="399.92" r="3.13"/><rect class="cls-27" x="242.73" y="374.61" width="2.67" height="27.43"/><path class="cls-27" d="M311.1,661.85c-2,0-4.09-1.25-4.09-3.1a1.33,1.33,0,0,1,2.66-.09,2.09,2.09,0,0,0,1.91.46c1.41-.34,1.62-2.22,1.62-3.31a1.33,1.33,0,1,1,2.66,0,6.69,6.69,0,0,1-1.43,4.57A4.38,4.38,0,0,1,311.1,661.85Z" transform="translate(-70.38 -253.72)"/></g><g id="Chair-_Rolly" data-name="Chair- Rolly"><rect class="cls-29" x="408.24" y="852.83" width="81.84" height="26.22" transform="translate(1244.72 163.06) rotate(90)"/><polygon class="cls-29" points="476.17 650.59 363.77 639.25 357.52 657.17 469.92 668.51 476.17 650.59"/><polygon class="cls-29" points="399.79 657.17 287.39 668.51 281.14 650.59 393.54 639.25 399.79 657.17"/><rect class="cls-29" x="517.21" y="912.13" width="36.7" height="22.47" transform="translate(1388.55 134.08) rotate(90)"/><rect class="cls-29" x="344.4" y="912.13" width="36.7" height="22.47" transform="translate(1215.74 306.89) rotate(90)"/><circle class="cls-13" cx="466.8" cy="693.07" r="14.38"/><circle class="cls-13" cx="290.85" cy="693.07" r="14.38"/><path class="cls-5" d="M502,690h20.65a0,0,0,0,1,0,0V812.71a12.76,12.76,0,0,1-12.76,12.76H502a0,0,0,0,1,0,0V690A0,0,0,0,1,502,690Z" transform="translate(954.3 1261.7) rotate(-180)"/><path class="cls-5" d="M436.49,739.3h7.89a12.76,12.76,0,0,1,12.76,12.76V891a0,0,0,0,1,0,0H436.49a0,0,0,0,1,0,0V739.3a0,0,0,0,1,0,0Z" transform="translate(-438.71 1008.24) rotate(-90)"/></g></g></svg>