<svg id="Layer_5" data-name="Layer 5" xmlns="http://www.w3.org/2000/svg" viewBox="0 0 510.21 512"><defs><style>.cls-1{fill:#333;}</style></defs><path class="cls-1" d="M500.34,427.42a10.07,10.07,0,0,0,10.07-10.07V372.44a10.07,10.07,0,1,0-20.14,0v44.91a10.07,10.07,0,0,0,10.07,10.07Z" transform="translate(-246.13 -362.36)"/><path class="cls-1" d="M746.52,708.35l-17.8-17.74a33.75,33.75,0,0,0-39.9-5.7l-33.53-33.48,1.64-1.63a35,35,0,0,0,0-49.36A34.61,34.61,0,0,0,639.39,591a35.16,35.16,0,0,0,1.39-9.8A34.87,34.87,0,0,0,613,547a35.16,35.16,0,0,0,1.39-9.8,34.82,34.82,0,0,0-27.74-34.14,34.86,34.86,0,0,0-37.25-44.49L483,446c-10.14-1.92-22.79-3.19-30.78,4.09a19.32,19.32,0,0,0-1.52,1.58A35,35,0,0,0,414,459.76a34.68,34.68,0,0,0-10.2,24.69,35.16,35.16,0,0,0,1.39,9.8,34.9,34.9,0,0,0-27.74,34.12,35.36,35.36,0,0,0,1.39,9.82,34.92,34.92,0,0,0-21.64,53.89,34.9,34.9,0,0,0-13.41,57.74l1.63,1.62-33.53,33.47a33.67,33.67,0,0,0-38.1,6.6L256,709.26a33.64,33.64,0,0,0,0,47.51L278.17,779a10.07,10.07,0,0,0,14.23-14.25l-22.22-22.19a13.5,13.5,0,0,1,0-19L288,705.76a13.49,13.49,0,0,1,16.43-2,9.71,9.71,0,0,0,1.26,1.55,9.89,9.89,0,0,0,2.9,2l102.09,102a9.91,9.91,0,0,0,4.85,4.9,13.47,13.47,0,0,1-.55,18.39l-17.79,17.77a13.52,13.52,0,0,1-19,0l-22.22-22.22a10.07,10.07,0,0,0-14.24,14.24l22.23,22.24a33.73,33.73,0,0,0,47.49,0l17.8-17.78a33.68,33.68,0,0,0,4.72-41.59l37.73-37.69.12-.12c4.32-4.47,16.36-3.63,28-2.82,8.27.57,17.49,1.21,26.5.17L567.57,806a33.64,33.64,0,0,0,5.71,39.87l17.8,17.77a33.65,33.65,0,0,0,47.5,0L746.52,755.86a33.64,33.64,0,0,0,0-47.51ZM479.26,465.8l43.68,8.27-26.15,26.14a63.67,63.67,0,0,1-15.67-11.39c-8.32-8-14.28-17.16-14.82-22.89h0c0-.41-.05-.74-.05-1,1.32-.32,4.82-.67,13,.88ZM428.2,474A14.85,14.85,0,0,1,447,472.23c3.27,13.7,14.95,26.11,20.21,31.14,3.9,3.73,16.4,14.91,29,18a14.78,14.78,0,0,1-22.59,18.88h0L428.2,494.88a14.81,14.81,0,0,1,0-20.87Zm-26.32,44a14.85,14.85,0,0,1,20.93,0l36.57,36.5a14.8,14.8,0,0,1-20.95,20.91h0l-27.75-27.74-.13-.12-8.68-8.68a14.79,14.79,0,0,1,0-20.88ZM375.52,561.9a14.87,14.87,0,0,1,20.85-.07l27.83,27.81a14.73,14.73,0,0,1-10.46,25.16,14.77,14.77,0,0,1-10.48-4.29l-10.09-10.08h0L375.52,582.8a14.8,14.8,0,0,1,0-20.9ZM358,614.68a14.88,14.88,0,0,1,20.95,0L389,624.77a14.78,14.78,0,0,1-21,20.85l-1.26-1.26-.05-.05-.06,0L358,635.57a14.79,14.79,0,0,1,0-20.89ZM563.21,729.14a10.06,10.06,0,0,0-14.24,0l-9,9c-8.52,8.51-23.94,7.44-38.86,6.41-16.2-1.13-33-2.29-43.8,8.84l-37.09,37-92.77-92.63L360.32,665a34.92,34.92,0,0,0,53.16-29.78v-.26h.26a34.83,34.83,0,0,0,34.91-34.87v-.26h.26a34.79,34.79,0,0,0,34.91-35.14h.27a34.93,34.93,0,0,0,29.81-53.1l28.78-28.76a14.67,14.67,0,0,1,7.56-4,8.49,8.49,0,0,0,.88-.14,14.76,14.76,0,0,1,12.54,25l-8.76,8.72-.09.09-10.09,10.07A10.07,10.07,0,0,0,559,536.85l8.8-8.79h0l1.33-1.32a14.84,14.84,0,0,1,20.9,0,14.76,14.76,0,0,1,0,20.87l-8.81,8.84h0l-10.09,10a10.07,10.07,0,1,0,14.22,14.27l10.13-10.1a14.78,14.78,0,0,1,20.92,20.89l-17.57,17.58A10.07,10.07,0,0,0,613,623.42l8.61-8.61.15-.14a14.86,14.86,0,0,1,20.92,0,14.78,14.78,0,0,1,0,20.87l-8.75,8.75h0L620,658.2a10.07,10.07,0,0,0,14.23,14.25l6.8-6.79,32.58,32.54-92.76,92.64-33.23-33.19a39,39,0,0,0,6.61-5.33l9-8.94a10.06,10.06,0,0,0,0-14.24Zm169.08,12.47L624.35,849.42a13.54,13.54,0,0,1-19,0l-17.8-17.77a13.47,13.47,0,0,1,0-19l108-107.81a13.54,13.54,0,0,1,19,0l17.79,17.74a13.51,13.51,0,0,1,0,19Z" transform="translate(-246.13 -362.36)"/><path class="cls-1" d="M366.61,418.93a10.07,10.07,0,1,0,14.23-14.25l-36.7-36.63a10.07,10.07,0,0,0-14.22,14.26Z" transform="translate(-246.13 -362.36)"/><path class="cls-1" d="M627,421.88a10,10,0,0,0,7.11-2.95l36.67-36.62a10.07,10.07,0,1,0-14.23-14.25l-36.67,36.62a10.07,10.07,0,0,0,7.12,17.2Z" transform="translate(-246.13 -362.36)"/><path class="cls-1" d="M308.05,795.57a10.07,10.07,0,0,0,.13,14.24l0,0a10.07,10.07,0,1,0-.16-14.27Z" transform="translate(-246.13 -362.36)"/><path class="cls-1" d="M587.84,714.63a10.07,10.07,0,0,0,9-14.61,10.07,10.07,0,0,0-13.52-4.46l-.06,0a10.06,10.06,0,0,0,4.58,19Z" transform="translate(-246.13 -362.36)"/></svg>