<svg id="v2" xmlns="http://www.w3.org/2000/svg" viewBox="0 0 135 150"><defs><style>.cls-1{fill:#333;}</style></defs><g id="culturebeliefs"><path class="cls-1" d="M26.3,114a6.72,6.72,0,0,1,7-6.94c3.12,0,5.74,1.81,6.31,4.75H36.44a3.11,3.11,0,0,0-3.2-2,4.26,4.26,0,0,0,0,8.49,3.09,3.09,0,0,0,3.2-2.07h3.15c-.57,3-3.28,4.76-6.35,4.76A6.71,6.71,0,0,1,26.3,114Z"/><path class="cls-1" d="M40.94,117v-5h3v5c0,1,.38,1.61,1.32,1.61s1.67-.69,1.67-2v-4.57h3v8.76h-3v-1.08A3.35,3.35,0,0,1,44.24,121C41.9,121,40.94,119.41,40.94,117Z"/><path class="cls-1" d="M52.25,105.92h3v14.9h-3Z"/><path class="cls-1" d="M58.14,114.36H56.55v-2.3h1.59v-3.34h3v3.34h1.59v2.3H61.1v6.46h-3Z"/><path class="cls-1" d="M63.81,117v-5h3v5c0,1,.38,1.61,1.32,1.61s1.67-.69,1.67-2v-4.57h3v8.76h-3v-1.08A3.35,3.35,0,0,1,67.11,121C64.77,121,63.81,119.41,63.81,117Z"/><path class="cls-1" d="M75.12,112.06h3v1.07a2.79,2.79,0,0,1,2.22-1.27,2.41,2.41,0,0,1,1,.2v2.76h-.19a2.69,2.69,0,0,0-1.17-.28c-1.13,0-1.84.76-1.84,2.3v4h-3Z"/><path class="cls-1" d="M81.79,116.44c0-2.73,2.16-4.58,5.1-4.58,2.67,0,4.85,1.61,4.85,4.39V117H85a1.86,1.86,0,0,0,1.88,1.88,1.7,1.7,0,0,0,1.79-1.15h3c-.59,2.18-2.41,3.27-4.76,3.27C83.88,121,81.79,119.23,81.79,116.44Zm6.79-1a1.66,1.66,0,0,0-1.78-1.52A1.72,1.72,0,0,0,85,115.4Z"/><path class="cls-1" d="M105.23,120.82l-.62-.79a5.7,5.7,0,0,1-3.35,1c-2.64,0-4.49-1.37-4.49-3.83a4.45,4.45,0,0,1,2.53-3.92,5,5,0,0,1-1.12-2.89c0-2.25,2.09-3.26,4.1-3.26,2.35,0,4.11,1.35,4.11,3.18s-1.64,2.68-3.29,3.55l1.78,2.13,1.53-1.81,2.1,1.81-1.87,2.11,2.29,2.74ZM103,118l-2.2-2.77a2.37,2.37,0,0,0-1,1.84,1.49,1.49,0,0,0,1.63,1.54A2.58,2.58,0,0,0,103,118Zm-1.33-5.94c1.06-.52,1.88-1,1.88-1.82a1,1,0,0,0-1.16-1,1.21,1.21,0,0,0-1.33,1.25A3.05,3.05,0,0,0,101.67,112.05Z"/><path class="cls-1" d="M48.39,140.75c0,2.24-1.48,3.9-5.28,3.9H38.64V131.14h3.85c3.7,0,4.91,1.74,4.91,3.58a2.79,2.79,0,0,1-1.54,2.69A3.16,3.16,0,0,1,48.39,140.75Zm-6.77-7v2.9h1.57a1.29,1.29,0,0,0,1.37-1.43A1.37,1.37,0,0,0,43,133.73Zm3.79,6.81c0-1.53-1.36-1.53-1.91-1.53H41.62v3.06H43.5C44,142.07,45.41,142.07,45.41,140.54Z"/><path class="cls-1" d="M49.23,140.28c0-2.74,2.16-4.59,5.1-4.59,2.66,0,4.85,1.61,4.85,4.4v.75H52.39a1.85,1.85,0,0,0,1.88,1.88,1.67,1.67,0,0,0,1.78-1.14h3c-.58,2.18-2.41,3.27-4.75,3.27C51.31,144.85,49.23,143.06,49.23,140.28ZM56,139.23a1.66,1.66,0,0,0-1.79-1.51,1.71,1.71,0,0,0-1.8,1.51Z"/><path class="cls-1" d="M60.79,129.76h3v14.89h-3Z"/><path class="cls-1" d="M65.85,132.69a1.75,1.75,0,0,1,3.49,0,1.75,1.75,0,1,1-3.49,0Zm.26,3.21h3v8.75h-3Z"/><path class="cls-1" d="M70.64,140.28c0-2.74,2.16-4.59,5.1-4.59,2.67,0,4.85,1.61,4.85,4.4v.75H73.8a1.86,1.86,0,0,0,1.89,1.88,1.68,1.68,0,0,0,1.78-1.14h3c-.59,2.18-2.41,3.27-4.76,3.27C72.73,144.85,70.64,143.06,70.64,140.28Zm6.79-1.05a1.66,1.66,0,0,0-1.78-1.51,1.72,1.72,0,0,0-1.81,1.51Z"/><path class="cls-1" d="M82.64,138.19H81.39V135.9h1.25v-3c0-2.17,1.23-3.16,2.82-3.16h2.2v2.32H86.59c-.82,0-1,.33-1,1.19v2.63h2v2.29h-2v6.46h-3Z"/><path class="cls-1" d="M88.12,141.39h3c0,1.29,1.17,1.39,1.91,1.39s1.37-.21,1.37-.76c0-1.74-5.86-.25-5.86-3.62,0-1.69,1.42-2.71,4.15-2.71,2.5,0,4.09.86,4.37,2.86H94.09c-.09-.79-.83-1-1.42-1s-1.17.12-1.17.6c0,1.19,5.85-.1,5.85,3.63,0,2.31-2,3.08-4.42,3.08C90.21,144.85,88.29,143.9,88.12,141.39Z"/><path class="cls-1" d="M65.38,2.28V8.62a2.12,2.12,0,0,0,4.24,0V2.28a2.12,2.12,0,0,0-4.24,0Z"/><path class="cls-1" d="M44.23,6.4a2.11,2.11,0,0,0-.78,2.89l3.18,5.5a2.11,2.11,0,1,0,3.66-2.12l-3.17-5.5A2.11,2.11,0,0,0,44.23,6.4Z"/><path class="cls-1" d="M30.08,22.66A2.12,2.12,0,0,0,28,26.33l5.5,3.17a2.12,2.12,0,0,0,2.12-3.67Z"/><path class="cls-1" d="M87.88,7.17l-3.17,5.5a2.11,2.11,0,0,0,3.66,2.12l3.18-5.5a2.12,2.12,0,0,0-3.67-2.12Z"/><path class="cls-1" d="M101.54,29.5l5.5-3.17a2.12,2.12,0,0,0-2.12-3.67l-5.5,3.17a2.12,2.12,0,0,0,2.12,3.67Z"/><circle class="cls-1" cx="77.66" cy="89.03" r="2.12"/><path class="cls-1" d="M119.55,76.33H100.27a4.28,4.28,0,0,1-4.22-3.7,54.12,54.12,0,0,1-.3-9.12c.1-4.82.23-10.29-1.33-16.1-1.79-6.66-5.51-12.75-11.37-18.61l-9-9a2.12,2.12,0,0,0-3,0A13.58,13.58,0,0,0,67.5,26.2a13.58,13.58,0,0,0-3.58-6.38,2.12,2.12,0,0,0-3,0l-9,9c-5.86,5.86-9.58,12-11.37,18.61C39,53.22,39.15,58.69,39.25,63.52a54,54,0,0,1-.3,9.11,4.28,4.28,0,0,1-4.22,3.7H15.45a2.11,2.11,0,0,0-2.11,2.12v19a2.1,2.1,0,0,0,2.11,2.11H40.18c14.25,0,23.94-12.68,27.32-25.36a40,40,0,0,0,3,7.83,2.11,2.11,0,1,0,3.78-1.89A36.78,36.78,0,0,1,70.36,63c.09-4,.16-6.87-.56-9.28a4.23,4.23,0,1,1,8.1-2.43,23.8,23.8,0,0,1,1,5.36v6.6a2.12,2.12,0,1,0,4.23,0V56.44c0-4.35-1.81-9.64-5.23-14.25a73.7,73.7,0,0,1-5.38-8.06,9.5,9.5,0,0,1,.2-9.65l7.3,7.31C92,43.69,91.73,53.72,91.52,63.42a57.46,57.46,0,0,0,.35,9.83,8.47,8.47,0,0,0,8.4,7.31h17.16V95.37H94.82A19.42,19.42,0,0,1,86,93.22,2.12,2.12,0,0,0,84,97,23.77,23.77,0,0,0,94.82,99.6h24.73a2.1,2.1,0,0,0,2.11-2.11v-19a2.11,2.11,0,0,0-2.11-2.12ZM65.2,53.68c-.72,2.41-.65,5.29-.56,9.28.33,15-9.56,32.41-24.46,32.41H17.57V80.56H34.73a8.47,8.47,0,0,0,8.4-7.3,57.61,57.61,0,0,0,.35-9.84c-.21-9.7-.43-19.73,11.47-31.63l7.3-7.31a9.52,9.52,0,0,1,.21,9.65C58.11,41.84,51.84,46.8,51.84,56.44v6.77a2.12,2.12,0,1,0,4.23,0v-6.6a21.88,21.88,0,0,1,1-5.36,4.23,4.23,0,1,1,8.1,2.43ZM74,44a8.57,8.57,0,0,0-2.59.36,8.42,8.42,0,0,0-3.92,2.53,8.37,8.37,0,0,0-3.92-2.53A8.55,8.55,0,0,0,61,44a76,76,0,0,0,5.14-7.8,13.48,13.48,0,0,0,1.36-3.44,13.54,13.54,0,0,0,1.36,3.45A75.7,75.7,0,0,0,74,44Z"/></g></svg>