<svg id="Data_Lab" data-name="Data Lab" xmlns="http://www.w3.org/2000/svg" viewBox="0 0 1038.24 1008.62"><defs><style>.cls-1{fill:#cdebfc;}.cls-2{fill:#1b4f64;}.cls-3{fill:#f7931e;}.cls-4{fill:#c1272d;}.cls-5{fill:#faffff;}.cls-6{fill:gray;}.cls-7{fill:#faffea;}.cls-8{fill:#f2f2f2;}.cls-9{fill:#df2f2d;}.cls-10{fill:#b3b3b3;}.cls-11{fill:#e6e6e6;}.cls-12{fill:#ace0e2;}.cls-13{fill:#008d9d;}.cls-14{fill:#e1889d;}.cls-15{fill:#ffe631;}.cls-16{fill:#75889d;}.cls-17{fill:#333;}.cls-18{fill:#22b5d2;}.cls-19{fill:#d74724;}.cls-20{fill:#22b573;}</style></defs><title>Data Lab</title><path class="cls-1" d="M169.88,948.25c-52-31.13-86.35-88.09-88.9-145.78-.29-6.68-.1-13.56,2.62-19.73,6.36-14.42,24-20.7,39.88-25.47,58.1-17.48,177.53-13.6,174.88-171.13C297.2,517.37,132.44,211.87,125.3,184.07s-3.38-59.41,16.55-80.85c20.9-22.48,55-29.73,86.91-30.09,68.54-.76,134.88,24.36,194.15,57s113.35,73.05,171.74,107.09c19.69,11.47,41.77,22.6,64.66,19.82,17.57-2.14,32.64-12.16,47.58-21a440.25,440.25,0,0,1,136.89-52.62c63.82-13,142.08-6.59,178.31,44.69,24.38,34.51,22.34,79.07,19.39,120.23-3.69,51.58-7.67,104.33-29.56,151.67-10.8,23.35-26.06,45.82-27.92,71.27-2.06,28.16,12.62,54.78,25.79,80.25A992.85,992.85,0,0,1,1089,858c11.89,45.78,20.34,94.33,6.24,139.4s-56.68,85.21-106.82,84.34c-19.77-.35-40.32-7.74-51.83-22.89-8.79-11.57-11.41-26.1-15.25-39.82-25.5-91.37-235.37-64.24-311.5-31.24C472.16,1047.43,339.16,1049.55,169.88,948.25Z" transform="translate(-80.88 -73.11)"/><rect class="cls-2" x="199.03" y="859.83" width="19.07" height="134.81" transform="translate(-235.72 -24.06) rotate(-9.8)"/><rect class="cls-3" x="214.95" y="823.08" width="19.07" height="168.56" transform="translate(-232.11 -21.64) rotate(-9.8)"/><rect class="cls-2" x="266.02" y="826.5" width="19.07" height="156.41" transform="translate(-230.91 -12.98) rotate(-9.8)"/><rect class="cls-3" x="290.52" y="889.81" width="19.07" height="89.37" transform="translate(-235.62 -8.37) rotate(-9.8)"/><rect class="cls-2" x="133.28" y="907.46" width="19.07" height="98.82" transform="matrix(0.99, -0.17, 0.17, 0.99, -241.73, -34.82)"/><rect class="cls-3" x="150.42" y="885" width="19.07" height="118.16" transform="translate(-239.3 -32.09) rotate(-9.8)"/><rect class="cls-2" x="401.82" y="781.27" width="19.07" height="178.01" transform="translate(-223.06 9.64) rotate(-9.8)"/><rect class="cls-3" x="417.74" y="744.52" width="19.07" height="211.76" transform="translate(-219.45 12.06) rotate(-9.8)"/><rect class="cls-2" x="333.61" y="800.31" width="19.07" height="170.81" transform="translate(-226.69 -1.75) rotate(-9.8)"/><rect class="cls-3" x="351.37" y="785" width="19.07" height="182.96" transform="translate(-224.86 1.14) rotate(-9.8)"/><path class="cls-4" d="M134.6,853.35a3.6,3.6,0,0,1-3.4-5.83l60-73.21,74.93,18.2,63.78-30.46,60.21-58.86a3.6,3.6,0,1,1,5,5.15L334.06,768l-67.17,32.08-73-17.73-57.1,69.7A3.59,3.59,0,0,1,134.6,853.35Z" transform="translate(-80.88 -73.11)"/><polygon class="cls-5" points="644.95 778.77 371.66 723.52 430.25 507.18 703.53 562.44 644.95 778.77"/><rect class="cls-5" x="628.29" y="705.94" width="28.85" height="28.85" transform="translate(74.64 -186.2) rotate(11.43)"/><path class="cls-6" d="M657.4,742.49l-36.82-7.44L628,698.23l36.81,7.44Zm-26.55-14.26,19.73,4,4-19.73-19.73-4Z" transform="translate(-80.88 -73.11)"/><rect class="cls-5" x="689.96" y="718.41" width="28.85" height="28.85" transform="translate(78.33 -198.18) rotate(11.43)"/><path class="cls-6" d="M719.07,755l-36.81-7.44,7.44-36.82,36.82,7.45ZM692.53,740.7l19.73,4,4-19.73-19.73-4Z" transform="translate(-80.88 -73.11)"/><rect class="cls-7" x="516.64" y="626.3" width="234.03" height="35.93" transform="translate(59.38 -185.92) rotate(11.43)"/><rect class="cls-5" x="616.77" y="762.88" width="28.85" height="28.85" transform="translate(85.69 -182.79) rotate(11.43)"/><path class="cls-6" d="M645.88,799.44,609.07,792l7.44-36.81,36.82,7.44Zm-26.54-14.26,19.73,4,4-19.74-19.73-4Z" transform="translate(-80.88 -73.11)"/><rect class="cls-5" x="678.45" y="775.35" width="28.85" height="28.85" transform="translate(89.39 -194.77) rotate(11.43)"/><path class="cls-6" d="M707.56,811.91l-36.82-7.45,7.45-36.81L715,775.09ZM681,797.65l19.73,4,4-19.73-19.73-4Z" transform="translate(-80.88 -73.11)"/><rect class="cls-8" x="496.58" y="683.01" width="100.21" height="93.52" transform="translate(74.6 -166.98) rotate(11.43)"/><path class="cls-9" d="M704.76,738.91,690.07,729a4.75,4.75,0,0,1,5.3-7.89l9.15,6.16,26.17-19.22a4.75,4.75,0,0,1,5.63,7.66Z" transform="translate(-80.88 -73.11)"/><path class="cls-9" d="M634.33,786.68,617.87,775.6a5.33,5.33,0,1,1,6-8.84l10.25,6.9,29.33-21.53a5.32,5.32,0,0,1,6.3,8.58Z" transform="translate(-80.88 -73.11)"/><path class="cls-10" d="M1070,496.3H844.63V273.83h238c20.14,0,36.47,18.55,36.47,41.43V450.47C1119.12,481.3,1097.12,496.3,1070,496.3Z" transform="translate(-80.88 -73.11)"/><path class="cls-10" d="M1047.8,496.24H848c-20.61,0-37.32-6.71-37.32-27.33v-234A37.32,37.32,0,0,1,848,197.59h140.5a96.67,96.67,0,0,1,96.67,96.67V468.91C1085.12,489.53,1068.41,496.24,1047.8,496.24Z" transform="translate(-80.88 -73.11)"/><rect class="cls-11" x="684.75" y="124.48" width="274.49" height="298.64" rx="30.18"/><rect class="cls-12" x="712.61" y="155.01" width="218.77" height="192.55" rx="7.01"/><circle class="cls-10" cx="901.48" cy="379.07" r="14.59"/><rect class="cls-10" x="738.07" y="423.12" width="192.17" height="40.36"/><path class="cls-11" d="M711.36,443.49H947.8a40.36,40.36,0,0,1,40.36,40.36v20.68a0,0,0,0,1,0,0H671a0,0,0,0,1,0,0V483.85A40.36,40.36,0,0,1,711.36,443.49Z"/><path class="cls-10" d="M956.43,443.49h15.15a40.36,40.36,0,0,1,40.36,40.36v20.68a0,0,0,0,1,0,0H916.07a0,0,0,0,1,0,0V483.85A40.36,40.36,0,0,1,956.43,443.49Z"/><rect class="cls-10" x="690.57" y="474.01" width="59.5" height="8.83" rx="4.41"/><rect class="cls-10" x="760.57" y="474.01" width="59.5" height="8.83" rx="4.41"/><rect class="cls-10" x="830.57" y="474.01" width="59.5" height="8.83" rx="4.41"/><path class="cls-13" d="M649.28,437.23a92,92,0,0,1-1.06,14l-90.17-14,29.1-86.48A91.24,91.24,0,0,1,649.28,437.23Z" transform="translate(-80.88 -73.11)"/><path class="cls-14" d="M621.57,462.31a84.14,84.14,0,1,1-56.37-92.72l-26.86,79.83Z" transform="translate(-80.88 -73.11)"/><path class="cls-3" d="M128.19,275.08C136.26,222,177.05,182.21,226,174.54l16.3,117.88-88.55,77.45A120.76,120.76,0,0,1,128.19,275.08Z" transform="translate(-80.88 -73.11)"/><path class="cls-15" d="M179.21,377.17l81.92-71.65,95.53-50.42a112.38,112.38,0,0,1,10,66.47c-9.16,60.25-63.85,101.91-122.16,93.05A104.41,104.41,0,0,1,179.21,377.17Z" transform="translate(-80.88 -73.11)"/><path class="cls-16" d="M245.84,174.12a103.75,103.75,0,0,1,31.67-.06c35.41,5.39,64,28.16,78.95,58.7l-95.54,50.42Z" transform="translate(-80.88 -73.11)"/><rect class="cls-6" x="720.99" y="176.01" width="178.89" height="11.42"/><rect class="cls-6" x="720.99" y="206.01" width="157.26" height="11.42"/><rect class="cls-6" x="720.99" y="236.01" width="178.89" height="11.42"/><rect class="cls-6" x="720.99" y="266.01" width="157.26" height="11.42"/><rect class="cls-6" x="720.99" y="296.01" width="157.26" height="11.42"/><path class="cls-17" d="M869.82,334a25.22,25.22,0,1,1,35.6-2.07A25.23,25.23,0,0,1,869.82,334Zm27.27-30.64a15.8,15.8,0,1,0,1.3,22.31A15.83,15.83,0,0,0,897.09,303.37Z" transform="translate(-80.88 -73.11)"/><rect class="cls-17" x="896.03" y="340.46" width="46.46" height="7.58" transform="translate(380.47 -597.12) rotate(41.66)"/><rect class="cls-17" x="906.51" y="344.32" width="45.7" height="17.85" rx="8.93" transform="translate(389 -601.56) rotate(41.66)"/><polygon class="cls-5" points="77.39 425.17 279.15 375.87 312.12 569.27 118.48 616.6 77.39 425.17"/><polygon class="cls-18" points="280.3 403.89 86.65 451.21 81.45 424.18 275.1 376.86 280.3 403.89"/><line class="cls-18" x1="275.19" y1="377.36" x2="311.41" y2="565.55"/><polygon class="cls-18" points="316.18 568.28 308.07 570.27 271.04 377.85 279.15 375.87 316.18 568.28"/><line class="cls-18" x1="81.55" y1="424.68" x2="117.76" y2="612.87"/><polygon class="cls-18" points="122.54 615.6 114.42 617.59 77.39 425.17 85.51 423.19 122.54 615.6"/><line class="cls-18" x1="129.96" y1="412.85" x2="166.17" y2="601.04"/><polygon class="cls-18" points="170.23 600.05 162.12 602.03 125.9 413.84 134.02 411.86 170.23 600.05"/><line class="cls-18" x1="178.37" y1="401.02" x2="214.59" y2="589.21"/><polygon class="cls-18" points="218.64 588.22 210.53 590.2 174.31 402.01 182.43 400.03 218.64 588.22"/><line class="cls-18" x1="226.78" y1="389.19" x2="263" y2="577.38"/><polygon class="cls-18" points="267.05 576.39 258.94 578.37 222.72 390.18 230.84 388.2 267.05 576.39"/><polygon class="cls-18" points="312.12 569.27 118.48 616.6 117.05 609.14 310.69 561.82 312.12 569.27"/><polygon class="cls-18" points="280.66 405.75 87.01 453.07 86.3 449.35 279.94 402.02 280.66 405.75"/><polygon class="cls-18" points="286.21 434.64 92.57 481.96 91.14 474.51 284.78 427.19 286.21 434.64"/><polygon class="cls-18" points="291.42 461.67 97.77 508.99 96.34 501.54 289.98 454.22 291.42 461.67"/><polygon class="cls-18" points="296.62 488.69 102.97 536.02 101.54 528.56 295.18 481.24 296.62 488.69"/><polygon class="cls-18" points="301.82 515.72 108.17 563.04 106.74 555.59 300.38 508.27 301.82 515.72"/><polygon class="cls-18" points="307.02 542.75 113.38 590.07 111.94 582.62 305.59 535.3 307.02 542.75"/><polygon class="cls-5" points="328.26 73.46 588.63 37.3 608.88 219.11 348.51 255.27 328.26 73.46"/><polygon class="cls-19" points="477.27 54.82 328.49 75.49 325.22 46.11 474 25.44 477.27 54.82"/><line class="cls-19" x1="474.06" y1="25.99" x2="496.84" y2="230.56"/><polygon class="cls-19" points="500.41 234.18 494.17 235.04 470.88 25.88 477.12 25.01 500.41 234.18"/><line class="cls-19" x1="325.28" y1="46.65" x2="348.06" y2="251.22"/><polygon class="cls-19" points="351.63 254.84 345.39 255.71 322.1 46.54 328.33 45.67 351.63 254.84"/><line class="cls-19" x1="362.47" y1="41.49" x2="385.26" y2="246.06"/><polygon class="cls-19" points="388.37 245.63 382.14 246.49 359.36 41.92 365.59 41.05 388.37 245.63"/><line class="cls-19" x1="399.67" y1="36.32" x2="422.45" y2="240.89"/><polygon class="cls-19" points="425.57 240.46 419.33 241.32 396.55 36.75 402.79 35.89 425.57 240.46"/><line class="cls-19" x1="436.86" y1="31.15" x2="459.65" y2="235.73"/><polygon class="cls-19" points="462.76 235.29 456.53 236.16 433.75 31.59 439.98 30.72 462.76 235.29"/><polygon class="cls-19" points="497.29 234.61 348.51 255.27 347.61 247.17 496.39 226.51 497.29 234.61"/><polygon class="cls-19" points="477.5 56.85 328.71 77.51 328.26 73.46 477.04 52.8 477.5 56.85"/><polygon class="cls-19" points="480.99 88.25 332.21 108.92 331.31 100.82 480.09 80.15 480.99 88.25"/><polygon class="cls-19" points="484.26 117.63 335.48 138.3 334.58 130.2 483.36 109.53 484.26 117.63"/><polygon class="cls-19" points="487.54 147.01 338.76 167.68 337.85 159.58 486.63 138.91 487.54 147.01"/><polygon class="cls-19" points="490.81 176.39 342.03 197.06 341.13 188.96 489.91 168.29 490.81 176.39"/><polygon class="cls-19" points="494.08 205.77 345.3 226.44 344.4 218.34 493.18 197.67 494.08 205.77"/><polygon class="cls-19" points="588.86 39.33 440.07 59.99 436.8 30.61 585.58 9.95 588.86 39.33"/><line class="cls-19" x1="585.64" y1="10.49" x2="608.43" y2="215.06"/><polygon class="cls-19" points="612 218.68 605.76 219.54 582.47 10.38 588.7 9.51 612 218.68"/><line class="cls-19" x1="436.86" y1="31.15" x2="459.65" y2="235.73"/><polygon class="cls-19" points="463.21 239.34 456.98 240.21 433.69 31.04 439.92 30.18 463.21 239.34"/><line class="cls-19" x1="474.06" y1="25.99" x2="496.84" y2="230.56"/><polygon class="cls-19" points="499.96 230.13 493.72 230.99 470.94 26.42 477.18 25.56 499.96 230.13"/><line class="cls-19" x1="511.25" y1="20.82" x2="534.04" y2="225.39"/><polygon class="cls-19" points="537.15 224.96 530.92 225.83 508.14 21.26 514.37 20.39 537.15 224.96"/><line class="cls-19" x1="548.45" y1="15.66" x2="571.23" y2="220.23"/><polygon class="cls-19" points="574.35 219.79 568.11 220.66 545.33 16.09 551.57 15.22 574.35 219.79"/><polygon class="cls-19" points="608.88 219.11 460.1 239.78 459.19 231.68 607.98 211.01 608.88 219.11"/><polygon class="cls-19" points="589.08 41.35 440.3 62.02 439.85 57.97 588.63 37.3 589.08 41.35"/><polygon class="cls-19" points="592.58 72.76 443.8 93.42 442.9 85.32 591.68 64.66 592.58 72.76"/><polygon class="cls-19" points="595.85 102.14 447.07 122.8 446.17 114.7 594.95 94.03 595.85 102.14"/><polygon class="cls-19" points="599.12 131.52 450.34 152.18 449.44 144.08 598.22 123.42 599.12 131.52"/><polygon class="cls-19" points="602.39 160.9 453.61 181.56 452.71 173.46 601.49 152.79 602.39 160.9"/><polygon class="cls-19" points="605.67 190.28 456.89 210.94 455.98 202.84 604.76 182.18 605.67 190.28"/><polygon class="cls-5" points="700.39 769.43 970.54 695.31 1020.21 923.6 750.07 997.72 700.39 769.43"/><polygon class="cls-20" points="917.06 712.68 700.95 771.98 692.92 735.08 909.03 675.78 917.06 712.68"/><line class="cls-20" x1="909.18" y1="676.47" x2="965.07" y2="933.34"/><polygon class="cls-20" points="970.71 937.18 961.65 939.67 904.51 677.03 913.56 674.54 970.71 937.18"/><line class="cls-20" x1="693.07" y1="735.77" x2="748.96" y2="992.64"/><polygon class="cls-20" points="754.6 996.48 745.54 998.97 688.39 736.33 697.45 733.84 754.6 996.48"/><line class="cls-20" x1="747.1" y1="720.94" x2="802.99" y2="977.81"/><polygon class="cls-20" points="807.52 976.57 798.46 979.05 742.57 722.19 751.63 719.7 807.52 976.57"/><line class="cls-20" x1="801.13" y1="706.12" x2="857.02" y2="962.99"/><polygon class="cls-20" points="861.54 961.75 852.49 964.23 796.6 707.36 805.65 704.88 861.54 961.75"/><line class="cls-20" x1="855.15" y1="691.29" x2="911.04" y2="948.16"/><polygon class="cls-20" points="915.57 946.92 906.52 949.4 850.63 692.54 859.68 690.05 915.57 946.92"/><polygon class="cls-20" points="966.18 938.42 750.07 997.72 747.85 987.55 963.97 928.25 966.18 938.42"/><polygon class="cls-20" points="917.61 715.22 701.5 774.52 700.39 769.43 916.51 710.13 917.61 715.22"/><polygon class="cls-20" points="926.19 754.65 710.08 813.95 707.87 803.78 923.98 744.48 926.19 754.65"/><polygon class="cls-20" points="934.22 791.54 718.11 850.84 715.89 840.67 932.01 781.37 934.22 791.54"/><polygon class="cls-20" points="942.25 828.43 726.13 887.73 723.92 877.56 940.03 818.26 942.25 828.43"/><polygon class="cls-20" points="950.27 865.33 734.16 924.63 731.95 914.45 948.06 855.15 950.27 865.33"/><polygon class="cls-20" points="958.3 902.22 742.19 961.52 739.98 951.35 956.09 892.04 958.3 902.22"/><polygon class="cls-20" points="971.09 697.85 754.98 757.15 746.95 720.26 963.06 660.96 971.09 697.85"/><line class="cls-20" x1="963.21" y1="661.64" x2="1019.1" y2="918.51"/><polygon class="cls-20" points="1024.74 922.36 1015.68 924.84 958.53 662.2 967.59 659.72 1024.74 922.36"/><line class="cls-20" x1="747.1" y1="720.94" x2="802.99" y2="977.81"/><polygon class="cls-20" points="808.62 981.65 799.57 984.14 742.42 721.5 751.48 719.02 808.62 981.65"/><line class="cls-20" x1="801.13" y1="706.12" x2="857.02" y2="962.99"/><polygon class="cls-20" points="861.55 961.74 852.49 964.23 796.6 707.36 805.66 704.88 861.55 961.74"/><line class="cls-20" x1="855.16" y1="691.29" x2="911.05" y2="948.16"/><polygon class="cls-20" points="915.57 946.92 906.52 949.4 850.63 692.54 859.68 690.05 915.57 946.92"/><line class="cls-20" x1="909.18" y1="676.47" x2="965.07" y2="933.34"/><polygon class="cls-20" points="969.6 932.1 960.54 934.58 904.66 677.71 913.71 675.23 969.6 932.1"/><polygon class="cls-20" points="1020.21 923.6 804.1 982.9 801.88 972.73 1018 913.43 1020.21 923.6"/><polygon class="cls-20" points="971.64 700.39 755.53 759.69 754.42 754.61 970.54 695.31 971.64 700.39"/><polygon class="cls-20" points="980.22 739.83 764.11 799.13 761.9 788.96 978.01 729.66 980.22 739.83"/><polygon class="cls-20" points="988.25 776.72 772.14 836.02 769.92 825.85 986.04 766.55 988.25 776.72"/><polygon class="cls-20" points="996.28 813.61 780.16 872.91 777.95 862.74 994.06 803.44 996.28 813.61"/><polygon class="cls-20" points="1004.3 850.5 788.19 909.8 785.98 899.63 1002.09 840.33 1004.3 850.5"/><polygon class="cls-20" points="1012.33 887.39 796.22 946.69 794 936.52 1010.12 877.22 1012.33 887.39"/></svg>