<svg id="Design_Lab" data-name="Design Lab" xmlns="http://www.w3.org/2000/svg" viewBox="0 0 1161.23 988.88"><defs><style>.cls-1{fill:#cdebfc;}.cls-2{fill:#a67c52;}.cls-3{fill:#999;}.cls-4{fill:#f2ca80;}.cls-5{fill:#0fbfbf;}.cls-6{fill:#fff;}.cls-7{fill:#f28b66;}.cls-8{fill:#4d4d4d;}.cls-9{fill:#b3b3b3;}.cls-10,.cls-13{fill:#666;}.cls-11{fill:#f2f2f2;}.cls-11,.cls-12{stroke:#666;}.cls-11,.cls-12,.cls-13{stroke-miterlimit:10;stroke-width:5px;}.cls-12{fill:none;}.cls-13{stroke:#f2f2f2;}.cls-14{fill:#f7931e;}.cls-15{fill:#008eb7;}.cls-16{fill:#df4280;}.cls-17{fill:#822a76;}</style></defs><title>Design Lab</title><path class="cls-1" d="M256.06,893.08C.78,666,390.59,737.34,130,586.66c-216.28-125-22.7-258.59,198.28-417.51,160-115,352.8-55.93,444.37,36.64,86,87,112.1-240.74,251,83.38,202.94,473.55,217.64,546-159.5,558C742.37,899.87,808,1246.3,415.92,1016.77,356.81,982.17,295,915.79,256.06,893.08Z" transform="translate(-3.62 -105.67)"/><path class="cls-2" d="M1041.73,365.47l18.39-20.72a9.92,9.92,0,0,0-1-14L871.76,177l-22.94,26.52,178.92,162.94A9.92,9.92,0,0,0,1041.73,365.47Z" transform="translate(-3.62 -105.67)"/><rect class="cls-3" x="791.61" y="200.82" width="26.42" height="34.78" rx="5.84" transform="translate(1492.65 -353.54) rotate(130.85)"/><path class="cls-3" d="M813.16,184l31.15,26.93a6.34,6.34,0,0,0,8.94-.65l23.63-27.34a14.36,14.36,0,0,0-1.35-20.28l-28.67-24.79-34.18,39.52A4.7,4.7,0,0,0,813.16,184Z" transform="translate(-3.62 -105.67)"/><polygon class="cls-3" points="820.34 112.57 824.47 106.69 839.03 85.96 822.09 71.31 816.29 76.8 803.68 88.72 803.49 88.9 798.46 93.65 820.34 112.57"/><path class="cls-3" d="M846.86,137.82l22.42,19.39a71.47,71.47,0,0,1,7.48-7.13c3.79-3.13,23.42-14,39.37-4.81l10.41.67s-20.39-22-42.54-21.89C871.79,124.15,855.35,129.63,846.86,137.82Z" transform="translate(-3.62 -105.67)"/><path class="cls-4" d="M445.35,213.3l-53.11-14,81.23,195.35L269.14,466.37,212.54,257l-23.61,37.73L123,242.34l68.65-73.53,46-25.05c9.42,10.6,26.5,14.44,42.7,8.42,16-6,26.4-19.74,26.84-33.75l43.85-11.9,99.68,28.66Z" transform="translate(-3.62 -105.67)"/><path class="cls-5" d="M319.88,190.17H369.3a0,0,0,0,1,0,0v50.62a12.72,12.72,0,0,1-12.72,12.72h-24a12.72,12.72,0,0,1-12.72-12.72V190.17a0,0,0,0,1,0,0Z" transform="translate(-48.52 -11.32) rotate(-14.65)"/><rect class="cls-6" x="333.94" y="235.41" width="26.69" height="7.55" transform="translate(-43.87 -32.71) rotate(-11.34)"/><path class="cls-6" d="M355,210.42a13.4,13.4,0,1,0-20,15.39,10.47,10.47,0,0,1,4.36,5.62,1.9,1.9,0,0,0,2.18,1.31l8.36-1.68a1.9,1.9,0,0,0,1.51-2,13.16,13.16,0,0,1,2-7.52A11.81,11.81,0,0,0,355,210.42ZM350,220c-.93,1.42-1.91,3.13-1.8,4.78a1.31,1.31,0,0,1-1,1.39l-2.38.48-4.21-21a9.22,9.22,0,0,1,10.53,6.24A9,9,0,0,1,350,220Z" transform="translate(-3.62 -105.67)"/><path class="cls-5" d="M298.19,392.1l-54.76,4.34L384.7,553.92,215.61,689.22,92.94,510.37l-9.8,43.42L3.62,526.13,44.08,434l35.14-38.86C91.61,402.05,109,400,122.3,389c13.15-10.92,18.38-27.36,14.17-40.73l37.44-25.73,103.55-5.93Z" transform="translate(-3.62 -105.67)"/><rect class="cls-6" x="174.21" y="491.64" width="68.49" height="19.38" transform="translate(-267.5 127.93) rotate(-37.88)"/><path class="cls-6" d="M193.27,426.42c-12.09-12.43-32-14-45.64-3.29a34.79,34.79,0,0,0-7.76,8.62c-13.59,21.33-.05,49.75,25.13,52.94a26.85,26.85,0,0,1,16.46,7.88,4.86,4.86,0,0,0,6.49.52l17.29-13.44a4.88,4.88,0,0,0,1.13-6.35,33.93,33.93,0,0,1-4.11-19.51C203.61,442.71,201.18,434.57,193.27,426.42Zm-.59,27.8c-.53,4.32-.8,9.36,1.34,13a3.35,3.35,0,0,1-.78,4.37l-4.91,3.82L154.6,432.09a23.66,23.66,0,0,1,31.34,2.27A23.23,23.23,0,0,1,192.68,454.22Z" transform="translate(-3.62 -105.67)"/><path class="cls-7" d="M685.52,342.36l-41.39-36.13L630.28,517.34,415.33,491l42.14-212.74-37.9,23.35-35.81-76.2L477.9,190l52.35-2.05c3.74,13.68,17.34,24.69,34.54,26.49,17,1.77,32.41-6,39-18.34l44.57,8.78L725,274.75Z" transform="translate(-3.62 -105.67)"/><path class="cls-8" d="M493.86,295.36l8.43.88c-.43,4.05,2.21,6.35,6.06,6.75,2.68.28,5.31-.43,5.63-3.46.46-4.37-4.69-5.12-9.58-7-4.25-1.64-8.68-4.07-8-10.76.83-8,7.78-10.75,14.21-10.08s12.92,4.79,12,13.08l-7.93-.82c.11-3.8-2-5.38-5-5.69s-4.87.75-5.13,3.22c-.36,3.5,3.41,4.35,7.53,5.69,5.2,1.74,10.86,4.14,10,12-.94,9-9,10.94-15.38,10.27C499.44,308.69,492.76,304.3,493.86,295.36Z" transform="translate(-3.62 -105.67)"/><path class="cls-8" d="M536.35,275.19l8.09.84-3.83,36.7-8.09-.85Z" transform="translate(-3.62 -105.67)"/><path class="cls-8" d="M526.26,311.23l.85-8.09,20.61,2.15-.84,8.09Z" transform="translate(-3.62 -105.67)"/><path class="cls-8" d="M529.3,282.09l.85-8.08,20.61,2.15-.84,8.09Z" transform="translate(-3.62 -105.67)"/><rect class="cls-6" x="563.92" y="319.5" width="40.85" height="11.56" transform="translate(33.3 -164.57) rotate(5.96)"/><path class="cls-6" d="M608.75,286.78a20.55,20.55,0,0,0-18.27-20.28,21,21,0,0,0-6.9.51c-14.66,3.56-20.57,21.38-11.06,33.16a16,16,0,0,1,3.83,10.19,2.89,2.89,0,0,0,2.58,2.9l13,1.36a2.91,2.91,0,0,0,3.11-2.26,20.21,20.21,0,0,1,6.29-10.09C606.48,298.06,608.79,293.55,608.75,286.78ZM597,298.49c-2,1.64-4.21,3.7-4.81,6.17a2,2,0,0,1-2.14,1.56l-3.7-.39,3.41-32.59a14.11,14.11,0,0,1,12.54,13.92A13.81,13.81,0,0,1,597,298.49Z" transform="translate(-3.62 -105.67)"/><polygon class="cls-9" points="1016.27 159.61 995.83 166.37 1011.38 180.23 1007.96 194.66 987.78 201.33 1003.13 215.01 999.65 229.71 979.73 236.3 994.89 249.8 991.34 264.75 971.68 271.25 986.64 284.58 983.04 299.81 963.63 306.22 978.4 319.38 974.72 334.86 955.58 341.18 970.15 354.16 965.61 373.31 961.08 392.43 881.1 363.16 887.8 344.84 963.72 137.35 1016.93 156.82 1016.27 159.61"/><path class="cls-2" d="M969.23,479l-77.8-28.47-6.16-2.25-25.63,70.06a17.21,17.21,0,0,0,10.24,22.06l62.32,22.8a17.21,17.21,0,0,0,22.06-10.25l25.63-70Zm-24,53.7a17.59,17.59,0,0,1-22.57,10.48l-33.87-12.39a17.59,17.59,0,0,1-10.48-22.57l3.6-9.87,66.93,24.49Z" transform="translate(-3.62 -105.67)"/><path class="cls-10" d="M847.15,440l-2.13-.85a5,5,0,0,1-2.77-6.51l3.53-8.75-46.44-23.23A3,3,0,0,1,801.6,395l49.58,15.42,3.52-8.75a5,5,0,0,1,6.51-2.77l2.12.86a5,5,0,0,1,2.77,6.5l-12.45,30.92A5,5,0,0,1,847.15,440Z" transform="translate(-3.62 -105.67)"/><path class="cls-10" d="M755.65,517.56l-1-2.06a5,5,0,0,1,2.3-6.69l8.47-4.14-18.93-48.34a3,3,0,0,1,5.43-2.66l26.5,44.65,8.47-4.14a5,5,0,0,1,6.69,2.3l1,2.06a5,5,0,0,1-2.3,6.69l-29.95,14.63A5,5,0,0,1,755.65,517.56Z" transform="translate(-3.62 -105.67)"/><path class="cls-10" d="M664.41,417.42l2.11-.91a5,5,0,0,1,6.57,2.62l3.72,8.67L726,411.23a3,3,0,0,1,2.39,5.56l-45.89,24.29,3.72,8.67a5,5,0,0,1-2.62,6.57l-2.1.91a5,5,0,0,1-6.57-2.62L661.79,424A5,5,0,0,1,664.41,417.42Z" transform="translate(-3.62 -105.67)"/><path class="cls-10" d="M739.93,419.67l-.38-2.26a5,5,0,0,1,4.09-5.76l9.31-1.57-4.48-51.73a3,3,0,0,1,6-1l12.77,50.33,9.31-1.57a5,5,0,0,1,5.76,4.09l.38,2.26a5,5,0,0,1-4.1,5.76l-32.86,5.56A5,5,0,0,1,739.93,419.67Z" transform="translate(-3.62 -105.67)"/><path class="cls-10" d="M828.32,315.21l-.55,2.22a5,5,0,0,1-6.06,3.65l-9.16-2.27L796,368a3,3,0,0,1-5.87-1.45l8.37-51.25-9.16-2.27a5,5,0,0,1-3.65-6.05l.55-2.22a5,5,0,0,1,6.06-3.65l32.35,8A5,5,0,0,1,828.32,315.21Z" transform="translate(-3.62 -105.67)"/><rect class="cls-11" x="180.63" y="704.43" width="466.9" height="331.09" transform="translate(-164.69 -8.69) rotate(-11.2)"/><rect class="cls-11" x="154.53" y="706" width="466.9" height="54.8" transform="matrix(0.98, -0.19, 0.19, 0.98, -138.66, -16.36)"/><circle class="cls-7" cx="189.19" cy="664.98" r="14.27"/><circle class="cls-4" cx="233.33" cy="656.24" r="14.27"/><circle class="cls-5" cx="277.46" cy="647.5" r="14.27"/><rect class="cls-11" x="381.85" y="782.97" width="200.73" height="82.97" transform="translate(-154.55 3.67) rotate(-11.2)"/><line class="cls-12" x1="372.08" y1="697.58" x2="585.1" y2="739.99"/><line class="cls-12" x1="568.99" y1="658.6" x2="388.19" y2="778.97"/><rect class="cls-11" x="235.35" y="951.7" width="119.05" height="90.63" transform="translate(-191.63 -29.42) rotate(-11.2)"/><path class="cls-10" d="M354.89,1031.33,245.28,1053l-7.79-39.35,22.36-32.17a10.26,10.26,0,0,1,13.59-2.69Z" transform="translate(-3.62 -105.67)"/><circle class="cls-13" cx="315.45" cy="863.81" r="12.21"/><rect class="cls-11" x="367.76" y="925.49" width="119.05" height="90.63" transform="translate(-184.02 -4.21) rotate(-11.2)"/><path class="cls-10" d="M487.31,1005.11l-109.61,21.7-7.79-39.34,22.36-32.18a10.27,10.27,0,0,1,13.58-2.69Z" transform="translate(-3.62 -105.67)"/><circle class="cls-13" cx="447.86" cy="837.6" r="12.21"/><rect class="cls-11" x="232.31" y="817.06" width="119.05" height="90.63" transform="translate(-165.54 -32.58) rotate(-11.2)"/><path class="cls-10" d="M351.85,896.69l-109.61,21.7-7.79-39.34,22.36-32.18a10.26,10.26,0,0,1,13.59-2.69Z" transform="translate(-3.62 -105.67)"/><circle class="cls-13" cx="312.41" cy="729.18" r="12.21"/><rect class="cls-11" x="500.03" y="897.7" width="135.19" height="90.63" transform="translate(-175.95 22.52) rotate(-11.2)"/><line class="cls-12" x1="488.89" y1="806.03" x2="639.11" y2="868.68"/><line class="cls-12" x1="621.51" y1="779.77" x2="506.49" y2="894.93"/><rect class="cls-14" x="717.1" y="653.06" width="151.09" height="151.09" rx="46.67" transform="translate(-93.37 6.07) rotate(-7.63)"/><path class="cls-6" d="M795.38,758.1l-23.2,3.11-2.87,11.31-17.54,2.36,16-67.22,18.11-2.43,32.63,60.71-17.73,2.37ZM789.27,746l-10-19.73L775.09,748Z" transform="translate(-3.62 -105.67)"/><path class="cls-6" d="M822.8,694.82a8.7,8.7,0,1,1-7.47,9.78A8.67,8.67,0,0,1,822.8,694.82ZM834,720.24l5.74,42.85-15.33,2-5.74-42.84Z" transform="translate(-3.62 -105.67)"/><rect class="cls-15" x="722.1" y="897.28" width="151.09" height="151.09" rx="46.67" transform="translate(484.21 -352.12) rotate(25.09)"/><path class="cls-6" d="M766.26,979.18l-9.06,19.35-15.15-7.09L769.4,933l24.17,11.32c5.08,2.38,9.89,5.8,12.34,12.18s1.09,11.83-1.21,16.73c-2.17,4.64-5.33,9.78-12,12.12s-12.37.4-16.92-1.73ZM772,966.92l5.07,2.38c1.58.74,4.64,2,7.26,1.15s3.77-3,4.43-4.44a7.89,7.89,0,0,0,.71-6.07c-.89-2.66-3.57-4.24-5.5-5.14l-5.17-2.42Z" transform="translate(-3.62 -105.67)"/><path class="cls-6" d="M799.61,1002.59a21.92,21.92,0,0,0,4.25,5.51,20.14,20.14,0,0,0,5,3.51,6.58,6.58,0,0,0,4.09.63,2.47,2.47,0,0,0,1.56-1.51,2.34,2.34,0,0,0,.12-2.08c-.51-1.2-1.79-2.12-3-3.12l-3.26-2.6c-1.73-1.34-4.2-3.35-5.24-6.61a10.5,10.5,0,0,1,.62-7.94,15.5,15.5,0,0,1,8.15-7.82c4.41-1.67,10.45-.87,16.23,1.83a35.62,35.62,0,0,1,11.33,8.41l-8.91,6.71a21.68,21.68,0,0,0-6.45-5.37,6.66,6.66,0,0,0-3.61-.73,2.32,2.32,0,0,0-2.13,1.36,2.51,2.51,0,0,0,.64,3c1.06,1.14,2.2,1.67,4.1,3.31l2.22,1.89a18.15,18.15,0,0,1,4.34,5.77,12.22,12.22,0,0,1-.67,9.19,14.51,14.51,0,0,1-8.49,7.87c-6.69,2.42-13.51-.34-16.75-1.86A31.84,31.84,0,0,1,790.07,1010Z" transform="translate(-3.62 -105.67)"/><rect class="cls-16" x="947.09" y="576.11" width="151.09" height="151.09" rx="46.67" transform="translate(-180.21 366.31) rotate(-23.99)"/><path class="cls-6" d="M993.64,671.13l-31.13-19.07,18.91-8.41L997,655.05l2.3-19.34,18.82-8.37-6.94,36,36.25,21.54-18.55,8.26-21.07-13.59L1003,704.63l-18.46,8.21Z" transform="translate(-3.62 -105.67)"/><path class="cls-6" d="M1093.6,664.33l-14.14,6.29-1.92-4.33a15.89,15.89,0,0,1-9.41,11,20.74,20.74,0,0,1-16.31.69,23.82,23.82,0,0,1-13.36-12.9,23.52,23.52,0,0,1-.51-18.5,22.16,22.16,0,0,1,11.6-11.52,17.12,17.12,0,0,1,14-.1l-12.77-28.71,14.13-6.29Zm-22.52-5.64a10.36,10.36,0,0,0,0-8.05,11.28,11.28,0,0,0-5.48-5.18,9.9,9.9,0,0,0-12.76,5.57,10.57,10.57,0,0,0,.25,7.93,9.77,9.77,0,0,0,5.49,5,9.61,9.61,0,0,0,7.45-.14A10.58,10.58,0,0,0,1071.08,658.69Z" transform="translate(-3.62 -105.67)"/><rect class="cls-17" x="925.01" y="787.09" width="151.09" height="151.09" rx="46.67" transform="translate(108.19 -220.47) rotate(6.95)"/><path class="cls-6" d="M983.55,890.39l-23.23-2.84-5.63,10.23-17.57-2.15,32.39-61,18.14,2.21,16.28,67-17.76-2.16Zm-2.87-13.21L976,855.57l-9.54,19.88Z" transform="translate(-3.62 -105.67)"/><path class="cls-6" d="M1057.65,891.44l-32-3.9a11,11,0,0,0,1.81,7.53c.85,1.07,2.63,2.46,6.08,2.88a12.16,12.16,0,0,0,5.13-.54,7.19,7.19,0,0,0,3-2.55l14.69,1.79a19.49,19.49,0,0,1-6.26,8.19c-3.54,2.69-8.89,5-18.2,3.83-5.66-.69-12.32-2.77-17-8.7a22.66,22.66,0,0,1-4.36-17c.88-7.2,4.27-12.63,8.46-15.82,4-3,9.88-5.13,18.33-4.1,5,.61,11.29,2.45,15.79,7.87,5.35,6.5,5.2,14.08,4.62,18.88Zm-13-10.55a10.39,10.39,0,0,0-1.93-4.92,9,9,0,0,0-6-3.07,8.31,8.31,0,0,0-6.52,1.54,8.76,8.76,0,0,0-2.87,4.33Z" transform="translate(-3.62 -105.67)"/></svg>