<svg id="v2" xmlns="http://www.w3.org/2000/svg" viewBox="0 0 135 150"><defs><style>.cls-1{fill:#333;}</style></defs><g id="designcreative"><path class="cls-1" d="M29.35,107.57h4.21c4.4,0,6.71,2.94,6.71,6.76s-2.29,6.76-6.71,6.76H29.35Zm4.23,10.94c2.48,0,3.66-1.94,3.66-4.18s-1.16-4.17-3.66-4.17H32.29v8.35Z"/><path class="cls-1" d="M41.2,116.71c0-2.73,2.17-4.59,5.11-4.59,2.66,0,4.85,1.61,4.85,4.4v.75H44.37a1.84,1.84,0,0,0,1.88,1.88A1.67,1.67,0,0,0,48,118h3c-.58,2.18-2.41,3.27-4.75,3.27C43.29,121.28,41.2,119.49,41.2,116.71Zm6.79-1a1.65,1.65,0,0,0-1.78-1.51,1.72,1.72,0,0,0-1.81,1.51Z"/><path class="cls-1" d="M52,117.83h3c0,1.29,1.17,1.38,1.91,1.38s1.37-.21,1.37-.76c0-1.74-5.86-.25-5.86-3.62,0-1.69,1.42-2.71,4.15-2.71,2.5,0,4.09.86,4.37,2.86H58c-.09-.79-.83-1-1.42-1s-1.18.11-1.18.59c0,1.19,5.86-.1,5.86,3.63,0,2.31-2,3.08-4.42,3.08C54.09,121.28,52.18,120.33,52,117.83Z"/><path class="cls-1" d="M62.63,109.13a1.75,1.75,0,1,1,1.75,1.74A1.75,1.75,0,0,1,62.63,109.13Zm.26,3.2h3v8.76h-3Z"/><path class="cls-1" d="M67.63,122.2h3c.06,1.11.84,1.65,2.18,1.65a1.79,1.79,0,0,0,2-2V120a3.56,3.56,0,0,1-3,1.25,4.58,4.58,0,0,1,0-9.14,3.68,3.68,0,0,1,3,1.27v-1.06h3v9.53c0,2.88-2.09,4.19-5.06,4.19C70.19,126.05,67.78,125.06,67.63,122.2Zm7.22-5.51a2.09,2.09,0,1,0-2.08,2.19A2,2,0,0,0,74.85,116.69Z"/><path class="cls-1" d="M80.18,112.33h3v1.06a3.41,3.41,0,0,1,2.69-1.27c2.34,0,3.29,1.61,3.29,4v5h-3v-5c0-1-.4-1.61-1.33-1.61s-1.67.7-1.67,2v4.57h-3Z"/><path class="cls-1" d="M103.14,121.09l-.62-.79a5.7,5.7,0,0,1-3.35,1c-2.64,0-4.49-1.37-4.49-3.83a4.44,4.44,0,0,1,2.53-3.92,5,5,0,0,1-1.12-2.89c0-2.25,2.09-3.26,4.1-3.26,2.35,0,4.11,1.35,4.11,3.18s-1.64,2.68-3.29,3.55l1.77,2.13,1.54-1.81,2.1,1.81-1.87,2.11,2.29,2.74Zm-2.23-2.83-2.2-2.77a2.34,2.34,0,0,0-1,1.84,1.49,1.49,0,0,0,1.63,1.53A2.57,2.57,0,0,0,100.91,118.26Zm-1.33-5.94c1.06-.53,1.88-1,1.88-1.83a1,1,0,0,0-1.16-1A1.22,1.22,0,0,0,99,110.74,3.08,3.08,0,0,0,99.58,112.32Z"/><path class="cls-1" d="M29.37,138.13a6.71,6.71,0,0,1,7-6.93c3.12,0,5.74,1.8,6.31,4.74H39.5a3.11,3.11,0,0,0-3.2-2.05,4.26,4.26,0,0,0,0,8.49,3.09,3.09,0,0,0,3.2-2.07h3.15c-.57,3-3.27,4.77-6.35,4.77A6.71,6.71,0,0,1,29.37,138.13Z"/><path class="cls-1" d="M44.23,136.16h3v1.07A2.81,2.81,0,0,1,49.42,136a2.54,2.54,0,0,1,1,.2v2.77h-.18a2.59,2.59,0,0,0-1.17-.28c-1.13,0-1.85.75-1.85,2.3v4h-3Z"/><path class="cls-1" d="M50.9,140.55c0-2.74,2.16-4.59,5.1-4.59,2.67,0,4.85,1.61,4.85,4.39v.76H54.06A1.85,1.85,0,0,0,55.94,143a1.69,1.69,0,0,0,1.79-1.14h3c-.58,2.18-2.4,3.27-4.75,3.27C53,145.12,50.9,143.33,50.9,140.55Zm6.79-1.05A1.66,1.66,0,0,0,55.9,138a1.71,1.71,0,0,0-1.8,1.51Z"/><path class="cls-1" d="M62.14,140.55A4.26,4.26,0,0,1,66.49,136a3.7,3.7,0,0,1,3,1.27v-1h3v8.74h-3v-1.06a3.6,3.6,0,0,1-3,1.26A4.24,4.24,0,0,1,62.14,140.55Zm7.35,0a2.09,2.09,0,1,0-2.08,2.19A2,2,0,0,0,69.49,140.55Z"/><path class="cls-1" d="M75.39,138.46H73.8v-2.3h1.59v-3.33h3v3.33h1.59v2.3H78.35v6.46h-3Z"/><path class="cls-1" d="M81,133a1.75,1.75,0,0,1,3.5,0,1.75,1.75,0,0,1-3.5,0Zm.27,3.2h3v8.76h-3Z"/><path class="cls-1" d="M85.31,136.16h3l2.08,6.26,2.09-6.26h3l-3.34,8.76H88.65Z"/><path class="cls-1" d="M95.76,140.55c0-2.74,2.16-4.59,5.1-4.59,2.67,0,4.85,1.61,4.85,4.39v.76H98.92A1.85,1.85,0,0,0,100.8,143a1.69,1.69,0,0,0,1.79-1.14h3c-.58,2.18-2.4,3.27-4.75,3.27C97.84,145.12,95.76,143.33,95.76,140.55Zm6.79-1.05a1.66,1.66,0,0,0-1.79-1.51A1.71,1.71,0,0,0,99,139.5Z"/><g id="Page-1"><g id="_035---Creative-Thinking" data-name="035---Creative-Thinking"><g id="Shape"><path class="cls-1" d="M31.73,99.8a13.14,13.14,0,0,1-1.11-26.23l.26,0-12-28.83a3.4,3.4,0,0,1,1.84-4.41l13.53-5.62a3.6,3.6,0,0,1,1.29-.24,3.4,3.4,0,0,1,3.12,2.06l8.83,21.3.15,0a19.27,19.27,0,0,1,3.16-.49h.22L43,22.9a1.14,1.14,0,0,1,0-.31l.6-16.93a3.93,3.93,0,0,1,3-3.65,3.57,3.57,0,0,1,.87-.1,3.9,3.9,0,0,1,3.42,2L59,18.84a1.39,1.39,0,0,1,.12.32l0,.15h0L67,52.84l.23-.2a22.17,22.17,0,0,1,3.52-2.42l.1-.06v-.11a80.09,80.09,0,0,1,.29-11.37c.19-2.09.48-4.4.9-7.07v-.08L72,31.46a12.84,12.84,0,0,1-2.24-3.67A9.58,9.58,0,0,1,72,17.27c6.15-6.79,6.87-10.08,6-13.19a1.75,1.75,0,0,1,1.7-2.2,1.71,1.71,0,0,1,1.08.38c.09.07,9,7,10,16.71a18.08,18.08,0,0,1-4,13l0,.06v.07A88.86,88.86,0,0,1,86,47.75l0,.17.17,0a22.2,22.2,0,0,1,5.26,1.9l.18.09,3.68-8.9A30.42,30.42,0,0,0,98,31a2.53,2.53,0,0,1,1.21-2.1l11.61-7.23a1.82,1.82,0,0,1,.83-.2l.22,0a1.74,1.74,0,0,1,.43.09,1.17,1.17,0,0,1,.26.17l0,0h.07s0,0,.07.07a1.61,1.61,0,0,1,.25.29l.12.16a2.18,2.18,0,0,1,.21.49l3,13.19a2.51,2.51,0,0,1-.63,2.33,30.29,30.29,0,0,0-5.21,9v.12l-7.41,17.83a22.48,22.48,0,0,1,.07,8l0,.21h.22a13.15,13.15,0,0,1,0,26.29H31.73Zm0-22.79a9.65,9.65,0,0,0,0,19.29h71.62a9.65,9.65,0,0,0,0-19.29,10.35,10.35,0,0,0-2.16.23,1.5,1.5,0,0,1-.37,0,1.75,1.75,0,0,1-1.29-.56A1.78,1.78,0,0,1,99.15,75a18.2,18.2,0,0,0,.81-5.46A18.57,18.57,0,0,0,84.7,51.25a19,19,0,0,0-3.35-.31A18.66,18.66,0,0,0,64,63a1.76,1.76,0,0,1-1.65,1.13,1.77,1.77,0,0,1-1-.34,15.34,15.34,0,0,0-24.54,12A1.74,1.74,0,0,1,36,77.14a1.77,1.77,0,0,1-1,.34,1.69,1.69,0,0,1-.5-.08A9.35,9.35,0,0,0,31.76,77ZM22.21,43.49l11.59,28L34,71A19,19,0,0,1,44.06,59.06l.16-.08L43,56l-5.91,2.45a2.11,2.11,0,0,1-.68.13,1.76,1.76,0,0,1-.67-3.38l5.92-2.45L40.51,50l-2.9,1.2a1.65,1.65,0,0,1-.66.13A1.75,1.75,0,0,1,36.27,48l2.9-1.2L38,44l-5.9,2.44a1.75,1.75,0,0,1-1.34-3.23l5.9-2.45L35.52,38Zm72.35,8.37.12.08a22.45,22.45,0,0,1,6.54,7.92l.18.37,5-12.07-.3,0h-.48a11.06,11.06,0,0,1-7.81-3.45l-.2-.22Zm-39-13.41a1.77,1.77,0,0,1,1.71,1.32l4.57,19.5.24-.42a22.72,22.72,0,0,1,2-3l.06-.07L56.89,25.07l-.24.25A7.83,7.83,0,0,1,54.39,27l-.14.07,1.14,4.81a1.75,1.75,0,0,1-.5,1.7,1.72,1.72,0,0,1-1.2.48,1.82,1.82,0,0,1-.52-.08A1.73,1.73,0,0,1,52,32.65l-1.13-4.8h-.38a7.47,7.47,0,0,1-2.53-.48l-.32-.12,7.07,30.15.13,0a19.65,19.65,0,0,1,2.82.67l.31.1L53.83,40.58a1.78,1.78,0,0,1,1.31-2.09A2.58,2.58,0,0,1,55.53,38.45ZM74.46,41c-.18,2.46-.24,5-.19,7.45v.25l.25-.08a22.39,22.39,0,0,1,6.85-1.12c.19,0,.37,0,.56,0h.27l.19,0,.09-.18c.3-2.2.51-4.13.64-5.89l0-.22-.22,0c-.57,0-1.16.09-1.75.09a47.06,47.06,0,0,1-6.35-.55l-.35,0Zm27-9.38v.09a32.23,32.23,0,0,1-2.14,8.62l0,.07,0,.07a6.75,6.75,0,0,0,3.62,3.69,6.49,6.49,0,0,0,2.5.5,6.76,6.76,0,0,0,2.67-.56l.06,0,0-.07a33.1,33.1,0,0,1,4.59-7.6l.06-.07-1.71-7.39-2.26,5.47a1.75,1.75,0,0,1-1.62,1.09,1.71,1.71,0,0,1-.67-.14,1.77,1.77,0,0,1-1-2.29l2.28-5.47ZM75.35,33c-.23,1.49-.4,2.84-.53,4.12l0,.18.5.06A33.94,33.94,0,0,0,81,37.8q1.06,0,2.13-.06l.17,0v-.17c0-1.78,0-3,0-4.11v-.17l-7.95-.48ZM81.59,8.28c-.68,3.24-2.84,6.74-7,11.34l-.09.1a6.65,6.65,0,0,0,.12,9.45l0,0h.07q4.58.3,9.27.57h.1l.06-.08a14.41,14.41,0,0,0,3.17-10.39A21.75,21.75,0,0,0,81.91,8.19l-.25-.27ZM46.53,22A5.2,5.2,0,0,0,50.8,24.3a5.56,5.56,0,0,0,1-.1A5.33,5.33,0,0,0,55.59,20l-2.63-5-.18.13A8.7,8.7,0,0,1,50,16.52a10.31,10.31,0,0,1-1.7.18,9.64,9.64,0,0,1-1.38-.1l-.21,0Zm.86-16.6a.35.35,0,0,0-.29.35L46.85,13l.15,0a5.11,5.11,0,0,0,1.23.15,4.43,4.43,0,0,0,1-.1,5.21,5.21,0,0,0,1.95-1l.12-.1L47.82,5.62a.37.37,0,0,0-.33-.2h0Z"/></g></g></g></g></svg>