<svg id="Events_Lab" data-name="Events Lab" xmlns="http://www.w3.org/2000/svg" viewBox="0 0 1102.33 1037.95"><defs><style>.cls-1{fill:#cdebfc;}.cls-2{fill:#1a1a1a;}.cls-3{fill:#4d4d4d;}.cls-4{fill:#faffff;}.cls-5{fill:gray;}.cls-6{fill:#f2f2f2;}.cls-7{fill:#faffea;}.cls-8{fill:#fff;}.cls-9{fill:#04bfad;}.cls-10{fill:#ccc;}.cls-11{fill:#f24405;}.cls-12{fill:#f2ca80;}.cls-13{fill:#a0b8b6;}.cls-14{fill:#f2911b;}.cls-15{fill:#21bf92;}.cls-16{fill:#febe7e;}.cls-17{fill:#aee6d1;}.cls-18{fill:#d4145a;}.cls-19{fill:#f25e5e;}.cls-20{fill:#ffcf00;}.cls-21{fill:#f15a24;}</style></defs><title>Events Lab</title><path class="cls-1" d="M588.73,196.84c44.88-54.15,120-75.82,186.24-73.58s130.92,44.1,148.38,109.83c7.86,29.6,6.3,62.52,18.86,90,16.82,36.83,55.26,56.22,92.73,68.67,31.24,10.36,65.16,18.59,87.47,43,27.08,29.66,30.19,75.51,30,117.77-.08,17.32-.8,35.79-10.17,50.73-16.22,25.86-49.89,30-76.13,44.07-53.89,29-73.66,99.45-77.53,161.19s1.19,126.62-26.73,182.79c-24.91,50.12-73.66,85.4-125.14,100.92s-105.53,13.13-156.74,3.18a533.06,533.06,0,0,1-127.43-41.92c-26.59-12.66-52.78-28.14-70.39-52.24-20.65-28.25-27.57-65.65-46.63-95.13C401.11,853,334.53,835,272.38,826s-128.52-14-178-52.1c-18.4-14.16-34-33.14-40.55-56.32-6.91-24.45-3.29-51.43,2.6-77,17.79-77.23,130.15-109.1,167.66-179.43,46.44-87,18.69-213.58,66.46-299.9,11.85-21.41,43.22-92.47,130.81-74.33C502.13,103.62,489.06,317.06,588.73,196.84Z" transform="translate(-50.08 -83.96)"/><path class="cls-2" d="M354.61,481.42,174.18,518.1a21.71,21.71,0,0,1-25.85-18.55L111.89,209.64a21.69,21.69,0,0,1,17.2-24l137.24-27.9a21.7,21.7,0,0,1,25.2,15.35l79.64,281.13A21.7,21.7,0,0,1,354.61,481.42Z" transform="translate(-50.08 -83.96)"/><circle class="cls-3" cx="194.27" cy="317.15" r="80.57"/><circle class="cls-2" cx="194.27" cy="317.15" r="76.3"/><circle class="cls-3" cx="194.27" cy="317.15" r="65.85"/><circle class="cls-2" cx="194.27" cy="317.15" r="31.05"/><circle class="cls-3" cx="163.44" cy="165.49" r="58.97"/><circle class="cls-2" cx="163.44" cy="165.49" r="55.84"/><circle class="cls-3" cx="163.44" cy="165.49" r="48.19"/><circle class="cls-2" cx="163.44" cy="165.49" r="22.72"/><path class="cls-2" d="M178.67,506.49l17.22-3.5c1.18-.24,2.26.31,2.35,1.2l2,20.56c.08.79-.68,1.58-1.74,1.79l-13.09,2.67a1.93,1.93,0,0,1-2.31-1L177,508.51C176.71,507.66,177.49,506.73,178.67,506.49Z" transform="translate(-50.08 -83.96)"/><path class="cls-2" d="M328.73,476l17.22-3.5c1.18-.24,2.26.31,2.35,1.2l2,20.55c.08.8-.68,1.58-1.74,1.8l-13.1,2.66a1.91,1.91,0,0,1-2.3-1L327,478C326.77,477.16,327.55,476.23,328.73,476Z" transform="translate(-50.08 -83.96)"/><path class="cls-2" d="M706.79,408.68,526.36,445.36a21.69,21.69,0,0,1-25.85-18.55L464.07,136.9a21.69,21.69,0,0,1,17.2-24L618.51,85a21.69,21.69,0,0,1,25.19,15.35l79.64,281.13A21.68,21.68,0,0,1,706.79,408.68Z" transform="translate(-50.08 -83.96)"/><circle class="cls-3" cx="546.45" cy="244.41" r="80.57"/><circle class="cls-2" cx="546.45" cy="244.41" r="76.3"/><circle class="cls-3" cx="546.45" cy="244.41" r="65.85"/><circle class="cls-2" cx="546.45" cy="244.41" r="31.05"/><circle class="cls-3" cx="515.61" cy="92.75" r="58.97"/><circle class="cls-2" cx="515.61" cy="92.75" r="55.84"/><circle class="cls-3" cx="515.61" cy="92.75" r="48.19"/><circle class="cls-2" cx="515.61" cy="92.75" r="22.72"/><path class="cls-2" d="M530.85,433.75l17.22-3.5c1.18-.24,2.26.32,2.35,1.2l2,20.56c.08.8-.68,1.58-1.74,1.8l-13.09,2.66a1.92,1.92,0,0,1-2.31-1l-6.15-19.71C528.89,434.93,529.67,434,530.85,433.75Z" transform="translate(-50.08 -83.96)"/><path class="cls-2" d="M680.91,403.25l17.21-3.5c1.18-.24,2.27.31,2.35,1.2l2,20.55c.08.8-.68,1.59-1.74,1.8L687.67,426a1.9,1.9,0,0,1-2.3-1l-6.16-19.72C679,404.42,679.73,403.49,680.91,403.25Z" transform="translate(-50.08 -83.96)"/><polygon class="cls-4" points="210.1 697.99 53.78 686.89 54.89 490.96 211.21 502.07 210.1 697.99"/><polygon class="cls-4" points="81.5 575.17 69.29 574.24 67.84 560.74 80.06 561.67 81.5 575.17"/><path class="cls-5" d="M133.64,661.32l-15.9-1.22-1.88-17.58,15.9,1.21Zm-12.65-5,8.53.65-1-9.43-8.53-.65Z" transform="translate(-50.08 -83.96)"/><polygon class="cls-4" points="82.57 600.03 70.36 599.1 68.91 585.6 81.13 586.53 82.57 600.03"/><path class="cls-5" d="M134.71,686.18,118.81,685l-1.89-17.58,15.91,1.21Zm-12.65-5,8.52.65-1-9.43-8.53-.65Z" transform="translate(-50.08 -83.96)"/><polygon class="cls-4" points="84.18 624.94 71.96 624.01 70.52 610.5 82.73 611.44 84.18 624.94"/><path class="cls-5" d="M136.32,711.09l-15.91-1.22-1.88-17.58,15.9,1.21Zm-12.66-5,8.53.65-1-9.42-8.52-.65Z" transform="translate(-50.08 -83.96)"/><polygon class="cls-4" points="85.24 649.8 73.03 648.87 71.58 635.36 83.8 636.3 85.24 649.8"/><path class="cls-5" d="M137.38,736l-15.9-1.22-1.88-17.58,15.9,1.21Zm-12.65-5,8.53.65-1-9.42-8.53-.65Z" transform="translate(-50.08 -83.96)"/><polygon class="cls-4" points="85.43 674.58 73.21 673.65 71.77 660.14 83.98 661.08 85.43 674.58"/><path class="cls-5" d="M137.57,760.73l-15.91-1.22-1.88-17.58,15.91,1.21Zm-12.66-5,8.53.66-1-9.43-8.52-.65Z" transform="translate(-50.08 -83.96)"/><polygon class="cls-6" points="195.57 583.71 191.89 568.09 94.83 562.32 98.52 577.94 195.57 583.71"/><polygon class="cls-6" points="197.96 608.84 194.27 593.22 97.21 587.45 100.9 603.06 197.96 608.84"/><polygon class="cls-6" points="198.92 633.84 195.23 618.22 98.17 612.45 101.86 628.07 198.92 633.84"/><polygon class="cls-6" points="199.96 658.24 196.27 642.62 99.21 636.85 102.9 652.47 199.96 658.24"/><polygon class="cls-6" points="198.71 683.66 195.02 668.04 97.96 662.26 101.65 677.88 198.71 683.66"/><polygon class="cls-7" points="196.71 550.46 65.5 541.14 64.37 509.57 195.58 518.89 196.71 550.46"/><rect class="cls-3" x="498.16" y="1013.08" width="216.61" height="14.88" rx="5.87" transform="translate(-161.57 1881.97) rotate(-112.06)"/><rect class="cls-3" x="562.2" y="945.57" width="128.55" height="14.88" transform="translate(1698.2 663.48) rotate(112.94)"/><rect class="cls-3" x="826.34" y="880.06" width="216.61" height="14.88" rx="5.87" transform="translate(413.17 2003.12) rotate(-112.06)"/><rect class="cls-3" x="809" y="845.53" width="128.55" height="14.88" transform="translate(351.36 -356.84) rotate(22.94)"/><rect class="cls-8" x="530.47" y="848.71" width="403.25" height="29.77" rx="10.1" transform="translate(-320.87 254.3) rotate(-22.06)"/><path class="cls-9" d="M1060.1,351.35,860.17,380.44l-2.82-24.33A14.56,14.56,0,0,0,854.27,328l-.19,0L851,301l199.92-29.09,3,25.72a14.57,14.57,0,0,0,3.13,28.06l.13,0Z" transform="translate(-50.08 -83.96)"/><polygon class="cls-6" points="986.08 220.88 889.41 234.95 887.58 219.2 984.25 205.13 986.08 220.88"/><polygon class="cls-10" points="881.61 270.95 827.43 278.84 821.8 230.37 875.99 222.48 881.61 270.95"/><polygon class="cls-6" points="988.35 240.43 891.68 254.49 890.48 244.13 987.15 230.07 988.35 240.43"/><polygon class="cls-6" points="990.28 257.05 893.61 271.12 892.41 260.76 989.08 246.69 990.28 257.05"/><path class="cls-11" d="M508.49,787.58c-.14-.51-13.73-51.65-23.32-105.24-5.65-31.54-8.83-57.78-9.46-78-.82-26.44,2.67-42.46,10.69-49l.51-.42.64-.17c18.69-5,29.52-9.59,34.08-14.4,3.59-3.79,3.34-7.62,2.55-14.63-.89-7.81-2-17.52,4-30.81,5.87-13,15.81-19.56,28-18.47,21.5,1.94,44.92,27.28,52.22,56.49a74,74,0,0,1-2,43.9c-5.91,15.92-17.51,29.62-34.48,40.72-42.76,28-57.21,168.07-57.35,169.48L512.87,804Zm47.13-304.9c-9.49-.86-17,4.28-21.79,14.84-5.3,11.73-4.34,20.14-3.5,27.56.8,7,1.55,13.54-4.2,19.6-5.46,5.76-16.34,10.54-36.29,15.94-11.17,10.23-10.68,53,1.43,120.59,6.32,35.32,14.39,69.59,19.15,88.85,2-14.22,5.41-36,10.72-58.95,12.3-53,28.24-86.17,47.39-98.69,15.84-10.36,26.62-23,32.06-37.68a67.94,67.94,0,0,0,1.79-40.25A83.16,83.16,0,0,0,583,498.6c-7.23-7.77-15.34-13.09-22.87-15.11A26.41,26.41,0,0,0,555.62,482.68Z" transform="translate(-50.08 -83.96)"/><rect class="cls-8" x="480.09" y="758.66" width="47.65" height="76.42" rx="3.75" transform="translate(823.15 1580.39) rotate(-170.75)"/><rect class="cls-12" x="490.31" y="763.9" width="35.18" height="24" transform="matrix(-0.99, -0.16, 0.16, -0.99, 834.43, 1539.37)"/><rect class="cls-13" x="483.4" y="801.19" width="35.18" height="27.29" transform="translate(814.44 1615.63) rotate(-170.75)"/><rect class="cls-9" x="511.23" y="794.21" width="11.8" height="4.77" transform="translate(849.44 1581.98) rotate(-170.75)"/><path class="cls-14" d="M389.29,790.41c-2.33-.86-2.41-3.18-2.15-4.85-15.91-22.88-57.46-80.12-70.86-87.83-9.31-5.35-15.86-16.94-18.95-33.5-2.63-14.09-2.72-31.75-.25-49.73,4.27-31.18,16.52-64.67,34.24-69.19,10.05-2.56,18.16,5,23.2,11.87,8.32,11.29,12.5,27.65,16.92,45,4.26,16.69,8.67,34,17.08,48.07,9.34,15.69,22.46,25,40.1,28.52l.56.11.48.31c6.34,4,7.11,14.08,2.38,30.92-3.36,11.93-9.66,27.53-17.73,43.93-4.63,9.39-9.5,18.37-13.72,25.28-2,3.29-3.74,5.88-5.12,7.68-1.23,1.6-3.25,4.24-5.86,3.54A2.33,2.33,0,0,1,389.29,790.41Zm3.92-3.56Zm29.16-103.2c-39.19-10.52-48.6-47.34-56.94-80-4.27-16.72-8.3-32.51-15.9-42.82-5.68-7.7-11.29-10.92-16.68-9.54-12.52,3.19-25,30.12-29.63,64-2.38,17.33-2.31,34.29.2,47.74,2.75,14.73,8.26,24.85,15.95,29.27,16.4,9.43,64.14,77.17,72.46,89.09,4-5.87,11.61-18.82,19.7-35.94,11.5-24.36,17.82-44.25,17.34-54.59-.15-3.08-.86-5.17-2.12-6.23C425.25,684.38,423.8,684,422.37,683.65Z" transform="translate(-50.08 -83.96)"/><rect class="cls-8" x="378.54" y="772.92" width="47.65" height="76.42" rx="3.75" transform="translate(1005.86 1353.8) rotate(160.18)"/><rect class="cls-12" x="378.07" y="778.87" width="35.18" height="24" transform="translate(985.98 1316.75) rotate(160.18)"/><rect class="cls-13" x="390.95" y="814.61" width="35.18" height="27.29" transform="translate(1023.65 1384.95) rotate(160.18)"/><rect class="cls-9" x="407.88" y="802.09" width="11.8" height="4.77" transform="translate(1025.76 1337.02) rotate(160.18)"/><path class="cls-15" d="M596.48,801.8c-1.41-2.55,1-4.25,2-5q.75-.52,2-1.32c5.19-11.39,29.5-65.19,34-81.58,15.77-56.77,37.32-89.88,52.63-107.65,18.63-21.66,38.91-32.92,54.23-30.14,14.42,2.62,21.89,16.9,20,38.2-.77,8.65-1,16.7-1.27,24.49-1.16,36.48-2.08,65.3-56,100.47-7.71,5-28,17.29-49.44,30.27-18.37,11.1-40.37,24.41-49.33,30.15l-.23.5-.45,1-1,.48c-1.09.56-1.9,1-2.48,1.2a4.34,4.34,0,0,1-2.93.39A3,3,0,0,1,596.48,801.8ZM740.27,582.23c-12.94-2.35-31.49,8.41-48.43,28.08-27,31.34-42.81,74.54-51.35,105.27-4,14.3-21.74,54.47-30.49,73.91l4.27-2.64c10.16-6.23,23.92-14.55,37.23-22.6,20.46-12.37,41.63-25.17,49.26-30.15,51.18-33.41,52-59.44,53.15-95.48.25-7.87.51-16,1.3-24.84,1.53-17.24-3.38-28.51-13.51-31.23C741.24,582.43,740.76,582.32,740.27,582.23Z" transform="translate(-50.08 -83.96)"/><rect class="cls-8" x="568.53" y="789.92" width="47.65" height="76.42" rx="3.75" transform="translate(657.09 1755.85) rotate(-150.9)"/><rect class="cls-12" x="585.63" y="797.77" width="35.18" height="24" transform="translate(686.38 1726.72) rotate(-150.9)"/><rect class="cls-13" x="565.91" y="830.4" width="35.18" height="27.29" transform="translate(632.75 1781.35) rotate(-150.9)"/><rect class="cls-9" x="598.97" y="829.98" width="11.8" height="4.77" transform="translate(678.47 1769.87) rotate(-150.9)"/><path class="cls-9" d="M965.29,193.06,795,301.8l-12.57-21a14.56,14.56,0,0,0-14.36-24.32l-.18.06-14-23.34L924.21,124.45l13.3,22.21A14.57,14.57,0,0,0,951.91,171l.12,0Z" transform="translate(-50.08 -83.96)"/><polygon class="cls-6" points="874.27 76.55 791.94 129.14 783.79 115.53 866.12 62.95 874.27 76.55"/><polygon class="cls-10" points="799.64 165.16 753.49 194.63 728.42 152.77 774.57 123.3 799.64 165.16"/><polygon class="cls-6" points="884.37 93.43 802.04 146.02 796.69 137.07 879.02 84.49 884.37 93.43"/><polygon class="cls-6" points="892.97 107.79 810.64 160.38 805.28 151.43 887.62 98.85 892.97 107.79"/><rect class="cls-16" x="851.69" y="459.55" width="14.63" height="51.14" transform="translate(-0.75 -162.46) rotate(5.39)"/><rect class="cls-16" x="897.82" y="463.9" width="14.63" height="51.14" transform="translate(-0.13 -166.77) rotate(5.39)"/><rect class="cls-16" x="943.96" y="468.25" width="14.63" height="51.14" transform="translate(0.48 -171.08) rotate(5.39)"/><rect class="cls-16" x="990.09" y="472.6" width="14.63" height="51.14" transform="translate(1.09 -175.39) rotate(5.39)"/><path class="cls-8" d="M1037.89,552.59l-10.66,113.13L797.12,644,807.79,530.9c1.58-16.84,16.18-29.23,32.6-27.68l170.66,16.09a29.9,29.9,0,0,1,26,22.31A31.24,31.24,0,0,1,1037.89,552.59Z" transform="translate(-50.08 -83.96)"/><polygon class="cls-17" points="777.8 506.06 778.11 524.36 763.4 513.47 751.03 517.72 753.88 487.56 759.2 487.61 769.71 472.63 775.2 490.08 792.69 495.44 777.8 506.06"/><path class="cls-18" d="M1038,551.83l-1.63,17.25-6-2-14.58,11,.11-18.29-15-10.46,17.43-5.55,5.31-17.51,10.67,14.86,2.8-.06A30,30,0,0,1,1038,551.83Z" transform="translate(-50.08 -83.96)"/><polygon class="cls-19" points="894.7 550.45 877.36 544.61 862.72 555.59 862.92 537.29 847.96 526.76 865.41 521.29 870.81 503.81 881.4 518.72 899.7 518.45 888.79 533.13 894.7 550.45"/><polygon class="cls-19" points="827.84 482.46 815.02 469.4 797 472.56 805.46 456.33 796.89 440.17 814.94 443.2 827.66 430.06 830.35 448.15 846.79 456.2 830.41 464.35 827.84 482.46"/><circle class="cls-18" cx="832.92" cy="501.32" r="7.67"/><circle class="cls-9" cx="879.51" cy="453.05" r="7.67"/><circle class="cls-17" cx="927.74" cy="552.04" r="7.67"/><circle class="cls-19" cx="946.47" cy="516.06" r="7.67"/><circle class="cls-9" cx="803.51" cy="534.73" r="7.67"/><path class="cls-20" d="M1010.15,458.38c-.69,7.29-7.37,8.32-10.59,8-2.16-.21-8.75-3-3.82-16.68,1.86-5.72,5-7.69,5-7.69a62.12,62.12,0,0,0,2.75,6.47,16.36,16.36,0,0,0,2.11-3.87S1010.83,451.09,1010.15,458.38Z" transform="translate(-50.08 -83.96)"/><path class="cls-20" d="M1010.15,458.38c-.69,7.29-7.37,8.32-10.59,8-2.16-.21-8.75-3-3.82-16.68" transform="translate(-50.08 -83.96)"/><path class="cls-21" d="M996.43,459.74c-.39,4.07,3.17,5.33,5,5.5,1.2.11,5.1-.71,3.83-8.74a8.17,8.17,0,0,0-1.92-4.74,35.2,35.2,0,0,1-2.18,3.27,9.09,9.09,0,0,1-.75-2.35S996.81,455.67,996.43,459.74Z" transform="translate(-50.08 -83.96)"/><path class="cls-21" d="M996.43,459.74c-.39,4.07,3.17,5.33,5,5.5,1.2.11,5.1-.71,3.83-8.74" transform="translate(-50.08 -83.96)"/><path class="cls-20" d="M947.32,452.46c-.69,7.29,5.69,9.55,8.91,9.85,2.16.2,9.15-1.28,6.87-15.67-.76-6-2-6.72-2-6.72a62.64,62.64,0,0,1-3.91,5.85,16.1,16.1,0,0,1-1.35-4.2S948,445.17,947.32,452.46Z" transform="translate(-50.08 -83.96)"/><path class="cls-20" d="M947.32,452.46c-.69,7.29,5.69,9.55,8.91,9.85,2.16.2,9.15-1.28,6.87-15.67" transform="translate(-50.08 -83.96)"/><path class="cls-21" d="M960.54,456.36c-.38,4.07-4.11,4.64-5.9,4.47-1.21-.11-4.89-1.65-2.14-9.3a8.16,8.16,0,0,1,2.77-4.3,35.52,35.52,0,0,0,1.54,3.62,9,9,0,0,0,1.17-2.16S960.93,452.29,960.54,456.36Z" transform="translate(-50.08 -83.96)"/><path class="cls-21" d="M960.54,456.36c-.38,4.07-4.11,4.64-5.9,4.47-1.21-.11-4.89-1.65-2.14-9.3" transform="translate(-50.08 -83.96)"/><path class="cls-20" d="M916.75,449.57c-.69,7.3-7.37,8.32-10.59,8-2.16-.2-8.75-3-3.82-16.67a20,20,0,0,1,6.73-9.16,62.12,62.12,0,0,0,2.75,6.47,16.36,16.36,0,0,0,2.11-3.87S917.44,442.28,916.75,449.57Z" transform="translate(-50.08 -83.96)"/><path class="cls-20" d="M916.75,449.57c-.69,7.3-7.37,8.32-10.59,8-2.16-.2-8.75-3-3.82-16.67" transform="translate(-50.08 -83.96)"/><path class="cls-21" d="M903.08,450.45c-.42,4.47,3.58,5.86,5.6,6.05,1.35.13,5.74-.77,4.29-9.58-.49-3.66-2.17-5.21-2.17-5.21a39,39,0,0,1-2.45,3.58,9.87,9.87,0,0,1-.85-2.57S903.5,446,903.08,450.45Z" transform="translate(-50.08 -83.96)"/><path class="cls-21" d="M903,450.94c-.38,4.07,3.17,5.33,5,5.49,1.21.12,5.11-.71,3.83-8.74" transform="translate(-50.08 -83.96)"/><path class="cls-20" d="M854,443c-.74,7.85,5.62,10.23,8.84,10.53,2.16.21,9.17-1.44,7-16.9-.72-6.41-5.64-10.94-5.64-10.94a73,73,0,0,1-4,6.31,17.93,17.93,0,0,1-1.32-4.5S854.73,435.12,854,443Z" transform="translate(-50.08 -83.96)"/><path class="cls-20" d="M853.93,443.65c-.69,7.29,5.68,9.55,8.9,9.85,2.16.21,9.15-1.28,6.87-15.66" transform="translate(-50.08 -83.96)"/><path class="cls-21" d="M867.15,447.55c-.38,4.07-4.11,4.65-5.91,4.48-1.2-.12-4.88-1.66-2.13-9.31a8.1,8.1,0,0,1,2.77-4.29,36.14,36.14,0,0,0,1.53,3.61,9.18,9.18,0,0,0,1.18-2.16S867.53,443.49,867.15,447.55Z" transform="translate(-50.08 -83.96)"/><path class="cls-21" d="M867.15,447.55c-.38,4.07-4.11,4.65-5.91,4.48-1.2-.12-4.88-1.66-2.13-9.31" transform="translate(-50.08 -83.96)"/><circle class="cls-17" cx="909.74" cy="482.04" r="7.67"/></svg>