<svg id="Events" xmlns="http://www.w3.org/2000/svg" viewBox="0 0 1137.5 885.22"><defs><style>.cls-1{fill:#cdebfc;}.cls-2{fill:#cb1a1a;}.cls-3{fill:#e69c72;}.cls-4{fill:#ffbca2;}.cls-5{fill:#ffcdb9;}.cls-6{fill:#666;opacity:0.3;}.cls-7{fill:#90c291;}.cls-8{fill:#9e005d;}.cls-9{fill:#fff;}.cls-10{fill:#170027;}.cls-11{fill:#c1272d;}.cls-12{fill:#f2f2f2;}.cls-13{fill:#c7b299;}.cls-14{fill:#d4145a;}.cls-15{fill:#29abe2;}.cls-16{fill:#f7931e;}.cls-17{fill:#a67c52;}.cls-18{fill:#754c24;}.cls-19{fill:#c2145a;}.cls-20{fill:#ffe7e8;}.cls-21{fill:#004837;}.cls-22{fill:#ccc;}.cls-23{fill:#fbb03b;}.cls-24{fill:#00003c;}.cls-25{fill:#1b1464;}.cls-26{fill:#fff1d6;}.cls-27{fill:#1a1a1a;}</style></defs><title>Events</title><path id="Light_Blue_Blob_1" data-name="Light Blue Blob 1" class="cls-1" d="M14.47,1042.33a97.88,97.88,0,0,0,.7,10H1152c-16.83-23.62-33.28-47.73-46.16-77.24-54.7-125.42-33.49-316.08-61.22-468.55-5.13-28.19-13-55.86-27.72-71-66-68.06-110.06,80.18-167.51,69C716.86,478.76,778,314.85,726.05,240.77c-24-34.26-63.32-46.51-99.15-25.81-52.83,30.52-62.79,164.8-128.34,188.15C394.54,440.17,378.28,274,286.19,277.69c-39.21,1.58-78.3,33.48-107.95,80.81s-43.66,125.7-21.82,168.8c19.45,38.35,62,43.66,68.24,95,1.43,11.9.56,24.94-1.2,37.71C209.51,760.39,14.46,869.61,14.47,1042.33Z" transform="translate(-14.47 -204.84)"/><g id="Ryder_Davidson" data-name="Ryder Davidson"><g id="Ryder_Davidson-2" data-name="Ryder Davidson"><path class="cls-2" d="M631.64,720.07c-2.73-8.78,6.8-24.22,2.43-32.94-7.45-14.83-6.63-18.74-7.4-29.73-.4-5.69-21.25-15.13-33.09-15.19-24.87-.12-26,16.62-21.28,16,4.5-.59-3.13,2.73-.93,4.72,3.57,3.23,4.35,9.35,3,16.78-1.79,10.19-3,53.15,10.32,57.74,11.9,4.08,28.39,2.3,41.68,5.11C632,743.76,632.61,723.18,631.64,720.07Z" transform="translate(-14.47 -204.84)"/><path class="cls-3" d="M609.65,692.53a14.6,14.6,0,0,1-2.75,3,20.84,20.84,0,0,1-3.27,2.06,37.13,37.13,0,0,1-10.41,1.63l.09-.78c3.34-.78,8.15-2,10.32-2.71,1-.48,4.78-2.65,6-3.43Z" transform="translate(-14.47 -204.84)"/><path class="cls-4" d="M609.63,692.27c-1.22.78-5,3-6,3.43-2.17.67-7,1.93-10.32,2.71L595,684.17l.26-2.19a9.21,9.21,0,0,0,3.21,2.75,8.76,8.76,0,0,0,1.58.57,7.78,7.78,0,0,0,5.25-.59,11,11,0,0,0,1.69-1,8.77,8.77,0,0,0,1.88-2.12l.17,2.23Z" transform="translate(-14.47 -204.84)"/><polygon class="cls-5" points="567.42 529.52 512.33 562.08 502.39 550 558.64 517.09 567.42 529.52"/><path class="cls-5" d="M612.1,727.73l-21.93-2.87L593,701.05l.23-1.86a37.13,37.13,0,0,0,10.41-1.63,20.84,20.84,0,0,0,3.27-2.06,14.6,14.6,0,0,0,2.75-3l.11,1.69Z" transform="translate(-14.47 -204.84)"/><path class="cls-3" d="M630.66,841.88c1,1.48,4.91-.5,4.91-.5s-4.56,4.51-2.34,5.19c1,.31,3-.87,3-.87.13.29-1.82,4-.59,4.52,1.94.85,3.68-3.9,3.85-3.82,0,0-.08,3.81.88,4.1,2.41.73,2.38-3.18,2.65-3.25,0,0,.49,2,1.87,2.34,2.86.61,3.08-9.48,4.44-15.49.33-1.44-.6-.51-1.93-1.15l-6.26-1.76C633.81,836.35,630,840.83,630.66,841.88Z" transform="translate(-14.47 -204.84)"/><path class="cls-5" d="M489.1,691.08c-2.2-.07-2.72,8.52-2.72,8.52s-5.72-16.83-8.06-15.08c-1,.78,3.24,12.69,3.24,12.69-.4-.07-7.24-13.69-8.7-12.82-2.31,1.36,5.75,15.51,5.55,15.63,0,0-8.38-11.81-9.39-11-2.54,1.92,6,13.68,5.88,14,0,0-7-10-8.37-8.79-2.76,2.47,17.72,24.26,19.36,23.37l4.73-3.12C491,703.35,490.67,691.13,489.1,691.08Z" transform="translate(-14.47 -204.84)"/><polygon class="cls-5" points="592.2 527.29 635.71 584.78 641.42 572.9 605.59 520.04 592.2 527.29"/><path class="cls-6" d="M609.69,693.16c-3.29,3.66-11.09,7.08-16.57,6.86l.19-1.61c3.34-.78,8.15-2,10.32-2.71,1-.48,4.78-2.65,6-3.43Z" transform="translate(-14.47 -204.84)"/><path class="cls-5" d="M617.54,672.49c0,7.56-3.62,13.89-7.52,19.52,0,0-3.43,2.11-6.39,3.69-7.38,3.94-13.42,3.38-13.78,3.35-1.31-.39-5.21-4.48-8.26-10.24-2.37-4.51-4.23-10.06-3.92-15.69a20.06,20.06,0,0,1,1-5.14c2.94-9,11.68-18.35,21.25-17.42C610.09,651.55,617.54,661,617.54,672.49Z" transform="translate(-14.47 -204.84)"/><path class="cls-5" d="M650.88,776.84l-13.31,59.95,9.51.88,14.57-47.23c1.21-4.37-4.39-12.73-7.8-14.09Z" transform="translate(-14.47 -204.84)"/><path class="cls-5" d="M526.81,766.91l-38-58-7,3.09,25.42,51.86c3.3,4.86,9.52,7.82,13,6.18Z" transform="translate(-14.47 -204.84)"/><polygon class="cls-7" points="588.48 605.13 550.23 612.79 552.24 552.72 608.6 556.04 588.48 605.13"/><path class="cls-8" d="M536.11,920.09c-1,4.89,99.44,17.53,98.23,12.47C614,847.79,612.43,802.81,602.23,806.62c-13.51,5-19.93.68-31.93-2.78C553.63,799,549.68,855.38,536.11,920.09Z" transform="translate(-14.47 -204.84)"/><path class="cls-7" d="M632.76,735.66c-3.31,26.67-21.17,47-39.88,45.35s-31.21-24.54-27.9-51.2S636.06,709,632.76,735.66Z" transform="translate(-14.47 -204.84)"/><circle class="cls-5" cx="601.35" cy="471.57" r="7.94"/><path class="cls-9" d="M587.72,689.75c-.06,1.51,2.28,2.83,5.22,2.94s5.38-1,5.44-2.53C598.42,689.17,587.76,688.62,587.72,689.75Z" transform="translate(-14.47 -204.84)"/><path class="cls-2" d="M613.68,653.37c-6.85.45,13.08,16.18,4.81,11.62-3.29-1.81-38.89-1-36.31-13.43C584,642.61,620.53,652.92,613.68,653.37Z" transform="translate(-14.47 -204.84)"/></g></g><g id="Red_Event_Tent" data-name="Red Event Tent"><g id="Red_Event_Roof" data-name="Red Event Roof"><rect class="cls-10" x="836" y="307.07" width="27.22" height="438.43"/><rect class="cls-10" x="327.1" y="294.96" width="27.22" height="438.43"/><path class="cls-11" d="M937.21,564.61H264.93a12,12,0,0,1-11.45-15.68L303.33,393a12,12,0,0,1,11.45-8.36H887.36A12,12,0,0,1,898.81,393l49.85,155.92A12,12,0,0,1,937.21,564.61Z" transform="translate(-14.47 -204.84)"/><rect class="cls-12" x="347.87" y="179.81" width="72.27" height="179.97"/><rect class="cls-12" x="489.14" y="179.81" width="72.27" height="179.97"/><rect class="cls-12" x="630.4" y="179.81" width="72.27" height="179.97"/><rect class="cls-12" x="771.66" y="179.81" width="72.27" height="179.97"/><rect class="cls-13" x="227.42" y="359.08" width="719.45" height="11.42" rx="4.71"/><path class="cls-14" d="M319.59,575.71a38.4,38.4,0,1,1-76.8,0Z" transform="translate(-14.47 -204.84)"/><path class="cls-15" d="M399,575.71a38.4,38.4,0,0,1-76.8,0Z" transform="translate(-14.47 -204.84)"/><path class="cls-16" d="M478.17,575.71a38.4,38.4,0,1,1-76.79,0Z" transform="translate(-14.47 -204.84)"/><path class="cls-14" d="M558,575.71a38.4,38.4,0,0,1-76.8,0Z" transform="translate(-14.47 -204.84)"/><path class="cls-15" d="M637.4,575.71a38.4,38.4,0,0,1-76.8,0Z" transform="translate(-14.47 -204.84)"/><path class="cls-16" d="M716.85,575.71a38.4,38.4,0,1,1-76.8,0Z" transform="translate(-14.47 -204.84)"/><path class="cls-14" d="M796.3,575.71a38.4,38.4,0,1,1-76.8,0Z" transform="translate(-14.47 -204.84)"/><path class="cls-15" d="M875.76,575.71a38.4,38.4,0,1,1-76.8,0Z" transform="translate(-14.47 -204.84)"/><path class="cls-16" d="M955.21,575.71a38.4,38.4,0,0,1-76.8,0Z" transform="translate(-14.47 -204.84)"/></g><g id="Booth-_Oak" data-name="Booth- Oak"><rect class="cls-17" x="288.34" y="627.85" width="364.51" height="200.05"/><rect class="cls-18" x="268.38" y="627.85" width="404.44" height="42.02" rx="12.91"/><rect class="cls-18" x="283.62" y="936.25" width="170.2" height="22.78" transform="translate(-593.39 1111.52) rotate(-90)"/><rect class="cls-18" x="363.43" y="936.25" width="170.2" height="22.78" transform="translate(-513.58 1191.33) rotate(-90)"/><rect class="cls-18" x="443.23" y="936.25" width="170.2" height="22.78" transform="translate(-433.78 1271.13) rotate(-90)"/><rect class="cls-18" x="509.71" y="936.25" width="170.2" height="22.78" transform="translate(-367.3 1337.61) rotate(-90)"/></g><g id="Booth_Display-_Pink" data-name="Booth Display- Pink"><path class="cls-19" d="M654.51,610.7H888.84A14.17,14.17,0,0,1,903,624.87V835.35a0,0,0,0,1,0,0H640.34a0,0,0,0,1,0,0V624.87A14.17,14.17,0,0,1,654.51,610.7Z"/><path class="cls-20" d="M675.74,623.31h190.6a14.17,14.17,0,0,1,14.17,14.17v50a0,0,0,0,1,0,0H661.58a0,0,0,0,1,0,0v-50A14.17,14.17,0,0,1,675.74,623.31Z"/><rect class="cls-20" x="661.58" y="701.1" width="218.94" height="64.2"/><g id="Asian-_" data-name="Asian- ??"><path class="cls-9" d="M870.68,970.13H847.41c-7,0-12.12-5.39-10.61-11.07l5.14-19.24c1.1-4.16,5.51-7.11,10.61-7.11h12.53c5,0,9.38,2.87,10.56,6.94l5.6,19.24C882.91,964.62,877.73,970.13,870.68,970.13Z" transform="translate(-14.47 -204.84)"/><rect class="cls-21" x="838.44" y="727.87" width="13.12" height="37.42"/><path class="cls-9" d="M821.85,970.13H798.58c-7,0-12.12-5.39-10.61-11.07l5.13-19.24c1.11-4.16,5.52-7.11,10.61-7.11h12.54c5,0,9.38,2.87,10.56,6.94l5.6,19.24C834.08,964.62,828.89,970.13,821.85,970.13Z" transform="translate(-14.47 -204.84)"/><rect class="cls-21" x="789.6" y="727.87" width="13.12" height="37.42"/><path class="cls-9" d="M772.7,970.13H749.43c-7,0-12.12-5.39-10.61-11.07L744,939.82c1.1-4.16,5.51-7.11,10.6-7.11H767.1c5,0,9.38,2.87,10.56,6.94l5.6,19.24C784.93,964.62,779.74,970.13,772.7,970.13Z" transform="translate(-14.47 -204.84)"/><rect class="cls-21" x="740.45" y="727.87" width="13.12" height="37.42"/><path class="cls-9" d="M722.74,970.13H699.47c-7,0-12.13-5.39-10.61-11.07L694,939.82c1.11-4.16,5.52-7.11,10.61-7.11h12.54c5,0,9.37,2.87,10.56,6.94l5.6,19.24C735,964.62,729.78,970.13,722.74,970.13Z" transform="translate(-14.47 -204.84)"/><rect class="cls-21" x="690.49" y="727.87" width="13.12" height="37.42"/></g><g id="Pies-_Raspberry" data-name="Pies- Raspberry"><polygon class="cls-22" points="724.08 687.61 680.99 687.61 676.32 671.75 728.75 671.75 724.08 687.61"/><path class="cls-23" d="M745,875.28c0,6-12.52,8.46-28,8.46s-28-2.46-28-8.46,12.51-10.87,28-10.87S745,869.28,745,875.28Z" transform="translate(-14.47 -204.84)"/><ellipse class="cls-14" cx="702.53" cy="664.57" rx="4.67" ry="0.85"/><ellipse class="cls-14" cx="702.53" cy="664.57" rx="0.79" ry="4.99"/><polygon class="cls-22" points="793.15 687.61 750.05 687.61 745.38 671.75 797.82 671.75 793.15 687.61"/><path class="cls-23" d="M814,875.28c0,6-12.51,8.46-27.95,8.46s-27.94-2.46-27.94-8.46,12.51-10.87,27.94-10.87S814,869.28,814,875.28Z" transform="translate(-14.47 -204.84)"/><ellipse class="cls-14" cx="771.6" cy="664.57" rx="4.67" ry="0.85"/><ellipse class="cls-14" cx="771.6" cy="664.57" rx="0.79" ry="4.99"/><polygon class="cls-22" points="863.43 687.61 820.33 687.61 815.66 671.75 868.1 671.75 863.43 687.61"/><path class="cls-23" d="M884.3,875.28c0,6-12.51,8.46-27.95,8.46s-28-2.46-28-8.46,12.52-10.87,28-10.87S884.3,869.28,884.3,875.28Z" transform="translate(-14.47 -204.84)"/><ellipse class="cls-14" cx="841.88" cy="664.57" rx="4.67" ry="0.85"/><ellipse class="cls-14" cx="841.88" cy="664.57" rx="0.79" ry="4.99"/></g></g></g><g id="Harley_Koo" data-name="Harley Koo"><polygon class="cls-4" points="296.43 517.79 319.01 567.68 333.57 560.6 312.31 515.34 296.43 517.79"/><polygon class="cls-4" points="249.4 629.45 290.51 636.82 282.37 547.16 228.47 550.36 249.4 629.45"/><path class="cls-4" d="M283.76,685.74l-3.51-12.31-20.74.63L257.9,685a15.28,15.28,0,0,0,3.36,3.21,18.08,18.08,0,0,0,13.65,2.73A16.81,16.81,0,0,0,283.76,685.74Z" transform="translate(-14.47 -204.84)"/><path class="cls-4" d="M257.07,726.83l32.32-6.42-4.58-31a17.06,17.06,0,0,1-9.9,6.44,18,18,0,0,1-13.65-2.73,17.35,17.35,0,0,1-4-4Z" transform="translate(-14.47 -204.84)"/><polygon class="cls-4" points="217.06 858.68 229.81 860.52 236.16 826.81 223.4 824.97 217.06 858.68"/><polygon class="cls-4" points="305.38 859.15 289.34 860.19 285.45 822.56 301.49 821.53 305.38 859.15"/><path class="cls-24" d="M318.76,1038c-.26,5.94-8.36.17-16,1.17-10.92,1.42-8.12-90.56-17.58-158.7-.95-6.82-8.24-4.86-8.72.43-5.87,65.3-23.72,158.41-27.87,157.77-11.36-1.74-14.36,5-14-1,9-163.68-8.31-212.29,18.2-224.56,10.55-4.89,37.75-1.92,49.23-2.12,3.11-.06,4.8,2.45,5.8,5.28C315.11,837,326.11,867.25,318.76,1038Z" transform="translate(-14.47 -204.84)"/><polygon class="cls-4" points="228.01 520.54 177.84 570.13 170 551.39 222.85 503.09 228.01 520.54"/><path class="cls-4" d="M248.65,666a29.72,29.72,0,0,0,.74,4.68c.06.28,4.17,9,8.51,14.3a15.28,15.28,0,0,0,3.36,3.21,18.08,18.08,0,0,0,13.65,2.73,16.81,16.81,0,0,0,8.85-5.2,21,21,0,0,0,2.32-3.09c2-3.28,2.58-10.42,2.72-15.36.08-2.93,0-5.09,0-5.22-3.22-13.57-14.65-22.64-25.53-20.25C253.63,643.93,247.67,654.27,248.65,666Z" transform="translate(-14.47 -204.84)"/><path class="cls-4" d="M257.28,689.15a17.35,17.35,0,0,0,4,4,18,18,0,0,0,13.65,2.73,17.06,17.06,0,0,0,9.9-6.44l-1.05-3.68a16.81,16.81,0,0,1-8.85,5.2,18.08,18.08,0,0,1-13.65-2.73A15.28,15.28,0,0,1,257.9,685Z" transform="translate(-14.47 -204.84)"/><path class="cls-6" d="M257.28,689.15a17.35,17.35,0,0,0,4,4,18,18,0,0,0,13.65,2.73,17.06,17.06,0,0,0,9.9-6.44l-1.05-3.68a16.81,16.81,0,0,1-8.85,5.2,18.08,18.08,0,0,1-13.65-2.73A15.28,15.28,0,0,1,257.9,685Z" transform="translate(-14.47 -204.84)"/><path class="cls-25" d="M268.34,656.73c.89-4.06,4.68-12.44,0-15.54s-12.33-1.15-17,4.33S267.42,660.94,268.34,656.73Z" transform="translate(-14.47 -204.84)"/><path class="cls-25" d="M288.74,657.19c-5.08-3.28-.1-12.23-6.87-15.84s-14.66-2.38-17.63,2.76S293.83,660.47,288.74,657.19Z" transform="translate(-14.47 -204.84)"/><path class="cls-25" d="M247.87,666.07c1.53-3.86,14.92-1,16-6s-4.27-10.62-12-12.36S246.34,669.92,247.87,666.07Z" transform="translate(-14.47 -204.84)"/><path class="cls-25" d="M249.29,657.72c9.93-2.7,24.9,9.19,36.6,5s11.86-17.91-4.34-18C266.86,644.72,239.35,660.42,249.29,657.72Z" transform="translate(-14.47 -204.84)"/><path class="cls-9" d="M280.56,676.72H267.27v1.2c0,2.46,3.83,4.45,5.22,4.45h2.85c1.39,0,5.22-2,5.22-4.45Z" transform="translate(-14.47 -204.84)"/><ellipse class="cls-4" cx="239.51" cy="463.81" rx="9.26" ry="8.89"/><path class="cls-26" d="M302.89,818.89c-10.69,9.79-47.95,10.89-57.56,0-14.15-16-13-72.46-11.55-99.48A15.36,15.36,0,0,1,249,704.76h51.47a15.35,15.35,0,0,1,15.23,14.56C317.34,746.69,318.73,804.39,302.89,818.89Z" transform="translate(-14.47 -204.84)"/><path class="cls-4" d="M335.84,753.37l57.61,41L391.1,807l-55.17-31.09c-4.42-2.75-6.47-9.42-4.29-13.92Z" transform="translate(-14.47 -204.84)"/><path class="cls-4" d="M409.45,794.25c.4,2.11-7.71,3.31-7.71,3.31s16.89,4.07,15.57,6.46c-.59,1.06-12.58-2-12.58-2,.13.38,14.12,5.79,13.51,7.26-.95,2.32-15.64-4.22-15.72-4,0,0,12.5,7,11.92,8.07-1.46,2.58-13.94-4.63-14.23-4.47,0,0,10.56,5.91,9.62,7.28-1.93,2.83-19.72-9.72-25.83-14-1.47-1,.08-.94.7-2.58l3.88-6.6C399.1,791.65,409.17,792.76,409.45,794.25Z" transform="translate(-14.47 -204.84)"/><path class="cls-4" d="M198.79,768.54l-54.34-61.4-8.3,5.75L177,773.09c3.13,4.06,9.78,6.07,13.89,3.11Z" transform="translate(-14.47 -204.84)"/><path class="cls-4" d="M145.79,693.91c-2.1.16-1.87,8.65-1.87,8.65s-6.82-15.93-8.9-14c-.92.87,4.14,12.12,4.14,12.12-.38,0-8-12.69-9.32-11.69-2.07,1.57,6.75,14.63,6.57,14.77,0,0-8.93-10.73-9.82-9.87-2.24,2.15,6.85,12.81,6.75,13.14,0,0-7.51-9.07-8.67-7.76-2.4,2.7,12.75,17.29,17.93,22.31,1.25,1.21.9-.33,2.37-1.38l5.69-5.66C150.08,703.65,147.28,693.8,145.79,693.91Z" transform="translate(-14.47 -204.84)"/><path class="cls-26" d="M242.79,706.21c5,.67,13.25,10,12.3,14.78-1.39,7-17.18,18.66-24.93,24a5.48,5.48,0,0,1-7.29-.82l-11-13.22a5,5,0,0,1,.76-7C219.81,717.76,235.41,705.21,242.79,706.21Z" transform="translate(-14.47 -204.84)"/><path class="cls-26" d="M290.63,720.52c-.06-4.83,8.29-14.1,13.35-13.93,7.44.26,21.81,13.48,28.48,20a5,5,0,0,1,.27,7L320.8,746.11a5.49,5.49,0,0,1-7.31.35C306,740.57,290.72,727.68,290.63,720.52Z" transform="translate(-14.47 -204.84)"/><path class="cls-9" d="M277.9,1086c5.24,8.52-61.55,2.24-52.71-5.78,6.54-5.93,13.93-12.38,28.48-10.79S273.49,1078.82,277.9,1086Z" transform="translate(-14.47 -204.84)"/><path class="cls-27" d="M277.9,1086c-.29,3.16-53.19-.65-52.71-5.78.72-7.6,13.93-12.38,28.48-10.79S278.58,1078.4,277.9,1086Z" transform="translate(-14.47 -204.84)"/><polygon class="cls-27" points="211.85 874.42 238.78 876.44 236.12 855.54 214.97 853.95 211.85 874.42"/><path class="cls-9" d="M262.59,1076.68l4.3-3.88c.3-.27.21-.66-.19-.88l-.89-.48a1.16,1.16,0,0,0-1.26.09l-4.31,3.88c-.3.27-.21.66.19.88l.89.48A1.18,1.18,0,0,0,262.59,1076.68Z" transform="translate(-14.47 -204.84)"/><path class="cls-9" d="M253.83,1073.94l4.3-3.88c.3-.27.21-.66-.19-.88l-.89-.48a1.18,1.18,0,0,0-1.27.09l-4.3,3.88c-.3.27-.21.66.19.88l.89.48A1.18,1.18,0,0,0,253.83,1073.94Z" transform="translate(-14.47 -204.84)"/><path class="cls-9" d="M349.38,1085.67c5.24,8.52-61.55,2.24-52.7-5.78,6.54-5.93,13.92-12.38,28.47-10.78S345,1078.5,349.38,1085.67Z" transform="translate(-14.47 -204.84)"/><path class="cls-27" d="M349.38,1085.67c-.28,3.16-53.19-.65-52.7-5.78.72-7.59,13.92-12.38,28.47-10.78S350.07,1078.08,349.38,1085.67Z" transform="translate(-14.47 -204.84)"/><polygon class="cls-27" points="283.33 874.1 310.27 876.12 307.6 855.22 286.45 853.63 283.33 874.1"/><path class="cls-9" d="M334.07,1076.36l4.31-3.88c.29-.26.21-.66-.2-.87l-.89-.49a1.18,1.18,0,0,0-1.26.09l-4.31,3.88c-.29.27-.21.66.2.88l.88.48A1.18,1.18,0,0,0,334.07,1076.36Z" transform="translate(-14.47 -204.84)"/><path class="cls-9" d="M325.31,1073.62l4.31-3.88c.29-.26.21-.66-.2-.88l-.89-.48a1.16,1.16,0,0,0-1.26.09l-4.31,3.88c-.3.27-.21.66.19.88l.89.48A1.18,1.18,0,0,0,325.31,1073.62Z" transform="translate(-14.47 -204.84)"/></g></svg>