<svg id="Events" xmlns="http://www.w3.org/2000/svg" viewBox="0 0 1136.56 848.89"><defs><style>.cls-1{fill:#cdebfc;}.cls-2{fill:#cb1a1a;}.cls-3{fill:#e69c72;}.cls-4{fill:#ffbca2;}.cls-5{fill:#ffcdb9;}.cls-6{fill:#666;opacity:0.3;}.cls-7{fill:#90c291;}.cls-8{fill:#9e005d;}.cls-9{fill:#fff;}.cls-10{fill:#170027;}.cls-11{fill:#c1272d;}.cls-12{fill:#f2f2f2;}.cls-13{fill:#c7b299;}.cls-14{fill:#d4145a;}.cls-15{fill:#29abe2;}.cls-16{fill:#f7931e;}.cls-17{fill:#a67c52;}.cls-18{fill:#754c24;}.cls-19{fill:#c2145a;}.cls-20{fill:#ffe7e8;}.cls-21{fill:#004837;}.cls-22{fill:#ccc;}.cls-23{fill:#fbb03b;}.cls-24{fill:#00003c;}.cls-25{fill:#1b1464;}.cls-26{fill:#fff1d6;}.cls-27{fill:#1a1a1a;}</style></defs><title>Events2</title><path id="Light_Blue_Blob_1" data-name="Light Blue Blob 1" class="cls-1" d="M49.84,964.55a88.61,88.61,0,0,0,.7,9.47H1186.4c-16.81-22.47-33.26-45.4-46.12-73.47-54.66-119.29-33.46-300.64-61.17-445.66-5.13-26.81-13-53.13-27.7-67.57C985.47,322.59,941.44,463.58,884,453,751.65,428.5,812.73,272.6,760.82,202.14c-24-32.59-63.26-44.23-99.06-24.55-52.79,29-62.74,156.75-128.23,179-103.94,35.25-120.18-122.83-212.2-119.3-39.18,1.51-78.24,31.85-107.86,76.87s-43.62,119.56-21.8,160.55c19.43,36.48,62,41.53,68.18,90.32,1.43,11.32.56,23.73-1.2,35.87C244.72,696.37,49.83,800.26,49.84,964.55Z" transform="translate(-49.84 -167.96)"/><g id="Ryder_Davidson" data-name="Ryder Davidson"><g id="Ryder_Davidson-2" data-name="Ryder Davidson"><path class="cls-2" d="M689.77,597.25c-3.11-10,7.71-27.46,2.75-37.36-8.45-16.82-7.52-21.25-8.39-33.71C683.68,519.72,660,509,646.59,509c-28.2-.14-29.46,18.85-24.13,18.17,5.11-.66-3.54,3.11-1.05,5.37,4.05,3.66,4.93,10.59,3.41,19-2,11.55-3.43,60.28,11.71,65.48,13.5,4.63,32.19,2.61,47.27,5.8C690.12,624.12,690.87,600.78,689.77,597.25Z" transform="translate(-49.84 -167.96)"/><path class="cls-3" d="M664.82,566a16.14,16.14,0,0,1-3.11,3.37,23.52,23.52,0,0,1-3.71,2.34,42.19,42.19,0,0,1-11.81,1.85l.1-.88c3.79-.88,9.25-2.32,11.71-3.07,1.09-.55,5.41-3,6.8-3.9Z" transform="translate(-49.84 -167.96)"/><path class="cls-4" d="M664.8,565.72c-1.39.88-5.71,3.35-6.8,3.9-2.46.75-7.92,2.19-11.71,3.07l1.92-16.15.29-2.49a9.42,9.42,0,0,0,5.44,3.77,8.87,8.87,0,0,0,6-.67,13.67,13.67,0,0,0,1.91-1.18,10.37,10.37,0,0,0,2.13-2.4l.19,2.53Z" transform="translate(-49.84 -167.96)"/><polygon class="cls-5" points="583.51 445.49 521.03 482.41 509.75 468.72 573.55 431.39 583.51 445.49"/><path class="cls-5" d="M667.6,605.94l-24.87-3.26,3.2-27,.26-2.11A42.19,42.19,0,0,0,658,571.72a23.52,23.52,0,0,0,3.71-2.34,16.14,16.14,0,0,0,3.11-3.37l.13,1.92Z" transform="translate(-49.84 -167.96)"/><path class="cls-3" d="M688.65,735.39c1.1,1.68,5.57-.57,5.57-.57s-5.17,5.12-2.66,5.9c1.11.34,3.41-1,3.41-1,.16.33-2.06,4.51-.66,5.12,2.2,1,4.17-4.42,4.36-4.33,0,0-.08,4.32,1,4.65,2.73.82,2.69-3.61,3-3.69,0,0,.56,2.33,2.12,2.66,3.24.69,3.49-10.76,5-17.56.37-1.64-.68-.59-2.19-1.31l-7.1-2C692.22,729.12,687.87,734.2,688.65,735.39Z" transform="translate(-49.84 -167.96)"/><path class="cls-5" d="M528.11,564.37c-2.5-.08-3.09,9.66-3.09,9.66s-6.48-19.08-9.14-17.1c-1.18.88,3.67,14.39,3.67,14.39-.45-.07-8.2-15.52-9.86-14.54-2.62,1.54,6.52,17.59,6.29,17.73,0,0-9.5-13.39-10.65-12.52-2.87,2.18,6.83,15.52,6.68,15.88,0,0-8-11.32-9.5-10-3.12,2.8,20.1,27.52,22,26.5l5.36-3.53C530.24,578.29,529.89,564.43,528.11,564.37Z" transform="translate(-49.84 -167.96)"/><polygon class="cls-5" points="611.61 442.96 660.96 508.17 667.43 494.69 626.79 434.74 611.61 442.96"/><path class="cls-6" d="M664.87,566.73c-3.74,4.15-12.57,8-18.8,7.78l.22-1.82c3.79-.88,9.25-2.32,11.71-3.07,1.09-.55,5.41-3,6.8-3.9Z" transform="translate(-49.84 -167.96)"/><path class="cls-5" d="M673.77,543.29c0,8.57-4.1,15.75-8.53,22.13,0,.05-3.88,2.4-7.24,4.2-8.37,4.46-15.23,3.83-15.63,3.79-1.49-.45-5.91-5.08-9.37-11.61-2.69-5.11-4.8-11.41-4.44-17.79a22.54,22.54,0,0,1,1.18-5.83c3.33-10.18,13.25-20.81,24.09-19.76C665.33,519.54,673.77,530.21,673.77,543.29Z" transform="translate(-49.84 -167.96)"/><path class="cls-5" d="M711.58,661.63l-15.09,68,10.79,1,16.52-53.57c1.37-4.95-5-14.43-8.85-16Z" transform="translate(-49.84 -167.96)"/><path class="cls-5" d="M570.87,650.38l-43.12-65.77-8,3.5,28.83,58.81c3.75,5.51,10.8,8.87,14.73,7Z" transform="translate(-49.84 -167.96)"/><polygon class="cls-7" points="607.39 531.24 564.02 539.92 566.29 471.8 630.21 475.56 607.39 531.24"/><path class="cls-8" d="M581.42,824.09c-1.17,5.55,112.78,19.88,111.4,14.14-23-96.13-24.84-147.15-36.41-142.82-15.32,5.73-22.61.77-36.21-3.16C601.3,686.79,596.81,750.71,581.42,824.09Z" transform="translate(-49.84 -167.96)"/><path class="cls-7" d="M691,614.93c-3.75,30.24-24,53.27-45.23,51.43s-35.39-27.83-31.64-58.07S694.78,584.7,691,614.93Z" transform="translate(-49.84 -167.96)"/><circle class="cls-5" cx="621.99" cy="379.77" r="9.01"/><path class="cls-9" d="M640,562.87c-.07,1.71,2.59,3.2,5.93,3.33S652,565,652,563.33C652.09,562.2,640,561.58,640,562.87Z" transform="translate(-49.84 -167.96)"/><path class="cls-2" d="M669.4,521.6c-7.77.51,14.83,18.35,5.45,13.19-3.74-2.06-44.11-1.12-41.18-15.24C635.77,509.41,677.16,521.1,669.4,521.6Z" transform="translate(-49.84 -167.96)"/></g></g><g id="Red_Event_Tent" data-name="Red Event Tent"><g id="Red_Event_Roof" data-name="Red Event Roof"><rect class="cls-10" x="888.11" y="193.22" width="30.87" height="497.22"/><rect class="cls-10" x="310.96" y="179.47" width="30.87" height="497.22"/><path class="cls-11" d="M1036.3,421H273.88a13.64,13.64,0,0,1-13-17.79l56.54-176.83a13.63,13.63,0,0,1,13-9.48H979.77a13.64,13.64,0,0,1,13,9.48l56.53,176.83A13.63,13.63,0,0,1,1036.3,421Z" transform="translate(-49.84 -167.96)"/><rect class="cls-12" x="334.52" y="48.89" width="81.96" height="204.1"/><rect class="cls-12" x="494.73" y="48.89" width="81.96" height="204.1"/><rect class="cls-12" x="654.93" y="48.89" width="81.96" height="204.1"/><rect class="cls-12" x="815.13" y="48.89" width="81.96" height="204.1"/><rect class="cls-13" x="197.91" y="252.2" width="815.92" height="12.95" rx="5.35"/><path class="cls-14" d="M335.87,433.53a43.55,43.55,0,0,1-87.1,0Z" transform="translate(-49.84 -167.96)"/><path class="cls-15" d="M426,433.53a43.55,43.55,0,1,1-87.09,0Z" transform="translate(-49.84 -167.96)"/><path class="cls-16" d="M515.72,433.53a43.55,43.55,0,0,1-87.1,0Z" transform="translate(-49.84 -167.96)"/><path class="cls-14" d="M606.19,433.53a43.55,43.55,0,0,1-87.1,0Z" transform="translate(-49.84 -167.96)"/><path class="cls-15" d="M696.29,433.53a43.55,43.55,0,1,1-87.09,0Z" transform="translate(-49.84 -167.96)"/><path class="cls-16" d="M786.4,433.53a43.55,43.55,0,1,1-87.1,0Z" transform="translate(-49.84 -167.96)"/><path class="cls-14" d="M876.51,433.53a43.55,43.55,0,1,1-87.1,0Z" transform="translate(-49.84 -167.96)"/><path class="cls-15" d="M966.61,433.53a43.55,43.55,0,1,1-87.09,0Z" transform="translate(-49.84 -167.96)"/><path class="cls-16" d="M1056.72,433.53a43.55,43.55,0,0,1-87.1,0Z" transform="translate(-49.84 -167.96)"/></g><g id="Booth-_Oak" data-name="Booth- Oak"><rect class="cls-17" x="267" y="557.01" width="413.39" height="226.88"/><rect class="cls-18" x="244.36" y="557.01" width="458.67" height="47.65" rx="14.64"/><rect class="cls-18" x="295.07" y="842.41" width="193.03" height="25.84" transform="translate(-513.59 1078.96) rotate(-90)"/><rect class="cls-18" x="385.58" y="842.41" width="193.03" height="25.84" transform="translate(-423.08 1169.47) rotate(-90)"/><rect class="cls-18" x="476.09" y="842.41" width="193.03" height="25.84" transform="translate(-332.57 1259.98) rotate(-90)"/><rect class="cls-18" x="551.49" y="842.41" width="193.03" height="25.84" transform="translate(-257.17 1335.37) rotate(-90)"/></g><g id="Booth_Display-_Pink" data-name="Booth Display- Pink"><path class="cls-19" d="M682.27,537.56H948a16.07,16.07,0,0,1,16.07,16.07V792.34a0,0,0,0,1,0,0H666.21a0,0,0,0,1,0,0V553.63A16.07,16.07,0,0,1,682.27,537.56Z"/><path class="cls-20" d="M706.35,551.85H922.52a16.07,16.07,0,0,1,16.07,16.07v56.74a0,0,0,0,1,0,0H690.29a0,0,0,0,1,0,0V567.92A16.07,16.07,0,0,1,706.35,551.85Z"/><rect class="cls-20" x="690.29" y="640.08" width="248.29" height="72.8"/><g id="Asian-_" data-name="Asian- ??"><path class="cls-9" d="M960.86,880.84H934.47c-7.89,0-13.75-6.11-12-12.55l5.82-21.82c1.26-4.72,6.26-8.07,12-8.07h14.22c5.68,0,10.63,3.25,12,7.87l6.36,21.83C974.72,874.59,968.85,880.84,960.86,880.84Z" transform="translate(-49.84 -167.96)"/><rect class="cls-21" x="890.86" y="670.44" width="14.88" height="42.44"/><path class="cls-9" d="M905.48,880.84H879.09c-7.89,0-13.75-6.11-12-12.55l5.82-21.82c1.26-4.72,6.26-8.07,12-8.07h14.22c5.68,0,10.63,3.25,12,7.87l6.36,21.83C919.35,874.59,913.47,880.84,905.48,880.84Z" transform="translate(-49.84 -167.96)"/><rect class="cls-21" x="835.48" y="670.44" width="14.88" height="42.44"/><path class="cls-9" d="M849.74,880.84H823.35c-7.89,0-13.75-6.11-12-12.55l5.82-21.82c1.26-4.72,6.26-8.07,12-8.07h14.22c5.68,0,10.63,3.25,12,7.87l6.36,21.83C863.61,874.59,857.73,880.84,849.74,880.84Z" transform="translate(-49.84 -167.96)"/><rect class="cls-21" x="779.74" y="670.44" width="14.88" height="42.44"/><path class="cls-9" d="M793.08,880.84H766.69c-7.89,0-13.75-6.11-12-12.55l5.83-21.82c1.25-4.72,6.25-8.07,12-8.07h14.22c5.68,0,10.63,3.25,12,7.87l6.36,21.83C806.94,874.59,801.07,880.84,793.08,880.84Z" transform="translate(-49.84 -167.96)"/><rect class="cls-21" x="723.08" y="670.44" width="14.88" height="42.44"/></g><g id="Pies-_Raspberry" data-name="Pies- Raspberry"><polygon class="cls-22" points="761.18 624.78 712.3 624.78 707 606.8 766.47 606.8 761.18 624.78"/><path class="cls-23" d="M818.27,773.27c0,6.8-14.19,9.59-31.69,9.59s-31.7-2.79-31.7-9.59S769.07,761,786.58,761,818.27,766.46,818.27,773.27Z" transform="translate(-49.84 -167.96)"/><ellipse class="cls-14" cx="736.74" cy="598.65" rx="5.29" ry="0.96"/><ellipse class="cls-14" cx="736.74" cy="598.65" rx="0.9" ry="5.66"/><polygon class="cls-22" points="839.5 624.78 790.63 624.78 785.33 606.8 844.8 606.8 839.5 624.78"/><path class="cls-23" d="M896.6,773.27c0,6.8-14.19,9.59-31.7,9.59s-31.69-2.79-31.69-9.59S847.4,761,864.9,761,896.6,766.46,896.6,773.27Z" transform="translate(-49.84 -167.96)"/><ellipse class="cls-14" cx="815.07" cy="598.65" rx="5.29" ry="0.96"/><ellipse class="cls-14" cx="815.07" cy="598.65" rx="0.9" ry="5.66"/><polygon class="cls-22" points="919.21 624.78 870.33 624.78 865.03 606.8 924.5 606.8 919.21 624.78"/><path class="cls-23" d="M976.3,773.27c0,6.8-14.19,9.59-31.69,9.59s-31.7-2.79-31.7-9.59S927.1,761,944.61,761,976.3,766.46,976.3,773.27Z" transform="translate(-49.84 -167.96)"/><ellipse class="cls-14" cx="894.77" cy="598.65" rx="5.29" ry="0.96"/><ellipse class="cls-14" cx="894.77" cy="598.65" rx="0.9" ry="5.66"/></g></g></g><g id="Harley_Koo" data-name="Harley Koo"><polygon class="cls-4" points="276.18 432.19 301.79 488.77 318.3 480.74 294.19 429.41 276.18 432.19"/><polygon class="cls-4" points="222.84 558.82 269.46 567.18 260.23 465.5 199.11 469.13 222.84 558.82"/><path class="cls-4" d="M295.23,558.32l-4-14-23.52.72-1.83,12.4a17.34,17.34,0,0,0,3.82,3.65,20.52,20.52,0,0,0,15.48,3.09A19.07,19.07,0,0,0,295.23,558.32Z" transform="translate(-49.84 -167.96)"/><path class="cls-4" d="M265,604.91l36.65-7.27-5.2-35.15a19.34,19.34,0,0,1-11.22,7.3,20.43,20.43,0,0,1-15.48-3.09,19.76,19.76,0,0,1-4.51-4.51Z" transform="translate(-49.84 -167.96)"/><polygon class="cls-4" points="186.16 818.79 200.62 820.87 207.82 782.64 193.36 780.56 186.16 818.79"/><polygon class="cls-4" points="286.33 819.33 268.14 820.5 263.73 777.83 281.92 776.66 286.33 819.33"/><path class="cls-24" d="M334.92,957.78c-.29,6.73-9.47.2-18.11,1.32-12.39,1.61-9.22-102.7-19.95-180-1.07-7.73-9.34-5.51-9.88.49-6.66,74.06-26.9,179.65-31.6,178.93-12.89-2-16.29,5.64-15.92-1.09C249.67,771.82,230,716.7,260.1,702.77c12-5.54,42.81-2.17,55.83-2.4,3.53-.06,5.45,2.78,6.58,6C330.79,729.85,343.26,764.17,334.92,957.78Z" transform="translate(-49.84 -167.96)"/><polygon class="cls-4" points="198.59 435.31 141.68 491.54 132.8 470.3 192.73 415.51 198.59 435.31"/><path class="cls-4" d="M255.41,536a35.69,35.69,0,0,0,.84,5.31c.07.32,4.74,10.23,9.65,16.21a17.34,17.34,0,0,0,3.82,3.65,20.52,20.52,0,0,0,15.48,3.09,19.07,19.07,0,0,0,10-5.89,23.68,23.68,0,0,0,2.64-3.51c2.26-3.72,2.92-11.81,3.08-17.42.09-3.32,0-5.76,0-5.92-3.66-15.39-16.61-25.67-29-23C261.07,510.9,254.3,522.63,255.41,536Z" transform="translate(-49.84 -167.96)"/><path class="cls-4" d="M265.21,562.19a19.76,19.76,0,0,0,4.51,4.51,20.43,20.43,0,0,0,15.48,3.09,19.34,19.34,0,0,0,11.22-7.3l-1.19-4.17a19.07,19.07,0,0,1-10,5.89,20.52,20.52,0,0,1-15.48-3.09,17.34,17.34,0,0,1-3.82-3.65Z" transform="translate(-49.84 -167.96)"/><path class="cls-6" d="M265.21,562.19a19.76,19.76,0,0,0,4.51,4.51,20.43,20.43,0,0,0,15.48,3.09,19.34,19.34,0,0,0,11.22-7.3l-1.19-4.17a19.07,19.07,0,0,1-10,5.89,20.52,20.52,0,0,1-15.48-3.09,17.34,17.34,0,0,1-3.82-3.65Z" transform="translate(-49.84 -167.96)"/><path class="cls-25" d="M277.75,525.41c1-4.6,5.31-14.1,0-17.61s-14-1.32-19.31,4.9S276.7,530.19,277.75,525.41Z" transform="translate(-49.84 -167.96)"/><path class="cls-25" d="M300.89,525.93c-5.77-3.71-.12-13.87-7.79-18s-16.63-2.69-20,3.14S306.65,529.65,300.89,525.93Z" transform="translate(-49.84 -167.96)"/><path class="cls-25" d="M254.53,536c1.73-4.38,16.92-1.09,18.18-6.86s-4.84-12-13.62-14S252.8,540.38,254.53,536Z" transform="translate(-49.84 -167.96)"/><path class="cls-25" d="M256.14,526.54c11.27-3.07,28.24,10.42,41.51,5.68s13.44-20.31-4.93-20.37C276.06,511.8,244.87,529.6,256.14,526.54Z" transform="translate(-49.84 -167.96)"/><path class="cls-9" d="M291.6,548.09H276.54v1.36c0,2.79,4.34,5,5.92,5h3.22c1.58,0,5.92-2.26,5.92-5Z" transform="translate(-49.84 -167.96)"/><ellipse class="cls-4" cx="211.63" cy="370.97" rx="10.5" ry="10.08"/><path class="cls-26" d="M316.93,709.32c-12.12,11.11-54.38,12.36-65.28,0-16-18.19-14.73-82.17-13.1-112.82a17.43,17.43,0,0,1,17.28-16.61H314.2a17.41,17.41,0,0,1,17.27,16.51C333.32,627.44,334.89,692.88,316.93,709.32Z" transform="translate(-49.84 -167.96)"/><path class="cls-4" d="M354.29,635l65.34,46.48L417,695.84,354.4,660.58c-5-3.13-7.34-10.69-4.86-15.79Z" transform="translate(-49.84 -167.96)"/><path class="cls-4" d="M437.78,681.38c.45,2.39-8.75,3.76-8.75,3.76s19.16,4.61,17.66,7.32c-.67,1.2-14.26-2.32-14.26-2.32.14.42,16,6.55,15.32,8.23-1.08,2.62-17.74-4.79-17.83-4.56,0,0,14.17,8,13.52,9.14-1.66,2.93-15.81-5.24-16.14-5.06,0,0,12,6.7,10.91,8.25-2.19,3.22-22.37-11-29.3-15.87-1.66-1.17.1-1.07.79-2.93l4.41-7.48C426,678.43,437.46,679.69,437.78,681.38Z" transform="translate(-49.84 -167.96)"/><path class="cls-4" d="M198.88,652.22l-61.63-69.63-9.42,6.52,46.36,68.27c3.54,4.6,11.08,6.88,15.75,3.53Z" transform="translate(-49.84 -167.96)"/><path class="cls-4" d="M138.76,567.59c-2.38.17-2.12,9.8-2.12,9.8s-7.73-18.07-10.09-15.84c-1,1,4.69,13.74,4.69,13.74-.43,0-9.07-14.39-10.57-13.25-2.34,1.78,7.66,16.59,7.46,16.74,0,0-10.13-12.16-11.14-11.19-2.54,2.44,7.77,14.53,7.66,14.9,0,0-8.52-10.28-9.84-8.8-2.72,3.06,14.46,19.61,20.34,25.31,1.41,1.36,1-.38,2.68-1.57l6.46-6.41C143.63,578.63,140.45,567.46,138.76,567.59Z" transform="translate(-49.84 -167.96)"/><path class="cls-26" d="M248.77,581.53c5.65.77,15,11.36,14,16.77-1.58,8-19.48,21.15-28.28,27.21a6.22,6.22,0,0,1-8.27-.92l-12.47-15a5.64,5.64,0,0,1,.85-7.92C222.71,594.63,240.4,580.39,248.77,581.53Z" transform="translate(-49.84 -167.96)"/><path class="cls-26" d="M303,597.76c-.07-5.48,9.41-16,15.14-15.79,8.44.29,24.74,15.28,32.31,22.7a5.64,5.64,0,0,1,.3,8l-13.53,14.12a6.21,6.21,0,0,1-8.29.39C320.47,620.5,303.12,605.88,303,597.76Z" transform="translate(-49.84 -167.96)"/><path class="cls-9" d="M288.59,1012.24c5.94,9.65-69.8,2.53-59.78-6.56,7.42-6.73,15.79-14,32.3-12.23S283.59,1004.11,288.59,1012.24Z" transform="translate(-49.84 -167.96)"/><path class="cls-27" d="M288.59,1012.24c-.32,3.57-60.33-.74-59.78-6.56.82-8.61,15.79-14,32.3-12.23S289.36,1003.62,288.59,1012.24Z" transform="translate(-49.84 -167.96)"/><polygon class="cls-27" points="180.25 836.64 210.8 838.93 207.78 815.22 183.79 813.42 180.25 836.64"/><path class="cls-9" d="M271.22,1001.68l4.89-4.4c.33-.3.23-.75-.22-1l-1-.54a1.33,1.33,0,0,0-1.44.1l-4.88,4.4c-.34.3-.24.74.22,1l1,.55A1.33,1.33,0,0,0,271.22,1001.68Z" transform="translate(-49.84 -167.96)"/><path class="cls-9" d="M261.29,998.57l4.88-4.4c.34-.3.24-.75-.22-1l-1-.55a1.33,1.33,0,0,0-1.43.1l-4.89,4.4c-.33.3-.23.75.22,1l1,.55A1.35,1.35,0,0,0,261.29,998.57Z" transform="translate(-49.84 -167.96)"/><path class="cls-9" d="M369.66,1011.88c5.94,9.65-69.81,2.53-59.78-6.56,7.42-6.73,15.79-14,32.3-12.23S364.66,1003.75,369.66,1011.88Z" transform="translate(-49.84 -167.96)"/><path class="cls-27" d="M369.66,1011.88c-.33,3.57-60.33-.74-59.78-6.56.82-8.61,15.79-14,32.3-12.23S370.43,1003.26,369.66,1011.88Z" transform="translate(-49.84 -167.96)"/><polygon class="cls-27" points="261.32 836.28 291.87 838.57 288.85 814.86 264.86 813.06 261.32 836.28"/><path class="cls-9" d="M352.29,1001.32l4.89-4.4c.33-.3.23-.75-.22-1l-1-.54a1.33,1.33,0,0,0-1.44.1l-4.88,4.4c-.34.3-.24.74.22,1l1,.55A1.33,1.33,0,0,0,352.29,1001.32Z" transform="translate(-49.84 -167.96)"/><path class="cls-9" d="M342.35,998.21l4.89-4.4c.34-.3.24-.75-.22-1l-1-.54a1.33,1.33,0,0,0-1.43.1l-4.89,4.4c-.33.3-.24.75.22,1l1,.55A1.33,1.33,0,0,0,342.35,998.21Z" transform="translate(-49.84 -167.96)"/></g></svg>