<svg id="Layer_1" data-name="Layer 1" xmlns="http://www.w3.org/2000/svg" viewBox="0 0 46.13 46.1"><title>FB Icon</title><g id="jnJBIM.tif"><path d="M105.49,121a23.07,23.07,0,1,1,23.1,23A23.07,23.07,0,0,1,105.49,121Zm25.42,8.75c0-2.28,0-4.56,0-6.84,0-.19,0-.24.24-.24h5.17c.21,0,.29,0,.29-.28,0-1.39,0-2.79,0-4.18,0-.26-.07-.31-.31-.31h-5.15c-.14,0-.24,0-.24-.2,0-1.06,0-2.12,0-3.18a1.68,1.68,0,0,1,.13-.7c.15-.3.25-.67.68-.73a5.09,5.09,0,0,1,.56,0l4,0c.2,0,.26-.06.26-.26q0-2.26,0-4.53c0-.2-.05-.25-.25-.25l-4.26,0a5.71,5.71,0,0,0-2.58.49,6.94,6.94,0,0,0-4.08,6.22c-.06,1,0,2,0,2.94,0,.23-.08.27-.28.27h-4.36c-.23,0-.27.07-.27.27,0,1.42,0,2.83,0,4.24,0,.2,0,.26.26.26h4.36c.24,0,.29.07.29.3q0,6.77,0,13.54c0,.23,0,.3.29.3h4.92c.22,0,.29,0,.29-.28Q130.91,133.09,130.91,129.7Z" transform="translate(-105.49 -97.86)"/></g></svg>