<svg id="v2" xmlns="http://www.w3.org/2000/svg" viewBox="0 0 135 150"><defs><style>.cls-1{fill:#333;}</style></defs><g id="healthwellness"><path class="cls-1" d="M30.29,107.17h3v5.19h5.44v-5.19h3v13.51h-3v-5.62H33.27v5.62h-3Z"/><path class="cls-1" d="M43.54,116.31c0-2.74,2.16-4.59,5.1-4.59,2.67,0,4.85,1.61,4.85,4.39v.76H46.7a1.85,1.85,0,0,0,1.88,1.88,1.69,1.69,0,0,0,1.79-1.14h3c-.58,2.18-2.4,3.27-4.75,3.27C45.62,120.88,43.54,119.09,43.54,116.31Zm6.79-1a1.66,1.66,0,0,0-1.79-1.51,1.71,1.71,0,0,0-1.8,1.51Z"/><path class="cls-1" d="M54.78,116.31a4.26,4.26,0,0,1,4.35-4.59,3.7,3.7,0,0,1,3,1.27v-1h3v8.74h-3v-1.05a3.62,3.62,0,0,1-3,1.25A4.24,4.24,0,0,1,54.78,116.31Zm7.35,0a2.09,2.09,0,1,0-2.08,2.19A2,2,0,0,0,62.13,116.31Z"/><path class="cls-1" d="M67.46,105.78h3v14.9h-3Z"/><path class="cls-1" d="M73.35,114.22H71.76v-2.3h1.59v-3.33h3v3.33H77.9v2.3H76.31v6.46h-3Z"/><path class="cls-1" d="M79.24,105.78h3V113a3.36,3.36,0,0,1,2.68-1.27c2.34,0,3.29,1.61,3.29,4v5h-3v-5c0-1-.4-1.59-1.33-1.59a2,2,0,0,0-1.67,2.18v4.37h-3Z"/><path class="cls-1" d="M102.21,120.68l-.62-.78a5.73,5.73,0,0,1-3.36,1c-2.64,0-4.49-1.37-4.49-3.83a4.44,4.44,0,0,1,2.53-3.92,5,5,0,0,1-1.11-2.89c0-2.25,2.08-3.26,4.09-3.26,2.36,0,4.11,1.35,4.11,3.18s-1.64,2.68-3.29,3.55l1.78,2.12,1.53-1.8,2.11,1.8L103.61,118l2.29,2.73ZM100,117.86l-2.2-2.77a2.34,2.34,0,0,0-1,1.84,1.49,1.49,0,0,0,1.63,1.53A2.59,2.59,0,0,0,100,117.86Zm-1.33-6c1.06-.52,1.87-1,1.87-1.82a1,1,0,0,0-1.15-1A1.21,1.21,0,0,0,98,110.33,2.94,2.94,0,0,0,98.65,111.91Z"/><path class="cls-1" d="M44.61,131l-3.22,13.51H38.64L36,136.24l-2.61,8.28H30.68L27.46,131h3.09l1.77,8.49L35,131H37.1l2.65,8.48L41.52,131Z"/><path class="cls-1" d="M44.57,140.15c0-2.74,2.16-4.59,5.1-4.59,2.67,0,4.85,1.61,4.85,4.39v.76H47.73a1.86,1.86,0,0,0,1.88,1.88,1.68,1.68,0,0,0,1.79-1.15h3c-.58,2.19-2.4,3.27-4.75,3.27C46.66,144.71,44.57,142.93,44.57,140.15Zm6.79-1.05a1.66,1.66,0,0,0-1.78-1.52,1.72,1.72,0,0,0-1.81,1.52Z"/><path class="cls-1" d="M56.13,129.62h3v14.9h-3Z"/><path class="cls-1" d="M61.46,129.62h3v14.9h-3Z"/><path class="cls-1" d="M66.78,135.76h3v1.07a3.37,3.37,0,0,1,2.69-1.27c2.33,0,3.28,1.61,3.28,4v5h-3v-5c0-1-.4-1.61-1.33-1.61s-1.67.7-1.67,2v4.57h-3Z"/><path class="cls-1" d="M77.07,140.15c0-2.74,2.17-4.59,5.1-4.59,2.67,0,4.85,1.61,4.85,4.39v.76H80.23a1.86,1.86,0,0,0,1.89,1.88,1.68,1.68,0,0,0,1.78-1.15h3c-.58,2.19-2.41,3.27-4.76,3.27C79.16,144.71,77.07,142.93,77.07,140.15Zm6.79-1.05a1.66,1.66,0,0,0-1.78-1.52,1.72,1.72,0,0,0-1.81,1.52Z"/><path class="cls-1" d="M87.88,141.26h3c0,1.29,1.17,1.39,1.91,1.39s1.36-.22,1.36-.77c0-1.73-5.85-.24-5.85-3.62,0-1.68,1.42-2.7,4.15-2.7,2.5,0,4.09.85,4.37,2.86H93.85c-.09-.8-.83-1-1.42-1s-1.18.12-1.18.59c0,1.19,5.86-.1,5.86,3.64,0,2.31-2,3.07-4.42,3.07C90,144.71,88.05,143.76,87.88,141.26Z"/><path class="cls-1" d="M98,141.26h3c0,1.29,1.18,1.39,1.91,1.39s1.37-.22,1.37-.77c0-1.73-5.86-.24-5.86-3.62,0-1.68,1.43-2.7,4.15-2.7,2.51,0,4.1.85,4.38,2.86H104c-.1-.8-.84-1-1.43-1s-1.17.12-1.17.59c0,1.19,5.86-.1,5.86,3.64,0,2.31-2,3.07-4.43,3.07C100.09,144.71,98.18,143.76,98,141.26Z"/><path class="cls-1" d="M19,33.22a2.3,2.3,0,1,0,.88-2.81A2.32,2.32,0,0,0,19,33.22Z"/><path class="cls-1" d="M114,50.17c.12-.36.25-.7.37-1.06a33.39,33.39,0,0,0,1.58-12,28,28,0,0,0-9.13-19c-5.32-5-12.1-7.88-18.58-7.88-9.65,0-17.19,5.38-20.82,8.6a.71.71,0,0,1-.94,0C62.71,15.63,55,10.23,45.74,10.23c-7.67,0-15.83,4.13-21.29,10.78A2.31,2.31,0,1,0,28,23.94c4.61-5.63,11.4-9.11,17.73-9.11,7.78,0,14.47,4.7,17.75,7.51a5.37,5.37,0,0,0,7-.07c3.14-2.77,9.64-7.44,17.77-7.44,10.4,0,22.5,9.61,23.11,22.47a28.43,28.43,0,0,1-.64,7.71A27.42,27.42,0,1,0,73.64,84.66c-1,.81-1.86,1.54-2.66,2.21a6.19,6.19,0,0,1-8.06,0c-2.08-1.77-4.8-4-7.67-6.31-10.37-8.46-24.58-20-28-25.85A32.41,32.41,0,0,1,23,43.83c-.07-.42-.14-.84-.18-1.26a2.3,2.3,0,0,0-4.57.59c.07.48.14,1,.22,1.47A36.37,36.37,0,0,0,23.28,57C27.12,63.57,41.11,75,52.34,84.12c2.85,2.32,5.55,4.52,7.61,6.27a10.82,10.82,0,0,0,14,0c1-.87,2.22-1.85,3.56-3l-.09-.54A27.45,27.45,0,0,0,114,50.17ZM89.32,85.32a23.16,23.16,0,1,1,23.15-23.16A23.18,23.18,0,0,1,89.32,85.32Z"/><path class="cls-1" d="M99.59,54.8h-3v-3A4.77,4.77,0,0,0,91.89,47H86.74A4.76,4.76,0,0,0,82,51.81v3h-3a4.77,4.77,0,0,0-4.75,4.77v5.19a4.77,4.77,0,0,0,4.75,4.77h3v3a4.76,4.76,0,0,0,4.74,4.77h5.15a4.77,4.77,0,0,0,4.75-4.77v-3h3a4.76,4.76,0,0,0,4.74-4.77V59.57A4.76,4.76,0,0,0,99.59,54.8Zm.46,10a.48.48,0,0,1-.46.48H94.5a2.14,2.14,0,0,0-2.15,2.14v5.14a.47.47,0,0,1-.46.48H86.74a.47.47,0,0,1-.46-.48V67.38a2.14,2.14,0,0,0-2.14-2.14H79.05a.48.48,0,0,1-.46-.48V59.57a.48.48,0,0,1,.46-.49h5.09a2.14,2.14,0,0,0,2.14-2.14V51.81a.48.48,0,0,1,.46-.49h5.15a.47.47,0,0,1,.46.49v5.13a2.14,2.14,0,0,0,2.15,2.14h5.09a.48.48,0,0,1,.46.49Z"/></g></svg>