<svg id="Home" xmlns="http://www.w3.org/2000/svg" viewBox="0 0 1124.83 762.67"><defs><style>.cls-1{fill:#cdebfc;}.cls-2{fill:#f4f4f4;}.cls-28,.cls-3,.cls-39{fill:#1a1a1a;}.cls-4{fill:#c1272d;}.cls-5{fill:#ffbca2;}.cls-6{fill:#940007;}.cls-7{fill:#00003c;}.cls-8{fill:#fff1d6;}.cls-27,.cls-9{fill:#666;}.cls-28,.cls-49,.cls-9{opacity:0.3;}.cls-10{fill:#fff;}.cls-11{fill:#f2f2f2;}.cls-12{fill:#262838;}.cls-13{fill:#fcfcfc;}.cls-14{fill:#f7931e;}.cls-15{fill:#999;}.cls-16{fill:#ffc78c;}.cls-17{fill:#ed5779;}.cls-18{fill:#611029;}.cls-19{fill:#752506;}.cls-20{fill:#22b573;}.cls-21{fill:#edd8ae;}.cls-22{fill:#453737;}.cls-23{fill:#4d4d4d;}.cls-24{fill:#c69c6d;}.cls-25{fill:#e69c72;}.cls-26{fill:#9e005d;}.cls-29{fill:#ccc;}.cls-30{fill:#ffb700;}.cls-31{fill:#d9ecf7;}.cls-32{fill:#0c151e;}.cls-33{fill:#160e00;}.cls-34{fill:#7a4e2d;}.cls-35{fill:#42210b;}.cls-36{fill:#754c24;}.cls-37{fill:#d48800;}.cls-38{fill:orange;}.cls-39{opacity:0.4;}.cls-40{fill:#fbb03b;}.cls-41{fill:#e9e3e0;}.cls-42{fill:#0071bc;}.cls-43{fill:#ba9bc9;}.cls-44{fill:#65c8d0;}.cls-45{fill:#838bc5;}.cls-46{fill:#000026;}.cls-47{fill:#00003b;}.cls-48{fill:#ff9c6d;}.cls-50{fill:gray;}</style></defs><title>Home</title><path id="Light_Blue_Blob_4" data-name="Light Blue Blob 4" class="cls-1" d="M1147.47,649.72q-.87,49.31-1.72,98.6c-.79,45.17,2.47,120.77-106.59,134.81H115.51C85.22,866.8,57.4,843.78,46.15,809.88c-52.17-157.2,5.19-311.59,104.13-299,0,0-49.74-174.54,75.67-271.76,88.21-68.4,271,51.3,384.7,106.85,13.18,6.43,28,8.79,42.44,8.4,33.36-.84,61.8-26.59,82.45-55s36.74-61.08,61.32-85.55c56.06-55.8,147.58-54.95,212.33-11.59s104.83,121,122.93,201.2S1148.9,567.2,1147.47,649.72Z" transform="translate(-26.48 -170.69)"/><g id="Girl_with_Soccer_Ball" data-name="Girl with Soccer Ball"><g id="Siccor_Ball" data-name="Siccor Ball"><path class="cls-2" d="M829.57,600.38a30.4,30.4,0,0,1-4.24,15.55,30.62,30.62,0,0,1-57-15.55,29.9,29.9,0,0,1,.9-7.38c.18-.72.38-1.42.61-2.13a30.46,30.46,0,0,1,8.39-13,30.88,30.88,0,0,1,2.89-2.35,30.61,30.61,0,0,1,27.86-4,29.77,29.77,0,0,1,4.88,2.19,30.6,30.6,0,0,1,15.71,26.75Z" transform="translate(-26.48 -170.69)"/><path class="cls-3" d="M784.91,587.15l-10.11,7.33-5-3.61a30.46,30.46,0,0,1,8.39-13,30.88,30.88,0,0,1,2.89-2.35Z" transform="translate(-26.48 -170.69)"/><polygon class="cls-3" points="764.75 438.88 763.48 426.45 774.9 421.4 783.23 430.71 776.96 441.51 764.75 438.88"/><path class="cls-3" d="M825.33,615.93a30.71,30.71,0,0,1-13.89,12.41l-1.15-.38.12-12.5,11.92-3.74Z" transform="translate(-26.48 -170.69)"/><path class="cls-3" d="M826.4,586.8l-4.92,5-11.19-5.54,1.8-12.36,1.77-.3A30.61,30.61,0,0,1,826.4,586.8Z" transform="translate(-26.48 -170.69)"/><path class="cls-3" d="M791,617.35l-1,12.31a30.6,30.6,0,0,1-15.68-11.11l5.16-6Z" transform="translate(-26.48 -170.69)"/></g><g id="Girl"><path class="cls-4" d="M849.91,615.34c-3.49,7,36.1,5.88,31.29-1.57-3.57-5.5-7.6-11.51-16.24-11.08S852.85,609.48,849.91,615.34Z" transform="translate(-26.48 -170.69)"/><polygon class="cls-5" points="859.54 127.69 817.01 171.47 810.37 154.93 857.42 110.02 859.54 127.69"/><path class="cls-6" d="M933.08,212c1.94,1.06,3.53,3.08,4.93,5.05,2.8,4,5.35,8.27,8.85,11.51,2.71,2.52,5.87,4.27,8.4,7,.9,1,1.7,2.07,2.56,3.09a60.08,60.08,0,0,0,4.8,4.9c.12,1.13-.73,4-1.67,4.17s-4.27-1.24-5.22-1.16c-2.29.21-2.68,3.39-5.13,3-2.75-.4-5.26-3.54-7.35-6.28-5.33-7-10-15.95-16-22.19a11.55,11.55,0,0,1-2.7-3.59C922.26,211.87,929.11,209.87,933.08,212Z" transform="translate(-26.48 -170.69)"/><polygon class="cls-5" points="886.47 226.28 851.62 232.79 858.52 153.64 904.21 156.46 886.47 226.28"/><path class="cls-5" d="M898.14,259.67l3-10.87,17.58.56,1.36,9.65a13.35,13.35,0,0,1-2.85,2.84,14.82,14.82,0,0,1-11.57,2.41A14.18,14.18,0,0,1,898.14,259.67Z" transform="translate(-26.48 -170.69)"/><path class="cls-5" d="M920.76,295.94l-27.4-5.66,3.89-27.36a14.47,14.47,0,0,0,8.39,5.68,14.81,14.81,0,0,0,11.57-2.4,15.08,15.08,0,0,0,3.38-3.52Z" transform="translate(-26.48 -170.69)"/><polygon class="cls-5" points="913.89 428.65 903.08 430.27 897.69 400.51 908.5 398.89 913.89 428.65"/><polygon class="cls-5" points="841.56 429.07 851.27 429.98 853.63 396.76 843.91 395.85 841.56 429.07"/><path class="cls-7" d="M866.42,576.79c.21,5.24,7.08.15,13.54,1,9.26,1.26,6.89-79.94,14.91-140.1.8-6,7-4.29,7.38.38,5,57.65,20.11,139.85,23.63,139.29,9.63-1.54,12.17,4.39,11.9-.85-7.63-144.5-4.17-147-1.71-150.3,3.46-4.56,8.75-37.11-13.72-48-9-4.31-32-1.69-41.74-1.87-2.64,0-4.07,2.17-4.91,4.67C869.51,399.36,860.19,426.07,866.42,576.79Z" transform="translate(-26.48 -170.69)"/><path class="cls-5" d="M882.41,379.09c-.49,1.55-6.57-.38-6.57-.38s10.31,8.46,8.52,9.63c-.78.51-8-5.64-8-5.64,0,.29,7.77,8.68,6.81,9.47-1.5,1.24-9.38-8.14-9.51-8s6.18,9,5.4,9.48c-1.94,1.25-8-7.84-8.3-7.83,0,0,5.23,7.56,4.08,8.17-2.37,1.25-10.25-13.23-13-18.19-.65-1.19.4-.61,1.41-1.51l5.09-3.13C876.12,373.83,882.75,378,882.41,379.09Z" transform="translate(-26.48 -170.69)"/><path class="cls-5" d="M924.56,382.78c.45,1.61,6.77.06,6.77.06s-10.88,7.89-9.09,9.19c.8.58,8.44-5.18,8.44-5.18,0,.3-8.26,8.29-7.31,9.16,1.5,1.36,9.91-7.63,10-7.51s-6.64,8.7-5.87,9.25c2,1.4,8.54-7.41,8.8-7.39,0,0-5.63,7.33-4.47,8,2.4,1.44,11-12.74,13.94-17.59.71-1.17-.39-.65-1.41-1.63l-5.12-3.53C931.19,377.85,924.25,381.63,924.56,382.78Z" transform="translate(-26.48 -170.69)"/><polygon class="cls-5" points="904.6 130.14 947.13 173.91 953.77 157.37 908.98 114.73 904.6 130.14"/><path class="cls-8" d="M936.16,305.91l-4.68,24.43a1.29,1.29,0,0,1-1.32,1l-45.87-.7a1.3,1.3,0,0,1-1.27-1l-9.48-19.46a17.47,17.47,0,0,1,4.81-18.69c1.71-1.54,3.4-10.91,4.74-12a16.13,16.13,0,0,1,10.44-3.81,1.29,1.29,0,0,1,1.37,1.18c.24,3.87,1.79,15.79,11.88,15.77,6.57,0,14.17-4.16,14.37-16.36a1.22,1.22,0,0,1,.33-.82h0a1.37,1.37,0,0,1,1.12-.42c8.75.9,17.26,11,15.61,12.52C933.56,291.82,936.58,303.68,936.16,305.91Z" transform="translate(-26.48 -170.69)"/><path class="cls-5" d="M927.9,242.26a27.32,27.32,0,0,1-.62,4.13A67.36,67.36,0,0,1,920.06,259a13.35,13.35,0,0,1-2.85,2.84,14.82,14.82,0,0,1-11.57,2.41,14.18,14.18,0,0,1-7.5-4.59,17.59,17.59,0,0,1-2-2.73c-1.69-2.9-2.18-9.19-2.3-13.56-.07-2.58,0-4.49,0-4.61,2.74-12,12.42-20,21.65-17.87C923.68,222.76,928.74,231.89,927.9,242.26Z" transform="translate(-26.48 -170.69)"/><path class="cls-5" d="M920.59,262.68a15.08,15.08,0,0,1-3.38,3.52,14.81,14.81,0,0,1-11.57,2.4,14.47,14.47,0,0,1-8.39-5.68l.89-3.25a14.18,14.18,0,0,0,7.5,4.59,14.82,14.82,0,0,0,11.57-2.41,13.35,13.35,0,0,0,2.85-2.84Z" transform="translate(-26.48 -170.69)"/><path class="cls-9" d="M920.59,262.68a15.08,15.08,0,0,1-3.38,3.52,14.81,14.81,0,0,1-11.57,2.4,14.47,14.47,0,0,1-8.39-5.68l.89-3.25a14.18,14.18,0,0,0,7.5,4.59,14.82,14.82,0,0,0,11.57-2.41,13.35,13.35,0,0,0,2.85-2.84Z" transform="translate(-26.48 -170.69)"/><path class="cls-6" d="M911.21,234.06c-.76-3.58-4-11,0-13.72s10.46-1,14.43,3.82S912,237.78,911.21,234.06Z" transform="translate(-26.48 -170.69)"/><path class="cls-6" d="M893.91,234.46c4.31-2.89.09-10.79,5.83-14s12.43-2.1,15,2.44S889.61,237.36,893.91,234.46Z" transform="translate(-26.48 -170.69)"/><path class="cls-6" d="M928.57,242.3c-1.3-3.4-12.65-.85-13.6-5.33s3.62-9.37,10.18-10.91S929.86,245.71,928.57,242.3Z" transform="translate(-26.48 -170.69)"/><path class="cls-6" d="M927.36,234.93c-8.42-2.38-21.11,8.11-31,4.43S886.28,223.55,900,223.5C912.47,223.46,935.78,237.32,927.36,234.93Z" transform="translate(-26.48 -170.69)"/><path class="cls-10" d="M905.42,253.73h6.7v.63c0,1.29-1.93,2.34-2.64,2.34h-1.43c-.7,0-2.63-1-2.63-2.34Z" transform="translate(-26.48 -170.69)"/><path class="cls-5" d="M843.62,320.45l28.58,53-7,8.7-30.67-44.57c-2.35-3.77-1.26-9.61,2.28-12.19Z" transform="translate(-26.48 -170.69)"/><path class="cls-5" d="M975.82,323.64l-42.45,58.14,6.2,6.16,42.94-46.12c2.84-3.42,2.53-9.36-.63-12.38Z" transform="translate(-26.48 -170.69)"/><path class="cls-11" d="M849.91,615.34c0,2.73,31.33,2.86,31.29-1.57-.06-6.56-7.6-11.51-16.24-11.08S849.87,608.78,849.91,615.34Z" transform="translate(-26.48 -170.69)"/><polygon class="cls-11" points="854.1 442.19 838.16 442.19 840.73 424.44 853.25 424.44 854.1 442.19"/><rect class="cls-4" x="856.22" y="605.21" width="5.37" height="1.72" rx="0.78" transform="matrix(0.55, 0.84, -0.84, 0.55, 871.45, -615.11)"/><rect class="cls-4" x="861.51" y="603.42" width="5.37" height="1.72" rx="0.78" transform="translate(872.35 -620.35) rotate(56.92)"/><path class="cls-4" d="M942.24,600.78c8.64.43,12.11,6.79,15,12.65,3.49,7-36.11,5.88-31.29-1.57,3.57-5.5,7.6-11.51,16.24-11.08" transform="translate(-26.48 -170.69)"/><path class="cls-11" d="M942.24,600.78c8.64.43,15.09,6.09,15,12.65,0,2.73-31.33,2.86-31.29-1.57.06-6.56,7.6-11.51,16.24-11.08" transform="translate(-26.48 -170.69)"/><polyline class="cls-11" points="901 422.53 900.14 440.29 916.09 440.29 913.52 422.53"/><path class="cls-4" d="M948.56,602.16l-2,3.06a.86.86,0,0,0,.25,1.19h0a.86.86,0,0,0,1.19-.25l2-3.06" transform="translate(-26.48 -170.69)"/><path class="cls-4" d="M943.28,600.37l-2,3.06a.86.86,0,0,0,.26,1.19h0a.86.86,0,0,0,1.19-.25l2-3.06" transform="translate(-26.48 -170.69)"/><rect class="cls-4" x="920.17" y="215.77" width="9.35" height="9.35" transform="translate(74.58 524.41) rotate(-43.36)"/><circle class="cls-5" cx="898.47" cy="73.48" r="5.31"/></g></g><g id="Tobor"><g id="Tobor_Body" data-name="Tobor Body"><ellipse class="cls-12" cx="656.79" cy="892.03" rx="82.36" ry="7.18" transform="translate(-29.54 -168.43) rotate(-0.2)"/><path class="cls-3" d="M659.71,816.23l-85.54.3v-.21c0-14.5,35.34-23.05,79.6-23.53Z" transform="translate(-26.48 -170.69)"/><path class="cls-3" d="M738.89,815.75V816l-74.29.26-5.94-23.44c33.54.06,53.52,4.25,65.17,9.19C735.71,807,738.88,812.82,738.89,815.75Z" transform="translate(-26.48 -170.69)"/><rect class="cls-13" x="574.29" y="816.24" width="164.72" height="68.89" transform="translate(-29.4 -168.43) rotate(-0.2)"/><path class="cls-3" d="M693.1,827.35H739a0,0,0,0,1,0,0v26.18a0,0,0,0,1,0,0H699.73a6.63,6.63,0,0,1-6.63-6.63V827.35A0,0,0,0,1,693.1,827.35Z" transform="translate(-29.36 -168.22) rotate(-0.2)"/></g><g id="Tobor_Antennae" data-name="Tobor Antennae"><path class="cls-14" d="M669.53,834l-4.68.85-1.14-4.47-2.22-8.79-6-23.44-8.2-32.36a2.39,2.39,0,0,1,1.92-2.77,1.89,1.89,0,0,1,.41,0,2.35,2.35,0,0,1,2.35,1.95l8.41,33.19,6,23.44,1.91,7.53Z" transform="translate(-26.48 -170.69)"/><circle class="cls-14" cx="642.14" cy="668.29" r="9.94"/></g><g id="Tobor_Wheels" data-name="Tobor Wheels"><path class="cls-3" d="M569.51,910.91a29,29,0,0,0,2.66,4.87A27,27,0,0,1,569.51,910.91Z" transform="translate(-26.48 -170.69)"/><path class="cls-3" d="M613.7,899.61a17.74,17.74,0,1,1-17.8-17.68A17.74,17.74,0,0,1,613.7,899.61Z" transform="translate(-26.48 -170.69)"/><path class="cls-3" d="M595.87,870.92a28.76,28.76,0,0,0-28.65,28.85,25.47,25.47,0,0,0,.16,2.92c.1,1,.25,1.92.44,2.84.11.48.21,1,.32,1.41.25.9.53,1.81.85,2.68.16.44.34.87.52,1.29a29,29,0,0,0,2.66,4.87,27.83,27.83,0,0,0,2.56,3.24l.95,1a28.74,28.74,0,1,0,20.19-49.1Zm-17.65,28.81A17.74,17.74,0,1,1,596,917.41,17.73,17.73,0,0,1,578.22,899.73Z" transform="translate(-26.48 -170.69)"/><path class="cls-15" d="M613.7,899.61a17.74,17.74,0,1,1-17.8-17.68A17.74,17.74,0,0,1,613.7,899.61Z" transform="translate(-26.48 -170.69)"/><path class="cls-3" d="M628.81,910.91a29,29,0,0,0,2.66,4.87A26.37,26.37,0,0,1,628.81,910.91Z" transform="translate(-26.48 -170.69)"/><path class="cls-3" d="M673,899.61a17.74,17.74,0,1,1-17.8-17.68A17.74,17.74,0,0,1,673,899.61Z" transform="translate(-26.48 -170.69)"/><path class="cls-3" d="M655.16,870.92a28.76,28.76,0,0,0-28.64,28.85,25.47,25.47,0,0,0,.16,2.92,26.25,26.25,0,0,0,.44,2.84c.11.48.21,1,.32,1.41.25.9.53,1.81.85,2.68.16.44.34.87.52,1.29A29,29,0,0,0,634,919c.32.34.64.68,1,1a28.74,28.74,0,1,0,20.18-49.1Zm-17.64,28.81a17.74,17.74,0,1,1,17.8,17.68A17.72,17.72,0,0,1,637.52,899.73Z" transform="translate(-26.48 -170.69)"/><path class="cls-15" d="M673,899.61a17.74,17.74,0,1,1-17.8-17.68A17.74,17.74,0,0,1,673,899.61Z" transform="translate(-26.48 -170.69)"/><path class="cls-3" d="M688.1,910.91a29.74,29.74,0,0,0,2.67,4.87A27,27,0,0,1,688.1,910.91Z" transform="translate(-26.48 -170.69)"/><path class="cls-3" d="M732.3,899.61a17.74,17.74,0,1,1-17.8-17.68A17.74,17.74,0,0,1,732.3,899.61Z" transform="translate(-26.48 -170.69)"/><path class="cls-3" d="M714.46,870.92a28.77,28.77,0,0,0-28.65,28.85,28,28,0,0,0,.16,2.92c.11,1,.25,1.92.45,2.84.1.48.21,1,.32,1.41.24.9.53,1.81.85,2.68.16.44.34.87.51,1.29a29.74,29.74,0,0,0,2.67,4.87,28.86,28.86,0,0,0,2.55,3.24c.32.34.64.68,1,1a28.74,28.74,0,1,0,20.18-49.1Zm-17.64,28.81a17.74,17.74,0,1,1,17.8,17.68A17.72,17.72,0,0,1,696.82,899.73Z" transform="translate(-26.48 -170.69)"/><path class="cls-15" d="M732.3,899.61a17.74,17.74,0,1,1-17.8-17.68A17.74,17.74,0,0,1,732.3,899.61Z" transform="translate(-26.48 -170.69)"/></g></g><g id="Pablo_with_Cajon_and_Guitar" data-name="Pablo with Cajon and Guitar"><g id="Pablo_with_Guitar" data-name="Pablo with Guitar"><rect class="cls-16" x="1024.19" y="555.86" width="72.56" height="20.47" transform="translate(1728.56 1376.54) rotate(-153.39)"/><polygon class="cls-16" points="1045.79 415.49 1080.97 352.03 1093.43 353.78 1063.68 425.41 1045.79 415.49"/><path class="cls-6" d="M1012.16,515.32c-3.15,3-8.28,4.52-13.69,3.58l-.17,0a19.79,19.79,0,0,1-2.7-.7,15.6,15.6,0,0,1-8.56-6.69,11.16,11.16,0,0,1-1-2.24,9.63,9.63,0,0,1-.33-4.77,10.53,10.53,0,0,1,4.9-6.94,14,14,0,0,1,2.74-1.36,16.74,16.74,0,0,1,3.89-.91c-.3.87-.61,1.74-.94,2.55A21.9,21.9,0,0,1,993,504l.69,1.9L997.4,516a9.67,9.67,0,0,0,1-1.81l10.42.83C1009.92,515.06,1011.05,515.17,1012.16,515.32Z" transform="translate(-26.48 -170.69)"/><path class="cls-6" d="M1007.69,483.51a6.63,6.63,0,0,1-6.63,6.63,6.75,6.75,0,0,1-2.16-.36c-.48,1.8-1,3.67-1.65,5.48-.3.87-.61,1.74-.94,2.55a16.2,16.2,0,0,1-2.95-1.64c-4.06-2.82-6.34-7.16-5.54-11.52a10.46,10.46,0,0,1,4.85-6.91,16.42,16.42,0,0,0,3.2,1.67,6.51,6.51,0,0,1,5.07-2.5h.12a6.6,6.6,0,0,1,5.76,3.36A6.42,6.42,0,0,1,1007.69,483.51Z" transform="translate(-26.48 -170.69)"/><path class="cls-5" d="M965.63,503.81l5.43-12.22,17.84,1.29L993,504c-3.72,4.24-8.45,6.77-13.61,6.77S969.38,508.13,965.63,503.81Z" transform="translate(-26.48 -170.69)"/><path class="cls-16" d="M1002.55,530l-48-1.28L960.21,516l.85-1.93,3.79-8.53c3.85,4.9,8.93,7.87,14.52,7.87a16.15,16.15,0,0,0,7.67-2,21.79,21.79,0,0,0,6.63-5.62L997.4,516l.58,1.59.49,1.33Z" transform="translate(-26.48 -170.69)"/><polygon class="cls-16" points="1050.73 642.68 1069.84 642.08 1068.74 604.97 1049.63 605.58 1050.73 642.68"/><polygon class="cls-16" points="915.72 730.29 936.04 732.72 939.76 695.88 919.44 693.45 915.72 730.29"/><path class="cls-17" d="M943.3,878c-.53,4.85,11.51-.62,18.69.19,11,1.25,22-116.71,33.11-170.81,20-1.87,41.43,7.11,52.28,22.59,24.9,35.54,25.07,59.08,29.22,58.53a75.55,75.55,0,0,1,19.58,0s1.41-66.25-24.44-91.6c-19.73-19.35-50.68-32.6-56.26-36.84-29.15-22.15-37.19,7.61-68,.5C938,658.4,948.5,830.49,943.3,878Z" transform="translate(-26.48 -170.69)"/><path class="cls-18" d="M920.4,907.41l41.77-.62c1.79,0,3.25-1.9,3.45-4.41.41-5,1.23-16-.94-15.13-13.36,5.4-15.55-8.17-39.33,5.39-4,2.28-6.6,4-8,6.46C915.52,902.44,917.37,907.45,920.4,907.41Z" transform="translate(-26.48 -170.69)"/><path class="cls-18" d="M1134.48,821.68h-55.4a4.84,4.84,0,0,1-4.73-4.2c-.71-4.83-2.17-15.38.73-14.57,17.9,5,20.34-8.09,52.33,4.62,5.38,2.14,8.89,3.72,10.8,6.11A5,5,0,0,1,1134.48,821.68Z" transform="translate(-26.48 -170.69)"/><path class="cls-16" d="M1001.06,480.14s0,.22-.08.51c-.23,1.31-1,5-2.08,9.13-.48,1.8-1,3.67-1.65,5.48-.3.87-.61,1.74-.94,2.55A21.9,21.9,0,0,1,993,504c-.46.53-.94,1-1.44,1.51l-.48.44,0,0-.09.08a1.24,1.24,0,0,1-.21.19l-.32.26a1.49,1.49,0,0,1-.14.12l0,0c-.18.15-.36.3-.55.43a.1.1,0,0,1-.05,0c-.18.15-.37.28-.55.41s-.37.25-.55.37-.41.27-.62.39a10.45,10.45,0,0,1-.92.53,0,0,0,0,0,0,0l-.44.22a.88.88,0,0,1-.22.1,1.75,1.75,0,0,1-.28.13l-.54.24,0,0-.12.05-.14.05h0a4.71,4.71,0,0,1-.59.22,1.14,1.14,0,0,1-.26.09l-.46.15-.06,0c-.13,0-.27.08-.41.1l-.4.11h0a2.84,2.84,0,0,1-.42.09,3.73,3.73,0,0,1-.46.09l-.37.06a5.4,5.4,0,0,1-.58.08H981l-.44,0-.34,0q-.43,0-.87,0c-5.22,0-10-2.6-13.74-6.92-4.62-5.34-7.94-23.22-7.94-23.67,0-1.32,0-2.62.17-3.89,3.63,2.16,8.73,2.6,13.69.78a18,18,0,0,0,6.11-3.72,18.39,18.39,0,0,0,5.36,1.87,18,18,0,0,0,6.67,0,15.11,15.11,0,0,0,3,2.56,16.42,16.42,0,0,0,3.2,1.67,6.51,6.51,0,0,1,5.07-2.5C1001,478,1001.06,479.05,1001.06,480.14Z" transform="translate(-26.48 -170.69)"/><path class="cls-5" d="M993.67,505.86a21.79,21.79,0,0,1-6.63,5.62,16.15,16.15,0,0,1-7.67,2c-5.59,0-10.67-3-14.52-7.87l.78-1.77c3.75,4.32,8.52,6.92,13.74,6.92q.43,0,.87,0l.34,0,.44,0h.1a5.4,5.4,0,0,0,.58-.08l.37-.06a3.73,3.73,0,0,0,.46-.09,2.84,2.84,0,0,0,.42-.09h0l.4-.11c.14,0,.28-.07.41-.1l.06,0,.46-.15a1.14,1.14,0,0,0,.26-.09,4.71,4.71,0,0,0,.59-.22h0l.14-.05.12-.05,0,0,.54-.24a1.75,1.75,0,0,0,.28-.13.88.88,0,0,0,.22-.1l.17-.08.24-.12,0,0a0,0,0,0,1,0,0,10.45,10.45,0,0,0,.92-.53c.21-.12.42-.25.62-.39s.36-.23.55-.37.37-.26.55-.41a.1.1,0,0,0,.05,0c.19-.13.37-.28.55-.43l0,0a1.49,1.49,0,0,0,.14-.12l.32-.26a1.24,1.24,0,0,0,.21-.19l.09-.08,0,0,.48-.44c.5-.48,1-1,1.44-1.51Z" transform="translate(-26.48 -170.69)"/><path class="cls-9" d="M993.67,505.86a21.79,21.79,0,0,1-6.63,5.62,16.15,16.15,0,0,1-7.67,2c-5.59,0-10.67-3-14.52-7.87l.78-1.77c3.75,4.32,8.52,6.92,13.74,6.92q.43,0,.87,0l.34,0,.44,0h.1a5.4,5.4,0,0,0,.58-.08l.37-.06a3.73,3.73,0,0,0,.46-.09,2.84,2.84,0,0,0,.42-.09h0l.4-.11c.14,0,.28-.07.41-.1l.06,0,.46-.15a1.14,1.14,0,0,0,.26-.09,4.71,4.71,0,0,0,.59-.22h0l.14-.05.12-.05,0,0,.54-.24a1.75,1.75,0,0,0,.28-.13.88.88,0,0,0,.22-.1l.17-.08.24-.12,0,0a0,0,0,0,1,0,0,10.45,10.45,0,0,0,.92-.53c.21-.12.42-.25.62-.39s.36-.23.55-.37.37-.26.55-.41a.1.1,0,0,0,.05,0c.19-.13.37-.28.55-.43l0,0a1.49,1.49,0,0,0,.14-.12l.32-.26a1.24,1.24,0,0,0,.21-.19l.09-.08,0,0,.48-.44c.5-.48,1-1,1.44-1.51Z" transform="translate(-26.48 -170.69)"/><path class="cls-19" d="M1009.62,498.35c4.06,2.82,6.35,7.17,5.56,11.52a10.05,10.05,0,0,1-3,5.45c-1.11-.15-2.24-.26-3.37-.32l-10.42-.83a9.67,9.67,0,0,1-1,1.81l-3.73-10.12L993,504a21.9,21.9,0,0,0,3.33-6.15c.33-.81.64-1.68.94-2.55.61-1.81,1.17-3.68,1.65-5.48a6.75,6.75,0,0,0,2.16.36,6.63,6.63,0,0,0,6.63-6.63,6.42,6.42,0,0,0-.87-3.25,6.6,6.6,0,0,0-5.76-3.36h-.12a6.51,6.51,0,0,0-5.07,2.5,16.42,16.42,0,0,1-3.2-1.67,15.11,15.11,0,0,1-3-2.56,18,18,0,0,1-6.67,0,18.39,18.39,0,0,1-5.36-1.87,18,18,0,0,1-6.11,3.72c-5,1.82-10.06,1.38-13.69-.78a10.09,10.09,0,0,1-4.47-5.23,10.62,10.62,0,0,1,1-8.93c-2-6.1,2.41-13.22,10-16a16.25,16.25,0,0,1,13.63.73h1.17a21.2,21.2,0,0,1,5.56.75,17.78,17.78,0,0,1,8.26-.38c6.37,1.17,11.19,5.37,12.42,10.25,7.18,2,11.93,8,10.84,14a10.49,10.49,0,0,1-4.86,6.9c4.26,2.83,6.68,7.28,5.86,11.74C1016.57,493.89,1013.61,496.88,1009.62,498.35Z" transform="translate(-26.48 -170.69)"/><path class="cls-6" d="M1006.82,480.26a18.14,18.14,0,0,1-5.84.39c-.53-.06-1.06-.13-1.6-.23a18.74,18.74,0,0,1-3.51-1,6.51,6.51,0,0,1,5.07-2.5h.12A6.6,6.6,0,0,1,1006.82,480.26Z" transform="translate(-26.48 -170.69)"/><path class="cls-16" d="M1007.69,483.51a6.63,6.63,0,0,1-6.63,6.63,6.75,6.75,0,0,1-2.16-.36,6.62,6.62,0,0,1-3-10.37,6.51,6.51,0,0,1,5.07-2.5h.12a6.6,6.6,0,0,1,5.76,3.36A6.42,6.42,0,0,1,1007.69,483.51Z" transform="translate(-26.48 -170.69)"/><path class="cls-19" d="M944.66,321.49h14.87a3.83,3.83,0,0,1,3.83,3.83v1.6a0,0,0,0,1,0,0H940.83a0,0,0,0,1,0,0v-1.6A3.83,3.83,0,0,1,944.66,321.49Z"/><path class="cls-10" d="M973.09,497.83h11.64v1.1c0,2.24-3.35,4.06-4.57,4.06h-2.49c-1.22,0-4.58-1.82-4.58-4.06Z" transform="translate(-26.48 -170.69)"/><path class="cls-16" d="M1102.06,505.36c2.27-.8,5.36,8.15,5.36,8.15s.95-19.74,3.9-18.65c1.31.49.4,14.53.4,14.53.39-.2,3.46-16.9,5.24-16.46,2.79.68-1.39,18.35-1.14,18.41,0,0,5.21-15.28,6.48-14.8,3.21,1.21-2.2,16.5-2,16.8,0,0,4.36-12.91,6.1-12.08,3.58,1.71-6.67,23.89-10.16,31.5-.84,1.83-1.07.07-3-.35l-8.22-3.27C1101.36,517.49,1100.45,505.93,1102.06,505.36Z" transform="translate(-26.48 -170.69)"/><g id="Guitar_Hand" data-name="Guitar Hand"><polygon class="cls-16" points="911.62 377.4 872.41 436.95 857.57 422.85 896.79 363.3 911.62 377.4"/><path class="cls-20" d="M1056.05,545.88l-1.22,5.94-4.27,20.75-.74,3.6-19.48-9.11c-.55,6.81-1.54,17.24-2.94,29.31-.19,1.5-.36,3-.55,4.56-.62,5.14-1.32,10.51-2.08,16-1.6,11.59-3.53,23.62-5.74,34.75-.62,3.18-1.28,6.29-2,9.29l0,.15c-1.16,4.28-10.6,7.25-22.3,8.6-15.2,1.75-34.23.8-43.94-3.51h0a15.71,15.71,0,0,1-3.89-2.34h0a7.85,7.85,0,0,1-1.18-1.2,5.55,5.55,0,0,1-1.16-2.39c-.07-.29-.12-.57-.17-.87h0c-1.3-6.34-2.6-13.36-3.84-20.71h0l-.06-.28c0-.16,0-.29-.07-.45h0c-.16-.95-.32-1.9-.48-2.87-.77-4.72-1.53-9.55-2.24-14.39-.86-5.94-1.66-11.92-2.36-17.75-2-16.3-3.13-31.56-2.84-42.25l-13.31,25.8-2.69-5.58-10.18-21.17-2.45-5.08,14.92-23.71c12.59-12.35,24.8-18.94,41.65-18.49a9.42,9.42,0,0,0,.62,1.67c2.87,5.93,12.15,11.27,18.9,11.27,5.1,0,11.74-3.18,15.64-7.21a13.84,13.84,0,0,0,1.8-2.19,9.67,9.67,0,0,0,1-1.81l10.42.83c1.13.06,2.26.17,3.37.32a45.89,45.89,0,0,1,25.9,12.92Z" transform="translate(-26.48 -170.69)"/><g id="Guitar"><path class="cls-21" d="M965,689c-13.72,4.06-25.77.14-36-9.26a74.54,74.54,0,0,1-23-40.28c-4.72-22.26,6.35-38,25.47-45.61a58.47,58.47,0,0,1,19.11-4,71.7,71.7,0,0,0,37.13-11.56A60.63,60.63,0,0,1,999,572.18c10.72-4.1,20.21-1.12,28.22,8.42,1.74,2.08,3.33,4.27,5.25,6.74l6.34,12.4c8.93,16.23,5,31-11.26,38.83-15,7.22-26.92,17.24-35.83,31.4C985.54,679.71,976,685.73,965,689Z" transform="translate(-26.48 -170.69)"/><polygon class="cls-22" points="977.11 450.26 968.37 434.77 1067.03 381.13 1074.08 393.63 977.11 450.26"/><path class="cls-21" d="M1099.78,563.45l-5.16-9.81c-3.17-6.41-1.64-9.07,5.66-10.13,3.36-.49,7-.66,9.94-2,2.69-1.25,4.77-3.9,7-6.06,1.42-1.39,2.37-3.27,3.89-4.5,4.38-3.5,6.21-3,9,1.87,1.68,3,6.32,10.11,6.65,10.72,2.75,4.92,1.45,7.16-3.81,9.08-1.83.67-3.94.51-5.86,1-3,.78-6.34,1.19-8.81,2.85-2.73,1.84-4.74,4.81-6.9,7.44C1106.69,569.56,1103.62,569.48,1099.78,563.45Z" transform="translate(-26.48 -170.69)"/><circle class="cls-23" cx="960.75" cy="449.27" r="16.34"/><rect class="cls-22" x="934.3" y="635.95" width="32.18" height="7.08" transform="translate(1014.38 -673.13) rotate(60.59)"/></g><path class="cls-16" d="M891,585.86l57,42.5-5.84,11.28-56.64-33.28A8.57,8.57,0,0,1,884,593.31Z" transform="translate(-26.48 -170.69)"/><path class="cls-9" d="M973.26,640.21c-.18,2.4-9.61,1.61-9.61,1.61s17.67,8.83,15.48,11.1c-1,1-13.45-5.51-13.45-5.51,0,.44,14.06,10,13,11.44-1.76,2.29-16.24-8.67-16.39-8.47,0,0,11.88,10.94,10.93,11.91-2.41,2.44-14.22-8.67-14.58-8.58,0,0,10,9.2,8.59,10.45-3,2.6-17.35-13-22.91-19.28a4.29,4.29,0,0,1-.26-5.36l6.31-5.29C962.46,635.58,973.39,638.5,973.26,640.21Z" transform="translate(-26.48 -170.69)"/><path class="cls-16" d="M970,635c-.18,2.4-9.61,1.61-9.61,1.61s17.67,8.84,15.48,11.1c-1,1-13.45-5.5-13.45-5.5,0,.44,14.06,10,13,11.44-1.76,2.28-16.24-8.67-16.39-8.48,0,0,11.88,10.94,10.92,11.91-2.4,2.44-14.21-8.67-14.57-8.58,0,0,10,9.2,8.59,10.46-3,2.59-19.17-15.74-24.72-22-1.34-1.51.37-1,1.54-2.64l6.32-6.2C959.17,629.42,970.11,633.25,970,635Z" transform="translate(-26.48 -170.69)"/></g></g><g id="Cajon-_Striped" data-name="Cajon- Striped"><rect x="1040.37" y="747.31" width="6.5" height="15.36"/><rect x="1105.73" y="747.31" width="6.5" height="15.36"/><path class="cls-24" d="M1149.49,822.28h-92.24l-2.72,106.27h96.78Zm-45.78,77a5.62,5.62,0,0,1-.58,0,19,19,0,0,1-2.13-.11,20.74,20.74,0,0,1-9.21-38c.3-.21.61-.39.93-.57a20.71,20.71,0,0,1,22.43,1l.7.52a20.73,20.73,0,0,1-12.14,37.11Z" transform="translate(-26.48 -170.69)"/><path class="cls-23" d="M1123.88,878.51a20.73,20.73,0,0,1-20.17,20.72,5.62,5.62,0,0,1-.58,0,19,19,0,0,1-2.13-.11,20.74,20.74,0,0,1-9.21-38c.3-.21.61-.39.93-.57a20.71,20.71,0,0,1,22.43,1l.7.52A20.69,20.69,0,0,1,1123.88,878.51Z" transform="translate(-26.48 -170.69)"/><path class="cls-21" d="M1071.83,863.74l-3.06-41.46h8.48l-5.07,41.47A.18.18,0,0,1,1071.83,863.74Z" transform="translate(-26.48 -170.69)"/><path class="cls-21" d="M1097.41,822.28l-4.69,38.29c-.32.18-.63.36-.93.57l-2.86-38.86Z" transform="translate(-26.48 -170.69)"/><path class="cls-21" d="M1120.73,822.28l-4.88,39.84-.7-.52-2.9-39.32Z" transform="translate(-26.48 -170.69)"/><path class="cls-21" d="M1140.36,863.74l-3.06-41.46h8.47l-5.06,41.47A.18.18,0,0,1,1140.36,863.74Z" transform="translate(-26.48 -170.69)"/><path class="cls-21" d="M1081.48,886.76l3.07,41.46h-8.48l5.07-41.47A.17.17,0,0,1,1081.48,886.76Z" transform="translate(-26.48 -170.69)"/><path class="cls-21" d="M1061.49,886.76l3.06,41.46h-8.48l5.07-41.47A.18.18,0,0,1,1061.49,886.76Z" transform="translate(-26.48 -170.69)"/><path class="cls-21" d="M1105.87,928.55h-8.46l3.59-29.41a19,19,0,0,0,2.13.11,5.62,5.62,0,0,0,.58,0Z" transform="translate(-26.48 -170.69)"/><path class="cls-21" d="M1127.65,887.08l3.06,41.46h-8.48l5.07-41.47A.18.18,0,0,1,1127.65,887.08Z" transform="translate(-26.48 -170.69)"/><path class="cls-21" d="M1144.71,887.08l3.07,41.46h-8.48l5.07-41.47A.17.17,0,0,1,1144.71,887.08Z" transform="translate(-26.48 -170.69)"/></g></g><g id="Girl_2_with_Wyatt" data-name="Girl 2 with Wyatt"><g id="Girl_2" data-name="Girl 2"><path class="cls-3" d="M651.26,384.24c4.57-1.12,8.47-3.17,13-4.4,10.78-2.95,24.15-1.08,33.8-5.38,10.83-4.83,24.77-17.61,20.71-25.14-6.26-11.6-10.89-24.92-12.34-35.64-1.08-7.82-.45-14.26,2.44-17.66,1.78-2.09,4.44-3,8.09-2.42,3.81.63-5.93-19.55-26.1-19.43-9.6.07-23.43,14.74-23.18,20.73a77.62,77.62,0,0,1-6,34.86c-3.81,9,.53,17.14-1.68,26.38C659.2,359.41,646.68,385.37,651.26,384.24Z" transform="translate(-26.48 -170.69)"/><path class="cls-25" d="M681.06,316.83a12,12,0,0,0,2.33,2.52,17.63,17.63,0,0,0,2.77,1.75,31.64,31.64,0,0,0,8.83,1.38l-.07-.66c-2.84-.66-6.92-1.73-8.76-2.3-.82-.41-4-2.25-5.08-2.91Z" transform="translate(-26.48 -170.69)"/><path class="cls-5" d="M681.08,316.61c1,.66,4.26,2.5,5.08,2.91,1.84.57,5.92,1.64,8.76,2.3l-1.44-12.07-.22-1.86a7.73,7.73,0,0,1-2.72,2.33,8,8,0,0,1-1.34.49,6.61,6.61,0,0,1-4.45-.5,10.36,10.36,0,0,1-1.44-.89,7.6,7.6,0,0,1-1.59-1.79l-.14,1.89Z" transform="translate(-26.48 -170.69)"/><polygon class="cls-25" points="678.12 181.6 724.82 209.2 733.25 198.97 685.56 171.06 678.12 181.6"/><path class="cls-25" d="M679,346.68l18.59-2.44-2.4-20.18-.19-1.58a31.64,31.64,0,0,1-8.83-1.38,17.63,17.63,0,0,1-2.77-1.75,12,12,0,0,1-2.33-2.52l-.09,1.43Z" transform="translate(-26.48 -170.69)"/><path class="cls-25" d="M665.17,446.46c-.82,1.26-4.17-.42-4.17-.42s3.86,3.82,2,4.4c-.83.26-2.55-.74-2.55-.74-.12.25,1.54,3.38.49,3.83-1.64.72-3.12-3.3-3.26-3.24s.07,3.24-.75,3.48c-2,.62-2-2.7-2.24-2.75,0,0-.42,1.74-1.59,2-2.42.52-2.6-8-3.76-13.13-.28-1.22.5-.43,1.63-1l5.31-1.5C662.49,441.78,665.75,445.57,665.17,446.46Z" transform="translate(-26.48 -170.69)"/><path class="cls-25" d="M783.25,315.6c1.88-.06,2.32,7.23,2.32,7.23s4.84-14.27,6.83-12.79c.88.66-2.75,10.76-2.75,10.76.34-.06,6.13-11.6,7.38-10.87,2,1.15-4.88,13.15-4.71,13.25,0,0,7.11-10,8-9.36,2.15,1.63-5.1,11.61-5,11.88,0,0,6-8.46,7.1-7.46,2.34,2.09-15,20.57-16.41,19.81l-4-2.64C781.66,326,781.92,315.65,783.25,315.6Z" transform="translate(-26.48 -170.69)"/><polygon class="cls-25" points="657.11 179.71 620.22 228.45 615.38 218.38 645.76 173.56 657.11 179.71"/><path class="cls-9" d="M681,317.37c2.79,3.1,9.4,6,14.05,5.81l-.16-1.36c-2.84-.66-6.92-1.73-8.76-2.3-.82-.41-4-2.25-5.08-2.91Z" transform="translate(-26.48 -170.69)"/><path class="cls-25" d="M674.37,299.85c0,6.4,3.07,11.77,6.38,16.54,0,0,2.9,1.79,5.41,3.13a21.93,21.93,0,0,0,11.68,2.84c1.12-.33,4.43-3.8,7-8.68a26.1,26.1,0,0,0,3.32-13.3,16.88,16.88,0,0,0-.88-4.36c-2.49-7.6-9.9-15.55-18-14.76C680.69,282.09,674.37,290.07,674.37,299.85Z" transform="translate(-26.48 -170.69)"/><path class="cls-3" d="M677.64,283.64c5.81.38-11.08,13.71-4.07,9.85,2.79-1.54,33-.84,30.78-11.39C702.78,274.52,671.84,283.26,677.64,283.64Z" transform="translate(-26.48 -170.69)"/><path class="cls-25" d="M646.11,388.3l11.28,50.83-8.06.74-12.35-40c-1-3.7,3.72-10.79,6.61-11.94Z" transform="translate(-26.48 -170.69)"/><path class="cls-25" d="M751.29,379.89l32.24-49.16,5.94,2.62-21.55,44c-2.8,4.12-8.07,6.63-11,5.24Z" transform="translate(-26.48 -170.69)"/><polygon class="cls-4" points="661 243.65 689.11 250.14 687.63 199.22 646.21 202.03 661 243.65"/><path class="cls-25" d="M658.25,620.44l6.92,8.7,33.4-134.08s-7.43-14.88-9.69-12.32C671.3,502.72,658.25,620.44,658.25,620.44Z" transform="translate(-26.48 -170.69)"/><path class="cls-25" d="M732.88,637.73l-8.9,1.65s-21.58-121.09-6.53-151.25c2.33-4.67,13,2.61,13,2.61Z" transform="translate(-26.48 -170.69)"/><path class="cls-26" d="M743.41,509.74c.87,4.15-84.3,14.86-83.28,10.58,17.22-71.86,18.57-110,27.22-106.77,11.45,4.29,16.9.58,27.07-2.36C728.55,407.11,731.9,454.89,743.41,509.74Z" transform="translate(-26.48 -170.69)"/><path d="M721.08,642.05l.53,2.94,2.56,19.32a1.46,1.46,0,0,0,2.83,0l1.9-15.25c9.15,6.58,23.66,17,25.94,15.84,5.19-2.64-10.66-19.35-20.42-27.4-1.14-.94-5.29,2.64-11.88-.87C721.21,635.92,720.85,639.37,721.08,642.05Z" transform="translate(-26.48 -170.69)"/><path d="M654.27,620.88l-1,2.83-7,17.92c-.48,1.42,1.33,3.13,2.23,2.09l8.62-11.23c4.14,12.25,10.72,31.65,13.05,32.38,5.33,1.67.64-24-3.3-37.86-.46-1.63-5.41-1.74-9-9.54C657.23,615.89,655.34,618.49,654.27,620.88Z" transform="translate(-26.48 -170.69)"/><path class="cls-4" d="M665.57,351.34c2.43,22.61,15.55,39.82,29.31,38.45s22.93-20.81,20.5-43.41S663.14,328.74,665.57,351.34Z" transform="translate(-26.48 -170.69)"/><path class="cls-4" d="M690.44,363c9.64,9.19,22.72,11.5,29.23,5.18s4-18.91-5.65-28.1S680.81,353.78,690.44,363Z" transform="translate(-26.48 -170.69)"/><circle class="cls-25" cx="651.94" cy="132.97" r="7.23"/><path class="cls-10" d="M699.63,310.72c.06,1.65-1.91,3.07-4.41,3.17s-4.57-1.17-4.63-2.82C690.55,310,699.58,309.48,699.63,310.72Z" transform="translate(-26.48 -170.69)"/></g><g id="Wyatt_with_Leash" data-name="Wyatt with Leash"><path id="Leash-_Dog" data-name="Leash- Dog" class="cls-4" d="M623.89,647.06a20.22,20.22,0,0,1,3.07,4.33c10.56-1.64,17.57-80.78,16.6-103.11-.34-8.25-3.64-71.24-.75-82.15,1.29-4.89,5.06-14.34,14.36-19.74l-2.36-4.09c-10.55,6.12-14.88,16.24-16.56,22.62-3.28,12.31.22,74.68.6,83.56C639.74,569,634.2,645.52,623.89,647.06Z" transform="translate(-26.48 -170.69)"/><g id="Dog-_Wyatt" data-name="Dog- Wyatt"><path class="cls-23" d="M588.12,692.27c-2.42,3.32.68,5.35-1.09,6a6.74,6.74,0,0,1-2.28.26h-6.67c-2.91,0-3.82-4.85-3.82-7v-13a13.91,13.91,0,0,1,13.93-13.93S589.6,690.24,588.12,692.27Z" transform="translate(-26.48 -170.69)"/><path class="cls-27" d="M610,664.07a3.51,3.51,0,0,0,2.65,0Z" transform="translate(-26.48 -170.69)"/><path class="cls-27" d="M593.13,676.51l-2.33,15.17a1.89,1.89,0,0,0,0,.41,4.53,4.53,0,0,0,.85,2.36c-.31-.07-3.36-1.06-6.88-1.75-4.32-.86-9.35-1.32-10.83.71-2.42,3.32.69,5.36-1.09,6a6.48,6.48,0,0,1-2.28.26h-6.67c-2.9,0-3.82-4.85-3.82-6.95v-13A13.93,13.93,0,0,1,574,665.8h9.5c0,.38,2.82,10.68,9.59,10.7Z" transform="translate(-26.48 -170.69)"/><path class="cls-2" d="M590.85,692.59c0,1,.73,8,4.85,8h4.65c5.65,0,2.22-2.14,2.52-5.56h0c-.16-.15,8.31.17,8.2.23.11.14.39,4.36,3,5.34h5.26c3.74,0,3.84-1.23,3.16-2.68-1.35-2.87-3.53-19.4-3.86-22.94-.55.33-25.8-.14-25.8-.14A91.88,91.88,0,0,0,590.85,692.59Z" transform="translate(-26.48 -170.69)"/><path class="cls-2" d="M561.08,673.22c0,.25.06.49.11.72a.83.83,0,0,0,1.47.34,7.84,7.84,0,0,1,5.59-3.22c4.33-.44,5.64,2.73,6.08,7.07a7.92,7.92,0,0,1-.07,2.07,9.39,9.39,0,0,0,5.47-9.14c-.52-5.12-3.12-8.79-9-8.2S560.56,668.1,561.08,673.22Z" transform="translate(-26.48 -170.69)"/><path class="cls-28" d="M580.52,665.8c0,1,.21,3.23.28,4.12a27.58,27.58,0,0,0,.46,3.43,14,14,0,0,0,.57,2c.12.33.25.65.39,1a8.25,8.25,0,0,0,1.64,2.43,7,7,0,0,0,2.44,1.69,7.33,7.33,0,0,0,1,.38,13.33,13.33,0,0,0,4.22.51l.44-2.73v0c-7.26,0-10-12.35-10-12.75Z" transform="translate(-26.48 -170.69)"/><path class="cls-27" d="M598,687.07l3.88,6.48a3.61,3.61,0,0,0,.36.51,3,3,0,0,0,.42.45v0l.16.14.27.22a1.52,1.52,0,0,0,.23.16,4,4,0,0,0,.84.45,6.63,6.63,0,0,0,2.74.57,6.39,6.39,0,0,0,3.57-1,1.25,1.25,0,0,0,.22-.16.79.79,0,0,0,.17-.14,2.17,2.17,0,0,0,.29-.24,4.51,4.51,0,0,0,.77-1l3-5,.9-1.49c.08-.15.16-.29.22-.43a3.48,3.48,0,0,0,0-2.91,4.21,4.21,0,0,0-1.12-1.48,6.1,6.1,0,0,0-4.12-1.48H603C598.88,680.77,596.21,684.14,598,687.07Z" transform="translate(-26.48 -170.69)"/><path class="cls-27" d="M633.92,665.26c0,3.36-.22,6.55-1.47,9-1.81,3.49-5.76,5.47-14.24,4.23l-.48-.07c-.27,0-.55-.08-.83-.14h-.07l-3.46-.1c-3.45-.1-8.73-.26-12.09-.33-1.95,0-3.26,0-3.17,0l-.64.14-.5.1-.18,0c-.7.14-1.32.26-1.94.33l-.28,0c-.71.09-1.38.15-2,.18-.36,0-.69,0-1,0v0c-6.77,0-8.87-4.17-9.48-9.58,0-.36-.18-6.41-.18-9.07a16.53,16.53,0,0,1,.62-4.51,19.85,19.85,0,0,1,7.75-10.9,30.15,30.15,0,0,1,11-4.41,29.45,29.45,0,0,1,8.11-.56,44.75,44.75,0,0,1,5.49.63,28,28,0,0,1,11.77,5.55,20.44,20.44,0,0,1,5.34,6.45,17,17,0,0,1,1.92,7.75C633.86,661.77,633.92,663.53,633.92,665.26Z" transform="translate(-26.48 -170.69)"/><path class="cls-2" d="M624.41,666.71c0,.13,0,.26,0,.39h0a2.64,2.64,0,0,1,0,.38v0a1.2,1.2,0,0,1,0,.24c-.39,3.43-2.73,6.47-6.21,8.48a14.81,14.81,0,0,1-1.64.83h0a19.88,19.88,0,0,1-3.1,1.09l-.12,0-.13,0-.63.16c-.4.08-.84.16-1.28.22l-.63.1c-.44,0-.89.09-1.35.11s-.89,0-1.35,0a21.58,21.58,0,0,1-6.6-1l-.37-.11a21.08,21.08,0,0,1-2.79-1.19,13.63,13.63,0,0,1-5.69-5.5,10.49,10.49,0,0,1-.85-2.22c0-.18-.08-.38-.12-.57s-.05-.32-.06-.48,0-.16,0-.24a.27.27,0,0,1,0-.09,4.59,4.59,0,0,1,0-.74,9.73,9.73,0,0,1,2-5.8,15.65,15.65,0,0,1,7.61-5.24,21.85,21.85,0,0,1,6.94-1.11,23.23,23.23,0,0,1,2.52.13c.51.07,1,.13,1.49.23a20.33,20.33,0,0,1,2.84.74,15.4,15.4,0,0,1,7.65,5.2A9.7,9.7,0,0,1,624.41,666.71Z" transform="translate(-26.48 -170.69)"/><path class="cls-2" d="M602.88,650.07a5.76,5.76,0,0,0,1.36,1.3,6.26,6.26,0,0,0,8.63-1.3,1.38,1.38,0,0,0,.17-.25,6.18,6.18,0,0,0,1.14-3.55,6.32,6.32,0,0,0-3.92-5.85,5.89,5.89,0,0,0-2.39-.47,6.08,6.08,0,0,0-2.33.44A6.29,6.29,0,0,0,602.88,650.07Z" transform="translate(-26.48 -170.69)"/><path class="cls-3" d="M611.13,666a3.14,3.14,0,0,1-1.91,2.86,3.36,3.36,0,0,1-2.64,0,3.14,3.14,0,0,1-1.91-2.86c0-.71,1.11-1.13,2.39-1.25v-1.71a2.12,2.12,0,0,1-.77-.59l-1.63-2a2,2,0,0,1,1.57-3.31h3.29a2,2,0,0,1,1.58,3.31l-1.66,2a1.81,1.81,0,0,1-.76.59v1.69C610,664.91,611.13,665.32,611.13,666Z" transform="translate(-26.48 -170.69)"/><path class="cls-28" d="M617.73,678.43c-.36.2-.74.39-1.12.56h0a19.93,19.93,0,0,1-3.24,1.11l-.12,0-.63.16c-.41.08-.85.15-1.27.21l-.65.1c-.44,0-.88.1-1.34.11s-.9,0-1.35,0a21.55,21.55,0,0,1-7-1.14,20.94,20.94,0,0,1-2.78-1.19c-.27-.15-.52-.29-.77-.45l.64-.14c-.09,0,1.22,0,3.17,0a21.58,21.58,0,0,0,6.6,1c.46,0,.91,0,1.35,0s.91-.06,1.35-.11l.63-.1c.44-.06.88-.14,1.28-.22l.63-.16.13,0,.12,0,3.46.1h.07C617.18,678.35,617.46,678.39,617.73,678.43Z" transform="translate(-26.48 -170.69)"/></g></g></g><g id="Lamar_Hackson" data-name="Lamar Hackson"><g id="Table-_Steel" data-name="Table- Steel"><polygon class="cls-29" points="470.18 524.42 470.18 650.55 451.88 650.55 451.88 521.77 470.18 524.42"/><rect class="cls-3" x="449.47" y="649.77" width="23.64" height="5.44"/><rect class="cls-29" x="195.26" y="750.36" width="124.95" height="18.3" transform="translate(990.77 331.09) rotate(90)"/><rect class="cls-3" x="219.69" y="650.52" width="23.64" height="5.44"/><rect class="cls-23" x="205" y="513.22" width="283.9" height="13.9"/></g><g id="Laptop_with_Temoc" data-name="Laptop with Temoc"><g id="Laptop_White" data-name="Laptop White"><path class="cls-13" d="M427.4,677.11H334.59a5.3,5.3,0,0,1-5.29-5.75l5.27-63.45a5.31,5.31,0,0,1,5.29-4.87h92.82a5.31,5.31,0,0,1,5.29,5.75l-5.28,63.45A5.31,5.31,0,0,1,427.4,677.11Z" transform="translate(-26.48 -170.69)"/><path class="cls-20" d="M420.77,671H342a3.77,3.77,0,0,1-3.76-4.08l4.51-54.28a3.78,3.78,0,0,1,3.76-3.46h78.79a3.78,3.78,0,0,1,3.76,4.09l-4.51,54.27A3.77,3.77,0,0,1,420.77,671Z" transform="translate(-26.48 -170.69)"/><rect class="cls-13" x="275.19" y="505.5" width="127.14" height="7.72" rx="2.58"/></g><g id="Laptop_Keys" data-name="Laptop Keys"><rect class="cls-23" x="295.22" y="504.67" width="6.19" height="1.3" rx="0.33"/><rect class="cls-23" x="381.39" y="504.67" width="6.19" height="1.3" rx="0.33"/><rect class="cls-23" x="371.82" y="504.67" width="6.19" height="1.3" rx="0.33"/><rect class="cls-23" x="362.24" y="504.67" width="6.19" height="1.3" rx="0.33"/><rect class="cls-23" x="352.67" y="504.67" width="6.19" height="1.3" rx="0.33"/><rect class="cls-23" x="343.09" y="504.67" width="6.19" height="1.3" rx="0.33"/><rect class="cls-23" x="333.52" y="504.67" width="6.19" height="1.3" rx="0.33"/><rect class="cls-23" x="323.95" y="504.67" width="6.19" height="1.3" rx="0.33"/><rect class="cls-23" x="314.37" y="504.67" width="6.19" height="1.3" rx="0.33"/><rect class="cls-23" x="304.8" y="504.67" width="6.19" height="1.3" rx="0.33"/></g><g id="Temoc"><path class="cls-30" d="M407,647.84c-3.07,10.93-8.64,13.38-14.46,12.64s-12-5-6.61-15.32c6.08-11.64,17.31-24.93,17.31-24.93S410.11,636.9,407,647.84Z" transform="translate(-26.48 -170.69)"/><path class="cls-30" d="M395.47,633.64c-2.86,9.31-9.36,11-16.4,10s-14.8-5.23-9.09-13.86c6.42-9.69,18.91-20.44,18.91-20.44S398.34,624.34,395.47,633.64Z" transform="translate(-26.48 -170.69)"/><path class="cls-30" d="M357.68,633.19c-2.54,7.91,1.38,10.48,7.09,10.93s13.48-1.4,13.59-9.3c.12-8.88-3.69-19.72-3.69-19.72S360.22,625.28,357.68,633.19Z" transform="translate(-26.48 -170.69)"/><path class="cls-31" d="M403.2,646.54c0,12.85-10.42,21.5-23.28,21.5s-23.27-8.65-23.27-21.5,10.42-17.39,23.27-17.39S403.2,633.68,403.2,646.54Z" transform="translate(-26.48 -170.69)"/><path class="cls-30" d="M382.43,640.46c-4.12,5.57-16.25,7-16.25,7s-8.06-13.79-3.57-18.16c6-5.82,19.57-7.44,19.57-7.44S386.54,634.89,382.43,640.46Z" transform="translate(-26.48 -170.69)"/><path class="cls-30" d="M389.5,649.92a84.64,84.64,0,0,1-10-17.34c-1.34-3,10.53-5.38,15-1.94,5.91,4.57,11.61,11.61,9.42,14.56C402.21,647.45,395.6,649.24,389.5,649.92Z" transform="translate(-26.48 -170.69)"/><circle class="cls-32" cx="340.4" cy="481.6" r="2.97"/><circle class="cls-32" cx="359.02" cy="483.89" r="2.97"/><path class="cls-32" d="M379.33,657.22c.59.06-1,5.3-4.72,4.91s-4.19-5.84-3.6-5.78Z" transform="translate(-26.48 -170.69)"/></g></g><g id="Dude"><path class="cls-33" d="M244.39,557.24a1.7,1.7,0,0,1,.71-.8l0,0h0s0,0,0-.06l0,0a4,4,0,0,1-1.26-4.26,1.6,1.6,0,0,1,1.25-1l.15.24c0-.09,0-.18.07-.26l-.22,0a4.08,4.08,0,0,1-.58-2.5,2,2,0,0,1,.92-1.59,4.14,4.14,0,0,1-.47-2.32,1.74,1.74,0,0,1,2.68-1.52l.21.13a3.59,3.59,0,0,1,.25-3.26,2.23,2.23,0,0,1,.26-.27,1.51,1.51,0,0,1,.26-.18l-.26-.18a3.42,3.42,0,0,1-.66-.7,4,4,0,0,1-.32-4.36,1.61,1.61,0,0,1,2.19-.39,8.5,8.5,0,0,1,.47-.9,2.91,2.91,0,0,1,1.07-2.7,1.58,1.58,0,0,1,1-.23,2.82,2.82,0,0,1,1.08-2.56c1.08-.68,2.51.07,3.2,1.66,0,.07-.05.15-.07.24l.18,0-.09-.23,0,0a2.28,2.28,0,0,1,.86-1.1c1.09-.68,2.53.08,3.22,1.69a4.52,4.52,0,0,1,.35,1.45l0,0h0l0,0s0,0,0,0c1.08-.65,2.51.1,3.19,1.71a4.2,4.2,0,0,1,.35,1.48,2.2,2.2,0,0,1,.33.35,3.63,3.63,0,0,1,.36-1.61c.66-1.3,2.06-1.31,3.11,0a4.74,4.74,0,0,1,.73,1.3l0,0h0s0,0,0,0c.67-1.27,2.05-1.26,3.09,0a4.86,4.86,0,0,1,1,2.14l-.17.1.22.21a2.87,2.87,0,0,0-.05-.31,1.64,1.64,0,0,1,1.84.22,4.16,4.16,0,0,1,1.37,1.93,1.74,1.74,0,0,1,1.72.3,4.59,4.59,0,0,1,1.6,4.32,3.69,3.69,0,0,1-.18.56,4.51,4.51,0,0,1,.32,2.62,2.44,2.44,0,0,1-.47,1,4.69,4.69,0,0,1,1.29,4.07c-.21,1-.82,1.58-1.56,1.6a1.91,1.91,0,0,1-.83,1.11,2.08,2.08,0,0,1,.94.39,4.62,4.62,0,0,1,1.6,4.32,3.69,3.69,0,0,1-.18.56,4.56,4.56,0,0,1,.32,2.61,2.44,2.44,0,0,1-.48,1,4.66,4.66,0,0,1,1.3,4.07c-.21,1-.82,1.58-1.56,1.6a1.84,1.84,0,0,1-1,1.2,4.49,4.49,0,0,1,.27,2.49c-.31,1.49-1.5,2-2.67,1.25l-.37.36a3.7,3.7,0,0,1,0,1.33c-.31,1.51-1.54,2-2.75,1.18h0a1.56,1.56,0,0,1-2.4.31,3.83,3.83,0,0,1-1.18-1.46,1.71,1.71,0,0,1-2.63,1.2,2.57,2.57,0,0,1-.38-.23l-.32-.26a2,2,0,0,1,.08.35,4,4,0,0,1,0,1,1.75,1.75,0,0,1-2.69,1.52,4.2,4.2,0,0,1-1.91-2.51,10.1,10.1,0,0,1-1-.33,2.33,2.33,0,0,1-2.61-.58,4.19,4.19,0,0,1-1-1.19,2.37,2.37,0,0,1-2.54-.61,4.05,4.05,0,0,1-1.3-4.27l.22,0-.13-.23a1.3,1.3,0,0,0-.08.17v0a3,3,0,0,1-1.39-.73,4.52,4.52,0,0,1-1.13-1.55c-.09-.13-.17-.26-.25-.39a2.37,2.37,0,0,1-2.53-.62,4,4,0,0,1-1.3-4.27l.21,0-.12-.22a1.3,1.3,0,0,0-.08.17v0a3.08,3.08,0,0,1-1.39-.73A4,4,0,0,1,244.39,557.24Z" transform="translate(-26.48 -170.69)"/><path class="cls-33" d="M206.25,524.77a1.66,1.66,0,0,1,1-.21s0,0,0,0v0l0,0h0a4,4,0,0,1,1.57-4.16,1.63,1.63,0,0,1,1.6,0l0,.29c.07-.07.15-.12.22-.18l-.19-.11a4.07,4.07,0,0,1,1-2.34,2,2,0,0,1,1.69-.71,4.13,4.13,0,0,1,1-2.13,1.75,1.75,0,0,1,3.06.4l.09.23a3.58,3.58,0,0,1,2.17-2.44,1.19,1.19,0,0,1,.37-.06,1.08,1.08,0,0,1,.31,0l-.1-.3a3.63,3.63,0,0,1-.1-1,4,4,0,0,1,2.38-3.67,1.61,1.61,0,0,1,2,1,9.64,9.64,0,0,1,.93-.43,2.88,2.88,0,0,1,2.48-1.5,1.57,1.57,0,0,1,1,.45,2.84,2.84,0,0,1,2.4-1.4c1.28.12,2,1.58,1.55,3.27l-.2.14.13.12.07-.23v0a2.22,2.22,0,0,1,1.35-.37c1.28.12,2,1.6,1.55,3.3a4.54,4.54,0,0,1-.6,1.36h0a.43.43,0,0,1,0,0l0,0c1.26.14,1.94,1.6,1.51,3.3a4.59,4.59,0,0,1-.61,1.39,3.56,3.56,0,0,1,.05.47,3.74,3.74,0,0,1,1.26-1.07c1.31-.63,2.43.21,2.49,1.87a4.73,4.73,0,0,1-.21,1.48h0l0,0s0,0,0-.05c1.3-.61,2.4.23,2.46,1.88a4.86,4.86,0,0,1-.52,2.29l-.2,0c0,.1,0,.2,0,.3l.15-.28a1.66,1.66,0,0,1,1.33,1.29,4.23,4.23,0,0,1-.07,2.36,1.74,1.74,0,0,1,1.19,1.28,4.61,4.61,0,0,1-1.34,4.41,2.83,2.83,0,0,1-.48.34,4.53,4.53,0,0,1-1.33,2.28,2.47,2.47,0,0,1-1,.55,4.65,4.65,0,0,1-1.42,4,1.74,1.74,0,0,1-2.21.33,1.89,1.89,0,0,1-1.33.38,2,2,0,0,1,.51.88,4.58,4.58,0,0,1-1.33,4.41,2.83,2.83,0,0,1-.48.34,4.46,4.46,0,0,1-1.33,2.27,2.42,2.42,0,0,1-1,.55,4.66,4.66,0,0,1-1.42,4,1.74,1.74,0,0,1-2.21.33,1.79,1.79,0,0,1-1.54.34,4.45,4.45,0,0,1-1.29,2.15c-1.15,1-2.42.71-2.88-.62l-.51.07a4,4,0,0,1-.83,1c-1.17,1-2.47.7-2.91-.71v0a1.57,1.57,0,0,1-2.11-1.2,4,4,0,0,1-.05-1.88,1.71,1.71,0,0,1-2.82-.63,3,3,0,0,1-.17-.41,2.71,2.71,0,0,1-.09-.41,3.36,3.36,0,0,1-.16.33,3.28,3.28,0,0,1-.56.8,1.75,1.75,0,0,1-3.06-.41,4.14,4.14,0,0,1,0-3.15c-.2-.27-.39-.55-.57-.85a2.33,2.33,0,0,1-1.74-2,4.57,4.57,0,0,1,0-1.52,2.39,2.39,0,0,1-1.65-2,4.07,4.07,0,0,1,1.54-4.19l.15.16,0-.26-.17.08,0,0a3,3,0,0,1-.66-1.43,4.55,4.55,0,0,1,0-1.91c0-.16,0-.31,0-.46a2.38,2.38,0,0,1-1.64-2,4,4,0,0,1,1.53-4.19l.16.15,0-.25-.16.08,0,0a3.18,3.18,0,0,1-.66-1.42A4.07,4.07,0,0,1,206.25,524.77Z" transform="translate(-26.48 -170.69)"/><path class="cls-33" d="M260.21,545.94a1.75,1.75,0,0,1,.71-.8l0,0h0a.13.13,0,0,0,0-.06l0,0a4,4,0,0,1-1.26-4.26,1.6,1.6,0,0,1,1.25-1l.15.24c0-.09.05-.18.07-.27l-.22,0a4.15,4.15,0,0,1-.58-2.5,2,2,0,0,1,.92-1.59,4.14,4.14,0,0,1-.47-2.32,1.75,1.75,0,0,1,2.69-1.52l.2.13a3.59,3.59,0,0,1,.25-3.26,3.38,3.38,0,0,1,.26-.27,2,2,0,0,1,.26-.18l-.25-.18a3.45,3.45,0,0,1-.67-.7,4,4,0,0,1-.32-4.36,1.61,1.61,0,0,1,2.19-.39,7.62,7.62,0,0,1,.47-.9,2.9,2.9,0,0,1,1.07-2.7,1.61,1.61,0,0,1,1.06-.23,2.84,2.84,0,0,1,1.07-2.57c1.08-.67,2.51.07,3.21,1.67a1.55,1.55,0,0,0-.08.23l.18,0-.09-.22v0a2.28,2.28,0,0,1,.85-1.11c1.09-.68,2.53.09,3.22,1.7a4.27,4.27,0,0,1,.35,1.45h0l0,0a.11.11,0,0,0,0-.05c1.09-.65,2.51.1,3.2,1.71a4.69,4.69,0,0,1,.35,1.48,3.75,3.75,0,0,1,.33.35,3.5,3.5,0,0,1,.35-1.61c.66-1.3,2.06-1.31,3.11,0a4.59,4.59,0,0,1,.73,1.3l0,0h0l0-.05c.67-1.27,2.05-1.26,3.1,0a4.89,4.89,0,0,1,1,2.15l-.16.1.21.21a2.87,2.87,0,0,0-.05-.31,1.64,1.64,0,0,1,1.84.22,4.09,4.09,0,0,1,1.37,1.93,1.71,1.71,0,0,1,1.72.3,4.58,4.58,0,0,1,1.6,4.32,2.45,2.45,0,0,1-.18.56,4.51,4.51,0,0,1,.32,2.62,2.44,2.44,0,0,1-.47,1,4.69,4.69,0,0,1,1.29,4.07c-.2,1-.82,1.58-1.55,1.6a2,2,0,0,1-.83,1.11,1.9,1.9,0,0,1,.93.39,4.58,4.58,0,0,1,1.6,4.32,2.45,2.45,0,0,1-.18.56,4.48,4.48,0,0,1,.32,2.61,2.33,2.33,0,0,1-.48,1,4.66,4.66,0,0,1,1.3,4.07c-.21,1-.82,1.58-1.56,1.6a1.77,1.77,0,0,1-1,1.19,4.43,4.43,0,0,1,.27,2.5c-.31,1.49-1.5,2-2.67,1.25-.12.12-.24.24-.37.35a3.94,3.94,0,0,1,0,1.33c-.32,1.52-1.55,2.06-2.75,1.19h0a1.57,1.57,0,0,1-2.4.31,3.83,3.83,0,0,1-1.18-1.46,1.71,1.71,0,0,1-2.63,1.2,2.57,2.57,0,0,1-.38-.23,3.82,3.82,0,0,1-.32-.27,2.33,2.33,0,0,1,.08.36,3.23,3.23,0,0,1,0,1,1.76,1.76,0,0,1-2.69,1.52,4.2,4.2,0,0,1-1.91-2.51,9.09,9.09,0,0,1-1-.33,2.34,2.34,0,0,1-2.62-.58,4.19,4.19,0,0,1-1-1.19,2.37,2.37,0,0,1-2.53-.61,4.06,4.06,0,0,1-1.31-4.27l.22,0-.13-.22c0,.06-.06.11-.08.16v0a3,3,0,0,1-1.39-.73,4.52,4.52,0,0,1-1.13-1.55,4.11,4.11,0,0,1-.24-.39,2.38,2.38,0,0,1-2.53-.62A4,4,0,0,1,262.9,551a.78.78,0,0,0,.22,0,1.59,1.59,0,0,1-.13-.22.89.89,0,0,0-.08.17v0a3.08,3.08,0,0,1-1.39-.73A4,4,0,0,1,260.21,545.94Z" transform="translate(-26.48 -170.69)"/><path class="cls-34" d="M322.83,667.1l-15,14.16-1.67-1.16-38.29-26.6-1.22-1.2-2.16-2.11c2.05-2.56,4.47-6.06,6.75-9.58,1.67-2.57,3.27-5.15,4.58-7.38.09-.17.19-.32.28-.48l2,1.93,33.29,24.13Z" transform="translate(-26.48 -170.69)"/><path class="cls-34" d="M247.9,584.28l-4.52,18.78c-6.31,2.85-13.22,3-19-.24a20.34,20.34,0,0,1-9.69-13.13l6.45-16.14a20.37,20.37,0,0,0,13.22,11.21A23.53,23.53,0,0,0,247.9,584.28Z" transform="translate(-26.48 -170.69)"/><path class="cls-35" d="M248.6,581.37l0,.23-.08.32a23.31,23.31,0,0,1-12.85.26,20.4,20.4,0,0,1-13.36-11.52l.46-1.16,1-2.46,13.59,7.82,3.91,2.25Z" transform="translate(-26.48 -170.69)"/><polygon class="cls-35" points="322.56 707.35 338.06 706.85 337.01 671.82 321.52 672.32 322.56 707.35"/><path d="M365.26,849.49a71.67,71.67,0,0,0-18.49,0c.77-.1-5.76-39.92-27.59-71.08-1.31-1.87-4-3.67-7.75-5.44h0a108.35,108.35,0,0,0-10.93-4.33c-1.35-.48-2.75-.95-4.2-1.42-6-2-12.81-4-19.81-6.12l0,0c-5.81-1.76-11.78-3.62-17.61-5.58-10.76-3.63-21.09-7.66-29.15-12.32a56,56,0,0,1-7.26-4.91c-5.53-4.47-8.89-9.49-8.89-15.23a12,12,0,0,1,.07-1.22c0-.34.08-.67.15-1a8.77,8.77,0,0,1,3.82-5.66,20,20,0,0,1,8.92-2.9c.46-.06.94-.12,1.43-.15a61.82,61.82,0,0,1,10.14.09c1.21.09,2.45.22,3.72.37,33.29,4,85.67,25.76,98.14,38C364.33,774.51,365.26,849.49,365.26,849.49Z" transform="translate(-26.48 -170.69)"/><polygon class="cls-35" points="281.13 722.1 296.62 721.6 295.58 686.57 280.08 687.07 281.13 722.1"/><path class="cls-3" d="M217.21,766.05c18.86-1.76,50.41-3.46,60.64,11.15,21.84,31.16,28.36,87.92,27.59,88a71.58,71.58,0,0,1,18.48,0s-.93-91.92-25.33-115.86c-18.63-18.26-70.44-26.24-75.71-30.25-27.52-20.91-50.65-27.61-50.67,2.73C172.18,752.41,172.21,772.43,217.21,766.05Z" transform="translate(-26.48 -170.69)"/><path class="cls-36" d="M358.57,916.8c-.48,2.2-1.44,3.8-2.56,3.8H302.06a1.48,1.48,0,0,1-1.45-1.69c.1-.64.2-1.35.31-2.11Z" transform="translate(-26.48 -170.69)"/><path class="cls-37" d="M358.57,916.8H300.92c1.44-11.07,2.91-33.15,5.27-35.18a.67.67,0,0,1,.26-.14c9-2,14.58,6,21.53,13,5.49,5.5,11.83,10.39,21.36,9.36C358.11,902.86,359.72,911.57,358.57,916.8Z" transform="translate(-26.48 -170.69)"/><path class="cls-11" d="M309.07,864.77c-.38-18.18-15-87.94-29.89-98.15-10.79-7.4-27.23-9.07-43.13-10.7-12.74-1.3-25.92-2.64-36-7-9.41-4.06-14.29-39-12.23-47.33l3.29.81c-2.1,8.47,3.67,40.55,10.29,43.41,9.59,4.14,21.93,5.4,35,6.73,16.32,1.67,33.2,3.39,44.71,11.28,17,11.68,31,84,31.36,100.86Z" transform="translate(-26.48 -170.69)"/><path class="cls-11" d="M316.25,865.51c-.39-18.17-11.6-97.44-26.9-107.93-10.94-7.5-28-9.84-44.42-12.11-13.33-1.83-25.93-3.56-35.84-7.84-9.39-4.06-12-24.51-10-32.64l3.29.81c-2.13,8.59,1.45,25.88,8,28.72,9.48,4.09,21.86,5.79,35,7.59,16.84,2.32,34.26,4.72,45.87,12.68,17.22,11.8,28.05,95.59,28.36,110.65Z" transform="translate(-26.48 -170.69)"/><rect class="cls-3" x="277.72" y="692.76" width="21.27" height="4.42" rx="2.01"/><path class="cls-38" d="M238.06,712.23c-4.6-3.14-16.8-7.12-16.8-7.12s10.4-.76,10.29-3.42c-.09-1.88-12.08-4.15-25.23-3.65l-34.55-16.52c-.67,6.29-1.16,12.26-1.41,17.69a108.09,108.09,0,0,0,.44,18.9,2.3,2.3,0,0,0,1.44,1.77c2.79,1.32,9.21.53,16.11-.29l3.36-.39c2.5-.27,5-.5,7.31-.6,1.17-.05,2.3-.06,3.36,0s1.81.09,2.64.19a44,44,0,0,1,6.42,1.43c.76.21,1.53.44,2.31.67,3.34,1,6.89,2.23,10.25,3.25,1.6.48,3.16.91,4.63,1.27a27.35,27.35,0,0,0,5.51.86c2.47.1,4.3-.43,5.08-2a3.5,3.5,0,0,0,.34-.94q1.19-5.57,2.22-10.72C240.51,712.45,239.27,712.32,238.06,712.23Zm-43.45-103c-.07.61-3.83,7-7.62,13.32-2.59,4.33-5.2,8.63-6.67,11-.69,1.12-1.12,1.85-1.2,2v0c-.08.34-.15.69-.21,1l-.22,1c-.08.37-.16.75-.23,1.13.11-.15.85-1.17,2-2.79l1-1.48c2-2.92,4.71-7,7.15-11C192.16,617.54,195.16,611.61,194.61,609.22Z" transform="translate(-26.48 -170.69)"/><path class="cls-38" d="M277.6,630.08c-.43.79-.94,1.68-1.5,2.67-.09.16-.19.31-.28.48-1.31,2.23-2.91,4.81-4.58,7.38-2.28,3.52-4.7,7-6.75,9.58l-.54.66c-.49.59-1,1.12-1.38,1.56-1.14,1.18-2,1.81-2.52,1.62-2.36-.91-4.69-2.95-6.89-5.7L251.7,651c-1.21,5.31-2.85,26.1-9.92,61.58-1.27-.15-2.51-.28-3.72-.37-4.6-3.14-16.8-7.12-16.8-7.12s10.4-.76,10.29-3.42c-.09-1.88-12.08-4.15-25.23-3.65l-34.55-16.52c1-9.21,2.41-19.08,4.11-28.92.8-4.64,1.66-9.27,2.58-13.83.11-.15.85-1.17,2-2.79l1-1.48c2-2.92,4.71-7,7.15-11,3.55-5.92,6.55-11.85,6-14.24-.07.61-3.83,7-7.62,13.32-2.59,4.33-5.2,8.63-6.67,11-.69,1.12-1.12,1.85-1.2,2v0l-1.05-.35a16.79,16.79,0,0,1-2.06-.86c-5.17-2.45-14-8.18-16.74-9.56-.64-.32-1.23-.64-1.75-1l-.16-.09c-1.48-.92-2.35-1.74-2.32-2.43.56-15.21,19.21-32.72,28.09-37.08a8,8,0,0,1,2.63-.17c4.92-.23,20.6.16,28.27,2a27.89,27.89,0,0,0,.64,3.6,20.34,20.34,0,0,0,9.69,13.13c5.81,3.22,12.72,3.09,19,.24a27.65,27.65,0,0,0,3.8-2.08l2.15,1.41C257.58,604.26,281.09,623.72,277.6,630.08Z" transform="translate(-26.48 -170.69)"/><path class="cls-34" d="M176,634.35l-15.1,42-4,11L139,677.2l.17-.54,16.46-50.54.78-1.51,1.09-.78c.52.32,1.11.64,1.75,1C162,626.17,170.83,631.9,176,634.35Z" transform="translate(-26.48 -170.69)"/><path class="cls-35" d="M188.61,623.46c-2.44,4-5.15,8.12-7.15,11l-1.14-.92c1.47-2.41,4.08-6.71,6.67-11Z" transform="translate(-26.48 -170.69)"/><path class="cls-34" d="M213.05,701.25l-4.17,8.26-1.55,3-5.52-2-3.27-1.19-.14,0-7.72-2.79-3.3-1.19-7.54-2.72-9.48-3.43-22-7.92-6.82-2.46a8,8,0,0,1-3.51-3.71,7.76,7.76,0,0,1,1-8.29l.13-.17,6.27-7.7,15.45,7.38,10.87,5.18L206.32,698Z" transform="translate(-26.48 -170.69)"/><path class="cls-34" d="M239.89,721.27c-1.59,2.78-18.47-6.5-19-6.5.32.23,5.71,4,9.58,7.1,2.43,2,4.26,3.66,3.92,4.13a.75.75,0,0,1-.24.23c-1,.75-3.09.21-5.51-.86-4.85-2.12-10.9-6.3-11.3-6.3.26.19,3.73,2.59,6.67,5,2.56,2.11,4.73,4.25,4.09,5-1.55,1.78-7.85-2.21-14.49-7.25l-2.16-1.66c-3.47-2.72-6.88-5.59-9.64-7.93l-3.26-2.8-.14-.11-.24-.21c-1.3-1.11-.37-1.19.6-2.17a3.88,3.88,0,0,0,.75-1l.57-.75.21-.27,5.29-6.89.74,0c13.15-.5,25.14,1.77,25.23,3.65.11,2.66-10.29,3.42-10.29,3.42s12.2,4,16.8,7.12c1.35.93,2.05,1.77,1.58,2.43-.61.85-7.36-1.13-11.72-2.52-2.14-.68-3.7-1.22-3.7-1.22a14.52,14.52,0,0,0,2.27,1.37C231,714.77,240.68,719.89,239.89,721.27Z" transform="translate(-26.48 -170.69)"/><path class="cls-38" d="M188.61,623.46c-2.44,4-5.15,8.12-7.15,11l-1,1.48c-.43-.12-.87-.27-1.31-.41a0,0,0,0,0,0,0v0c.08-.11.51-.84,1.2-2,1.47-2.41,4.08-6.71,6.67-11,3.79-6.33,7.55-12.71,7.62-13.32C195.16,611.61,192.16,617.54,188.61,623.46Z" transform="translate(-26.48 -170.69)"/><path class="cls-34" d="M271.77,551.49a44.83,44.83,0,0,1-3.29,11.3,32.06,32.06,0,0,1-2.06,4.44,31.43,31.43,0,0,1-15.67,13.91q-1.14.45-2.28.78a23.31,23.31,0,0,1-12.85.26,20.4,20.4,0,0,1-13.36-11.52c-.13-.3-.26-.59-.37-.9A26,26,0,0,1,220.68,555a29.27,29.27,0,0,1,1.37-4.93,57.91,57.91,0,0,1,2.22-5.37,54.28,54.28,0,0,1,6.48-10.57h0c3.32-4.13,7.63-7.86,13-9.43a20.32,20.32,0,0,1,12.32.34,27,27,0,0,1,8.23,4.15C272.13,535.22,272.84,544.29,271.77,551.49Z" transform="translate(-26.48 -170.69)"/><path class="cls-34" d="M300.38,671.51,351,612.94l9.48,7.69L318.58,680c-3.58,4.38-9.58,4.36-12.54,0Z" transform="translate(-26.48 -170.69)"/><path class="cls-34" d="M355,596.35c2.45.84,1.08,10.49,1.08,10.49s10.14-16.09,12.33-13.18c1,1.28-6.46,12.57-6.46,12.57.45.09,11.11-12,12.53-10.43,2.24,2.45-9.88,14.62-9.69,14.83,0,0,11.95-9.45,12.89-8.19,2.37,3.18-9.76,12.51-9.69,12.92,0,0,10.06-8,11.26-6.15,2.49,3.86-17.33,15.77-24.1,19.88-1.63,1-1-.66-2.62-2.33l-6-8.29C348.6,606.15,353.2,595.75,355,596.35Z" transform="translate(-26.48 -170.69)"/><path class="cls-10" d="M248.55,572.72c-1,2.53-4.82,3.41-8.57,1.95s-6-4.7-5-7.23S249.54,570.18,248.55,572.72Z" transform="translate(-26.48 -170.69)"/><path class="cls-35" d="M248.47,581.92l-.57,2.36a23.53,23.53,0,0,1-13.57.48,20.37,20.37,0,0,1-13.22-11.21l1.15-2.89a20.4,20.4,0,0,0,13.36,11.52A23.31,23.31,0,0,0,248.47,581.92Z" transform="translate(-26.48 -170.69)"/><path class="cls-39" d="M248.47,581.92l-.57,2.36a23.53,23.53,0,0,1-13.57.48,20.37,20.37,0,0,1-13.22-11.21l1.15-2.89a20.4,20.4,0,0,0,13.36,11.52A23.31,23.31,0,0,0,248.47,581.92Z" transform="translate(-26.48 -170.69)"/><path class="cls-33" d="M241.68,502.74a1.72,1.72,0,0,1,.69.81l0,0h0l0,0a4,4,0,0,1,4.39-.69,1.62,1.62,0,0,1,.82,1.38l-.26.11.25.1a1.48,1.48,0,0,0,0-.21,4,4,0,0,1,2.55-.25,2,2,0,0,1,1.45,1.13,4.17,4.17,0,0,1,2.36-.17,1.76,1.76,0,0,1,1.16,2.87l-.16.18a3.63,3.63,0,0,1,3.2.69,1.54,1.54,0,0,1,.23.29,1.91,1.91,0,0,1,.15.28,2.19,2.19,0,0,1,.21-.23,3.65,3.65,0,0,1,.78-.57,4,4,0,0,1,4.37.27A1.62,1.62,0,0,1,264,511a8.27,8.27,0,0,1,.83.59,2.88,2.88,0,0,1,2.53,1.42,1.59,1.59,0,0,1,.1,1.07,2.82,2.82,0,0,1,2.39,1.4c.53,1.17-.4,2.48-2.08,3l-.22-.11a1.16,1.16,0,0,1,0,.18l.23-.06h0a2.2,2.2,0,0,1,1,1c.53,1.18-.42,2.5-2.11,3a4.48,4.48,0,0,1-1.48.16l0,0h0l0,0h.05c.5,1.16-.44,2.47-2.12,2.93a4.42,4.42,0,0,1-1.52.15,2.92,2.92,0,0,1-.38.29,3.56,3.56,0,0,1,1.55.56c1.19.83,1,2.21-.4,3.09a4.7,4.7,0,0,1-1.39.55l0,0h0s0,0,0,0h.05c1.17.83,1,2.2-.42,3.06a4.89,4.89,0,0,1-2.25.68,1.42,1.42,0,0,0-.08-.18l-.24.19h.32a1.66,1.66,0,0,1-.47,1.79,4.15,4.15,0,0,1-2.09,1.11,1.73,1.73,0,0,1-.53,1.66,4.6,4.6,0,0,1-4.5,1,3.14,3.14,0,0,1-.52-.25,4.56,4.56,0,0,1-2.64,0,2.38,2.38,0,0,1-1-.61,4.68,4.68,0,0,1-4.21.74,1.74,1.74,0,0,1-1.38-1.75,2,2,0,0,1-1-1,2.06,2.06,0,0,1-.52.87,4.56,4.56,0,0,1-4.49,1,2.37,2.37,0,0,1-.53-.25,4.52,4.52,0,0,1-2.63,0,2.42,2.42,0,0,1-1-.61,4.69,4.69,0,0,1-4.21.75,1.74,1.74,0,0,1-1.37-1.76,1.81,1.81,0,0,1-1.05-1.17,4.45,4.45,0,0,1-2.51-.07c-1.44-.5-1.81-1.75-.88-2.81l-.31-.41a4,4,0,0,1-1.31-.21c-1.47-.52-1.83-1.81-.81-2.89a0,0,0,0,1,0,0,1.56,1.56,0,0,1,0-2.42,3.85,3.85,0,0,1,1.6-1,1.71,1.71,0,0,1-.84-2.77,4.29,4.29,0,0,1,.28-.35l.31-.28-.36,0a3.55,3.55,0,0,1-1-.1,1.75,1.75,0,0,1-1.15-2.86,4.12,4.12,0,0,1,2.74-1.56,9.86,9.86,0,0,1,.46-.92,2.31,2.31,0,0,1,.92-2.51,4.36,4.36,0,0,1,1.3-.79,2.37,2.37,0,0,1,.95-2.43,4,4,0,0,1,4.4-.72q0,.09-.06.21l.24-.1a.83.83,0,0,1-.15-.11h0a3.07,3.07,0,0,1,.91-1.29,4.63,4.63,0,0,1,1.69-.91l.42-.19a2.38,2.38,0,0,1,.94-2.43,4.08,4.08,0,0,1,4.41-.73.83.83,0,0,0-.06.21l.23-.09a.78.78,0,0,0-.15-.1l0,0a3,3,0,0,1,.91-1.27A4.06,4.06,0,0,1,241.68,502.74Z" transform="translate(-26.48 -170.69)"/><path class="cls-33" d="M284.82,520.1a1.74,1.74,0,0,1-.17,1h-.06l0,0,0,0a4,4,0,0,1,3.34,2.93,1.61,1.61,0,0,1-.54,1.51l-.25-.13c0,.09.05.18.08.26l.17-.13a4.09,4.09,0,0,1,1.83,1.8,2,2,0,0,1,.07,1.84,4.1,4.1,0,0,1,1.63,1.7,1.75,1.75,0,0,1-1.46,2.72h-.24a3.59,3.59,0,0,1,1.53,2.89,1.9,1.9,0,0,1-.08.36,1.1,1.1,0,0,1-.12.29l.31,0a3.43,3.43,0,0,1,.94.24,4,4,0,0,1,2.59,3.52,1.61,1.61,0,0,1-1.64,1.49,7.12,7.12,0,0,1,.08,1,2.9,2.9,0,0,1,.53,2.85,1.6,1.6,0,0,1-.76.76,2.86,2.86,0,0,1,.46,2.74c-.56,1.15-2.16,1.28-3.6.3l-.06-.24-.17.08.2.14,0,0a2.24,2.24,0,0,1-.14,1.39c-.56,1.16-2.18,1.28-3.63.29a4.76,4.76,0,0,1-1.06-1v0h0s0,0,0,0c-.57,1.13-2.18,1.25-3.62.25A4.23,4.23,0,0,1,280,550a2.89,2.89,0,0,1-.47-.11,3.65,3.65,0,0,1,.56,1.55c.13,1.45-1,2.2-2.62,1.67a4.29,4.29,0,0,1-1.31-.71v0h0l0,0c.11,1.43-1.06,2.17-2.63,1.64a4.8,4.8,0,0,1-2-1.29l.09-.18-.3-.06.21.24a1.65,1.65,0,0,1-1.68.79,4.15,4.15,0,0,1-2.18-.9,1.73,1.73,0,0,1-1.62.66,4.61,4.61,0,0,1-3.66-2.8,4.71,4.71,0,0,1-.14-.57,4.57,4.57,0,0,1-1.67-2,2.5,2.5,0,0,1-.15-1.14,4.65,4.65,0,0,1-3.27-2.75,1.74,1.74,0,0,1,.46-2.18,1.92,1.92,0,0,1,.12-1.38,2,2,0,0,1-1,.16,4.58,4.58,0,0,1-3.65-2.8,3.11,3.11,0,0,1-.15-.56,4.57,4.57,0,0,1-1.66-2.05,2.48,2.48,0,0,1-.16-1.13,4.69,4.69,0,0,1-3.27-2.76,1.74,1.74,0,0,1,.47-2.18,1.81,1.81,0,0,1,.22-1.56,4.48,4.48,0,0,1-1.55-2c-.54-1.42.18-2.51,1.59-2.47,0-.17.07-.34.12-.5a4,4,0,0,1-.68-1.15c-.54-1.45.21-2.56,1.7-2.46h0a1.56,1.56,0,0,1,1.87-1.55,3.91,3.91,0,0,1,1.77.61,1.72,1.72,0,0,1,1.59-2.42h.44a2.9,2.9,0,0,1,.41.06,3.07,3.07,0,0,1-.25-.26,3.62,3.62,0,0,1-.55-.81,1.75,1.75,0,0,1,1.46-2.72,4.11,4.11,0,0,1,3,1.1,7.53,7.53,0,0,1,1-.23,2.32,2.32,0,0,1,2.52-.91,4.46,4.46,0,0,1,1.44.49,2.38,2.38,0,0,1,2.47-.83,4.06,4.06,0,0,1,3.38,2.92.88.88,0,0,0-.2.09l.23.12c0-.07,0-.13,0-.19v0a3,3,0,0,1,1.57-.12,4.39,4.39,0,0,1,1.78.71,4,4,0,0,1,.42.2,2.37,2.37,0,0,1,2.47-.84,4.07,4.07,0,0,1,3.38,2.92,1.21,1.21,0,0,0-.2.09l.22.12a1.37,1.37,0,0,0,0-.19v0a3,3,0,0,1,1.56-.12A4,4,0,0,1,284.82,520.1Z" transform="translate(-26.48 -170.69)"/><path class="cls-33" d="M274.29,504.84a1.66,1.66,0,0,1,.12,1.06h-.05l.05,0v0a4,4,0,0,1,4,1.9,1.64,1.64,0,0,1-.09,1.6l-.29-.06.16.23.13-.17a4,4,0,0,1,2.24,1.23,2,2,0,0,1,.57,1.74,4.17,4.17,0,0,1,2.05,1.2,1.75,1.75,0,0,1-.66,3l-.23.07a3.58,3.58,0,0,1,2.26,2.36,2.43,2.43,0,0,1,0,.38,1.65,1.65,0,0,1,0,.31l.31-.08a3.39,3.39,0,0,1,1,0,4,4,0,0,1,3.46,2.67,1.59,1.59,0,0,1-1.16,1.88,7.42,7.42,0,0,1,.35,1,2.89,2.89,0,0,1,1.3,2.6,1.62,1.62,0,0,1-.53.94,2.84,2.84,0,0,1,1.2,2.5c-.22,1.26-1.73,1.83-3.38,1.28a2.39,2.39,0,0,0-.13-.21l-.13.12.23.09h0a2.22,2.22,0,0,1,.25,1.38c-.22,1.26-1.75,1.83-3.41,1.27a4.35,4.35,0,0,1-1.31-.71v0h-.05l0,0c-.24,1.25-1.75,1.8-3.41,1.24a4.6,4.6,0,0,1-1.33-.72,2.55,2.55,0,0,1-.48,0,3.67,3.67,0,0,1,1,1.34c.52,1.36-.39,2.41-2.06,2.33a4.61,4.61,0,0,1-1.45-.32,0,0,0,0,1,0,0v0l0,0,.05,0c.49,1.34-.43,2.37-2.08,2.3a4.92,4.92,0,0,1-2.24-.71.63.63,0,0,0,0-.19l-.29,0,.26.17a1.65,1.65,0,0,1-1.39,1.22,4.15,4.15,0,0,1-2.36-.26,1.72,1.72,0,0,1-1.36,1.08,4.59,4.59,0,0,1-4.29-1.69,3.89,3.89,0,0,1-.3-.5,4.57,4.57,0,0,1-2.16-1.51,2.55,2.55,0,0,1-.47-1,4.65,4.65,0,0,1-3.89-1.75,1.76,1.76,0,0,1-.16-2.23,2,2,0,0,1-.27-1.35,2,2,0,0,1-.92.43,4.6,4.6,0,0,1-4.28-1.68,3.39,3.39,0,0,1-.3-.51,4.48,4.48,0,0,1-2.16-1.51,2.35,2.35,0,0,1-.46-1,4.65,4.65,0,0,1-3.9-1.74,1.74,1.74,0,0,1-.15-2.23,1.8,1.8,0,0,1-.22-1.56,4.42,4.42,0,0,1-2-1.47c-.91-1.22-.52-2.46.85-2.81,0-.18,0-.35,0-.52a3.79,3.79,0,0,1-1-.91c-.92-1.25-.5-2.52.95-2.84h0a1.57,1.57,0,0,1,1.38-2,3.87,3.87,0,0,1,1.87.09,1.71,1.71,0,0,1,.85-2.76l.43-.13.41-.06a1.92,1.92,0,0,1-.31-.18,2.86,2.86,0,0,1-.75-.63,1.75,1.75,0,0,1,.65-3,4.15,4.15,0,0,1,3.15.25,7.6,7.6,0,0,1,.89-.5A2.31,2.31,0,0,1,251,502.9a4.55,4.55,0,0,1,1.52.08,2.38,2.38,0,0,1,2.15-1.48,4.06,4.06,0,0,1,4.05,1.88l-.17.14.25.05-.06-.17,0,0a3,3,0,0,1,1.47-.55,4.54,4.54,0,0,1,1.91.19l.46.08a2.36,2.36,0,0,1,2.14-1.48,4.08,4.08,0,0,1,4.06,1.87l-.17.14.24.06a.85.85,0,0,0-.06-.17,0,0,0,0,1,0,0,3.1,3.1,0,0,1,1.47-.54A4,4,0,0,1,274.29,504.84Z" transform="translate(-26.48 -170.69)"/><path class="cls-39" d="M188.61,623.46c-2.44,4-5.15,8.12-7.15,11l-1,1.48c-1.12,1.62-1.86,2.64-2,2.79h0l.24-1.14.22-1,.2-1v0c.08-.11.51-.84,1.2-2,1.47-2.41,4.08-6.71,6.67-11,3.79-6.33,7.55-12.71,7.62-13.32C195.16,611.61,192.16,617.54,188.61,623.46Z" transform="translate(-26.48 -170.69)"/><rect class="cls-37" x="277.46" y="707.25" width="21.79" height="31.17" rx="2.28"/><path class="cls-36" d="M275.71,707.25h19.48a0,0,0,0,1,0,0v1.55a5.65,5.65,0,0,1-5.65,5.65H275.71a3.27,3.27,0,0,1-3.27-3.27v-.66A3.27,3.27,0,0,1,275.71,707.25Z"/><rect class="cls-40" x="293.76" y="715.61" width="8.33" height="3.05" rx="1.38"/><rect class="cls-40" x="296.68" y="722.16" width="8.33" height="3.05" rx="1.38"/><rect class="cls-40" x="301.51" y="728.3" width="8.33" height="3.05" rx="1.38"/><path class="cls-36" d="M400,897.4c-.47,2.2-1.43,3.79-2.55,3.79h-54a1.47,1.47,0,0,1-1.45-1.68c.1-.64.2-1.36.31-2.11Z" transform="translate(-26.48 -170.69)"/><path class="cls-37" d="M400,897.4H342.38c1.44-11.07,2.91-33.15,5.27-35.19a.79.79,0,0,1,.26-.13c9-2,14.58,6,21.53,13,5.48,5.49,11.82,10.39,21.36,9.36C399.57,883.46,401.18,892.16,400,897.4Z" transform="translate(-26.48 -170.69)"/><rect class="cls-37" x="321.18" y="687.85" width="21.79" height="31.17" rx="2.28"/><path class="cls-36" d="M319.43,687.85h19.48a0,0,0,0,1,0,0v1.55a5.65,5.65,0,0,1-5.65,5.65H319.43a3.27,3.27,0,0,1-3.27-3.27v-.66A3.27,3.27,0,0,1,319.43,687.85Z"/><rect class="cls-40" x="337.48" y="696.21" width="8.33" height="3.05" rx="1.38"/><rect class="cls-40" x="339.27" y="702.76" width="8.33" height="3.05" rx="1.38"/><rect class="cls-40" x="342.96" y="708.89" width="8.33" height="3.05" rx="1.38"/><circle class="cls-34" cx="237.84" cy="390.94" r="7.46"/><circle class="cls-34" cx="198.7" cy="375.24" r="7.46"/></g><g id="Chair-_Rolly_Blue" data-name="Chair- Rolly Blue"><rect class="cls-41" x="159.26" y="798.74" width="57.14" height="18.3" transform="translate(969.25 449.37) rotate(90)"/><polygon class="cls-41" points="93.36 664 171.83 656.08 176.2 668.59 97.72 676.51 93.36 664"/><polygon class="cls-41" points="146.69 668.59 225.16 676.51 229.53 664 151.05 656.08 146.69 668.59"/><rect class="cls-41" x="114.69" y="840.15" width="25.62" height="15.69" transform="translate(949.02 549.8) rotate(90)"/><rect class="cls-41" x="235.34" y="840.15" width="25.62" height="15.69" transform="translate(1069.67 429.14) rotate(90)"/><circle class="cls-23" cx="99.9" cy="693.66" r="10.04"/><circle class="cls-23" cx="222.74" cy="693.66" r="10.04"/><path class="cls-42" d="M110,514.34h1.31a13.1,13.1,0,0,1,13.1,13.1v81.51a0,0,0,0,1,0,0H110a0,0,0,0,1,0,0V514.34A0,0,0,0,1,110,514.34Z"/><path class="cls-42" d="M182.26,719.48h14.42a0,0,0,0,1,0,0v92.81a13.1,13.1,0,0,1-13.1,13.1h-1.31a0,0,0,0,1,0,0V719.48A0,0,0,0,1,182.26,719.48Z" transform="translate(-609.44 791.21) rotate(-90)"/></g></g><g id="Projector_Screen_with_Charts" data-name="Projector Screen with Charts"><g id="Projector_Screen" data-name="Projector Screen"><rect class="cls-23" x="263.89" y="132.59" width="13.09" height="136.16"/><path class="cls-23" d="M389.26,502.66h-9.82a3.56,3.56,0,0,1-2.17-.7l-78.18-61a3.71,3.71,0,0,0-4.35,0l-78.18,61a3.57,3.57,0,0,1-2.18.7h-9.81c-2.74,0-4.11-2.58-2.18-4.09l92.35-72.05a3.74,3.74,0,0,1,4.35,0l7.08,5.53,85.26,66.52C393.37,500.08,392,502.66,389.26,502.66Z" transform="translate(-26.48 -170.69)"/><rect class="cls-13" x="153.85" y="73.04" width="233.17" height="156.63"/><rect class="cls-23" x="148.98" y="63.14" width="242.92" height="12.29" rx="5.21"/><rect class="cls-23" x="148.98" y="223.52" width="242.92" height="12.29" rx="5.21"/></g><path id="Pie_Chart" data-name="Pie Chart" class="cls-43" d="M258.82,341.9a37.52,37.52,0,1,1,16.56-30.4l-37.52-.72Z" transform="translate(-26.48 -170.69)"/><g id="Bar_Chart" data-name="Bar Chart"><rect class="cls-44" x="276.81" y="154.71" width="22.88" height="45.29"/><rect class="cls-43" x="307.52" y="137.25" width="22.88" height="62.75"/><rect class="cls-45" x="338.22" y="143.07" width="22.88" height="56.93"/></g></g><g id="Suit_Boy" data-name="Suit Boy"><polygon class="cls-4" points="465.9 372.27 465.74 375.48 465.41 382.42 464.65 397.84 452.86 397.25 453.15 391.3 453.57 382.7 454.1 371.7 465.9 372.27"/><polygon class="cls-10" points="456.38 389.06 457.03 392.79 453.68 391.02 453.15 391.3 453.57 382.7 453.68 382.47 455.35 385.87 459.09 386.42 456.38 389.06"/><polygon class="cls-10" points="465.74 375.48 465.41 382.42 464.8 382.1 461.45 383.86 462.09 380.14 459.38 377.5 463.12 376.95 464.8 373.56 465.74 375.48"/><polygon class="cls-4" points="509.53 374.57 509.69 377.77 510.03 384.72 510.78 400.13 522.57 399.55 522.29 393.59 521.87 384.99 521.33 374 509.53 374.57"/><polygon class="cls-10" points="519.05 391.36 518.4 395.08 521.75 393.32 522.29 393.59 521.87 384.99 521.75 384.77 520.08 388.17 516.34 388.72 519.05 391.36"/><polygon class="cls-10" points="509.69 377.77 510.03 384.72 510.63 384.4 513.99 386.16 513.34 382.44 516.06 379.79 512.31 379.25 510.63 375.86 509.69 377.77"/><path class="cls-46" d="M509.65,378.78h15.73c.45,1,.89,2.05,1.31,3.19a2.83,2.83,0,0,1,.11.31,81.22,81.22,0,0,1,2.93,10.55c-4,.43-9.69-.2-11.51-1.24C516.64,390.7,513.1,384.86,509.65,378.78Z" transform="translate(-26.48 -170.69)"/><path class="cls-46" d="M469.84,393a55.9,55.9,0,0,1,2-11,.26.26,0,0,0,0-.08,28.13,28.13,0,0,1,1.14-3.1h15.29c-3.41,6.05-6.93,11.93-8.5,12.81S473.74,393.08,469.84,393Z" transform="translate(-26.48 -170.69)"/><path class="cls-47" d="M548.78,551.6,536,554S503.21,422.46,503,422.46c-3.5,36.43-9.13,130.07-9.13,130.07l-14.85-1.29-8.94-128.19a210,210,0,0,1-.62-25.14c4,.17,8.86-.53,10.31-1.36,2-1.13,7.17-10.4,11.27-17.77h15.77c4.17,7.45,9.34,16.64,11.37,17.77s8.4,1.78,12.43,1.11a185.06,185.06,0,0,1,2.31,23.2v0C536.76,448.7,548.78,551.6,548.78,551.6Z" transform="translate(-26.48 -170.69)"/><path class="cls-35" d="M492.39,370.9v7.88H473c1.84-4.18,4.5-7,8.25-7.88Z" transform="translate(-26.48 -170.69)"/><path class="cls-35" d="M525.38,378.78H503.7V370.9h16.05C521.79,372.4,523.69,375.07,525.38,378.78Z" transform="translate(-26.48 -170.69)"/><rect class="cls-29" x="465.91" y="200.21" width="11.31" height="7.88"/><path class="cls-25" d="M503.48,249.67a13.23,13.23,0,0,1-2.24,3,20,20,0,0,1-2.82,2.24A35,35,0,0,1,489,257.5v-.73c3-1.06,7.34-2.71,9.28-3.55.85-.55,4.15-2.94,5.21-3.79Z" transform="translate(-26.48 -170.69)"/><path class="cls-5" d="M503.44,249.43c-1.06.85-4.36,3.24-5.21,3.79-1.94.84-6.26,2.49-9.28,3.55l.13-13.35,0-2.06a8.63,8.63,0,0,0,3.25,2.22,8.9,8.9,0,0,0,1.52.38,7.29,7.29,0,0,0,4.8-1.08,10.46,10.46,0,0,0,1.46-1.14,8.37,8.37,0,0,0,1.52-2.14l.38,2Z" transform="translate(-26.48 -170.69)"/><path class="cls-48" d="M509.3,282l-20.58-.46.21-22.31,0-1.74a35,35,0,0,0,9.47-2.56,20,20,0,0,0,2.82-2.24,13.23,13.23,0,0,0,2.24-3l.28,1.56Z" transform="translate(-26.48 -170.69)"/><polygon class="cls-25" points="494.58 118.58 540.64 167.39 544.73 155.82 506.24 110.51 494.58 118.58"/><path class="cls-9" d="M503.58,250.25c-2.68,3.72-9.54,7.67-14.64,8v-1.5c3-1.06,7.34-2.71,9.28-3.55.85-.55,4.15-2.94,5.21-3.79Z" transform="translate(-26.48 -170.69)"/><path class="cls-48" d="M508.76,230.34c.77,7-1.95,13.22-5,18.81,0,0-2.95,2.31-5.54,4.07-6.43,4.38-12.08,4.48-12.41,4.48-1.26-.23-7.76-4.86-11.16-9.88-2.65-3.93-1.41-22.26-1-23.95,1.81-8.59,7.72-12,16.66-12.05C499.76,211.71,507.6,219.67,508.76,230.34Z" transform="translate(-26.48 -170.69)"/><path class="cls-3" d="M496.08,205.39c-2,2.11-3.51,6.82,8.3,10.37,10.86,3.25,11.71,20.84,8.17,18.39-22.65-15.75-42.94-7-39.17-16.42C480.38,200.22,500.25,201,496.08,205.39Z" transform="translate(-26.48 -170.69)"/><path class="cls-48" d="M565.81,326.2l-32.08,47.31,7.93,4,28.8-35.88c2.55-3.37.57-12.52-1.92-14.87Z" transform="translate(-26.48 -170.69)"/><circle class="cls-48" cx="476.57" cy="63.76" r="9.89"/><path class="cls-10" d="M481.23,246.94c.18,2.56,3.47,4.42,7.34,4.15s6.87-2.57,6.69-5.14C495.14,244.26,481.1,245,481.23,246.94Z" transform="translate(-26.48 -170.69)"/><path class="cls-46" d="M505.51,271.25a104.58,104.58,0,0,0-13,0c-2.65.14-5.24.4-7.74.75l8.65,32.47,5.59,21,5.59-21L513.24,272C510.76,271.65,508.15,271.4,505.51,271.25Z" transform="translate(-26.48 -170.69)"/><path class="cls-10" d="M507.82,371.35c-1.22.19-2.39.31-3.52.41a72.19,72.19,0,0,1-11.3,0l-3-.21.2-.18,0,0a73.79,73.79,0,0,0,6.11-6.53q1.32-1.59,2.66-3.36c.76,1,1.55,2,2.32,2.95a72,72,0,0,0,6.44,6.94l0,0Z" transform="translate(-26.48 -170.69)"/><path class="cls-47" d="M535,284c0,1.28,0,2.54-.12,3.8h0c-1,18.12-9.15,33.19-8.61,59,.25,11.81,2.3,25.86,7.7,43.51.22.75-.17,1.32-1,1.75a9.68,9.68,0,0,1-3.29.84c-4,.43-9.69-.2-11.51-1.24-1.58-.89-5.12-6.73-8.57-12.81-1.55-2.72-3.09-5.49-4.43-7.88-1.81-3.22-3.26-5.76-3.89-6.54-.77-.94-1.56-1.92-2.32-2.95q-1.33,1.77-2.66,3.36a69.49,69.49,0,0,0-3.65,6.13c-.1.19-.2.36-.31.55-1.24,2.23-2.65,4.8-4.08,7.33-3.41,6.05-6.93,11.93-8.5,12.81s-6.07,1.49-10,1.36a12.12,12.12,0,0,1-4.86-.9c-.8-.42-1.19-1-.94-1.81,5.39-17.65,7.44-31.7,7.69-43.51.55-25.78-7.56-40.85-8.61-59h0c-.08-1.26-.11-2.52-.11-3.8,0-6.28,9.58-10.26,21.75-11.95l8.65,32.47,5.58,21,5.6-21L513.24,272h0C525.43,273.69,535,277.67,535,284Z" transform="translate(-26.48 -170.69)"/><path class="cls-10" d="M513.24,272l-8.65,32.47-5.59,21-5.59-21L484.76,272c2.5-.35,5.09-.61,7.74-.75a104.58,104.58,0,0,1,13,0C508.15,271.4,510.76,271.65,513.24,272Z" transform="translate(-26.48 -170.69)"/><path class="cls-4" d="M505.46,272.15l-5.36,9.29,4.49,23-5.59,21-5.59-21,4.47-23.1-5.33-9.22a1,1,0,0,1-.05-.9,1,1,0,0,1,.92-.61h11.17a1,1,0,0,1,.92.61A1,1,0,0,1,505.46,272.15Z" transform="translate(-26.48 -170.69)"/><path class="cls-4" d="M501.33,364.36l-1.7,2.94a1.05,1.05,0,0,1-1.82,0l-1.46-2.53q1.32-1.59,2.66-3.36C499.77,362.44,500.56,363.42,501.33,364.36Z" transform="translate(-26.48 -170.69)"/><path class="cls-46" d="M530.65,397.66c-4,.67-10.47,0-12.43-1.11s-7.2-10.32-11.37-17.77h2.8c3.45,6.08,7,11.92,8.57,12.81,1.82,1,7.48,1.67,11.51,1.24C530.05,394.37,530.36,396,530.65,397.66Z" transform="translate(-26.48 -170.69)"/><path class="cls-49" d="M500.1,362.84c-4.09,7.37-18.29,32.58-20.29,33.71-1.45.83-6.34,1.53-10.31,1.36.07-1.7.18-3.37.34-5,3.9.13,8.55-.55,10-1.36s13.77-25.38,19.2-30.18Z" transform="translate(-26.48 -170.69)"/><path class="cls-46" d="M491.08,378.78c-4.1,7.37-9.27,16.64-11.27,17.77-1.45.83-6.34,1.53-10.31,1.36.07-1.7.18-3.37.34-5,3.9.13,8.55-.55,10-1.36s5.09-6.76,8.5-12.81Z" transform="translate(-26.48 -170.69)"/><path class="cls-49" d="M530.65,397.66c-4,.67-10.47,0-12.43-1.11s-10.36-17.3-14.53-24.74l1.94-.18c3.45,6.08,11,19.07,12.59,20,1.82,1,7.48,1.67,11.51,1.24C530.05,394.37,530.36,396,530.65,397.66Z" transform="translate(-26.48 -170.69)"/><path class="cls-35" d="M488.7,383" transform="translate(-26.48 -170.69)"/><polygon class="cls-47" points="490.58 122.39 537.54 170.42 545.65 155.31 507.53 109.67 490.58 122.39"/><path class="cls-47" d="M566.85,325.15l-31.07,44.51,9.35,5.28,28.59-33.12c2.51-3.13.33-14.56-2.71-17.34Z" transform="translate(-26.48 -170.69)"/><path class="cls-48" d="M396.56,275.08c-2.06.11-1.85,8.12-1.85,8.12S388.07,268,386,269.85c-.9.81,4,11.51,4,11.51-.38,0-7.8-12.11-9.09-11.19-2,1.44,6.57,13.92,6.39,14.05,0,0-8.71-10.28-9.59-9.49-2.2,2,6.68,12.21,6.58,12.52,0,0-7.33-8.69-8.47-7.48-2.36,2.5,18.37,21.08,19.82,20.12l4.13-3.27C399.28,286.31,398,275,396.56,275.08Z" transform="translate(-26.48 -170.69)"/><polygon class="cls-25" points="448.22 121.8 406.36 165.84 401.9 154.7 436.67 113.62 448.22 121.8"/><path class="cls-48" d="M435.92,335.13l-38-42.68-5,6L421,334.82c2.66,3.27,11.37,4.15,13.93,2.6Z" transform="translate(-26.48 -170.69)"/><polygon class="cls-47" points="456.42 120.84 409.46 168.87 401.35 153.76 439.47 108.12 456.42 120.84"/><path class="cls-47" d="M437.89,335.33l-35.6-41-7.4,7.77,25.16,35.81c2.42,3.19,12.45,3.9,15.89,1.62Z" transform="translate(-26.48 -170.69)"/><path class="cls-35" d="M450.34,580l40.65-.6c1.73,0,3.16-1.85,3.36-4.29.4-4.9,1.19-15.57-.92-14.72-13,5.25-15.14-8-38.27,5.24-3.89,2.21-6.43,3.84-7.77,6.28C445.6,575.21,447.4,580.08,450.34,580Z" transform="translate(-26.48 -170.69)"/><path class="cls-35" d="M579.5,580l-40.65-.6c-1.74,0-3.16-1.85-3.36-4.29-.4-4.9-1.19-15.57.92-14.72,13,5.25,15.13-8,38.27,5.24,3.89,2.21,6.42,3.84,7.77,6.28C584.24,575.21,582.44,580.08,579.5,580Z" transform="translate(-26.48 -170.69)"/><path class="cls-48" d="M518.48,379.91c.61,2,8.32-.18,8.32-.18S513.73,389.86,516,391.39c1,.68,10.18-6.69,10.18-6.69.06.37-9.85,10.51-8.64,11.54,1.89,1.62,11.91-9.77,12.07-9.63,0,0-7.85,11-6.87,11.62,2.47,1.64,10.22-9.45,10.54-9.43,0,0-6.64,9.23-5.19,10,3,1.67,16-23,14.68-24.13l-4.17-3.21C528.71,374.54,518.05,378.52,518.48,379.91Z" transform="translate(-26.48 -170.69)"/><circle class="cls-50" cx="470.81" cy="173.12" r="2.3"/><path d="M491.08,378.78c-4.1,7.37-9.27,16.64-11.27,17.77-1.45.83-6.34,1.53-10.31,1.36.07-1.7.18-3.37.34-5,3.9.13,8.55-.55,10-1.36s5.09-6.76,8.5-12.81Z" transform="translate(-26.48 -170.69)"/><circle class="cls-50" cx="470.81" cy="162.85" r="2.3"/></g></svg>