<svg id="Layer_1" data-name="Layer 1" xmlns="http://www.w3.org/2000/svg" viewBox="0 0 43.68 43.68"><defs><style>.cls-1{fill:#fff;}</style></defs><title>Insta Icon</title><g id="_1yfPgx.tif" data-name="1yfPgx.tif"><path d="M141.37,210H115.71l-.18,0a15.61,15.61,0,0,1-1.66-.3,9.51,9.51,0,0,1-7-7.58c-.07-.35-.11-.71-.16-1.07V175.38c0-.06,0-.12,0-.18,0-.37.09-.74.16-1.11a9.66,9.66,0,0,1,9.37-7.7h24.49a9.37,9.37,0,0,1,1.76.17,9.66,9.66,0,0,1,7.82,9.47v24.34a8.67,8.67,0,0,1-.33,2.48,9.54,9.54,0,0,1-7.59,7C142.09,209.94,141.73,210,141.37,210ZM145,188.2c0-1.51,0-3,0-4.55a29.58,29.58,0,0,0-.24-4,9.38,9.38,0,0,0-1.19-3.5,8.62,8.62,0,0,0-6.78-4.23,34.43,34.43,0,0,0-3.8-.21c-2.61,0-5.21,0-7.82,0A38.69,38.69,0,0,0,120,172a9.35,9.35,0,0,0-3.66,1.27,8.69,8.69,0,0,0-4.1,6.7,33.45,33.45,0,0,0-.2,3.61c0,2.64,0,5.27,0,7.9a37.27,37.27,0,0,0,.25,5.28,9.22,9.22,0,0,0,1.32,3.73,8.7,8.7,0,0,0,6.66,4,32.53,32.53,0,0,0,3.56.2c3.58,0,7.15,0,10.73,0a15.84,15.84,0,0,0,3.36-.35A8.68,8.68,0,0,0,143.1,201a9.42,9.42,0,0,0,1.73-4.82c.11-1.2.14-2.41.16-3.62C145,191.08,145,189.64,145,188.2Z" transform="translate(-106.72 -166.35)"/><path class="cls-1" d="M141.37,210c.36-.06.72-.09,1.07-.16a9.54,9.54,0,0,0,7.59-7,8.67,8.67,0,0,0,.33-2.48V176a9.66,9.66,0,0,0-7.82-9.47,9.37,9.37,0,0,0-1.76-.17H116.29a9.66,9.66,0,0,0-9.37,7.7c-.07.37-.11.74-.16,1.11,0,.06,0,.12,0,.18v-9h43.67V210Z" transform="translate(-106.72 -166.35)"/><path class="cls-1" d="M106.72,201c0,.36.09.72.16,1.07a9.51,9.51,0,0,0,7,7.58,15.61,15.61,0,0,0,1.66.3l.18,0h-9Z" transform="translate(-106.72 -166.35)"/><path class="cls-1" d="M145,188.2c0,1.44,0,2.88,0,4.31,0,1.21-.05,2.42-.16,3.62A9.42,9.42,0,0,1,143.1,201a8.68,8.68,0,0,1-5.19,3.32,15.84,15.84,0,0,1-3.36.35c-3.58,0-7.15,0-10.73,0a32.53,32.53,0,0,1-3.56-.2,8.7,8.7,0,0,1-6.66-4,9.22,9.22,0,0,1-1.32-3.73,37.27,37.27,0,0,1-.25-5.28c0-2.63,0-5.26,0-7.9a33.45,33.45,0,0,1,.2-3.61,8.69,8.69,0,0,1,4.1-6.7A9.35,9.35,0,0,1,120,172a38.69,38.69,0,0,1,5.16-.25c2.61,0,5.21,0,7.82,0a34.43,34.43,0,0,1,3.8.21,8.62,8.62,0,0,1,6.78,4.23,9.38,9.38,0,0,1,1.19,3.5,29.58,29.58,0,0,1,.24,4C145,185.17,145,186.69,145,188.2Zm-2.92,0c0-1.91,0-3.81-.07-5.72a15.32,15.32,0,0,0-.27-2.94,5.74,5.74,0,0,0-2.16-3.5,6.48,6.48,0,0,0-3.38-1.21c-1.11-.09-2.22-.15-3.33-.16-3.38,0-6.75,0-10.12,0a14.71,14.71,0,0,0-2.88.27,5.72,5.72,0,0,0-3.5,2.14,6.4,6.4,0,0,0-1.22,3.38c-.1,1.13-.16,2.27-.16,3.4,0,3.35,0,6.7,0,10.05a13.94,13.94,0,0,0,.31,3.08,5.71,5.71,0,0,0,2.12,3.34,6.42,6.42,0,0,0,3.37,1.19c1.11.11,2.23.16,3.35.17,3.37,0,6.73,0,10.09,0a13.39,13.39,0,0,0,2.9-.28,5.55,5.55,0,0,0,4.45-4.12,12.83,12.83,0,0,0,.39-3.37C142.05,192,142.06,190.1,142.08,188.19Z" transform="translate(-106.72 -166.35)"/><path d="M142.08,188.19c0,1.91,0,3.81-.07,5.72a12.83,12.83,0,0,1-.39,3.37,5.55,5.55,0,0,1-4.45,4.12,13.39,13.39,0,0,1-2.9.28c-3.36,0-6.72,0-10.09,0-1.12,0-2.24-.06-3.35-.17a6.42,6.42,0,0,1-3.37-1.19,5.71,5.71,0,0,1-2.12-3.34,13.94,13.94,0,0,1-.31-3.08c0-3.35,0-6.7,0-10.05,0-1.13.06-2.27.16-3.4a6.4,6.4,0,0,1,1.22-3.38,5.72,5.72,0,0,1,3.5-2.14,14.71,14.71,0,0,1,2.88-.27c3.37,0,6.74,0,10.12,0,1.11,0,2.22.07,3.33.16a6.48,6.48,0,0,1,3.38,1.21,5.74,5.74,0,0,1,2.16,3.5,15.32,15.32,0,0,1,.27,2.94C142.05,184.38,142.06,186.28,142.08,188.19Zm-22,0a8.47,8.47,0,1,0,8.48-8.45A8.45,8.45,0,0,0,120.05,188.18Zm17.28-10.76a2,2,0,1,0,2,2A2,2,0,0,0,137.33,177.42Z" transform="translate(-106.72 -166.35)"/><path class="cls-1" d="M120.05,188.18a8.47,8.47,0,1,1,8.46,8.47A8.46,8.46,0,0,1,120.05,188.18Zm14,0a5.52,5.52,0,1,0-5.57,5.51A5.54,5.54,0,0,0,134,188.2Z" transform="translate(-106.72 -166.35)"/><path class="cls-1" d="M137.33,177.42a2,2,0,0,1,0,4,2,2,0,1,1,0-4Z" transform="translate(-106.72 -166.35)"/><path d="M134,188.2a5.52,5.52,0,1,1-5.45-5.53A5.53,5.53,0,0,1,134,188.2Z" transform="translate(-106.72 -166.35)"/></g></svg>