<svg id="Join" xmlns="http://www.w3.org/2000/svg" viewBox="0 0 1112.75 896.58"><defs><style>.cls-1{fill:#cdebfc;}.cls-2{fill:#3c3636;}.cls-3{fill:#6d4d36;}.cls-4{fill:#603813;}.cls-5{fill:#8c4d2c;}.cls-6{fill:#c69c6d;}.cls-7{fill:#e9bf46;}.cls-8{fill:#e6e6e6;}.cls-9{fill:#c1272d;}.cls-10{fill:#97644f;}.cls-11{fill:#983993;}.cls-12{fill:#f2f2f2;}.cls-13{fill:#53d870;}.cls-14{fill:#d84395;}.cls-15{fill:#fbb03b;}.cls-16{fill:#7fe5e4;}.cls-17{fill:#fce548;}.cls-18{fill:#ffcdb9;}.cls-19{fill:#f19832;}.cls-20{fill:#cb1a1a;}.cls-21{fill:#e69c72;}.cls-22{fill:#ffbca2;}.cls-23{fill:#666;opacity:0.3;}.cls-24{fill:#90c291;}.cls-25{fill:#9e005d;}.cls-26{fill:#fff;}.cls-27{fill:#1a1a1a;}.cls-28{fill:#e8be52;}.cls-29{fill:#f4c4b2;}.cls-30{fill:#8f375d;}.cls-31{fill:#004b9b;}.cls-32{fill:#008b9d;}.cls-33{fill:none;stroke:#1a1a1a;stroke-miterlimit:10;stroke-width:2px;}</style></defs><title>Join</title><path class="cls-1" d="M1146.63,738.43c30.19,53,39.25,248.67-122.72,248.67h-922c-25.62-19.63-41.23-50.45-48.45-82C45.87,871.93,53.11,708,205.81,679.5c6.69-1.25,12.62-6,16.54-11.51,9.32-13.23-1-32-14.57-40.88s-30.23-12.7-42.33-23.44c-15.48-13.75-20.27-35.82-21.86-56.46a279.4,279.4,0,0,1,37.9-162.64c12.33-20.83,29.1-41.2,52.48-47.47,36.64-9.82,74.79,10.1,108.21,28.07,175.16,94.14,191.3-63.83,569.5-63.44C1164.39,302,989,461.65,1146.63,738.43Z" transform="translate(-51.48 -154.87)"/><g id="Balloon_Cart" data-name="Balloon Cart"><path class="cls-2" d="M998.79,668.7v1.36c0,1.7,1.85,3.08,4.14,3.08l17.75,2.28c2.29,0,4.14-1.38,4.14-3.08v-5.92c0-1.7-1.85-3.08-4.14-3.08l-17.75,2.28C1000.64,665.62,998.79,667,998.79,668.7Z" transform="translate(-51.48 -154.87)"/><rect class="cls-3" x="1020.31" y="655.23" width="14.55" height="27.16" rx="2.69" transform="translate(2003.7 1182.75) rotate(-180)"/><rect class="cls-2" x="1024.34" y="637.02" width="7.27" height="37.41" rx="2.64" transform="translate(320.78 1528.82) rotate(-90)"/><path class="cls-4" d="M1004.17,933.19a26.61,26.61,0,1,0,26.61-26.61A26.61,26.61,0,0,0,1004.17,933.19Zm8.51,0a18.1,18.1,0,1,1,18.1,18.1A18.1,18.1,0,0,1,1012.68,933.19Z" transform="translate(-51.48 -154.87)"/><circle class="cls-4" cx="979.3" cy="778.32" r="7.35"/><rect class="cls-4" x="1030.03" y="911.61" width="1.51" height="43.16" transform="translate(2010.08 1711.51) rotate(-180)"/><rect class="cls-4" x="1030.03" y="911.61" width="1.51" height="43.16" transform="translate(46.11 1809.1) rotate(-90)"/><rect class="cls-4" x="1030.03" y="911.61" width="1.51" height="43.16" transform="translate(-409.43 847.32) rotate(-45)"/><rect class="cls-4" x="1030.03" y="911.61" width="1.51" height="43.16" transform="translate(910.3 -610.42) rotate(45)"/><rect class="cls-5" x="1027.4" y="873.43" width="6.87" height="59.76" transform="translate(2010.19 1651.75) rotate(-180)"/><rect class="cls-6" x="757.29" y="870.33" width="311.78" height="18.57" transform="translate(1774.88 1604.35) rotate(-180)"/><rect class="cls-5" x="757.31" y="723.7" width="231.02" height="146.62" transform="translate(1694.16 1439.16) rotate(-180)"/><rect class="cls-6" x="749.59" y="720.33" width="246.46" height="37.45" transform="translate(1694.16 1323.23) rotate(-180)"/><circle class="cls-7" cx="675.73" cy="627.57" r="7.42"/><path class="cls-6" d="M737.29,795.94h20V771.61H700.61C700.61,785.05,717,795.94,737.29,795.94Z" transform="translate(-51.48 -154.87)"/><path class="cls-8" d="M782.93,880.3a89.89,89.89,0,1,0,89.9-89.89A89.89,89.89,0,0,0,782.93,880.3Zm28.75,0a61.14,61.14,0,1,1,61.15,61.15A61.15,61.15,0,0,1,811.68,880.3Z" transform="translate(-51.48 -154.87)"/><path class="cls-7" d="M790.69,880.3a82.13,82.13,0,1,0,82.14-82.14A82.13,82.13,0,0,0,790.69,880.3Zm26.27,0a55.86,55.86,0,1,1,55.87,55.87A55.87,55.87,0,0,1,817,880.3Z" transform="translate(-51.48 -154.87)"/><circle class="cls-7" cx="821.34" cy="725.42" r="22.69"/><rect class="cls-7" x="870.49" y="813.68" width="4.65" height="133.24" transform="translate(1694.16 1605.72) rotate(-180)"/><rect class="cls-7" x="870.49" y="813.68" width="4.65" height="133.24" transform="translate(-58.96 1598.24) rotate(-90)"/><rect class="cls-7" x="870.49" y="813.68" width="4.65" height="133.24" transform="translate(-418.3 720.14) rotate(-45)"/><rect class="cls-7" x="870.49" y="813.68" width="4.65" height="133.24" transform="translate(826.63 -514.22) rotate(45)"/><rect class="cls-7" x="870.49" y="813.68" width="4.65" height="133.24" transform="translate(1954.79 1227.47) rotate(158.65)"/><rect class="cls-7" x="870.49" y="813.68" width="4.65" height="133.24" transform="translate(1267.81 1881.89) rotate(-156.35)"/><rect class="cls-7" x="870.49" y="813.68" width="4.65" height="133.24" transform="translate(319.3 1858.87) rotate(-111.35)"/><rect class="cls-7" x="870.49" y="813.68" width="4.65" height="133.24" transform="translate(-335.12 1171.89) rotate(-66.35)"/><circle class="cls-9" cx="821.35" cy="724.88" r="12.46"/><path class="cls-10" d="M996,677.42h62.7a0,0,0,0,1,0,0V847.26A22.79,22.79,0,0,1,1036,870.05h-17.13A22.79,22.79,0,0,1,996,847.26V677.42A0,0,0,0,1,996,677.42Z" transform="translate(2003.32 1392.6) rotate(-180)"/><rect class="cls-7" x="988.33" y="806.87" width="78.14" height="11.05" transform="translate(2003.32 1469.92) rotate(-180)"/><path class="cls-2" d="M1034.86,652.86h0c0,1.58.42,2.86.93,2.86h7.75c.52,0,.94-1.28.94-2.86h0c0-1.58-.42-2.86-.94-2.86h-7.75C1035.28,650,1034.86,651.28,1034.86,652.86Z" transform="translate(-51.48 -154.87)"/><path class="cls-2" d="M1022.48,652.86h0c0,1.58.42,2.86.93,2.86h7.75c.52,0,.93-1.28.93-2.86h0c0-1.58-.41-2.86-.93-2.86h-7.75C1022.9,650,1022.48,651.28,1022.48,652.86Z" transform="translate(-51.48 -154.87)"/><path class="cls-2" d="M1011.47,652.86h0c0,1.58.42,2.86.94,2.86h7.74c.52,0,.94-1.28.94-2.86h0c0-1.58-.42-2.86-.94-2.86h-7.74C1011.89,650,1011.47,651.28,1011.47,652.86Z" transform="translate(-51.48 -154.87)"/><path class="cls-7" d="M861.54,720.33h9.63c0-5.91,2.8-9.83,4.65-9.83s4.65,3.92,4.65,9.83h9.63c0-10.91-6.27-19.46-14.28-19.46S861.54,709.42,861.54,720.33Z" transform="translate(-51.48 -154.87)"/><circle class="cls-8" cx="823.91" cy="550.46" r="7.67"/></g><g id="Balloons"><path class="cls-11" d="M816.82,267.68l4.87,6.2a2,2,0,0,1-1.3,3.25L808,278.91a2,2,0,0,1-2.17-2.75l2.93-7.32c-13.2-8.58-50.91-34.87-54.13-57.23a49.48,49.48,0,1,1,98-14.1C855.83,219.88,827,255.77,816.82,267.68Z" transform="translate(-51.48 -154.87)"/><rect class="cls-8" x="806.44" y="266.19" width="13.2" height="4.08" rx="1.07" transform="translate(-81.41 -36.25) rotate(-8.19)"/><path class="cls-12" d="M876.38,690.88a2,2,0,0,1-2.26-1.7L813.67,268a2,2,0,1,1,4-.57l60.45,421.18A2,2,0,0,1,876.38,690.88Z" transform="translate(-51.48 -154.87)"/><path class="cls-13" d="M763.48,305.63l5.94,5.18a2,2,0,0,1-.67,3.43l-11.82,4.06a2,2,0,0,1-2.64-2.29l1.5-7.74c-14.56-6-56.52-24.75-63.86-46.12A49.49,49.49,0,1,1,785.54,230C792.88,251.39,771.3,292,763.48,305.63Z" transform="translate(-51.48 -154.87)"/><rect class="cls-8" x="753.26" y="304.83" width="13.2" height="4.08" rx="1.07" transform="translate(-109.95 108.56) rotate(-18.95)"/><path class="cls-12" d="M874.46,698.59a2,2,0,0,1-2.18-1.33L760.44,306.53a2,2,0,0,1,3.79-1.3L876.06,696a2,2,0,0,1-1.24,2.54Z" transform="translate(-51.48 -154.87)"/><path class="cls-14" d="M887.38,273.2l3.31,7.15a2,2,0,0,1-2,2.86l-12.45-1.11a2,2,0,0,1-1.48-3.17l4.54-6.45c-10.87-11.39-41.53-45.65-39.52-68.14a49.48,49.48,0,1,1,98.57,8.8C936.33,235.65,900.07,264,887.38,273.2Z" transform="translate(-51.48 -154.87)"/><rect class="cls-8" x="876.97" y="270.82" width="13.2" height="4.08" rx="1.07" transform="translate(-23.71 -232.36) rotate(5.1)"/><path class="cls-12" d="M872.74,689.9a1.85,1.85,0,0,1-.47,0,2,2,0,0,1-1.81-2.17l13.78-415a2,2,0,0,1,4,.36l-13.78,415A2,2,0,0,1,872.74,689.9Z" transform="translate(-51.48 -154.87)"/><path class="cls-15" d="M993.3,295.09l-6.41,4.6a2,2,0,0,0,.34,3.48l11.39,5.16a2,2,0,0,0,2.84-2l-.76-7.85c15.06-4.56,58.61-19.28,67.94-39.85a49.48,49.48,0,1,0-90.13-40.88C969.17,238.31,986.8,280.8,993.3,295.09Z" transform="translate(-51.48 -154.87)"/><rect class="cls-8" x="990.17" y="294.64" width="13.2" height="4.08" rx="1.07" transform="translate(1730.53 823.7) rotate(-155.6)"/><path class="cls-12" d="M873.28,688.22a2,2,0,0,0,2.65-1l120.3-391a2,2,0,1,0-3.64-1.65L872.29,685.57A2,2,0,0,0,873.28,688.22Z" transform="translate(-51.48 -154.87)"/><path class="cls-14" d="M1033.93,346.42l-7.16,3.32a2,2,0,0,0-.31,3.48l10.23,7.2a2,2,0,0,0,3.17-1.47l.71-7.85c15.65-1.67,61.19-8,74.19-26.47a49.48,49.48,0,1,0-80.91-57C1020.83,286.13,1030.22,331.17,1033.93,346.42Z" transform="translate(-51.48 -154.87)"/><rect class="cls-8" x="1030.45" y="346.58" width="13.2" height="4.08" rx="1.07" transform="translate(1632.74 1075.9) rotate(-144.85)"/><path class="cls-12" d="M880.11,692.75a2,2,0,0,0,2.46-.67l154-344a2,2,0,1,0-3.27-2.3l-154,344a2,2,0,0,0,.81,3Z" transform="translate(-51.48 -154.87)"/><path class="cls-11" d="M924,280.7l-5.18,5.95A2,2,0,0,0,920,290l12.27,2.4a2,2,0,0,0,2.3-2.63L932,282.27c13.61-7.9,52.62-32.24,57-54.41a49.48,49.48,0,1,0-97.11-19.05C887.47,231,914.39,268.29,924,280.7Z" transform="translate(-51.48 -154.87)"/><rect class="cls-8" x="921.15" y="279.4" width="13.2" height="4.08" rx="1.07" transform="translate(1732.48 581.37) rotate(-168.9)"/><path class="cls-12" d="M875.8,697.14a1.89,1.89,0,0,0,.44.14,2,2,0,0,0,2.35-1.58l48.54-414.52a2,2,0,1,0-3.93-.77L874.66,694.93A2,2,0,0,0,875.8,697.14Z" transform="translate(-51.48 -154.87)"/><path class="cls-15" d="M949.6,378.44l-5.36,5.78a2,2,0,0,0,1,3.34l12.19,2.79a2,2,0,0,0,2.38-2.56l-2.31-7.54c13.84-7.47,53.58-30.59,58.62-52.61a49.49,49.49,0,1,0-96.48-22.06C914.63,327.62,940.39,365.73,949.6,378.44Z" transform="translate(-51.48 -154.87)"/><rect class="cls-8" x="946.73" y="377.26" width="13.2" height="4.08" rx="1.07" transform="translate(1746.66 806.66) rotate(-167.12)"/><path class="cls-12" d="M877.27,699.58a2,2,0,0,0,2.4-1.5L952.72,379a2,2,0,0,0-3.9-.89L875.77,697.18A2,2,0,0,0,877.27,699.58Z" transform="translate(-51.48 -154.87)"/><path class="cls-13" d="M999.67,420.62l-6.35,4.68a2,2,0,0,0,.39,3.47l11.45,5a2,2,0,0,0,2.82-2.07l-.87-7.83c15-4.76,58.36-20.06,67.41-40.75a49.48,49.48,0,1,0-90.66-39.68C974.8,364.16,993,406.42,999.67,420.62Z" transform="translate(-51.48 -154.87)"/><rect class="cls-8" x="996.57" y="420.11" width="13.2" height="4.08" rx="1.07" transform="translate(1701.44 1056.22) rotate(-156.36)"/><path class="cls-12" d="M876.7,698.67a2,2,0,0,0,2.28-1.15l123.64-275.76a2,2,0,0,0-3.67-1.6L875.31,695.92a2,2,0,0,0,1,2.63A1.45,1.45,0,0,0,876.7,698.67Z" transform="translate(-51.48 -154.87)"/><path class="cls-14" d="M878.83,378.18,874.94,385a2,2,0,0,0,1.77,3l12.51-.09a2,2,0,0,0,1.72-3l-4-6.8c11.76-10.46,45.11-42.1,44.95-64.69a49.49,49.49,0,1,0-99,.72C833.11,336.76,866.94,367.93,878.83,378.18Z" transform="translate(-51.48 -154.87)"/><rect class="cls-8" x="876.05" y="376.11" width="13.2" height="4.08" rx="1.07" transform="matrix(-1, 0.01, -0.01, -1, 1716.56, 594.99)"/><path class="cls-12" d="M873.6,696a2.31,2.31,0,0,0,.46,0,2,2,0,0,0,2-2L882,378a2,2,0,1,0-4,0l-5.94,316A2,2,0,0,0,873.6,696Z" transform="translate(-51.48 -154.87)"/><path class="cls-15" d="M905,317.72l-4.21,6.67a2,2,0,0,0,1.62,3.09l12.49.51a2,2,0,0,0,1.88-2.95l-3.66-7c12.25-9.87,47.09-39.87,48-62.44a49.48,49.48,0,1,0-98.88-4.05C861.29,274.15,893.59,306.91,905,317.72Z" transform="translate(-51.48 -154.87)"/><rect class="cls-8" x="902.19" y="315.84" width="13.2" height="4.08" rx="1.07" transform="translate(1752.35 517.77) rotate(-177.66)"/><path class="cls-12" d="M876.88,698a2,2,0,0,0,2.08-1.91l29.18-378.35a2,2,0,0,0-4-.17L875,695.9A2,2,0,0,0,876.88,698Z" transform="translate(-51.48 -154.87)"/><path class="cls-16" d="M961.9,350l-5.38,5.77a2,2,0,0,0,1,3.34L969.71,362a2,2,0,0,0,2.39-2.55l-2.28-7.54c13.87-7.42,53.7-30.39,58.82-52.39a49.48,49.48,0,1,0-96.39-22.43C927.13,299.08,952.73,337.29,961.9,350Z" transform="translate(-51.48 -154.87)"/><rect class="cls-8" x="959.02" y="348.86" width="13.2" height="4.08" rx="1.07" transform="translate(1775.1 756.68) rotate(-166.9)"/><path class="cls-12" d="M878.78,697.81a2,2,0,0,0,2-1.55L965,350.62a2,2,0,1,0-3.89-.91L876.91,695.35a2,2,0,0,0,1.5,2.4A2.38,2.38,0,0,0,878.78,697.81Z" transform="translate(-51.48 -154.87)"/><path class="cls-16" d="M835.34,330.4l-2.57,7.46a2,2,0,0,0,2.3,2.64l12.27-2.38a2,2,0,0,0,1.14-3.3l-5.16-6c9.65-12.43,36.66-49.64,32.37-71.81a49.49,49.49,0,1,0-97.17,18.8C782.81,298,821.78,322.5,835.34,330.4Z" transform="translate(-51.48 -154.87)"/><rect class="cls-8" x="832.49" y="327.64" width="13.2" height="4.08" rx="1.07" transform="translate(1674.07 339.05) rotate(169.05)"/><path class="cls-12" d="M877,684.4a1.81,1.81,0,0,0,.46,0,2,2,0,0,0,1.58-2.35L838.42,329.67a2,2,0,0,0-3.93.76l40.65,352.35A2,2,0,0,0,877,684.4Z" transform="translate(-51.48 -154.87)"/><path class="cls-14" d="M811.22,392l-1.41,7.76a2,2,0,0,0,2.67,2.26l11.77-4.21a2,2,0,0,0,.63-3.43l-6-5.11c7.66-13.75,28.72-54.62,21.12-75.89a49.49,49.49,0,1,0-93.2,33.31C754.4,367.94,796.62,386.21,811.22,392Z" transform="translate(-51.48 -154.87)"/><rect class="cls-8" x="808.22" y="388.64" width="13.2" height="4.08" rx="1.07" transform="translate(1662.12 329.46) rotate(160.33)"/><path class="cls-12" d="M873.22,699a2,2,0,0,0,1.21-2.56L814.16,390.77a2,2,0,0,0-3.77,1.35l60.27,305.63A2,2,0,0,0,873.22,699Z" transform="translate(-51.48 -154.87)"/><path class="cls-17" d="M876.11,400.59l-2.83,7.35a2,2,0,0,0,2.2,2.72l12.35-1.93a2,2,0,0,0,1.26-3.26l-5-6.14c10.09-12.08,38.41-48.3,34.91-70.62A49.49,49.49,0,1,0,821.27,344C824.78,366.37,862.84,392.21,876.11,400.59Z" transform="translate(-51.48 -154.87)"/><rect class="cls-8" x="873.29" y="397.96" width="13.2" height="4.08" rx="1.07" transform="translate(1759.63 504.03) rotate(171.09)"/><path class="cls-12" d="M875.39,697.53a2,2,0,0,0,1.31-2.2L879.22,400a2,2,0,0,0-4,.62L872.74,696a2,2,0,0,0,2.29,1.67A1.9,1.9,0,0,0,875.39,697.53Z" transform="translate(-51.48 -154.87)"/><path class="cls-17" d="M758,390.71l.41,7.87a2,2,0,0,0,3.12,1.59l10.49-6.8a2,2,0,0,0-.18-3.49l-7-3.59c4.29-15.14,15.38-59.76,3.09-78.71a49.48,49.48,0,1,0-83,53.85C697.19,380.39,742.47,388.47,758,390.71Z" transform="translate(-51.48 -154.87)"/><rect class="cls-8" x="754.62" y="386.59" width="13.2" height="4.08" rx="1.07" transform="translate(1559.87 145.65) rotate(147.04)"/><path class="cls-12" d="M866.72,674.3a1.77,1.77,0,0,0,.41-.21,2,2,0,0,0,.59-2.76L760.59,388.88a2,2,0,1,0-3.35,2.17L864.37,673.5A2,2,0,0,0,866.72,674.3Z" transform="translate(-51.48 -154.87)"/><path class="cls-15" d="M855.38,376.27l4.66,6.36a2,2,0,0,1-1.4,3.2l-12.43,1.37a2,2,0,0,1-2.07-2.82l3.16-7.22c-12.9-9-49.73-36.53-52.21-59a49.49,49.49,0,1,1,98.38-10.86C896,329.79,866,364.7,855.38,376.27Z" transform="translate(-51.48 -154.87)"/><rect class="cls-8" x="844.98" y="374.65" width="13.2" height="4.08" rx="1.07" transform="translate(-87.67 -59.15) rotate(-6.3)"/><path class="cls-12" d="M875.43,692.27a2,2,0,0,1-2.21-1.77l-21-314a2,2,0,1,1,4-.44l21,314A2,2,0,0,1,875.43,692.27Z" transform="translate(-51.48 -154.87)"/><path class="cls-16" d="M800.81,412.43l5.77,5.38a2,2,0,0,1-.78,3.41l-11.95,3.66a2,2,0,0,1-2.57-2.38l1.77-7.68c-14.36-6.45-55.68-26.61-62.31-48.2a49.49,49.49,0,1,1,94.62-29C832,359.2,809.08,399.09,800.81,412.43Z" transform="translate(-51.48 -154.87)"/><rect class="cls-8" x="790.56" y="411.52" width="13.2" height="4.08" rx="1.07" transform="translate(-137.72 97.16) rotate(-17.06)"/><path class="cls-12" d="M875.51,699a2,2,0,0,1-2.13-1.4L797.75,413.23a2,2,0,0,1,3.83-1.17l75.63,284.41a2,2,0,0,1-1.33,2.5A2.41,2.41,0,0,1,875.51,699Z" transform="translate(-51.48 -154.87)"/><path class="cls-11" d="M925.72,384.12l3.08,7.26a2,2,0,0,1-2.11,2.79l-12.41-1.53a2,2,0,0,1-1.37-3.21l4.74-6.3c-10.48-11.74-40-47-37.24-69.41a49.48,49.48,0,1,1,98.23,12C975.89,348.21,938.71,375.3,925.72,384.12Z" transform="translate(-51.48 -154.87)"/><rect class="cls-8" x="915.32" y="381.61" width="13.2" height="4.08" rx="1.07" transform="translate(2.11 -264.31) rotate(7)"/><path class="cls-12" d="M879.28,698.09a2.36,2.36,0,0,1-.46,0,2,2,0,0,1-1.75-2.23L922.6,383.6a2,2,0,0,1,4,.48L881,696.34A2,2,0,0,1,879.28,698.09Z" transform="translate(-51.48 -154.87)"/></g><g id="Ryder_Davidson" data-name="Ryder Davidson"><path class="cls-18" d="M317.07,1017.89l-14.94,1.94S282.82,894,289.4,857.2c6.07-33.88,29.28-6.07,28.67-5.41Z" transform="translate(-51.48 -154.87)"/><path class="cls-18" d="M214.92,1008.76l-14.74-3.08S216.69,879.37,235,846.78c16.85-30,29.64,3.87,28.85,4.3Z" transform="translate(-51.48 -154.87)"/><path class="cls-19" d="M296.74,1016.52l.76,4.24,3.48,27.78c.38,2.14,47.38,3.87,51.22,2.33,8.8-3.53-17-28.22-33-40.21-1.88-1.41-9,3.52-19.83-1.82C297.2,1007.76,296.47,1012.67,296.74,1016.52Z" transform="translate(-51.48 -154.87)"/><path class="cls-19" d="M199,990.94,198,995.16l-8.35,26.94c-.55,2.13,39.85,27.41,43.85,28,9.14,1.24-3.3-34.16-12.35-53.09-1.06-2.22-9.28-1.33-16.6-11.65C203,983.23,200.38,987.31,199,990.94Z" transform="translate(-51.48 -154.87)"/><path class="cls-20" d="M217.13,601.07c18.28-3.32,40.72-.23,57.14-5.34,18.43-5.74,18.43-64.48,16.39-78.46-1.54-10.21-.23-18.53,4.77-22.8,3.08-2.63-7.21-7.47-1.08-6.5,6.4,1,5.54-21.91-28.43-22.73-16.18-.39-46,15.81-46.78,23.57-1.49,15,.44,16.22-10.31,36.19-6.32,11.75,6.09,33.21,2,45.1C209.39,574.31,209.48,602.44,217.13,601.07Z" transform="translate(-51.48 -154.87)"/><path class="cls-21" d="M242,533.34a19.82,19.82,0,0,0,3.64,4.17,28.91,28.91,0,0,0,4.38,2.94,51.37,51.37,0,0,0,14.17,2.65l-.1-1.07c-4.53-1.2-11.05-3.12-14-4.11-1.29-.7-6.41-3.82-8.05-4.93Z" transform="translate(-51.48 -154.87)"/><path class="cls-22" d="M242,533c1.64,1.11,6.76,4.23,8.05,4.93,2.95,1,9.47,2.91,14,4.11l-1.74-19.52-.27-3a11.32,11.32,0,0,1-6.68,4.35,10.61,10.61,0,0,1-7.15-1,14.7,14.7,0,0,1-2.27-1.48,12.56,12.56,0,0,1-2.48-3l-.32,3Z" transform="translate(-51.48 -154.87)"/><polygon class="cls-18" points="226.75 436.71 300.72 483.35 314.79 467.25 239.24 420.06 226.75 436.71"/><path class="cls-18" d="M237.23,581.34l30.07-3.07-2.91-32.63-.23-2.54A51.37,51.37,0,0,1,250,540.45a28.91,28.91,0,0,1-4.38-2.94,19.82,19.82,0,0,1-3.64-4.17l-.22,2.3Z" transform="translate(-51.48 -154.87)"/><path class="cls-18" d="M417.46,542.24c3,.41,1.72,12.11,1.72,12.11S430.74,533,433.5,535.88c1.22,1.29-7.28,16.36-7.28,16.36.55,0,12.89-16.78,14.67-15.28,2.79,2.36-11.32,19.58-11.07,19.78,0,0,14-14,15.18-12.72,3,3.18-11.25,17.06-11.14,17.52,0,0,11.78-11.82,13.3-9.91,3.14,3.94-29.45,28.61-31.45,27l-5.65-5.28C412.11,558.35,415.34,542,417.46,542.24Z" transform="translate(-51.48 -154.87)"/><polygon class="cls-18" points="192.99 432.68 131.28 509.5 123.95 493.04 175 422.24 192.99 432.68"/><path class="cls-23" d="M241.89,534.2c4.36,5.13,14.87,10.11,22.37,10l-.2-2.19c-4.53-1.2-11.05-3.12-14-4.11-1.29-.7-6.41-3.82-8.05-4.93Z" transform="translate(-51.48 -154.87)"/><path class="cls-18" d="M232,505.66c-.29,10.32,4.4,19.12,9.51,27,0,0,4.59,3,8.57,5.3,9.93,5.66,18.21,5.14,18.69,5.11,1.82-.48,7.31-5.91,11.7-13.65,3.42-6.07,6.18-13.58,6-21.28A26.86,26.86,0,0,0,285.2,501c-3.65-12.37-15.23-25.52-28.33-24.63C243,477.34,232.44,489.91,232,505.66Z" transform="translate(-51.48 -154.87)"/><path class="cls-18" d="M182.31,646.88l15.82,82.42-13,.83-18-65.1c-1.48-6,6.5-17.21,11.22-18.94Z" transform="translate(-51.48 -154.87)"/><path class="cls-18" d="M349.25,635.75l64.55-69.4,8.74,5.78-46.16,64c-5.56,5.79-14.62,8.35-18.91,5.35Z" transform="translate(-51.48 -154.87)"/><polygon class="cls-24" points="194.61 539.17 241.68 552.05 245.3 469.04 169.46 471.3 194.61 539.17"/><path class="cls-25" d="M332.22,924c1.2,6.73-146.73,19.68-144.68,12.87,44.71-148.71,47.27-253,61.05-247.34,18.26,7.43,27.21,1.72,43.73-2.54C315.28,681.06,316.23,835.07,332.22,924Z" transform="translate(-51.48 -154.87)"/><path class="cls-24" d="M208.7,591.35c3.47,36.55,27.05,65,52.68,63.52S305,622.58,301.52,586,205.24,554.8,208.7,591.35Z" transform="translate(-51.48 -154.87)"/><circle class="cls-18" cx="182.69" cy="356.2" r="10.85"/><path class="cls-26" d="M272,530.42c0,2.06-3.23,3.76-7.26,3.8s-7.3-1.6-7.32-3.67C257.45,529.19,272,528.87,272,530.42Z" transform="translate(-51.48 -154.87)"/><path class="cls-20" d="M238,479.69c9.34.88-18.5,21.58-7,15.69,4.58-2.35,53.17.19,50.14-16.92C278.94,466.17,228.67,478.81,238,479.69Z" transform="translate(-51.48 -154.87)"/><path class="cls-18" d="M215.12,740.6c-1.91,2.34-11.24-4.82-11.24-4.82s12.25,21,8.34,21.83C210.49,758,202,742.9,202,742.9c-.28.47,7.64,19.72,5.44,20.46-3.47,1.16-10.86-19.83-11.16-19.73,0,0,4.68,19.23,3,19.58-4.26.89-8.73-18.47-9.18-18.62,0,0,4,16.21,1.57,16.52-5,.63-9.16-40-6.76-40.92l7.45-2.08C204.14,727.67,216.47,738.93,215.12,740.6Z" transform="translate(-51.48 -154.87)"/><rect class="cls-27" x="222.01" y="1003.18" width="7.11" height="13.64" rx="3.55" transform="translate(1003.98 236.87) rotate(65.9)"/><rect class="cls-27" x="324.78" y="1013.6" width="7.11" height="13.64" rx="3.55" transform="matrix(0.59, 0.81, -0.81, 0.59, 905.48, -2.73)"/></g><g id="Rei_Markovsky" data-name="Rei Markovsky"><path class="cls-13" d="M454.14,427.11l3.94,6.83a2,2,0,0,1-1.75,3h-12.5a2,2,0,0,1-1.75-3l3.94-6.83c-11.84-10.37-45.43-41.76-45.43-64.35a49.49,49.49,0,1,1,99,0C499.56,385.36,466,416.78,454.14,427.11Z" transform="translate(-51.48 -154.87)"/><rect class="cls-8" x="392.24" y="270.2" width="13.2" height="4.08" rx="1.07"/><path class="cls-12" d="M453,654.77a2,2,0,0,1-2-2V427a2,2,0,0,1,4,0V652.77A2,2,0,0,1,453,654.77Z" transform="translate(-51.48 -154.87)"/><path class="cls-28" d="M685.36,534.82c-8.5-22.62-8.08-20.52-7.18-44,.43-11.68-21.84-36.56-38.39-36.68-34.76-.25-35.77,13.31-29.2,12.08,6.3-1.19-6.49,22.7-3.42,26.78,5,6.62,6.08,26.5,4.2,41.73C608.88,555.64,691.92,552.34,685.36,534.82Z" transform="translate(-51.48 -154.87)"/><path class="cls-29" d="M655.09,522.37a20.44,20.44,0,0,1-4,4.21,30.35,30.35,0,0,1-4.78,2.93,56,56,0,0,1-15.22,2.31l.14-1.1c4.88-1.11,11.91-2.9,15.08-3.85,1.42-.68,7-3.76,8.77-4.87Z" transform="translate(-51.48 -154.87)"/><path class="cls-22" d="M655.06,522c-1.79,1.11-7.35,4.19-8.77,4.87-3.17,1-10.2,2.74-15.08,3.85l2.47-20.2.38-3.1a13.39,13.39,0,0,0,4.69,3.89,13.2,13.2,0,0,0,2.31.82,11.8,11.8,0,0,0,7.68-.84,17,17,0,0,0,2.47-1.48,13.2,13.2,0,0,0,2.74-3l.24,3.16Z" transform="translate(-51.48 -154.87)"/><polygon class="cls-29" points="570.89 425.35 497.98 484.56 479.86 472.38 554.4 412.34 570.89 425.35"/><path class="cls-29" d="M658.67,572.29l-32-4.08,4.13-33.75.32-2.64a56,56,0,0,0,15.22-2.31,30.35,30.35,0,0,0,4.78-2.93,20.44,20.44,0,0,0,4-4.21l.16,2.4Z" transform="translate(-51.48 -154.87)"/><path class="cls-29" d="M449.43,608.82s-8.93-2.56-9.77,1.6c-.37,1.84,2.44,1.51,2.44,1.51-.49.37-4.38-.19-5.12,2.19-1.17,3.77,4.54,3.41,4.42,3.79,0,0-3.83-.45-4.17,1.34-.88,4.52,3.08,4.75,3.24,5.18,0,0-1.77-.25-2.06,2.28-.61,5.24,26.44,1.51,27.33-1.09l2.08-8C457.82,607.19,449.43,608.82,449.43,608.82Z" transform="translate(-51.48 -154.87)"/><polygon class="cls-29" points="608.22 418.58 674.4 493.5 683.08 478.02 628.58 409.13 608.22 418.58"/><path class="cls-23" d="M655.15,523.27c-4.82,5.18-16.2,10-24.22,9.72l.28-2.27c4.88-1.11,11.91-2.9,15.08-3.85,1.42-.68,7-3.76,8.77-4.87Z" transform="translate(-51.48 -154.87)"/><path class="cls-29" d="M666.62,494c0,10.72-5.29,19.7-11,27.67,0,.06-5,3-9.34,5.24-10.78,5.59-19.61,4.8-20.13,4.74-1.92-.55-7.62-6.34-12.07-14.5-3.48-6.4-6.19-14.27-5.73-22.25a27.28,27.28,0,0,1,1.52-7.3c4.29-12.71,17.07-26,31-24.69C655.74,464.26,666.62,477.61,666.62,494Z" transform="translate(-51.48 -154.87)"/><path class="cls-28" d="M662.23,458.09c-9.29,3.78,26.87,19.25,12.93,15.9-5.56-1.34-54.64,16-57.74-4.52C615.2,454.73,671.51,454.31,662.23,458.09Z" transform="translate(-51.48 -154.87)"/><path class="cls-29" d="M552.45,625.76l-87.92-10.19a3.23,3.23,0,0,0-3.34,1.94l-2.07,4.77a3.24,3.24,0,0,0,2.18,4.42l71.49,18.17a2.91,2.91,0,0,0,.59.1c8,.66,17.12-3.42,19.22-8.63l2.48-6.15A3.24,3.24,0,0,0,552.45,625.76Z" transform="translate(-51.48 -154.87)"/><polygon class="cls-30" points="597.93 516.86 551.32 526.84 553.77 448.56 622.44 452.89 597.93 516.86"/><path class="cls-31" d="M564.88,983.55,582,986.1s25.71-113,19.36-152.63c-5.84-36.53,20.46-114.46,23.29-84,11.1,119.58,37.16,236.44,37.16,236.44l18.39-6.17s7.56-111.34-4.58-141.43c-19.55-48.46-14.23-85.77-10.72-104.52,0,0,20.46-38.44-12.51-63.26-4.41-3.32-39.67-3.62-50.33-3.62-10,0-34.13,159.14-33.46,159.87Z" transform="translate(-51.48 -154.87)"/><path class="cls-32" d="M587.11,990.18l-.94,4.52-4.6,29.7c-.47,2.28-50.94,2.68-55,.9-9.32-4,19.12-29.74,36.63-42.11,2.05-1.45,9.49,4.06,21.32-1.34C586.89,980.76,587.52,986.06,587.11,990.18Z" transform="translate(-51.48 -154.87)"/><path class="cls-32" d="M684.57,983.12l-.47,4.65L682.59,1018c-.23,2.34-50.27,12.94-54.5,12-9.67-2.11,15.91-33.21,32-49,1.88-1.84,9.84,2.08,21-5.63C683.38,973.88,684.55,979,684.57,983.12Z" transform="translate(-51.48 -154.87)"/><path class="cls-30" d="M684.13,576.48c-4,34.75-25.78,61.2-48.59,59.1s-38-32-34-66.73S688.17,541.74,684.13,576.48Z" transform="translate(-51.48 -154.87)"/><ellipse class="cls-29" cx="608.18" cy="345.47" rx="12.46" ry="12.09"/><path class="cls-26" d="M623.08,512.15c-.11,2.77,3.29,5.14,7.6,5.3s7.88-2,8-4.72C638.74,510.9,623.16,510.08,623.08,512.15Z" transform="translate(-51.48 -154.87)"/><rect class="cls-33" x="628.01" y="482.92" width="20.62" height="17.4" rx="4.35" transform="translate(1225.15 828.37) rotate(180)"/><rect class="cls-33" x="603.65" y="482.92" width="18.29" height="17.4" rx="4.35" transform="translate(1174.11 828.37) rotate(180)"/><rect class="cls-27" x="621.71" y="489.3" width="6.26" height="4.64" transform="translate(1198.2 828.37) rotate(180)"/><path class="cls-28" d="M626.62,475.17" transform="translate(-51.48 -154.87)"/><path class="cls-29" d="M686.65,707.25c.43,3.33,11.61,2.38,11.61,2.38s-20.33,12-17.52,15.15c1.25,1.41,15.58-7.42,15.58-7.42,0,.61-15.92,13.63-14.47,15.66,2.3,3.19,18.62-11.78,18.82-11.5,0,0-13.23,15-12,16.34,3.08,3.42,16.21-11.81,16.66-11.67,0,0-11.19,12.6-9.35,14.36,3.82,3.64,27.06-31.53,25.52-33.81l-5.12-6.47C702,702,686.35,704.88,686.65,707.25Z" transform="translate(-51.48 -154.87)"/><path class="cls-30" d="M691.78,610.5c-9.64,13-43.79-53.27-26.23-58.89,13.17-4.22,56.65,44.24,41.38,48.2C698.38,602,699.05,600.69,691.78,610.5Z" transform="translate(-51.48 -154.87)"/><path class="cls-30" d="M583.23,585.75c-14.2-3.17,29.71-40.55,38.71-36.53,12.39,5.53-16.46,59.81-23.65,47.33C594.57,590.11,593,587.94,583.23,585.75Z" transform="translate(-51.48 -154.87)"/><path class="cls-30" d="M636.59,606.32c-9.89,14.6-25.78,21.38-35.49,15.13s-9.57-23.16.32-37.76S646.48,591.71,636.59,606.32Z" transform="translate(-51.48 -154.87)"/><path class="cls-29" d="M726.94,631.72l-20.25,78.12L721.16,711l22.16-61.55c1.84-5.69-6.68-16.59-11.87-18.36Z" transform="translate(-51.48 -154.87)"/></g><g id="UTD"><path class="cls-26" d="M611.46,590.61c0-.77,0-2,.1-3.27,0-.61.09-1.21.17-1.81,0-.38.08-.4.46-.36s1,.14,1.53.21l1.09.18.07,0c.25.08.29.12.27.37,0,.92-.08,1.85-.16,2.77a40.77,40.77,0,0,0-.17,4.69c0,.63,0,1.26.09,1.89a4.68,4.68,0,0,0,1.22,2.9A2.4,2.4,0,0,0,618,599a2.33,2.33,0,0,0,1.27-.48,4.41,4.41,0,0,0,1.24-1.34,6.92,6.92,0,0,0,1-2.49q.18-1,.27-2a27.91,27.91,0,0,0,.11-3.17l0-4.61c0-.11,0-.15.14-.14l.88,0c.32,0,.64,0,1,0l1,.1h0c.22.05.22.06.24.28,0,.42.06.84.06,1.26,0,1.27,0,2.55,0,3.82,0,1,0,1.94,0,2.9A19.34,19.34,0,0,1,625,596a18.88,18.88,0,0,1-.52,2.46,8.07,8.07,0,0,1-1.5,2.91,4.78,4.78,0,0,1-3.76,1.8c-.49,0-1,0-1.47,0a5,5,0,0,1-2.07-.59,6.87,6.87,0,0,1-3.56-4.36,12.12,12.12,0,0,1-.51-2.8C611.5,594,611.48,592.53,611.46,590.61Z" transform="translate(-51.48 -154.87)"/><path class="cls-26" d="M640.6,593.48q-.11-3.74-.06-7.47c0-.53,0-1.06,0-1.6a.11.11,0,0,1,.1-.12l.34-.06a19.76,19.76,0,0,1,2.88.11,9.77,9.77,0,0,1,2.85.85,9.63,9.63,0,0,1,1.82,1,6.3,6.3,0,0,1,1.66,2,6.09,6.09,0,0,1,.83,2.95c0,.78,0,1.56,0,2.34a9.54,9.54,0,0,1-3.53,7.22,8.19,8.19,0,0,1-1.93,1.25,12.22,12.22,0,0,1-2.65.78,4.87,4.87,0,0,1-.66,0l-.89.05a1.29,1.29,0,0,1-.39,0,.26.26,0,0,1-.23-.3c0-1,0-2.08,0-3.12,0-1.54-.08-3.08-.12-4.62Zm3.19,5.73c.22-.1.43-.17.62-.28a5.29,5.29,0,0,0,1.62-1.54,9.15,9.15,0,0,0,1.57-4.6c0-.4,0-.81,0-1.21a3,3,0,0,0-1.06-2.6,3.86,3.86,0,0,0-2-.87c-.27,0-.54-.06-.84-.09C643.73,591.76,643.77,595.46,643.79,599.21Z" transform="translate(-51.48 -154.87)"/><path class="cls-26" d="M631.19,587.22c-.23,0-.46,0-.69,0-.91.06-1.82,0-2.73,0h-1.1c-.22,0-.26,0-.28-.27,0-.4-.06-.8-.07-1.2s0-1,0-1.57l0-.26c0-.16,0-.23.18-.26a1.27,1.27,0,0,1,.28,0l2.6,0,3.29-.09,3.07-.11,2.69-.09c.14,0,.28,0,.42,0a.1.1,0,0,1,.11.11,2.08,2.08,0,0,1,0,.23c0,.89,0,1.78,0,2.67a3.86,3.86,0,0,1-.06.49.15.15,0,0,1-.19.14,4.42,4.42,0,0,0-.63,0l-3.37,0h0c0,.24,0,.47,0,.7,0,.44,0,.88,0,1.31,0,.72.08,1.44.11,2.16s.06,1.42.08,2.13l.15,4.3c0,1.14.09,2.29.13,3.43,0,.38,0,.77.06,1.15a3.31,3.31,0,0,1-.06.54.22.22,0,0,1-.23.19,14,14,0,0,1-2,.06c-.25,0-.51,0-.77-.08l-.22-.06a.21.21,0,0,1-.13-.19c-.07-1.72-.15-3.44-.22-5.16-.06-1.56-.13-3.12-.17-4.67s-.06-3.11-.09-4.67C631.24,587.87,631.21,587.55,631.19,587.22Z" transform="translate(-51.48 -154.87)"/></g></svg>