<svg id="Lab" xmlns="http://www.w3.org/2000/svg" viewBox="0 0 1084.68 800"><defs><style>.cls-1{fill:#cdebfc;}.cls-2{fill:#009245;}.cls-3{fill:#e6e6e6;}.cls-4{fill:#603813;}.cls-5{fill:none;}.cls-6{fill:#f1ffff;}.cls-7{fill:#29abe2;}.cls-8{fill:#ccc;}.cls-9{fill:#c69c6d;}.cls-10{fill:#42210b;}.cls-11{fill:#e69c72;}.cls-12{fill:#ffbca2;}.cls-13{fill:#f9be91;}.cls-14{fill:#666;opacity:0.3;}.cls-15{fill:#fff;}.cls-16{fill:#22b573;}.cls-17{fill:#f2f2f2;}.cls-18{fill:#752506;}.cls-19{fill:#ffe205;}.cls-20{fill:#333;}.cls-21{fill:#0fbfbf;}.cls-22,.cls-26{fill:#21bf92;}.cls-23{fill:#703813;}.cls-24{fill:#b3b3b3;}.cls-25{fill:#f2c46d;}.cls-26{stroke:#22b573;stroke-miterlimit:10;}.cls-27{fill:#1b1245;}.cls-28{fill:#f9b491;}.cls-29{fill:#7499a2;}.cls-30{fill:#8c2f1b;}.cls-31{fill:#f28b66;}.cls-32{fill:#f24405;}.cls-33{fill:#f2eeb6;}.cls-34{fill:#1a1a1a;}.cls-35{fill:#4d4d4d;}.cls-36{fill:#999;}.cls-37{fill:#ffcf00;}.cls-38{fill:#f15a24;}.cls-39{fill:#ec7263;}.cls-40{fill:#ff6721;}</style></defs><title>Labs2</title><path class="cls-1" d="M1083.06,993.84H64.66C35,929.71,48.8,815,150.23,682.3c104-136-109.29-56.31-110-201.87-.76-155.58,113.3-155.72,140.18-157.57,214.71-14.72,240.12,193.41,374.33-13.38,20.78-32,48.5-61.76,84-78.65S716,215.75,755.29,220.67c90.76,11.38,187.74,43.69,233,119,27.51,45.75,41.21,103.86,22.35,153.39-106.43,279.36,68,256,106.13,361.34C1135.91,907.25,1119.94,954.54,1083.06,993.84Z" transform="translate(-40.23 -217.27)"/><g id="Walter_White" data-name="Walter White"><polygon class="cls-2" points="326.4 673.97 326.69 679.69 327.28 692.12 328.64 719.68 349.72 718.63 349.21 707.98 348.45 692.61 347.5 672.95 326.4 673.97"/><polygon class="cls-2" points="343.42 703.99 342.26 710.64 348.25 707.49 349.21 707.98 348.45 692.61 348.25 692.21 345.26 698.29 338.58 699.26 343.42 703.99"/><polygon class="cls-2" points="326.69 679.69 327.28 692.12 328.37 691.54 334.36 694.69 333.21 688.03 338.07 683.31 331.37 682.33 328.37 676.27 326.69 679.69"/><polygon class="cls-2" points="248.39 678.07 248.1 683.8 247.5 696.22 246.15 723.78 225.06 722.74 225.58 712.09 226.33 696.71 227.28 677.05 248.39 678.07"/><polygon class="cls-2" points="231.37 708.09 232.52 714.75 226.53 711.6 225.58 712.09 226.33 696.71 226.53 696.31 229.53 702.39 236.2 703.37 231.37 708.09"/><polygon class="cls-2" points="248.1 683.8 247.5 696.22 246.41 695.64 240.42 698.8 241.57 692.14 236.72 687.41 243.42 686.44 246.41 680.38 248.1 683.8"/><polygon class="cls-3" points="374.2 219.08 481.93 205.01 470.53 186.82 374.56 193.78 374.2 219.08"/><path class="cls-4" d="M441.8,957.53l-72.69-1.08c-3.1,0-5.65-3.3-6-7.67-.72-8.75-2.14-27.84,1.64-26.32,23.25,9.39,27.06-14.23,68.43,9.37,6.95,4,11.49,6.88,13.89,11.24C450.28,948.89,447.06,957.6,441.8,957.53Z" transform="translate(-40.23 -217.27)"/><path class="cls-4" d="M210.85,957.53l72.69-1.08c3.1,0,5.65-3.3,6-7.67.71-8.75,2.14-27.84-1.64-26.32-23.25,9.39-27.06-14.23-68.43,9.37-6.95,4-11.49,6.88-13.89,11.24C202.37,948.89,205.59,957.6,210.85,957.53Z" transform="translate(-40.23 -217.27)"/><path class="cls-5" d="M473.32,310.22a4.21,4.21,0,0,0-1.15,1" transform="translate(-40.23 -217.27)"/><path class="cls-6" d="M591.25,307.08a9.18,9.18,0,0,1-8.37,5.17h-34a9.34,9.34,0,0,1-7.47-15l10.87-14.42,4.34-5.75a13.07,13.07,0,0,0,2.61-7.81v-3.7a7.38,7.38,0,0,0-2.79-5.82,12,12,0,0,1-3.16-3.2,1.82,1.82,0,0,1,.54-1.17,1.8,1.8,0,0,1,1.29-.54h21.49a1.86,1.86,0,0,1,1.84,1.69,12.55,12.55,0,0,1-3.27,3.2,7.4,7.4,0,0,0-2.89,5.89V269a13,13,0,0,0,2.62,7.82c1.39,1.83,3.33,4.41,5.37,7.11l10,13.32A9.16,9.16,0,0,1,591.25,307.08Z" transform="translate(-40.23 -217.27)"/><path class="cls-7" d="M594.89,293.86s-10.81-14.34-15.43-20.44A7.37,7.37,0,0,1,578,269v-3.38a1.7,1.7,0,0,1,.66-1.37c3.76-2.87,5.51-5.26,5.51-7.56a7.54,7.54,0,0,0-7.53-7.53H555.15a7.55,7.55,0,0,0-7.52,7.53c0,2.27,1.7,4.66,5.32,7.52a1.72,1.72,0,0,1,.64,1.36v3.7a7.34,7.34,0,0,1-1.47,4.39c-4.57,6.05-15.2,20.17-15.2,20.17a15,15,0,0,0,12,24.07h34a15,15,0,0,0,12-24.07Zm-41-38.45a1.8,1.8,0,0,1,1.29-.54h21.49a1.83,1.83,0,0,1,1.06.34,1.45,1.45,0,0,1,.21,2.12,18.21,18.21,0,0,1-2.7,2.43,7.4,7.4,0,0,0-2.89,5.89V269a13,13,0,0,0,2.62,7.82c1.39,1.83,3.33,4.41,5.37,7.11l10,13.32a9.34,9.34,0,0,1-7.46,15h-34a9.34,9.34,0,0,1-7.47-15l10.87-14.42,4.34-5.75a13.07,13.07,0,0,0,2.61-7.81v-3.7a7.38,7.38,0,0,0-2.79-5.82,17.43,17.43,0,0,1-2.65-2.47,1.43,1.43,0,0,1,0-1.89Z" transform="translate(-40.23 -217.27)"/><rect class="cls-8" x="258.33" y="424.89" width="115.88" height="137.83"/><path class="cls-9" d="M406.43,676.81,390.43,906l-26.53,2.3S353.82,740.9,347.56,675.77c-.3,0-58.86,235.2-58.86,235.2l-22.92-4.3s21.5-184,28.29-233.74v0a329.87,329.87,0,0,1,4.13-41.49q.76-4.5,1.64-8.64a147.37,147.37,0,0,1,5.23-18.86l.2-.55c.76-2,1.54-3.93,2.36-5.71h93.62a55.32,55.32,0,0,1,2,5.55s0,.1.05.13a100.33,100.33,0,0,1,3.6,19.67c.28,2.84.48,5.81.61,8.85C408.21,645.64,407.59,661.17,406.43,676.81Z" transform="translate(-40.23 -217.27)"/><path class="cls-10" d="M401.25,597.66H366.6V583.58h19.89C393.19,585.13,398,590.18,401.25,597.66Z" transform="translate(-40.23 -217.27)"/><path class="cls-10" d="M346.39,583.58v14.08H307.63c3-6.63,6.41-11.4,10-14.08Z" transform="translate(-40.23 -217.27)"/><rect class="cls-8" x="306.17" y="366.31" width="20.21" height="14.09"/><g id="Neck"><path class="cls-11" d="M346.77,366.81a24.06,24.06,0,0,0,4,5.41,34.63,34.63,0,0,0,5,4,62.12,62.12,0,0,0,16.94,4.58v-1.31c-5.39-1.89-13.12-4.84-16.59-6.34-1.51-1-7.42-5.26-9.31-6.77Z" transform="translate(-40.23 -217.27)"/><path class="cls-12" d="M346.85,366.38c1.89,1.51,7.8,5.79,9.31,6.77,3.47,1.5,11.2,4.45,16.59,6.34l-.23-23.87,0-3.67a15.26,15.26,0,0,1-5.81,4,15.89,15.89,0,0,1-2.72.67,13,13,0,0,1-8.59-1.93,18.42,18.42,0,0,1-2.6-2,14.91,14.91,0,0,1-2.73-3.84l-.67,3.66Z" transform="translate(-40.23 -217.27)"/><path class="cls-13" d="M373,405.88c-2.16-.21-4.37-.37-6.6-.48a180.37,180.37,0,0,0-23.25,0c-1.12.06-2.24.13-3.36.22l6.5-36,.49-2.77a24,24,0,0,0,4,5.41,35.25,35.25,0,0,0,5,4,62.09,62.09,0,0,0,16.95,4.58l0,3.11Z" transform="translate(-40.23 -217.27)"/><path class="cls-14" d="M346.59,367.85c4.79,6.64,17.07,13.71,26.19,14.33l0-2.69c-5.39-1.89-13.12-4.84-16.59-6.34-1.51-1-7.42-5.26-9.31-6.77Z" transform="translate(-40.23 -217.27)"/></g><path class="cls-13" d="M337.15,331c-1.42,13.05,3.38,24.65,8.77,35.07,0,.07,5.27,4.27,9.88,7.54,11.46,8.13,21.57,8.26,22.16,8.26,2.26-.44,13.93-9.13,20.05-18.53,4.78-7.37,2.72-41.56,2.07-44.71-3.17-16-13.7-22.43-29.7-22.36C343,296.42,339.32,311.09,337.15,331Z" transform="translate(-40.23 -217.27)"/><path class="cls-13" d="M227.8,472.27l16.81,115.44-15,4.38-19.66-89.82c-1.6-8.35,7.79-26.51,13.26-30.15Z" transform="translate(-40.23 -217.27)"/><circle class="cls-13" cx="307.33" cy="126.11" r="17.68"/><path class="cls-15" d="M380.25,359.52c0,2.63-3.25,4.75-7.23,4.73s-7.19-2.18-7.18-4.82C365.85,357.7,380.26,357.54,380.25,359.52Z" transform="translate(-40.23 -217.27)"/><path class="cls-16" d="M424,425.16v0c-1.88,27.52,12,124.17-26.86,159.65-1,.92-78.41.57-85.62-.08-2.42-.25-14-132-15.86-159.57v0c-.13-1.9-.2-3.82-.2-5.76,0-9.54,17.13-15.59,38.9-18.15h0c3.38-.4,6.9-.71,10.47-.93,1.12-.08,2.24-.14,3.37-.19a214.67,214.67,0,0,1,23.25,0c2.22.09,4.43.23,6.6.41q3.69.3,7.24.71h0C407.05,403.81,424.11,423.26,424,425.16Z" transform="translate(-40.23 -217.27)"/><line class="cls-16" x1="289.09" y1="189.46" x2="289.1" y2="189.46"/><path class="cls-10" d="M373.21,605.28" transform="translate(-40.23 -217.27)"/><polygon class="cls-17" points="285.76 210.53 180.02 287.14 180.73 248.75 265.5 188.12 285.76 210.53"/><path class="cls-17" d="M228.6,469,245,578.31l-19,6.57-21-84c-1.67-7.84,10.43-30.92,17.42-35.3Z" transform="translate(-40.23 -217.27)"/><path class="cls-13" d="M514.93,423.81l21.21-100,14-.84-12.3,87.11c-1.23,7.44-14,16.54-19.32,16.39Z" transform="translate(-40.23 -217.27)"/><polygon class="cls-17" points="364.18 229.91 483.04 212.68 480.58 184.33 363.67 192.03 364.18 229.91"/><path class="cls-17" d="M512.05,425.88l19-95.2,18.38,5.52-7.31,77.9c-.94,7.1-15.88,17.1-23.24,16.61Z" transform="translate(-40.23 -217.27)"/><path class="cls-13" d="M263.73,608.89c-2.29,3.81-12.73-4.63-12.73-4.63s13.19,27.89,8.65,30c-2,.91-11.09-19.22-11.09-19.22-.35.74,7.93,27,5.36,28.58-4,2.42-11.63-26.52-12-26.31,0,0,4.54,27,2.57,27.82-4.95,2.19-9.25-25-9.76-25.13,0,0,3.88,22.72,1.08,23.68-5.79,2-8.79-56.23-6-58l8.67-4.6C251.65,592.42,265.36,606.19,263.73,608.89Z" transform="translate(-40.23 -217.27)"/><path class="cls-18" d="M385.75,350H360.61c-2.07,0-2.81,1.58-2.81,3.53,0,0,.39,19.07,5.83,21,5.7,2,13.18,2.66,19.1,0,5.17-2.34,5.82-21,5.82-21C388.55,351.57,387.82,350,385.75,350Zm-21,13.9v-6.5h16.91v6.5C381.64,368.28,364.73,368.28,364.73,363.89Z" transform="translate(-40.23 -217.27)"/><rect class="cls-18" x="370.68" y="364.29" width="4.73" height="5.98" rx="1.3" transform="translate(700.09 -223.04) rotate(90)"/><path class="cls-17" d="M330.63,799.84l-71.58-8.37L287.56,524c-2.16-76.8-30.59-119.89,53.3-127.21Z" transform="translate(-40.23 -217.27)"/><path class="cls-17" d="M382.71,799.82l71.59-8.31L426,524c8.5-90.75-1.15-124.2-53.21-127.26Z" transform="translate(-40.23 -217.27)"/><path class="cls-13" d="M503.62,100.67H549.5a.17.17,0,0,1,.17.17v.39a8.7,8.7,0,0,1-8.7,8.7H495.09a.17.17,0,0,1-.17-.17v-.39a8.7,8.7,0,0,1,8.7-8.7Z"/><g id="Potion_Goo-_Yellow" data-name="Potion Goo- Yellow"><path class="cls-19" d="M591.25,307.08a9.18,9.18,0,0,1-8.37,5.17h-34a9.34,9.34,0,0,1-7.47-15l10.87-14.42c2.68-1.23,4.09,2.57,7,3,3.73.54,6.18-5.56,10.21-2.11,5.9,5,7.52-1.39,10.75.22l10,13.32A9.16,9.16,0,0,1,591.25,307.08Z" transform="translate(-40.23 -217.27)"/><circle class="cls-6" cx="509.15" cy="85.5" r="2.51"/><circle class="cls-6" cx="539.53" cy="88.4" r="4.26"/><circle class="cls-6" cx="543.89" cy="80.23" r="1.74"/></g><g id="Glasses-_Black" data-name="Glasses- Black"><path class="cls-20" d="M361.44,344.77h-.7a12.51,12.51,0,0,1-12.49-12.49v-1.55a10,10,0,0,1,9.95-10h7.33a10,10,0,0,1,10,10A14.06,14.06,0,0,1,361.44,344.77Zm-3.24-22.24a8.2,8.2,0,0,0-8.19,8.2v1.55A10.75,10.75,0,0,0,360.74,343h.7a12.31,12.31,0,0,0,12.29-12.29,8.21,8.21,0,0,0-8.2-8.2Z" transform="translate(-40.23 -217.27)"/><path class="cls-20" d="M380.75,330.73a10,10,0,0,1,9.94-10H398a10,10,0,0,1,9.94,10v1.55a12.5,12.5,0,0,1-12.48,12.49h-.7A14.06,14.06,0,0,1,380.75,330.73Zm9.94-8.2a8.21,8.21,0,0,0-8.19,8.2A12.31,12.31,0,0,0,394.79,343h.7a10.75,10.75,0,0,0,10.73-10.74v-1.55a8.21,8.21,0,0,0-8.19-8.2Z" transform="translate(-40.23 -217.27)"/><rect class="cls-20" x="333.89" y="112.78" width="7.71" height="2.73"/><rect class="cls-20" x="336.45" y="325.79" width="13.08" height="3.3" transform="translate(-9.9 -246.35) rotate(5.08)"/></g></g><g id="Whit_Walterman" data-name="Whit Walterman"><polygon class="cls-3" points="374.2 219.08 481.93 205.01 470.53 186.82 374.56 193.78 374.2 219.08"/><path class="cls-5" d="M473.32,310.22a4.21,4.21,0,0,0-1.15,1" transform="translate(-40.23 -217.27)"/><path class="cls-6" d="M591.25,307.08a9.18,9.18,0,0,1-8.37,5.17h-34a9.34,9.34,0,0,1-7.47-15l10.87-14.42,4.34-5.75a13.07,13.07,0,0,0,2.61-7.81v-3.7a7.38,7.38,0,0,0-2.79-5.82,12,12,0,0,1-3.16-3.2,1.82,1.82,0,0,1,.54-1.17,1.8,1.8,0,0,1,1.29-.54h21.49a1.86,1.86,0,0,1,1.84,1.69,12.55,12.55,0,0,1-3.27,3.2,7.4,7.4,0,0,0-2.89,5.89V269a13,13,0,0,0,2.62,7.82c1.39,1.83,3.33,4.41,5.37,7.11l10,13.32A9.16,9.16,0,0,1,591.25,307.08Z" transform="translate(-40.23 -217.27)"/><path class="cls-21" d="M594.89,293.86s-10.81-14.34-15.43-20.44A7.37,7.37,0,0,1,578,269v-3.38a1.7,1.7,0,0,1,.66-1.37c3.76-2.87,5.51-5.26,5.51-7.56a7.54,7.54,0,0,0-7.53-7.53H555.15a7.55,7.55,0,0,0-7.52,7.53c0,2.27,1.7,4.66,5.32,7.52a1.72,1.72,0,0,1,.64,1.36v3.7a7.34,7.34,0,0,1-1.47,4.39c-4.57,6.05-15.2,20.17-15.2,20.17a15,15,0,0,0,12,24.07h34a15,15,0,0,0,12-24.07Zm-41-38.45a1.8,1.8,0,0,1,1.29-.54h21.49a1.83,1.83,0,0,1,1.06.34,1.45,1.45,0,0,1,.21,2.12,18.21,18.21,0,0,1-2.7,2.43,7.4,7.4,0,0,0-2.89,5.89V269a13,13,0,0,0,2.62,7.82c1.39,1.83,3.33,4.41,5.37,7.11l10,13.32a9.34,9.34,0,0,1-7.46,15h-34a9.34,9.34,0,0,1-7.47-15l10.87-14.42,4.34-5.75a13.07,13.07,0,0,0,2.61-7.81v-3.7a7.38,7.38,0,0,0-2.79-5.82,17.43,17.43,0,0,1-2.65-2.47,1.43,1.43,0,0,1,0-1.89Z" transform="translate(-40.23 -217.27)"/><rect class="cls-8" x="258.33" y="424.89" width="115.88" height="137.83"/><g id="Bottom"><g id="Socks"><polygon class="cls-2" points="326.4 673.97 326.69 679.69 327.28 692.12 328.64 719.68 349.72 718.63 349.21 707.98 348.45 692.61 347.5 672.95 326.4 673.97"/><polygon class="cls-2" points="343.42 703.99 342.26 710.64 348.25 707.49 349.21 707.98 348.45 692.61 348.25 692.21 345.26 698.29 338.58 699.26 343.42 703.99"/><polygon class="cls-2" points="326.69 679.69 327.28 692.12 328.37 691.54 334.36 694.69 333.21 688.03 338.07 683.31 331.37 682.33 328.37 676.27 326.69 679.69"/><polygon class="cls-2" points="248.39 678.07 248.1 683.8 247.5 696.22 246.15 723.78 225.06 722.74 225.58 712.09 226.33 696.71 227.28 677.05 248.39 678.07"/><polygon class="cls-2" points="231.37 708.09 232.52 714.75 226.53 711.6 225.58 712.09 226.33 696.71 226.53 696.31 229.53 702.39 236.2 703.37 231.37 708.09"/><polygon class="cls-2" points="248.1 683.8 247.5 696.22 246.41 695.64 240.42 698.8 241.57 692.14 236.72 687.41 243.42 686.44 246.41 680.38 248.1 683.8"/></g><path class="cls-4" d="M441.8,957.53l-72.69-1.08c-3.1,0-5.65-3.3-6-7.67-.72-8.75-2.14-27.84,1.64-26.32,23.25,9.39,27.06-14.23,68.43,9.37,6.95,4,11.49,6.88,13.89,11.24C450.28,948.89,447.06,957.6,441.8,957.53Z" transform="translate(-40.23 -217.27)"/><path class="cls-4" d="M210.85,957.53l72.69-1.08c3.1,0,5.65-3.3,6-7.67.71-8.75,2.14-27.84-1.64-26.32-23.25,9.39-27.06-14.23-68.43,9.37-6.95,4-11.49,6.88-13.89,11.24C202.37,948.89,205.59,957.6,210.85,957.53Z" transform="translate(-40.23 -217.27)"/><path class="cls-9" d="M406.43,676.81,390.43,906l-26.53,2.3S353.82,740.9,347.56,675.77c-.3,0-58.86,235.2-58.86,235.2l-22.92-4.3s21.5-184,28.29-233.74v0a329.87,329.87,0,0,1,4.13-41.49q.76-4.5,1.64-8.64a147.37,147.37,0,0,1,5.23-18.86l.2-.55c.76-2,1.54-3.93,2.36-5.71h93.62a55.32,55.32,0,0,1,2,5.55s0,.1.05.13a100.33,100.33,0,0,1,3.6,19.67c.28,2.84.48,5.81.61,8.85C408.21,645.64,407.59,661.17,406.43,676.81Z" transform="translate(-40.23 -217.27)"/><path class="cls-10" d="M401.25,597.66H366.6V583.58h19.89C393.19,585.13,398,590.18,401.25,597.66Z" transform="translate(-40.23 -217.27)"/><path class="cls-10" d="M346.39,583.58v14.08H307.63c3-6.63,6.41-11.4,10-14.08Z" transform="translate(-40.23 -217.27)"/><rect class="cls-8" x="306.17" y="366.31" width="20.21" height="14.09"/></g><path class="cls-22" d="M424,425.16v0c-1.88,27.52,12,124.17-26.86,159.65-1,.92-78.41.57-85.62-.08-2.42-.25-14-132-15.86-159.57v0c-.13-1.9-.2-3.82-.2-5.76,0-9.54,17.13-15.59,38.9-18.15h0c3.38-.4,6.9-.71,10.47-.93,1.12-.08,2.24-.14,3.37-.19a214.67,214.67,0,0,1,23.25,0c2.22.09,4.43.23,6.6.41q3.69.3,7.24.71h0C407.05,403.81,424.11,423.26,424,425.16Z" transform="translate(-40.23 -217.27)"/><g id="Skin"><g id="Neck-2" data-name="Neck"><path class="cls-23" d="M346.77,366.81a24.06,24.06,0,0,0,4,5.41,34.63,34.63,0,0,0,5,4,62.12,62.12,0,0,0,16.94,4.58v-1.31c-5.39-1.89-13.12-4.84-16.59-6.34-1.51-1-7.42-5.26-9.31-6.77Z" transform="translate(-40.23 -217.27)"/><path class="cls-23" d="M346.85,366.38c1.89,1.51,7.8,5.79,9.31,6.77,3.47,1.5,11.2,4.45,16.59,6.34l-.23-23.87,0-3.67a15.26,15.26,0,0,1-5.81,4,15.89,15.89,0,0,1-2.72.67,13,13,0,0,1-8.59-1.93,18.42,18.42,0,0,1-2.6-2,14.91,14.91,0,0,1-2.73-3.84l-.67,3.66Z" transform="translate(-40.23 -217.27)"/><path class="cls-23" d="M373,405.88c-2.16-.21-4.37-.37-6.6-.48a180.37,180.37,0,0,0-23.25,0c-1.12.06-2.24.13-3.36.22l6.5-36,.49-2.77a24,24,0,0,0,4,5.41,35.25,35.25,0,0,0,5,4,62.09,62.09,0,0,0,16.95,4.58l0,3.11Z" transform="translate(-40.23 -217.27)"/><path class="cls-14" d="M346.59,367.85c4.79,6.64,17.07,13.71,26.19,14.33l0-2.69c-5.39-1.89-13.12-4.84-16.59-6.34-1.51-1-7.42-5.26-9.31-6.77Z" transform="translate(-40.23 -217.27)"/></g><path class="cls-23" d="M337.15,331c-1.42,13.05,3.38,24.65,8.77,35.07,0,.07,5.27,4.27,9.88,7.54,11.46,8.13,21.57,8.26,22.16,8.26,2.26-.44,13.93-9.13,20.05-18.53,4.78-7.37,2.72-41.56,2.07-44.71-3.17-16-13.7-22.43-29.7-22.36C343,296.42,339.32,311.09,337.15,331Z" transform="translate(-40.23 -217.27)"/><path class="cls-23" d="M227.8,472.27l16.81,115.44-15,4.38-19.66-89.82c-1.6-8.35,7.79-26.51,13.26-30.15Z" transform="translate(-40.23 -217.27)"/><circle class="cls-23" cx="307.33" cy="126.11" r="17.68"/><path class="cls-23" d="M514.93,423.81l21.21-100,14-.84-12.3,87.11c-1.23,7.44-14,16.54-19.32,16.39Z" transform="translate(-40.23 -217.27)"/><path class="cls-23" d="M263.73,608.89c-2.29,3.81-12.73-4.63-12.73-4.63s13.19,27.89,8.65,30c-2,.91-11.09-19.22-11.09-19.22-.35.74,7.93,27,5.36,28.58-4,2.42-11.63-26.52-12-26.31,0,0,4.54,27,2.57,27.82-4.95,2.19-9.25-25-9.76-25.13,0,0,3.88,22.72,1.08,23.68-5.79,2-8.79-56.23-6-58l8.67-4.6C251.65,592.42,265.36,606.19,263.73,608.89Z" transform="translate(-40.23 -217.27)"/><path class="cls-23" d="M503.62,100.67H549.5a.17.17,0,0,1,.17.17v.39a8.7,8.7,0,0,1-8.7,8.7H495.09a.17.17,0,0,1-.17-.17v-.39a8.7,8.7,0,0,1,8.7-8.7Z"/></g><path id="Smile" class="cls-15" d="M379.11,361.36c0,2.58-2.74,4.65-6.08,4.63s-6-2.12-6-4.7C367,359.6,379.12,359.43,379.11,361.36Z" transform="translate(-40.23 -217.27)"/><g id="Beard"><path class="cls-24" d="M390.21,347.24H356.15c-2.81,0-3.81,2.15-3.81,4.8,0,0,.53,25.92,7.9,28.53,7.72,2.72,17.86,3.62,25.88,0C393.13,377.4,394,352,394,352,394,349.39,393,347.24,390.21,347.24Zm-28.49,18.89v-8.84h22.93v8.84C384.65,372.1,361.72,372.1,361.72,366.13Z" transform="translate(-40.23 -217.27)"/></g><g id="Lab_Coat" data-name="Lab Coat"><line class="cls-16" x1="289.09" y1="189.46" x2="289.1" y2="189.46"/><path class="cls-10" d="M373.21,605.28" transform="translate(-40.23 -217.27)"/><polygon class="cls-17" points="285.76 210.53 180.02 287.14 180.73 248.75 265.5 188.12 285.76 210.53"/><path class="cls-17" d="M228.6,469,245,578.31l-19,6.57-21-84c-1.67-7.84,10.43-30.92,17.42-35.3Z" transform="translate(-40.23 -217.27)"/><polygon class="cls-17" points="364.18 229.91 483.04 212.68 480.58 184.33 363.67 192.03 364.18 229.91"/><path class="cls-17" d="M512.05,425.88l19-95.2,18.38,5.52-7.31,77.9c-.94,7.1-15.88,17.1-23.24,16.61Z" transform="translate(-40.23 -217.27)"/><path class="cls-17" d="M330.63,799.84l-71.58-8.37L287.56,524c-2.16-76.8-30.59-119.89,53.3-127.21Z" transform="translate(-40.23 -217.27)"/><path class="cls-17" d="M382.71,799.82l71.59-8.31L426,524c8.5-90.75-1.15-124.2-53.21-127.26Z" transform="translate(-40.23 -217.27)"/></g><g id="Potion_Goo-_Yellow-2" data-name="Potion Goo- Yellow"><path class="cls-25" d="M591.25,307.08a9.18,9.18,0,0,1-8.37,5.17h-34a9.34,9.34,0,0,1-7.47-15l10.87-14.42c2.68-1.23,4.09,2.57,7,3,3.73.54,6.18-5.56,10.21-2.11,5.9,5,7.52-1.39,10.75.22l10,13.32A9.16,9.16,0,0,1,591.25,307.08Z" transform="translate(-40.23 -217.27)"/><circle class="cls-6" cx="509.15" cy="85.5" r="2.51"/><circle class="cls-6" cx="539.53" cy="88.4" r="4.26"/><circle class="cls-6" cx="543.89" cy="80.23" r="1.74"/></g><g id="Glasses-_Black-2" data-name="Glasses- Black"><path class="cls-26" d="M361.44,344.77h-.7a12.51,12.51,0,0,1-12.49-12.49v-1.55a10,10,0,0,1,9.95-10h7.33a10,10,0,0,1,10,10A14.06,14.06,0,0,1,361.44,344.77Zm-3.24-22.24a8.2,8.2,0,0,0-8.19,8.2v1.55A10.75,10.75,0,0,0,360.74,343h.7a12.31,12.31,0,0,0,12.29-12.29,8.21,8.21,0,0,0-8.2-8.2Z" transform="translate(-40.23 -217.27)"/><path class="cls-26" d="M380.75,330.73a10,10,0,0,1,9.94-10H398a10,10,0,0,1,9.94,10v1.55a12.5,12.5,0,0,1-12.48,12.49h-.7A14.06,14.06,0,0,1,380.75,330.73Zm9.94-8.2a8.21,8.21,0,0,0-8.19,8.2A12.31,12.31,0,0,0,394.79,343h.7a10.75,10.75,0,0,0,10.73-10.74v-1.55a8.21,8.21,0,0,0-8.19-8.2Z" transform="translate(-40.23 -217.27)"/><rect class="cls-26" x="333.89" y="112.78" width="7.71" height="2.73"/><rect class="cls-26" x="336.45" y="325.79" width="13.08" height="3.3" transform="translate(-9.9 -246.35) rotate(5.08)"/></g></g><g id="Jimmy_Green" data-name="Jimmy Green"><g id="Jesse_Pinkman" data-name="Jesse Pinkman"><rect class="cls-8" x="762.25" y="654.76" width="108.67" height="134.4" transform="translate(1592.94 1226.64) rotate(-180)"/><polygon class="cls-8" points="766.86 680.35 766.59 685.93 766.03 698.05 764.76 724.92 744.99 723.91 745.47 713.52 746.18 698.53 747.07 679.36 766.86 680.35"/><polygon class="cls-8" points="750.9 709.63 751.98 716.12 746.36 713.04 745.47 713.52 746.18 698.53 746.36 698.14 749.17 704.07 755.44 705.02 750.9 709.63"/><polygon class="cls-8" points="766.59 685.93 766.03 698.05 765.01 697.49 759.39 700.56 760.47 694.07 755.92 689.46 762.2 688.51 765.01 682.6 766.59 685.93"/><polygon class="cls-8" points="840.02 684.36 840.29 689.94 840.85 702.05 842.12 728.93 861.89 727.91 861.41 717.52 860.7 702.53 859.81 683.36 840.02 684.36"/><polygon class="cls-8" points="855.98 713.63 854.9 720.12 860.52 717.05 861.41 717.52 860.7 702.53 860.52 702.14 857.71 708.07 851.44 709.02 855.98 713.63"/><polygon class="cls-8" points="840.29 689.94 840.85 702.05 841.87 701.49 847.49 704.56 846.41 698.07 850.97 693.47 844.68 692.51 841.87 686.61 840.29 689.94"/><path class="cls-27" d="M769.77,679.6l15,232.26,24.89,2.33S819.11,744.54,825,678.55c.29,0,55.2,238.32,55.2,238.32l21.5-4.37s-20.16-186.42-26.53-236.83v0a359.17,359.17,0,0,0-3.87-42c-.48-3-1-6-1.54-8.74a158.64,158.64,0,0,0-4.91-19.11c-.06-.21-.12-.39-.18-.56-.71-2.07-1.44-4-2.22-5.79H774.63a56.2,56.2,0,0,0-1.91,5.63s0,.09,0,.13a108.42,108.42,0,0,0-3.38,19.93c-.26,2.87-.45,5.89-.57,9A412.48,412.48,0,0,0,769.77,679.6Z" transform="translate(-40.23 -217.27)"/><path class="cls-11" d="M825.71,386.27a23.18,23.18,0,0,1-3.76,5.28,33.24,33.24,0,0,1-4.72,3.9,56.84,56.84,0,0,1-15.89,4.47v-1.28c5.06-1.84,12.31-4.73,15.57-6.19,1.41-.95,7-5.12,8.72-6.59Z" transform="translate(-40.23 -217.27)"/><path class="cls-12" d="M825.64,385.86c-1.77,1.47-7.31,5.64-8.72,6.59-3.26,1.46-10.51,4.35-15.57,6.19l.22-23.27,0-3.58a14.26,14.26,0,0,0,5.45,3.86,14.05,14.05,0,0,0,2.55.66,11.78,11.78,0,0,0,8-1.89,18.71,18.71,0,0,0,2.45-2,15,15,0,0,0,2.55-3.75l.63,3.57Z" transform="translate(-40.23 -217.27)"/><path class="cls-28" d="M801.12,424.37c2-.2,4.1-.36,6.19-.47a165.19,165.19,0,0,1,21.8,0c1.06.06,2.11.13,3.15.22L826.17,389l-.46-2.7a23.48,23.48,0,0,1-3.75,5.28,33.88,33.88,0,0,1-4.73,3.9,56.49,56.49,0,0,1-15.89,4.46l0,3Z" transform="translate(-40.23 -217.27)"/><path class="cls-14" d="M825.89,387.29c-4.5,6.47-16,13.37-24.56,14l0-2.62c5.06-1.84,12.31-4.73,15.57-6.19,1.41-.95,7-5.12,8.72-6.59Z" transform="translate(-40.23 -217.27)"/><path class="cls-28" d="M834.57,352.56c1.08,10.27-2,19.6-6,28.12a21.79,21.79,0,0,1-6.45,7.93c-1.59,1.22-3.44,2.6-5.18,3.84a47.8,47.8,0,0,1-6.33,3.79,22.18,22.18,0,0,1-25.06-3.74,53.84,53.84,0,0,1-8.14-9.45c-4.45-6.86-2.37-38.81-1.75-41.76,3-15,12.94-21,27.94-21C829.26,320.27,832.62,334,834.57,352.56Z" transform="translate(-40.23 -217.27)"/><ellipse class="cls-28" cx="784.74" cy="146.16" rx="16.58" ry="17.24"/><path class="cls-15" d="M789.45,379.73c0,3.31,3.93,6,8.75,5.95s8.7-2.74,8.68-6.05C806.87,377.44,789.43,377.24,789.45,379.73Z" transform="translate(-40.23 -217.27)"/><path class="cls-29" d="M753.32,443.17v0c1.76,26.83-11.23,121.07,25.19,155.67,1,.9,73.53.56,80.3-.09,2.26-.23,13.1-128.75,14.87-155.58v0c.12-1.86.18-3.73.18-5.62,0-9.3-16.06-15.2-36.48-17.7h0c-3.17-.4-6.46-.7-9.82-.91-1-.08-2.09-.14-3.15-.19a193.52,193.52,0,0,0-21.81,0c-2.08.09-4.15.23-6.18.4-2.31.19-4.58.43-6.8.7h0C769.19,422.35,753.19,441.31,753.32,443.17Z" transform="translate(-40.23 -217.27)"/><line class="cls-16" x1="801.85" y1="207.93" x2="801.84" y2="207.93"/><path class="cls-10" d="M800.92,618.8" transform="translate(-40.23 -217.27)"/><polygon class="cls-17" points="804.97 228.48 904.13 303.18 903.47 265.74 823.97 206.62 804.97 228.48"/><polygon class="cls-3" points="740.12 235.92 638.45 243.65 645.2 224.07 734.63 211.86 740.12 235.92"/><path class="cls-28" d="M685.63,461l-39.85-91.18-13,2,29.05,80.64c2.65,6.85,16.18,13,21.06,11.84Z" transform="translate(-40.23 -217.27)"/><polygon class="cls-17" points="751.52 244.28 639 251.18 635.47 223.67 744.26 208.06 751.52 244.28"/><path class="cls-17" d="M688.7,462.36l-36.81-87-15.73,8.87L658.77,457c2.31,6.6,18.05,13.19,24.69,11.28Z" transform="translate(-40.23 -217.27)"/><path class="cls-30" d="M736.6,962.26l68.17-1c2.9,0,5.29-3.22,5.63-7.48.67-8.53,2-27.14-1.54-25.66-21.8,9.16-25.38-13.87-64.18,9.13-6.52,3.87-10.77,6.71-13,11C728.65,953.84,731.67,962.33,736.6,962.26Z" transform="translate(-40.23 -217.27)"/><path class="cls-30" d="M953.18,962.26l-68.16-1c-2.91,0-5.3-3.22-5.63-7.48-.67-8.53-2-27.14,1.53-25.66,21.81,9.16,25.39-13.87,64.18,9.13,6.52,3.87,10.78,6.71,13,11C961.14,953.84,958.12,962.33,953.18,962.26Z" transform="translate(-40.23 -217.27)"/><path class="cls-17" d="M840.85,808.51,908,800.35,881.24,539.53c2-74.89,28.69-116.9-50-124Z" transform="translate(-40.23 -217.27)"/><path class="cls-17" d="M792,808.48l-67.14-8.1,26.5-260.83c-8-88.49,1.08-121.11,49.89-124.1Z" transform="translate(-40.23 -217.27)"/><path class="cls-28" d="M937.8,487.54l-54.63,99.68,11.67,9,48.28-75.36c4.29-7.08,2.33-26.76-1.2-31.9Z" transform="translate(-40.23 -217.27)"/><path class="cls-17" d="M938.52,485.35l-52.75,93.72,13.68,11.75,47.64-69.48c4.2-6.58,2.21-31.12-2.13-37.22Z" transform="translate(-40.23 -217.27)"/><path class="cls-28" d="M859.08,600.18c.7,4.23,12.76,0,12.76,0s-21.2,21.05-17.93,24.43c1.45,1.5,16.37-13.84,16.37-13.84.05.8-16.31,22-14.58,24.29,2.71,3.55,19.36-20.32,19.6-20,0,0-13.3,23.07-11.87,24.51,3.58,3.65,16.75-19.72,17.24-19.66,0,0-11.25,19.43-9.13,21.23,4.4,3.73,27.14-48.35,25.3-50.91l-6-7.07C875.37,589.17,858.58,597.17,859.08,600.18Z" transform="translate(-40.23 -217.27)"/></g><g id="Bubbling_Orange_Vial" data-name="Bubbling Orange Vial"><path class="cls-6" d="M628.89,328.46H629a2.35,2.35,0,0,0,2.17-2.5l-.37-5.22a2.34,2.34,0,0,0-2.5-2.18l-18.44,1.3a2.34,2.34,0,0,0-2.17,2.49l.37,5.23a2.34,2.34,0,0,0,2.34,2.18h.16a2.35,2.35,0,0,1,2.5,2.21l.46,8.49.71,13,1.11,20.21,1.24,22.73a6.84,6.84,0,1,0,13.65-.75L629,373.28l-1.1-20.21-.68-12.32-.54-9.83A2.34,2.34,0,0,1,628.89,328.46Zm-1,67.26a4.46,4.46,0,0,1-4.21,4.7,4.3,4.3,0,0,1-3.23-1.14,4.36,4.36,0,0,1-1.47-3.07l-1.24-22.66,8.93-.22Zm-11.26-42.37-.77-14,1.34-.63a1,1,0,0,1,.4-.12,1.06,1.06,0,0,1,.56.21q2.63,2,5.27,3.93a7.54,7.54,0,0,0,1.21-1.69l.27,0,.65,12.1Z" transform="translate(-40.23 -217.27)"/><path class="cls-21" d="M631.4,373.21,630.28,353l-.69-12.65-.53-9.55h.15a4.72,4.72,0,0,0,4.36-5l-.36-5.22a4.72,4.72,0,0,0-5-4.36l-18.44,1.28a4.72,4.72,0,0,0-4.37,5l.36,5.23a4.78,4.78,0,0,0,1.61,3.22,4.5,4.5,0,0,0,3.39,1.11l1.18,21.39,1.1,20.21,1.25,22.79a9.15,9.15,0,0,0,9.17,8.7H624a9.2,9.2,0,0,0,8.68-9.69Zm-3.5,22.51a4.46,4.46,0,0,1-4.21,4.7,4.3,4.3,0,0,1-3.23-1.14,4.36,4.36,0,0,1-1.47-3.07l-1.24-22.66-1.11-20.2-.77-14-.41-7.54a4.71,4.71,0,0,0-1.58-3.28,4.57,4.57,0,0,0-3-1.15l-.41,0-.39-5.2,18.42-1.32.39,5.19h-.15a4.72,4.72,0,0,0-4.36,5l.55,10,.65,12.1,1.11,20.2Z" transform="translate(-40.23 -217.27)"/><path class="cls-31" d="M627.9,395.72a4.46,4.46,0,0,1-4.21,4.7,4.3,4.3,0,0,1-3.23-1.14,4.36,4.36,0,0,1-1.47-3.07l-1.24-22.66,8.93-.22Z" transform="translate(-40.23 -217.27)"/><path class="cls-31" d="M625.57,353.13l-8.93.22-.77-14,1.34-.63a1,1,0,0,1,.4-.12,1.06,1.06,0,0,1,.56.21q2.63,2,5.27,3.93a7.54,7.54,0,0,0,1.21-1.69l.27,0Z" transform="translate(-40.23 -217.27)"/><ellipse class="cls-6" cx="619.47" cy="346.85" rx="2.36" ry="2.45" transform="translate(-99.11 -79.94) rotate(-12.08)"/><ellipse class="cls-6" cx="624.24" cy="391.95" rx="2.36" ry="2.45" transform="translate(-108.44 -77.94) rotate(-12.08)"/><g id="Bubbles-_Orange" data-name="Bubbles- Orange"><ellipse class="cls-31" cx="609.87" cy="309.6" rx="3.95" ry="4.11" transform="translate(-91.52 -82.78) rotate(-12.08)"/><ellipse class="cls-31" cx="621.69" cy="299.41" rx="3.95" ry="4.11" transform="translate(-89.13 -80.53) rotate(-12.08)"/><ellipse class="cls-31" cx="607.25" cy="294.32" rx="5.18" ry="5.39" transform="translate(-88.38 -83.66) rotate(-12.08)"/></g></g><path class="cls-28" d="M645.63,369.8c-.63,1.91-1.55,3.1-2.59,3.13l-9.75.23-1.89,0-2.36.07-2.36.05-8.93.22-2.37.06-2.37.06-4.39.11h0c-2,0-3.68-4.38-3.82-9.83-.13-5.69,1.43-10.35,3.49-10.39l3.65-.1,4.73-.11,8.93-.22,2.37-.06,2.34-.06,12.41-.31h0c2,0,3.68,4.39,3.81,9.83A22,22,0,0,1,645.63,369.8Z" transform="translate(-40.23 -217.27)"/><g id="Mask-_Ventilation" data-name="Mask- Ventilation"><path d="M767.75,368.92h0a2.11,2.11,0,0,1-1.65-2.69l5-16.35a2,2,0,0,1,2.24-1.4h0a2.11,2.11,0,0,1,1.65,2.69l-5,16.35A2,2,0,0,1,767.75,368.92Z" transform="translate(-40.23 -217.27)"/><path d="M830.77,376h0a2,2,0,0,0,2-2.48l-1.92-18.23a2.06,2.06,0,0,0-1.92-1.58h0a2,2,0,0,0-2,2.48l1.92,18.23A2,2,0,0,0,830.77,376Z" transform="translate(-40.23 -217.27)"/><path class="cls-5" d="M784.72,338.17a4.85,4.85,0,0,0-1.16-1.29" transform="translate(-40.23 -217.27)"/><path d="M829.64,346.07c-1.22,15.68-11.73-11.62-27.18-13.09s-30,23.46-28.8,7.77A27.73,27.73,0,0,1,803.85,315,28.91,28.91,0,0,1,829.64,346.07Z" transform="translate(-40.23 -217.27)"/><path class="cls-20" d="M831.19,352.92c-1.21,15.69-12.65-11.7-29.25-13.28s-32.08,23.26-30.87,7.57,15.66-27.13,32.26-25.55S832.41,337.23,831.19,352.92Z" transform="translate(-40.23 -217.27)"/><path class="cls-32" d="M821.77,326.35l6.93,19.24c1,2.86,3.52,4.75,5.55,4.22l2.56-.68c4.52-1.18,6.32-7.31,4-13.67l-2.37-6.56c-2.29-6.37-7.81-10.57-12.32-9.38l-2.57.67C821.55,320.73,820.74,323.48,821.77,326.35Z" transform="translate(-40.23 -217.27)"/><path class="cls-33" d="M821.77,326.35l6.93,19.24c1,2.86,3.52,4.75,5.55,4.22h0l-10.67-29.62h0C821.55,320.73,820.74,323.48,821.77,326.35Z" transform="translate(-40.23 -217.27)"/><path class="cls-32" d="M785.35,322.89l-9.79,17.65c-1.45,2.63-4.19,4-6.11,3.12L767,342.51c-4.26-2-5.09-8.39-1.86-14.24l3.34-6c3.24-5.84,9.32-8.94,13.59-6.92l2.42,1.15C786.43,317.39,786.81,320.26,785.35,322.89Z" transform="translate(-40.23 -217.27)"/><path class="cls-33" d="M785.35,322.89l-9.79,17.65c-1.45,2.63-4.19,4-6.11,3.12h0l15.06-27.18h0C786.43,317.39,786.81,320.26,785.35,322.89Z" transform="translate(-40.23 -217.27)"/><path class="cls-20" d="M813.54,333.7l-22.28-2.11c-1.29-.13-2.28-1-2.21-1.89h0c.31-4,5.09-6.75,10.67-6.22l6.74.64c5.58.53,9.85,4.17,9.55,8.14h0C815.94,333.18,814.83,333.82,813.54,333.7Z" transform="translate(-40.23 -217.27)"/><path d="M797.41,329.94l-.66-.06a.94.94,0,0,1-.8-1l.41-5.21a.89.89,0,0,1,.94-.87l.66.06a.93.93,0,0,1,.8,1l-.4,5.21A.9.9,0,0,1,797.41,329.94Z" transform="translate(-40.23 -217.27)"/><path d="M801.37,329.79l-.66-.06a1,1,0,0,1-.8-1.05l.4-5.2a.91.91,0,0,1,1-.88l.66.06a1,1,0,0,1,.8,1l-.4,5.2A.91.91,0,0,1,801.37,329.79Z" transform="translate(-40.23 -217.27)"/><path d="M805.29,330.16l-.66-.06a1,1,0,0,1-.8-1.05l.4-5.2a.91.91,0,0,1,.95-.88l.66.06a1,1,0,0,1,.8,1.05l-.41,5.2A.9.9,0,0,1,805.29,330.16Z" transform="translate(-40.23 -217.27)"/><path d="M809.16,331.06l-.66-.06a1,1,0,0,1-.8-1.05l.41-5.2a.9.9,0,0,1,.94-.88l.66.06a1,1,0,0,1,.8,1.05l-.4,5.2A.9.9,0,0,1,809.16,331.06Z" transform="translate(-40.23 -217.27)"/></g></g><g id="Table-_Chemistry" data-name="Table- Chemistry"><g id="Table-_Steel" data-name="Table- Steel"><polygon class="cls-8" points="817.63 503.13 817.63 787.77 776.33 787.77 776.33 497.15 817.63 503.13"/><rect class="cls-34" x="770.9" y="786.02" width="53.35" height="12.29"/><rect class="cls-8" x="177.66" y="845.08" width="281.98" height="41.31" transform="translate(1144.16 329.82) rotate(90)"/><rect class="cls-34" x="252.33" y="787.71" width="53.35" height="12.29"/><rect class="cls-35" x="219.17" y="477.85" width="640.72" height="31.36"/></g><g id="Potion_on_Burner" data-name="Potion on Burner"><g id="Potion-_Purple" data-name="Potion- Purple"><path class="cls-6" d="M514,630.64a10.47,10.47,0,0,1-9.55,5.9H465.77a10.66,10.66,0,0,1-8.51-17.08L469.65,603c1.89-2.5,3.64-4.81,4.94-6.55a14.89,14.89,0,0,0,3-8.9v-4.23a8.36,8.36,0,0,0-3.18-6.62,13.59,13.59,0,0,1-3.6-3.66,2.13,2.13,0,0,1,2.09-1.95h24.5a2.11,2.11,0,0,1,2.09,1.93,13.88,13.88,0,0,1-3.72,3.64,8.5,8.5,0,0,0-3.3,6.72v3.85a14.8,14.8,0,0,0,3,8.92c1.58,2.09,3.8,5,6.12,8.12L513,619.46A10.48,10.48,0,0,1,514,630.64Z" transform="translate(-40.23 -217.27)"/><path class="cls-21" d="M518.18,615.57s-12.32-16.35-17.58-23.31a8.37,8.37,0,0,1-1.68-5V583.4a1.94,1.94,0,0,1,.76-1.56c4.28-3.27,6.28-6,6.28-8.62a8.59,8.59,0,0,0-8.58-8.58h-24.5a8.59,8.59,0,0,0-8.58,8.58c0,2.59,1.94,5.32,6.07,8.58a1.93,1.93,0,0,1,.72,1.54v4.23a8.35,8.35,0,0,1-1.67,5c-5.21,6.9-17.34,23-17.34,23A17.14,17.14,0,0,0,465.77,643h38.72a17.14,17.14,0,0,0,13.69-27.45Zm-46.77-43.84a2.05,2.05,0,0,1,1.47-.62h24.5a2.1,2.1,0,0,1,1.21.39,1.66,1.66,0,0,1,.24,2.42,21.19,21.19,0,0,1-3.08,2.76,8.5,8.5,0,0,0-3.3,6.72v3.85a14.8,14.8,0,0,0,3,8.92c1.58,2.09,3.8,5,6.12,8.12L513,619.46a10.65,10.65,0,0,1-8.51,17.08H465.77a10.66,10.66,0,0,1-8.51-17.08L469.65,603c1.89-2.5,3.64-4.81,4.94-6.55a14.89,14.89,0,0,0,3-8.9v-4.23a8.36,8.36,0,0,0-3.18-6.62,19.48,19.48,0,0,1-3-2.83,1.62,1.62,0,0,1,0-2.15Z" transform="translate(-40.23 -217.27)"/><path class="cls-22" d="M514,630.64a10.47,10.47,0,0,1-9.55,5.9H465.77a10.66,10.66,0,0,1-8.51-17.08L469.65,603c3.05-1.4,4.66,2.94,8,3.41,4.25.62,7-6.33,11.64-2.4,6.72,5.74,8.57-1.59,12.25.26L513,619.46A10.48,10.48,0,0,1,514,630.64Z" transform="translate(-40.23 -217.27)"/><circle class="cls-6" cx="426.07" cy="408.46" r="2.87"/><circle class="cls-6" cx="460.71" cy="411.76" r="4.86"/><circle class="cls-6" cx="465.67" cy="402.45" r="1.98"/></g><g id="Burner-_On" data-name="Burner- On"><rect class="cls-36" x="396.87" y="394.56" width="94.02" height="13.16" rx="5.26"/><rect class="cls-36" x="482.13" y="636.44" width="94.02" height="13.16" rx="3.35" transform="translate(-154.11 954.89) rotate(-90)"/><rect x="394.98" y="459.98" width="101.91" height="19.36" rx="6.64"/><g id="Fire-_Burner" data-name="Fire- Burner"><path class="cls-37" d="M500,665.27c0,8.56-10,10.49-15,10.49h-1.42c-4.39,0-15.34-1.46-15.34-10s7.94-15.5,7.94-15.5-.51,5.28.6,6.54c2-6.86,6.46-9.5,6.46-9.5a71.48,71.48,0,0,0,5.13,7.23,16.69,16.69,0,0,0,2.65-4.74S500,656.71,500,665.27Z" transform="translate(-40.23 -217.27)"/><path class="cls-38" d="M493.59,668.71c0,5.33-6.25,6.53-9.34,6.53h-.89c-2.73,0-9.55-.91-9.55-6.24s4.94-9.66,4.94-9.66-.32,3.3.38,4.08a10.42,10.42,0,0,1,4-5.92,44.39,44.39,0,0,0,3.19,4.51,10.53,10.53,0,0,0,1.66-3S493.59,663.38,493.59,668.71Z" transform="translate(-40.23 -217.27)"/></g></g></g><g id="Vial_Holders-_Full" data-name="Vial Holders- Full"><g id="Vial-_Green" data-name="Vial- Green"><path class="cls-6" d="M766.74,610.22h.15a2.35,2.35,0,0,0,2.32-2.37l-.07-5.23a2.32,2.32,0,0,0-2.36-2.32l-18.49.21a2.33,2.33,0,0,0-2.31,2.36l.06,5.24a2.34,2.34,0,0,0,2.21,2.32h.16a2.34,2.34,0,0,1,2.36,2.35l0,8.5-.05,13-.08,20.24-.11,22.76a6.84,6.84,0,0,0,13.67.06l.09-22.35.09-20.23,0-12.35,0-9.84A2.34,2.34,0,0,1,766.74,610.22Zm-5,67.09a4.46,4.46,0,0,1-4.49,4.44,4.33,4.33,0,0,1-3.15-1.32,4.41,4.41,0,0,1-1.29-3.16l.1-22.69.09-20.23.05-14,1.37-.55a1.08,1.08,0,0,1,.41-.1.94.94,0,0,1,.54.25c1.67,1.42,3.36,2.82,5,4.23a7.83,7.83,0,0,0,1.31-1.62H762L762,634.66l-.08,20.23Z" transform="translate(-40.23 -217.27)"/><path class="cls-21" d="M766.61,655.05l.08-20.24,0-12.67,0-9.55h.16a4.71,4.71,0,0,0,4.64-4.76l-.05-5.23a4.72,4.72,0,0,0-4.76-4.65l-18.49.2a4.71,4.71,0,0,0-3.31,1.42,4.59,4.59,0,0,0-1.34,3.34l0,5.24a4.74,4.74,0,0,0,1.41,3.31,4.52,4.52,0,0,0,3.32,1.31l-.09,21.42-.09,20.24-.1,22.83a9.18,9.18,0,0,0,8.65,9.22l.52,0a9.22,9.22,0,0,0,9.24-9.16Zm-13.75,22.22.1-22.69.09-20.23.05-14,0-7.55a4.67,4.67,0,0,0-1.38-3.37,4.62,4.62,0,0,0-2.94-1.33h-.41l-.08-5.22,18.46-.22.09,5.2h-.15a4.73,4.73,0,0,0-4.65,4.69l0,10L762,634.66l-.08,20.23-.1,22.42a4.46,4.46,0,0,1-4.49,4.44,4.33,4.33,0,0,1-3.15-1.32A4.41,4.41,0,0,1,752.86,677.27Z" transform="translate(-40.23 -217.27)"/><path class="cls-39" d="M761.89,654.89l.08-20.23.06-12.12h-.26a7.83,7.83,0,0,1-1.31,1.62c-1.68-1.41-3.37-2.81-5-4.23a.94.94,0,0,0-.54-.25,1.08,1.08,0,0,0-.41.1l-1.37.55-.05,14L753,654.58l-.1,22.69a4.41,4.41,0,0,0,1.29,3.16,4.33,4.33,0,0,0,3.15,1.32,4.46,4.46,0,0,0,4.49-4.44Zm-8-26.56a2.37,2.37,0,1,1,4.69-.6,2.37,2.37,0,1,1-4.69.6Z" transform="translate(-40.23 -217.27)"/><path class="cls-40" d="M756.57,630.46a2.46,2.46,0,1,1,2-2.73A2.42,2.42,0,0,1,756.57,630.46Z" transform="translate(-40.23 -217.27)"/><path class="cls-6" d="M756.57,630.46a2.46,2.46,0,1,1,2-2.73A2.42,2.42,0,0,1,756.57,630.46Z" transform="translate(-40.23 -217.27)"/></g><g id="Vial-_Orange" data-name="Vial- Orange"><path class="cls-6" d="M734.31,610.22h.15a2.35,2.35,0,0,0,2.31-2.37l-.06-5.23a2.33,2.33,0,0,0-2.36-2.32l-18.49.21a2.33,2.33,0,0,0-2.31,2.36l.06,5.24a2.34,2.34,0,0,0,2.2,2.32H716a2.34,2.34,0,0,1,2.36,2.35l0,8.5,0,13-.09,20.24-.1,22.76a6.84,6.84,0,0,0,13.67.06l.09-22.35.09-20.23.05-12.35,0-9.84A2.34,2.34,0,0,1,734.31,610.22Zm-5,67.09a4.44,4.44,0,0,1-4.48,4.44,4.33,4.33,0,0,1-3.15-1.32,4.37,4.37,0,0,1-1.29-3.16l.1-22.69.08-20.23.06-14,1.37-.55a1.08,1.08,0,0,1,.41-.1,1,1,0,0,1,.54.25c1.67,1.42,3.35,2.82,5,4.23a7.23,7.23,0,0,0,1.31-1.62h.27l-.06,12.12-.08,20.23Z" transform="translate(-40.23 -217.27)"/><path class="cls-21" d="M734.18,655.05l.07-20.24.06-12.67,0-9.55h.15a4.71,4.71,0,0,0,4.65-4.76l0-5.23a4.72,4.72,0,0,0-4.77-4.65l-18.48.2a4.73,4.73,0,0,0-4.66,4.76l.06,5.24a4.74,4.74,0,0,0,1.41,3.31,4.51,4.51,0,0,0,3.32,1.31l-.09,21.42-.09,20.24-.1,22.83a9.18,9.18,0,0,0,8.65,9.22l.52,0a9.22,9.22,0,0,0,9.24-9.16Zm-13.75,22.22.1-22.69.08-20.23.06-14,0-7.55a4.67,4.67,0,0,0-1.38-3.37,4.62,4.62,0,0,0-2.94-1.33H716l-.08-5.22,18.46-.22.09,5.2h-.15a4.73,4.73,0,0,0-4.65,4.69l0,10-.06,12.12-.08,20.23-.11,22.42a4.44,4.44,0,0,1-4.48,4.44,4.33,4.33,0,0,1-3.15-1.32A4.37,4.37,0,0,1,720.43,677.27Z" transform="translate(-40.23 -217.27)"/><path class="cls-31" d="M729.46,654.89l.08-20.23.06-12.12h-.27a7.23,7.23,0,0,1-1.31,1.62c-1.68-1.41-3.36-2.81-5-4.23a1,1,0,0,0-.54-.25,1.08,1.08,0,0,0-.41.1l-1.37.55-.06,14-.08,20.23-.1,22.69a4.37,4.37,0,0,0,1.29,3.16,4.33,4.33,0,0,0,3.15,1.32,4.44,4.44,0,0,0,4.48-4.44Zm-8-26.56a2.36,2.36,0,1,1,4.68-.6,2.36,2.36,0,1,1-4.68.6Z" transform="translate(-40.23 -217.27)"/><path class="cls-40" d="M724.14,630.46a2.46,2.46,0,1,1,2-2.73A2.41,2.41,0,0,1,724.14,630.46Z" transform="translate(-40.23 -217.27)"/><path class="cls-6" d="M724.14,630.46a2.46,2.46,0,1,1,2-2.73A2.41,2.41,0,0,1,724.14,630.46Z" transform="translate(-40.23 -217.27)"/></g><g id="Vial-_Purple" data-name="Vial- Purple"><path class="cls-6" d="M701.88,610.22H702a2.35,2.35,0,0,0,2.31-2.37l-.06-5.23a2.34,2.34,0,0,0-2.37-2.32l-18.48.21a2.33,2.33,0,0,0-2.31,2.36l.06,5.24a2.33,2.33,0,0,0,2.2,2.32h.16a2.35,2.35,0,0,1,2.37,2.35l0,8.5,0,13-.09,20.24-.1,22.76a6.83,6.83,0,1,0,13.66.06l.1-22.35.08-20.23.06-12.35,0-9.84A2.34,2.34,0,0,1,701.88,610.22Zm-5,67.09a4.46,4.46,0,1,1-8.92,0l.1-22.69.08-20.23.06-14,1.37-.55a1,1,0,0,1,.41-.1,1,1,0,0,1,.54.25c1.67,1.42,3.35,2.82,5,4.23a7.23,7.23,0,0,0,1.31-1.62h.27l-.06,12.12L697,654.89Z" transform="translate(-40.23 -217.27)"/><path class="cls-21" d="M701.75,655.05l.07-20.24.06-12.67,0-9.55h.15a4.72,4.72,0,0,0,4.65-4.76l-.06-5.23a4.71,4.71,0,0,0-4.76-4.65l-18.48.2a4.73,4.73,0,0,0-4.66,4.76l0,5.24a4.75,4.75,0,0,0,1.42,3.31,4.51,4.51,0,0,0,3.32,1.31l-.09,21.42-.09,20.24-.1,22.83a9.18,9.18,0,0,0,8.65,9.22l.52,0a9.2,9.2,0,0,0,9.23-9.16ZM688,677.27l.1-22.69.08-20.23.06-14,0-7.55a4.67,4.67,0,0,0-4.32-4.7h-.41l-.08-5.22,18.46-.22.09,5.2h-.15a4.73,4.73,0,0,0-4.65,4.69l0,10-.06,12.12L697,654.89l-.1,22.42a4.46,4.46,0,1,1-8.92,0Z" transform="translate(-40.23 -217.27)"/><path class="cls-22" d="M697,654.89l.09-20.23.06-12.12h-.27a7.23,7.23,0,0,1-1.31,1.62c-1.68-1.41-3.36-2.81-5-4.23a1,1,0,0,0-.54-.25,1,1,0,0,0-.41.1l-1.37.55-.06,14-.08,20.23-.1,22.69a4.46,4.46,0,1,0,8.92,0Zm-8-26.56a2.36,2.36,0,1,1,4.68-.6,2.36,2.36,0,1,1-4.68.6Z" transform="translate(-40.23 -217.27)"/><path class="cls-40" d="M691.7,630.46a2.46,2.46,0,1,1,2-2.73A2.41,2.41,0,0,1,691.7,630.46Z" transform="translate(-40.23 -217.27)"/><path class="cls-6" d="M691.7,630.46a2.46,2.46,0,1,1,2-2.73A2.41,2.41,0,0,1,691.7,630.46Z" transform="translate(-40.23 -217.27)"/></g><g id="Vial-_Yellow" data-name="Vial- Yellow"><path class="cls-6" d="M669.45,610.22h.15a2.35,2.35,0,0,0,2.31-2.37l-.06-5.23a2.34,2.34,0,0,0-2.37-2.32l-18.48.21a2.35,2.35,0,0,0-2.32,2.36l.07,5.24a2.33,2.33,0,0,0,2.2,2.32h.16a2.35,2.35,0,0,1,2.37,2.35l0,8.5-.05,13-.09,20.24-.1,22.76a6.83,6.83,0,1,0,13.66.06L667,655l.08-20.23.06-12.35,0-9.84A2.34,2.34,0,0,1,669.45,610.22Zm-5,67.09a4.44,4.44,0,0,1-4.48,4.44,4.33,4.33,0,0,1-3.16-1.32,4.4,4.4,0,0,1-1.28-3.16l.1-22.69.08-20.23.06-14,1.37-.55a1,1,0,0,1,.4-.1,1,1,0,0,1,.55.25c1.67,1.42,3.35,2.82,5,4.23a7.83,7.83,0,0,0,1.31-1.62h.27l-.06,12.12-.09,20.23Z" transform="translate(-40.23 -217.27)"/><path class="cls-21" d="M669.32,655.05l.07-20.24.06-12.67,0-9.55h.15a4.71,4.71,0,0,0,4.64-4.76l0-5.23a4.71,4.71,0,0,0-4.76-4.65l-18.49.2a4.73,4.73,0,0,0-4.65,4.76l0,5.24a4.71,4.71,0,0,0,1.42,3.31,4.51,4.51,0,0,0,3.32,1.31L651,634.18l-.1,20.24-.09,22.83a9.18,9.18,0,0,0,8.64,9.22l.52,0a9.2,9.2,0,0,0,9.24-9.16Zm-13.75,22.22.1-22.69.08-20.23.06-14,0-7.55a4.67,4.67,0,0,0-4.32-4.7h-.41l-.08-5.22,18.46-.22.09,5.2h-.15a4.73,4.73,0,0,0-4.65,4.69l0,10-.06,12.12-.09,20.23-.1,22.42a4.44,4.44,0,0,1-4.48,4.44,4.33,4.33,0,0,1-3.16-1.32A4.4,4.4,0,0,1,655.57,677.27Z" transform="translate(-40.23 -217.27)"/><path class="cls-25" d="M664.59,654.89l.09-20.23.06-12.12h-.27a7.83,7.83,0,0,1-1.31,1.62c-1.68-1.41-3.36-2.81-5-4.23a1,1,0,0,0-.55-.25,1,1,0,0,0-.4.1l-1.37.55-.06,14-.08,20.23-.1,22.69a4.4,4.4,0,0,0,1.28,3.16,4.33,4.33,0,0,0,3.16,1.32,4.44,4.44,0,0,0,4.48-4.44Zm-8-26.56a2.36,2.36,0,1,1,4.68-.6,2.36,2.36,0,1,1-4.68.6Z" transform="translate(-40.23 -217.27)"/><path class="cls-40" d="M659.27,630.46a2.46,2.46,0,1,1,2-2.73A2.41,2.41,0,0,1,659.27,630.46Z" transform="translate(-40.23 -217.27)"/><path class="cls-6" d="M659.27,630.46a2.46,2.46,0,1,1,2-2.73A2.41,2.41,0,0,1,659.27,630.46Z" transform="translate(-40.23 -217.27)"/></g><g id="Vial_Holder" data-name="Vial Holder"><rect class="cls-36" x="594.24" y="422.33" width="145.65" height="11.12" rx="1.85"/><rect class="cls-36" x="592.79" y="456.85" width="148.32" height="22.16" rx="4.45"/></g></g></g></svg>