<svg id="Media_Lab" data-name="Media Lab" xmlns="http://www.w3.org/2000/svg" viewBox="0 0 1031.27 1056.15"><defs><style>.cls-1{fill:#cdebfc;}.cls-2{fill:#333;}.cls-3{fill:#fbb03b;}.cls-4{fill:#fefefe;}.cls-5{fill:#0fbfbf;}.cls-6{fill:#ec7263;}.cls-7{fill:#f2c46d;}.cls-8{fill:#999;}.cls-9{fill:#f2f2f2;}.cls-10{fill:#ccc;}.cls-11{fill:#ccc3cc;}.cls-12{fill:#a6652e;}.cls-13{fill:#1b3d64;}.cls-14{fill:#f5d3ba;}.cls-15{fill:#b9335a;}.cls-16{fill:#29abe2;}.cls-17{fill:#0071bc;}.cls-18{fill:#fff;}.cls-19{fill:#00a4dd;}.cls-20{fill:#f26052;}.cls-21{fill:#f15a24;}</style></defs><title>Media lab</title><path class="cls-1" d="M876.68,132.22c28.72,3.35,60,8.83,78.78,30.83,16.86,19.77,19.18,47.75,20.14,73.72a1730.51,1730.51,0,0,1-2.39,174.8c-2.36,36.63-5.73,74.51,6.52,109.13,21.84,61.75,86.85,97.11,121.54,152.68,49.44,79.2,20.7,196.67-59.73,244.08-35.95,21.19-78.18,28.88-119.66,33.43-36.17,4-73.28,5.75-108.48-3.46-29.88-7.81-57.29-23.27-87-31.52-71.64-19.84-148.72,4.38-213.06,41.61S392.74,1044.65,329,1082.88c-20.22,12.12-42.05,23.3-65.6,24.37-36.56,1.66-70.55-22-91.29-52.11s-30.66-66.24-40.23-101.57c-10.27-37.88-20.54-78.17-9.29-115.78,13.25-44.28,52.92-74.44,81.22-111,70.81-91.39,63-234.53-17.36-317.66-21.87-22.62-48.25-41.15-66.34-66.89-25.76-36.64-31.67-85.32-20-128.56s39.72-81,74.8-108.9c21.63-17.17,67.44-47,94.49-52.6,67.68-14,289.15,120.18,358.24,118.32C734,167.65,771,119.87,876.68,132.22Z" transform="translate(-94.37 -51.18)"/><path class="cls-2" d="M206.75,217.45l-16.11,5.9a6.45,6.45,0,0,0-3.84,8.28l3.42,9.34a6.45,6.45,0,0,0,8.27,3.84l16.12-5.9a6.47,6.47,0,0,0,3.85-8.28L215,221.29A6.45,6.45,0,0,0,206.75,217.45Zm-49,18-16.13,5.9a6.45,6.45,0,0,0-3.84,8.27l3.43,9.35a6.45,6.45,0,0,0,8.27,3.84l16.12-5.91a6.44,6.44,0,0,0,3.84-8.27L166,239.25A6.44,6.44,0,0,0,157.71,235.42Z" transform="translate(-94.37 -51.18)"/><path class="cls-2" d="M465.26,125.36c-7.54-20.53-22.66-27.61-43.07-20.14q-146,53.4-291.95,106.9c-21.09,7.76-28,22.71-20.2,44q28.49,78,57.08,155.84c7.79,21.22,22.7,28.21,43.84,20.49q73-26.65,146-53.46t146-53.46c20.4-7.5,27.35-22.66,19.84-43.22Q494.1,203.78,465.26,125.36ZM169.4,248.6a6.44,6.44,0,0,1-3.84,8.27l-16.12,5.91a6.45,6.45,0,0,1-8.27-3.84l-3.43-9.35a6.45,6.45,0,0,1,3.84-8.27l16.13-5.9a6.44,6.44,0,0,1,8.27,3.83Zm49.06-18a6.47,6.47,0,0,1-3.85,8.28l-16.12,5.9a6.45,6.45,0,0,1-8.27-3.84l-3.42-9.34a6.45,6.45,0,0,1,3.84-8.28l16.11-5.9a6.45,6.45,0,0,1,8.28,3.84Z" transform="translate(-94.37 -51.18)"/><rect class="cls-3" x="138.54" y="237.67" width="30.07" height="22.85" rx="6.45" transform="translate(-170.67 16.82) rotate(-20.12)"/><path class="cls-4" d="M215,221.29l3.43,9.34a6.47,6.47,0,0,1-3.85,8.28l-16.12,5.9a6.45,6.45,0,0,1-8.27-3.84l-3.42-9.34a6.45,6.45,0,0,1,3.84-8.28l16.11-5.9A6.45,6.45,0,0,1,215,221.29Z" transform="translate(-94.37 -51.18)"/><path class="cls-4" d="M403.2,163.74a.06.06,0,0,0,0,0,92.07,92.07,0,0,0-65.85-.88,93.7,93.7,0,0,0-11.88,5.32c-2.41,1.29-4.73,2.67-7,4.15,0,0,0,0,0,0a92.4,92.4,0,0,0,66.52,168.3l.05,0c1.11-.19,2.21-.41,3.31-.64a94.51,94.51,0,0,0,12.55-3.63,92.05,92.05,0,0,0,52-47.75c.06-.11.11-.24.17-.35A92.36,92.36,0,0,0,403.2,163.74Zm-66,27.79c1.62-.88,3.29-1.72,5-2.47,1.36-.61,2.72-1.16,4.13-1.67a66.26,66.26,0,0,1,89,61.91,2.06,2.06,0,0,1,0,.43,66.23,66.23,0,0,1-43.46,62q-2.36.86-4.73,1.54c-1.63.45-3.27.86-4.91,1.19-1,.2-2,.37-3,.53h0a66.24,66.24,0,0,1-44.69-122Q335.82,192.27,337.17,191.53Z" transform="translate(-94.37 -51.18)"/><path class="cls-2" d="M431.27,226.81a65.78,65.78,0,0,1,4.05,22.49,2.06,2.06,0,0,1,0,.43,66.23,66.23,0,0,1-43.46,62q-2.36.86-4.73,1.54c-1.63.45-3.27.86-4.91,1.19a66.3,66.3,0,0,0,34.32-57.9,2.16,2.16,0,0,0,0-.44,66.25,66.25,0,0,0-79.37-64.64c1.62-.88,3.29-1.72,5-2.47,1.36-.61,2.72-1.16,4.13-1.67a66.22,66.22,0,0,1,85,39.42Z" transform="translate(-94.37 -51.18)"/><path class="cls-3" d="M412.49,233.69a65.72,65.72,0,0,1,4.05,22.48,2.16,2.16,0,0,1,0,.44,66.3,66.3,0,0,1-34.32,57.9,66.24,66.24,0,0,1-45.05-123,66.22,66.22,0,0,1,75.32,42.16Z" transform="translate(-94.37 -51.18)"/><path class="cls-3" d="M385,340.6c1.11-.19,2.21-.41,3.31-.64a92,92,0,0,1-11.86,5.31,93.45,93.45,0,0,1-15.86,4.28.07.07,0,0,0-.06,0A92.4,92.4,0,0,1,294,181.26s0,0,0,0a93,93,0,0,1,31.4-13.09c-2.41,1.29-4.73,2.67-7,4.15,0,0,0,0,0,0a92.4,92.4,0,0,0,66.52,168.3Z" transform="translate(-94.37 -51.18)"/><circle class="cls-4" cx="246.36" cy="185.8" r="19.85"/><circle class="cls-4" cx="281.01" cy="207.33" r="8"/><path class="cls-2" d="M1079.41,685.26,981.1,594.08a32.31,32.31,0,0,0-45.66,1.71L733.52,813.5a32.32,32.32,0,0,0,1.71,45.67l98.32,91.18a32.32,32.32,0,0,0,45.66-1.72l201.92-217.71A32.31,32.31,0,0,0,1079.41,685.26ZM892.71,904.85a32.32,32.32,0,0,1-45.66,1.72l-69.18-64.16a32.32,32.32,0,0,1-1.72-45.66L932.75,627.9a32.32,32.32,0,0,1,45.66-1.72l69.18,64.16a32.33,32.33,0,0,1,1.72,45.67Z" transform="translate(-94.37 -51.18)"/><path class="cls-5" d="M932.75,627.9l-2.1,2.26c4,9.8,6.9,19.84,7.63,30.46,1.37,19.5-4.89,38.6-9.17,57.67-.57,2.57-1.11,5.29-.32,7.81.86,2.77,3.17,4.81,5.43,6.63,14.31,11.5,30.81,20.13,44.61,32.23,5.11,4.49,9.95,9.59,12.54,15.88a41,41,0,0,1,2.63,14.8L1049.31,736a32.33,32.33,0,0,0-1.72-45.67l-69.18-64.16A32.32,32.32,0,0,0,932.75,627.9Z" transform="translate(-94.37 -51.18)"/><path class="cls-6" d="M930.65,630.16l-62,66.88c10.8,16.26,21.2,32.64,21.67,51.73.55,22.61-13.32,43.15-16,65.61a16.47,16.47,0,0,0,.38,7.36c1.55,4.48,6.11,7.06,10.26,9.37a276,276,0,0,1,46.28,32.21L994,795.64a41,41,0,0,0-2.63-14.8c-2.59-6.29-7.43-11.39-12.54-15.88-13.8-12.1-30.3-20.73-44.61-32.23-2.26-1.82-4.57-3.86-5.43-6.63-.79-2.52-.25-5.24.32-7.81,4.28-19.07,10.54-38.17,9.17-57.67C937.55,650,934.61,640,930.65,630.16Z" transform="translate(-94.37 -51.18)"/><path class="cls-7" d="M868.62,697l-92.47,99.71a32.32,32.32,0,0,0,1.72,45.66l69.18,64.16a32.32,32.32,0,0,0,45.66-1.72l38.52-41.53A276,276,0,0,0,885,831.11c-4.15-2.31-8.71-4.89-10.26-9.37a16.47,16.47,0,0,1-.38-7.36c2.66-22.46,16.53-43,16-65.61C889.82,729.68,879.42,713.3,868.62,697Z" transform="translate(-94.37 -51.18)"/><ellipse class="cls-8" cx="798.18" cy="889.88" rx="13.33" ry="12" transform="translate(-491.42 818.79) rotate(-47.16)"/><g id="Newspaper"><polygon class="cls-9" points="430.91 473.21 39.8 567.77 117.13 1052.65 508.25 958.09 430.91 473.21"/><rect class="cls-10" x="188.74" y="616.03" width="315.91" height="59.63" transform="translate(-236.43 48.38) rotate(-13.59)"/><rect class="cls-11" x="403.81" y="724.23" width="114.18" height="159.59" transform="translate(-270.41 79.64) rotate(-13.59)"/><rect class="cls-11" x="204.01" y="731.61" width="166.59" height="114.15" transform="translate(-271.66 38.42) rotate(-13.59)"/><rect class="cls-10" x="219.18" y="867.43" width="166.59" height="91.02" transform="translate(-300.44 45.46) rotate(-13.59)"/><rect class="cls-10" x="247.01" y="973.65" width="166.59" height="74.78" transform="translate(-322.71 54.75) rotate(-13.59)"/><rect class="cls-10" x="446.38" y="897.65" width="114.18" height="94.74" transform="translate(-302.35 93.6) rotate(-13.59)"/></g><path class="cls-12" d="M604.24,675.42c2.56-17,10.65-23.4,21.34-22.52s22.12,17.74,14.63,32.46c-15.49,30.44-14.79,37-14.79,37S598.91,710.68,604.24,675.42Z" transform="translate(-94.37 -51.18)"/><polygon class="cls-10" points="517.26 553.77 550.1 556.46 542.07 607.78 517.82 605.79 517.26 553.77"/><path class="cls-13" d="M627.52,344.9c1.73-21.07,12.89-37.35,24.94-36.36s20.41,18.87,18.68,39.94L644.47,607.65,611.63,605Z" transform="translate(-94.37 -51.18)"/><rect class="cls-3" x="630.57" y="359.35" width="40.6" height="293.92" transform="translate(1268.23 38.66) rotate(111.79)"/><path class="cls-2" d="M472,442.11l-7.28-5.94a4.41,4.41,0,0,1,3.16-7.82l9.3.79Z" transform="translate(-94.37 -51.18)"/><polygon class="cls-14" points="412.5 419.43 377.58 390.93 382.76 377.95 427.57 381.73 412.5 419.43"/><rect class="cls-10" x="782.5" y="550.39" width="40.6" height="33.3" transform="translate(1532.93 -19.15) rotate(111.79)"/><path class="cls-15" d="M825.82,562.46H840.2a13.11,13.11,0,0,1,13.11,13.11v20.19a0,0,0,0,1,0,0h-40.6a0,0,0,0,1,0,0V575.57a13.11,13.11,0,0,1,13.11-13.11Z" transform="translate(1585.56 -30.64) rotate(111.79)"/><path class="cls-16" d="M793.56,238.72a1.08,1.08,0,0,0,0,1.79c5.91,4,12.41,3,18.63,3.24,36.85,3.36,85.66-35.43,89.43-66.33,5.62-32-19.69-58.15-2.91-81.92a1.06,1.06,0,0,0-1.2-1.63c-17.27,5.68-8.66-4.61-7.68-11.45a1.08,1.08,0,0,0-1.65-1.07c-8.6,5.33-15.09,13.65-25.73,14.58-31.43,1.11-37,19.69-34.36,45.64a1.07,1.07,0,0,1-.24.81c-5.28,6.15-19.16,4.8-26.8,4.74H801c-35.6-2.8-50-29.19-41.4,4.54a.31.31,0,0,1,0,.08c5.39,17,24.09,20.73,10.37,22.72a1.07,1.07,0,0,0-.83,1.5c5.07,10.59,14,17,24.94,22.13a1.07,1.07,0,0,1,.19,1.85c-9,6.07,16,17.29,24.79,19a1.07,1.07,0,0,1,.5,1.85C811.47,228.18,802.37,233,793.56,238.72Z" transform="translate(-94.37 -51.18)"/><rect class="cls-17" x="640.74" y="269.62" width="122.41" height="122.41" rx="35.76"/><path class="cls-18" d="M796.61,397h-6.26V383.23h6.26v-2.15c0-17.29,15.19-19.64,23.43-19.64a40.14,40.14,0,0,1,5.16.3v14.94a18.59,18.59,0,0,0-2.78-.2c-3.38,0-8.64.61-8.64,5.11v1.64h9.43V397h-9.43v38H796.61Z" transform="translate(-94.37 -51.18)"/><rect class="cls-19" x="920.32" y="383.94" width="122.41" height="122.41" rx="35.76" transform="translate(39.32 -271.4) rotate(13.73)"/><path class="cls-18" d="M965.69,411.64a7.41,7.41,0,1,1-9,5.44A7.38,7.38,0,0,1,965.69,411.64Zm1,23.65L958,471.05l-12.81-3.12,8.74-35.77Z" transform="translate(-94.37 -51.18)"/><path class="cls-18" d="M977.81,438l12.8,3.13-1.09,4.48a13.89,13.89,0,0,1,12.65-2.51c3.68.9,7.39,2.74,9.63,6.43s1.87,6.9.91,10.82l-5.55,22.72L994.36,480l4.42-18.09c.51-2.08,1.35-5.18.1-7.35a5.57,5.57,0,0,0-3.71-2.52,7.18,7.18,0,0,0-5.13.53,8.45,8.45,0,0,0-3.47,5.17l-4.69,19.21-12.81-3.13Z" transform="translate(-94.37 -51.18)"/><rect class="cls-20" x="598.83" y="135.97" width="122.41" height="122.41" rx="35.76" transform="translate(-121.73 101.15) rotate(-12.9)"/><path class="cls-18" d="M680.72,238.18l-21.46,4.91A33.61,33.61,0,0,1,619,217.86l-4.91-21.46a33.61,33.61,0,0,1,25.23-40.23l21.46-4.91A33.61,33.61,0,0,1,701,176.49L706,198A33.63,33.63,0,0,1,680.72,238.18ZM641,163.38a26.22,26.22,0,0,0-19.68,31.37l4.92,21.46a26.21,26.21,0,0,0,31.37,19.68L679.07,231a26.2,26.2,0,0,0,19.68-31.37l-4.91-21.46a26.22,26.22,0,0,0-31.38-19.68Z" transform="translate(-94.37 -51.18)"/><path class="cls-18" d="M664.2,215.34a18.64,18.64,0,1,1,14-22.32A18.65,18.65,0,0,1,664.2,215.34Zm-6.67-29.12A11.24,11.24,0,1,0,671,194.67,11.25,11.25,0,0,0,657.53,186.22Z" transform="translate(-94.37 -51.18)"/><circle class="cls-18" cx="581.7" cy="121.19" r="5.41"/><rect class="cls-21" x="918.16" y="202.67" width="122.41" height="122.41" rx="35.76" transform="translate(-122.84 98.43) rotate(-8.61)"/><path class="cls-18" d="M1016.16,266.63a20.37,20.37,0,0,1,.53,2.49c2.34,15.45-11.74,30.39-31.45,33.38s-37.58-7.12-39.92-22.57a23.7,23.7,0,0,1-.23-2.5A12.21,12.21,0,0,1,949,254.58a12,12,0,0,1,7,1,41.94,41.94,0,0,1,17.7-8.45l-1.78-11.75a3.76,3.76,0,0,1,3.16-4.28l13.07-2a7.9,7.9,0,1,1,1.61,5.53l-10.88,1.64a1,1,0,0,0-.87,1.18l1.33,8.77a42.16,42.16,0,0,1,20,2.76,12.21,12.21,0,0,1,16.88,17.63Z" transform="translate(-94.37 -51.18)"/><circle class="cls-21" cx="867.55" cy="222.07" r="5.33"/><circle class="cls-21" cx="904.3" cy="216.5" r="5.33"/><path class="cls-21" d="M982.6,291.1c-7.62,1.15-15.75-1.19-17.16-5.9A2.12,2.12,0,0,1,969.5,284c.66,2.22,6.77,3.78,12.46,2.92,5.24-.79,10.88-3.78,11-6.63a2.12,2.12,0,1,1,4.23.25C996.94,285.49,990,290,982.6,291.1Z" transform="translate(-94.37 -51.18)"/></svg>