<svg id="Meetups" xmlns="http://www.w3.org/2000/svg" viewBox="0 0 1169.77 800"><defs><style>.cls-1{fill:#cdebfc;}.cls-2{fill:#42210b;}.cls-3{fill:#754c24;}.cls-4{fill:#d48800;}.cls-5{fill:#fbb03b;}.cls-6{fill:#7a4e2d;}.cls-11,.cls-7{fill:#1a1a1a;}.cls-8{fill:orange;}.cls-9{fill:#160e00;}.cls-10{fill:#fff;}.cls-11{opacity:0.4;}.cls-12{fill:none;stroke:#f2f2f2;stroke-miterlimit:10;stroke-width:4px;}.cls-13{fill:#ffbca2;}.cls-14{fill:#940007;}.cls-15{fill:#c1272d;}.cls-16{fill:#666;opacity:0.3;}.cls-17{fill:#fff1d6;}.cls-18{fill:#f2f2f2;}.cls-19{fill:#00003c;}.cls-20{fill:#1b1464;}.cls-21{fill:#c69c6d;}.cls-22{fill:#a67c52;}.cls-23{fill:#dbded6;}.cls-24{fill:#998675;}.cls-25{fill:#c6bda6;}.cls-26{fill:#9b272d;}.cls-27{fill:#ed1c24;}.cls-28{fill:#39b54a;}.cls-29{fill:#009245;}.cls-30{fill:#e6f2f2;opacity:0.96;}.cls-31{fill:#e7e9d9;}.cls-32{fill:#4d4d4d;}.cls-33{fill:#b3b3b3;}.cls-34,.cls-35{fill:#d4145a;}.cls-34{opacity:0.84;}.cls-36{fill:#f7931e;}</style></defs><title>Meetups2</title><path id="Light_Blue_Blob_2" data-name="Light Blue Blob 2" class="cls-1" d="M1134.93,977.89H40.63a653.68,653.68,0,0,0-7.71-242.68C26.35,705.66,17.67,676.28,16.61,646,13.77,565.1,64.46,493.74,102,422c17.1-32.64,32.2-67.14,57.39-94,39.57-42.24,103-60.37,158.94-45.42,42.2,11.3,77.71,39,115.73,60.55S518,380.42,559,365.31c25.32-9.33,45.07-29.13,65.28-47,56.49-50,123.89-89.2,197.66-105s154.11-6.63,218.42,32.8c34.7,21.28,134.47,187.33-8,299.9-27.08,21.4-43.07,56.93-45.46,91.36-3.33,47.89,33.92,89.25,74.26,115.26S1269.53,857.05,1134.93,977.89Z" transform="translate(-16.49 -206)"/><g id="Lamar_Hackson" data-name="Lamar Hackson"><polygon class="cls-2" points="790.51 631.04 772.66 630.47 773.86 590.12 791.71 590.69 790.51 631.04"/><path class="cls-3" d="M748.3,864.7c.54,2.53,1.65,4.37,2.94,4.37h62.14a1.69,1.69,0,0,0,1.67-1.94c-.12-.74-.24-1.56-.35-2.43Z" transform="translate(-16.49 -206)"/><path class="cls-4" d="M748.3,864.7h66.4c-1.67-12.75-3.36-38.18-6.08-40.53a.93.93,0,0,0-.3-.15c-10.38-2.28-16.79,6.88-24.8,14.93-6.31,6.32-13.61,12-24.6,10.78C748.82,848.65,747,858.67,748.3,864.7Z" transform="translate(-16.49 -206)"/><rect class="cls-4" x="786.13" y="819.94" width="25.1" height="35.91" rx="2.34" transform="translate(1580.86 1469.79) rotate(-180)"/><path class="cls-3" d="M793.85,819.94h17.91A5.26,5.26,0,0,1,817,825.2v3a0,0,0,0,1,0,0H793.85a3,3,0,0,1-3-3V823A3,3,0,0,1,793.85,819.94Z" transform="translate(1591.32 1442.18) rotate(-180)"/><rect class="cls-5" x="782.85" y="829.57" width="9.6" height="3.51" rx="1.29" transform="translate(1558.81 1456.65) rotate(180)"/><rect class="cls-5" x="779.48" y="837.11" width="9.6" height="3.51" rx="1.29" transform="translate(1552.07 1471.73) rotate(-180)"/><rect class="cls-5" x="773.93" y="844.18" width="9.6" height="3.51" rx="1.29" transform="translate(1540.96 1485.87) rotate(-180)"/><polygon class="cls-2" points="886.03 655.62 868.24 657.16 864.66 616.96 882.45 615.41 886.03 655.62"/><path class="cls-3" d="M846.85,890.7c.84,2.46,2.15,4.15,3.43,4L912,887.35a1.69,1.69,0,0,0,1.43-2.12c-.21-.73-.42-1.53-.64-2.38Z" transform="translate(-16.49 -206)"/><path class="cls-4" d="M846.85,890.7l65.93-7.85c-3.16-12.46-7.85-37.51-10.83-39.52a1.1,1.1,0,0,0-.31-.12c-10.57-1-15.86,8.83-22.86,17.76-5.52,7-12.11,13.49-23.16,13.61C845.46,874.7,844.81,884.88,846.85,890.7Z" transform="translate(-16.49 -206)"/><rect class="cls-4" x="878.57" y="840.49" width="25.1" height="35.91" rx="2.34" transform="translate(1861 1399.48) rotate(173.21)"/><path class="cls-3" d="M884.62,840h17.91a5.26,5.26,0,0,1,5.26,5.26v3a0,0,0,0,1,0,0H884.62a3,3,0,0,1-3-3V843A3,3,0,0,1,884.62,840Z" transform="translate(1866.4 1370.51) rotate(173.21)"/><rect class="cls-5" x="874.59" y="851.47" width="9.6" height="3.51" rx="1.29" transform="translate(1837.01 1390.47) rotate(173.21)"/><rect class="cls-5" x="873.43" y="859.2" width="9.6" height="3.51" rx="1.29" transform="translate(1835.62 1406.02) rotate(173.21)"/><rect class="cls-5" x="870.04" y="866.72" width="9.6" height="3.51" rx="1.29" transform="translate(1829.75 1421.41) rotate(173.21)"/><polygon class="cls-6" points="765.1 199.78 699.59 264.51 689.36 240.05 761.83 179.72 765.1 199.78"/><path class="cls-7" d="M785.91,800.8c.65,7.73,10.9.22,20.85,1.51,14.26,1.86,18.3-105.4,24.4-215.81.49-9,.69-6.34,1.31.56C845.12,727,869.72,835.2,884.67,830.42c14.3-4.57,19.06,6.47,18.32-1.25-22.17-231.64,8.5-298.2-35.26-330.56-12.21-9-49.29-2.5-64.28-2.76-4.06-.07-6.26,3.2-7.56,6.89C786.35,529.79,764.64,550.54,785.91,800.8Z" transform="translate(-16.49 -206)"/><polygon class="cls-6" points="872.3 206.73 937.81 271.46 948.04 247 879.05 183.94 872.3 206.73"/><path class="cls-6" d="M728.15,454.34l-87.06-30.68-11.74,12L704,471.19c6.27,2.65,14.93-.18,18.09-5.89Z" transform="translate(-16.49 -206)"/><path class="cls-6" d="M630.26,409.91c-2.26,1,2,9.54,2,9.54S617.12,406.13,615.74,409c-.61,1.26,10.35,10.56,10.35,10.56-.44.13-14.93-9.53-15.92-8-1.57,2.45,14.46,12,14.32,12.24,0,0-15-7.16-15.62-5.92-1.48,3.11,13.71,10.14,13.76,10.51,0,0-12.68-6.07-13.35-4.26-1.4,3.73,22.41,12.23,30.57,15.16,1.95.71.83-.71,2-2.38l3.67-8.1C639.66,418,631.87,409.17,630.26,409.91Z" transform="translate(-16.49 -206)"/><path class="cls-6" d="M957.72,446.46l-65.38,86,9.54,9.1L968,473.36c4.36-5.07,3.89-13.85-1-18.32Z" transform="translate(-16.49 -206)"/><path class="cls-6" d="M878.77,533.92c.68,2.38,10.42.09,10.42.09s-16.75,11.68-14,13.6c1.22.85,13-7.66,13-7.66.06.44-12.72,12.26-11.25,13.54,2.3,2,15.26-11.29,15.46-11.11,0,0-10.23,12.86-9,13.68,3,2.07,13.15-11,13.55-10.92,0,0-8.66,10.83-6.88,11.86,3.69,2.12,16.9-18.85,21.46-26,1.09-1.72-.6-1-2.16-2.4l-7.89-5.22C889,526.64,878.29,532.22,878.77,533.92Z" transform="translate(-16.49 -206)"/><g id="Shirt-_Dust" data-name="Shirt- Dust"><path class="cls-8" d="M888.72,535.12c3.33,20.71-108.62,20.41-103.9,0,8.9-38.46-2.59-105.1-.7-144.31.57-11.92,9.31-21.24,19.88-21.24h67.2c10.53,0,19.24,9.24,19.88,21.12C893.21,430.39,881.38,489.45,888.72,535.12Z" transform="translate(-16.49 -206)"/><path class="cls-8" d="M795.87,371.46c6.51.88,17.31,13.07,16.07,19.3-1.82,9.17-22.43,24.36-32.56,31.33a7.17,7.17,0,0,1-9.52-1.06L755.5,403.77a6.5,6.5,0,0,1,1-9.13C765.88,386.54,786.24,370.15,795.87,371.46Z" transform="translate(-16.49 -206)"/><path class="cls-8" d="M858.33,390.14c-.08-6.3,10.83-18.4,17.43-18.18,9.71.34,28.47,17.59,37.19,26.14a6.5,6.5,0,0,1,.35,9.2l-15.58,16.25a7.16,7.16,0,0,1-9.54.45C878.41,416.32,858.45,399.49,858.33,390.14Z" transform="translate(-16.49 -206)"/></g><g id="Dude_Head" data-name="Dude Head"><path class="cls-9" d="M828,323.22a2,2,0,0,0-.53-1.1l0,0h0s0,0,0-.06l0,0c1.74-.85,3-2.78,2.73-4.33a1.91,1.91,0,0,0-1.08-1.5l-.25.23c0-.11,0-.21,0-.32l.24.09a4.72,4.72,0,0,0,1.42-2.58,2.28,2.28,0,0,0-.53-2,4.71,4.71,0,0,0,1.25-2.42,2,2,0,0,0-2.5-2.53,1.29,1.29,0,0,0-.26.08,4.15,4.15,0,0,0,.73-3.69,1.52,1.52,0,0,0-.2-.38,2.26,2.26,0,0,0-.23-.29l.34-.11a4.47,4.47,0,0,0,1-.58c1.5-1.2,2.27-3.31,1.71-4.73a1.86,1.86,0,0,0-2.3-1.11,8.7,8.7,0,0,0-.25-1.15,3.32,3.32,0,0,0-.34-3.32,1.79,1.79,0,0,0-1.09-.59,3.28,3.28,0,0,0-.39-3.18c-1-1.09-2.81-.71-4.08.85,0,.09,0,.18,0,.28l-.21,0,.17-.23,0,0a2.53,2.53,0,0,0-.6-1.5c-1-1.09-2.83-.7-4.1.88a5.16,5.16,0,0,0-.84,1.49s0,0,0,0h0l0,0a.14.14,0,0,1,0-.06c-1-1.06-2.81-.66-4.07.9a5.35,5.35,0,0,0-.86,1.54,4.66,4.66,0,0,0-.47.27,4.09,4.09,0,0,0,.11-1.89c-.33-1.64-1.87-2.09-3.45-1a5.78,5.78,0,0,0-1.21,1.21v.06h0a.33.33,0,0,1,0-.06c-.35-1.61-1.88-2-3.43-.95a5.59,5.59,0,0,0-1.75,2.07,1.29,1.29,0,0,1,.16.17l-.31.16.15-.33a1.91,1.91,0,0,0-2.11-.32,4.74,4.74,0,0,0-2.12,1.71,2,2,0,0,0-2-.21,5.3,5.3,0,0,0-3.12,4.3,3.56,3.56,0,0,0,0,.66,5.32,5.32,0,0,0-1.17,2.81,3,3,0,0,0,.2,1.31,5.38,5.38,0,0,0-2.71,4.1,2,2,0,0,0,1.23,2.26,2.25,2.25,0,0,0,.58,1.49,2.34,2.34,0,0,0-1.17.14,5.32,5.32,0,0,0-3.12,4.29,3.78,3.78,0,0,0,0,.68,5.21,5.21,0,0,0-1.16,2.8,2.77,2.77,0,0,0,.19,1.3A5.42,5.42,0,0,0,783.5,323a2,2,0,0,0,1.23,2.26,2.1,2.1,0,0,0,.76,1.65,5.15,5.15,0,0,0-1.07,2.68c-.13,1.75,1,2.72,2.57,2.21.09.18.19.35.29.52a4.19,4.19,0,0,0-.37,1.48c-.13,1.78,1.07,2.76,2.67,2.17h0a1.81,1.81,0,0,0,2.57,1.1,4.5,4.5,0,0,0,1.76-1.26,2,2,0,0,0,2.54,2.16,4.5,4.5,0,0,0,.49-.14,4.28,4.28,0,0,0,.44-.2l-.2.37a4.21,4.21,0,0,0-.33,1.08,2,2,0,0,0,2.5,2.52,4.77,4.77,0,0,0,2.9-2.18,9.68,9.68,0,0,0,1.18-.07,2.65,2.65,0,0,0,3.07.18,4.85,4.85,0,0,0,1.43-1,2.72,2.72,0,0,0,3,.11c1.76-.84,3-2.77,2.78-4.32l-.25,0,.21-.21c0,.07,0,.14,0,.21v0a3.51,3.51,0,0,0,1.77-.38,5.07,5.07,0,0,0,1.74-1.37,4.4,4.4,0,0,0,.39-.35,2.72,2.72,0,0,0,3,.11c1.76-.84,3-2.77,2.78-4.33a1.07,1.07,0,0,1-.25,0,2.08,2.08,0,0,0,.21-.21,1.55,1.55,0,0,1,0,.21v0a3.51,3.51,0,0,0,1.77-.38C827,326.73,828.19,324.78,828,323.22Z" transform="translate(-16.49 -206)"/><path class="cls-9" d="M880.39,299.15a1.92,1.92,0,0,0-1.09-.56.05.05,0,0,1,0,0v0s0,0,0-.07h0c.88-1.73.69-4-.44-5.1a1.88,1.88,0,0,0-1.76-.54,3.23,3.23,0,0,1-.06.33l-.18-.26.24-.07a4.69,4.69,0,0,0-.43-2.92,2.25,2.25,0,0,0-1.65-1.31,4.88,4.88,0,0,0-.47-2.69,2,2,0,0,0-3.52-.5l-.17.22a4.13,4.13,0,0,0-1.64-3.39,2.26,2.26,0,0,0-.39-.18,1.59,1.59,0,0,0-.35-.08l.2-.3a4.26,4.26,0,0,0,.42-1c.46-1.86-.2-4-1.49-4.8a1.85,1.85,0,0,0-2.51.5,10.41,10.41,0,0,0-.89-.77,3.33,3.33,0,0,0-2.28-2.44,1.85,1.85,0,0,0-1.23.19,3.29,3.29,0,0,0-2.23-2.3c-1.44-.27-2.66,1.13-2.74,3.14a2.13,2.13,0,0,1,.18.22l-.18.09v-.31a2.54,2.54,0,0,0-1.38-.83c-1.45-.27-2.68,1.15-2.74,3.17a5.22,5.22,0,0,0,.23,1.7h0l0,.05s0,0,0-.06c-1.43-.24-2.64,1.17-2.7,3.18a5,5,0,0,0,.25,1.74,3.39,3.39,0,0,0-.21.51,4.15,4.15,0,0,0-1.06-1.58c-1.25-1.11-2.76-.54-3.34,1.29a5.38,5.38,0,0,0-.24,1.7l0,0v0l0,0a.11.11,0,0,1,0-.06c-1.25-1.08-2.73-.49-3.31,1.32a5.6,5.6,0,0,0-.14,2.7l.22,0-.14.32c0-.12,0-.24-.08-.36a1.91,1.91,0,0,0-1.88,1,4.81,4.81,0,0,0-.66,2.64,2,2,0,0,0-1.71,1,5.28,5.28,0,0,0,.1,5.31,3.8,3.8,0,0,0,.42.52,5.22,5.22,0,0,0,.77,2.94,2.77,2.77,0,0,0,.94.93,5.38,5.38,0,0,0,.32,4.9,2,2,0,0,0,2.35,1.07,2.2,2.2,0,0,0,1.35.83,2.42,2.42,0,0,0-.84.82,5.31,5.31,0,0,0,.1,5.3,3.31,3.31,0,0,0,.43.52,5.24,5.24,0,0,0,.76,2.94,2.75,2.75,0,0,0,1,.92,5.39,5.39,0,0,0,.32,4.92,2,2,0,0,0,2.34,1.05,2.08,2.08,0,0,0,1.6.86,5.17,5.17,0,0,0,.76,2.79c1,1.47,2.46,1.54,3.39.21l.54.23a4.69,4.69,0,0,0,.6,1.41c1,1.5,2.52,1.55,3.45.11h0a1.81,1.81,0,0,0,2.71-.68,4.43,4.43,0,0,0,.64-2.06,2,2,0,0,0,3.33.18,3.38,3.38,0,0,0,.31-.41c.08-.13.16-.27.23-.41a2.93,2.93,0,0,0,.07.41,3.53,3.53,0,0,0,.38,1.06,2,2,0,0,0,3.52.5,4.77,4.77,0,0,0,1-3.49c.31-.23.6-.49.9-.76a2.69,2.69,0,0,0,2.56-1.72,5,5,0,0,0,.52-1.68,2.72,2.72,0,0,0,2.46-1.72c.89-1.73.72-4-.4-5.12l-.21.12,0-.29.16.14v0a3.49,3.49,0,0,0,1.19-1.38,5.31,5.31,0,0,0,.56-2.13,5.16,5.16,0,0,0,.09-.52,2.74,2.74,0,0,0,2.46-1.73c.89-1.73.72-4-.39-5.13l-.22.13c0-.09,0-.19,0-.29l.16.14a0,0,0,0,0,0,0,3.55,3.55,0,0,0,1.18-1.36C881.71,302.56,881.52,300.25,880.39,299.15Z" transform="translate(-16.49 -206)"/><path class="cls-9" d="M814,305.75a2,2,0,0,0-.53-1.11l0,0h0l0-.06,0,0c1.74-.85,3-2.78,2.73-4.33a1.87,1.87,0,0,0-1.08-1.49,2.73,2.73,0,0,1-.25.23c0-.11,0-.22,0-.32l.24.09a4.74,4.74,0,0,0,1.42-2.59,2.3,2.3,0,0,0-.52-2,4.86,4.86,0,0,0,1.25-2.43,2,2,0,0,0-2.5-2.52l-.27.07a4.13,4.13,0,0,0,.73-3.68,1.79,1.79,0,0,0-.2-.39,1.56,1.56,0,0,0-.23-.28,2,2,0,0,0,.34-.12,3.85,3.85,0,0,0,1-.57c1.5-1.2,2.27-3.32,1.71-4.73a1.85,1.85,0,0,0-2.3-1.11,9.73,9.73,0,0,0-.24-1.15,3.33,3.33,0,0,0-.35-3.33,1.85,1.85,0,0,0-1.09-.59,3.26,3.26,0,0,0-.39-3.17c-1-1.09-2.81-.71-4.08.85a2.3,2.3,0,0,1,0,.28l-.21,0,.17-.22,0,0a2.53,2.53,0,0,0-.6-1.5c-1-1.09-2.83-.7-4.1.87a5.46,5.46,0,0,0-.84,1.5s0,0,0,0h0l0,0a.14.14,0,0,1,0-.06c-1-1.06-2.81-.67-4.07.9a5,5,0,0,0-.85,1.53,4,4,0,0,0-.48.28,4.13,4.13,0,0,0,.11-1.9c-.33-1.64-1.87-2.09-3.44-1a5.38,5.38,0,0,0-1.22,1.21s0,0,0,0h-.05l0-.05c-.34-1.62-1.88-2-3.43-.95a5.57,5.57,0,0,0-1.74,2.07l.15.17-.31.16c0-.11.1-.22.16-.33a1.92,1.92,0,0,0-2.11-.33,4.78,4.78,0,0,0-2.13,1.71,2,2,0,0,0-2-.2,5.27,5.27,0,0,0-3.12,4.29,4.85,4.85,0,0,0,0,.67,5.28,5.28,0,0,0-1.17,2.81,2.92,2.92,0,0,0,.2,1.3,5.37,5.37,0,0,0-2.7,4.11,2,2,0,0,0,1.22,2.26,2.2,2.2,0,0,0,.58,1.48,2.47,2.47,0,0,0-1.17.15,5.3,5.3,0,0,0-3.12,4.29,3.59,3.59,0,0,0,0,.67,5.21,5.21,0,0,0-1.17,2.8,2.81,2.81,0,0,0,.2,1.31,5.36,5.36,0,0,0-2.71,4.11,2,2,0,0,0,1.23,2.26,2,2,0,0,0,.75,1.64,5.18,5.18,0,0,0-1.07,2.69c-.13,1.75,1,2.71,2.57,2.21.09.18.19.35.29.51a4.47,4.47,0,0,0-.37,1.49c-.13,1.78,1.07,2.76,2.68,2.17a0,0,0,0,0,0,0,1.81,1.81,0,0,0,2.57,1.1,4.47,4.47,0,0,0,1.76-1.25,2,2,0,0,0,2.54,2.15,3.43,3.43,0,0,0,.5-.14,4,4,0,0,0,.43-.19c-.07.12-.13.24-.19.37a3.91,3.91,0,0,0-.34,1.07,2,2,0,0,0,2.5,2.53,4.78,4.78,0,0,0,2.9-2.18,9.57,9.57,0,0,0,1.18-.07,2.69,2.69,0,0,0,3.08.18,5.35,5.35,0,0,0,1.42-1,2.72,2.72,0,0,0,3,.11c1.76-.84,3-2.77,2.78-4.32l-.25,0,.21-.21c0,.07,0,.14,0,.2v0a3.56,3.56,0,0,0,1.78-.38,5.26,5.26,0,0,0,1.73-1.37,4.4,4.4,0,0,0,.39-.35,2.74,2.74,0,0,0,3,.1c1.76-.84,3-2.76,2.79-4.32l-.25,0,.2-.21a1.55,1.55,0,0,1,0,.21v0a3.49,3.49,0,0,0,1.76-.38C812.94,309.26,814.18,307.31,814,305.75Z" transform="translate(-16.49 -206)"/><path class="cls-6" d="M815.62,352.1l-.86,22.23c6.1,5.13,13.73,7.44,21.18,5.69a23.4,23.4,0,0,0,14.84-11.53l-2.1-19.91a23.47,23.47,0,0,1-18.16,8.3A27.09,27.09,0,0,1,815.62,352.1Z" transform="translate(-16.49 -206)"/><path class="cls-2" d="M815.75,348.66v.66a27,27,0,0,0,14.16,4.3A23.51,23.51,0,0,0,848.3,345l-.15-1.43-.32-3L830.33,345l-5,1.27Z" transform="translate(-16.49 -206)"/><path class="cls-6" d="M799.41,308.29a51.31,51.31,0,0,0,.11,13.56,37.82,37.82,0,0,0,.89,5.57,36.39,36.39,0,0,0,13,20.32c.75.56,1.51,1.09,2.29,1.58a27,27,0,0,0,14.16,4.3A23.51,23.51,0,0,0,848.3,345c.23-.29.48-.58.7-.88a30,30,0,0,0,5.94-16,33.08,33.08,0,0,0,0-5.89,61,61,0,0,0-.77-6.65,62.29,62.29,0,0,0-3.88-13.73v0c-2.39-5.62-6-11.1-11.42-14.51a23.52,23.52,0,0,0-13.76-3.48,31.35,31.35,0,0,0-10.42,2C804.09,290.14,800.47,300,799.41,308.29Z" transform="translate(-16.49 -206)"/><path class="cls-10" d="M818.51,339.08c.3,3.12,4.28,5.29,8.9,4.85s8.11-3.34,7.81-6.46S818.21,336,818.51,339.08Z" transform="translate(-16.49 -206)"/><path class="cls-2" d="M815.73,349.32l-.11,2.78a27.09,27.09,0,0,0,14.9,4.78,23.47,23.47,0,0,0,18.16-8.3L848.3,345a23.51,23.51,0,0,1-18.41,8.6A27,27,0,0,1,815.73,349.32Z" transform="translate(-16.49 -206)"/><path class="cls-11" d="M815.73,349.32l-.11,2.78a27.09,27.09,0,0,0,14.9,4.78,23.47,23.47,0,0,0,18.16-8.3L848.3,345a23.51,23.51,0,0,1-18.41,8.6A27,27,0,0,1,815.73,349.32Z" transform="translate(-16.49 -206)"/><path class="cls-9" d="M848,263.65a2,2,0,0,0-1,.68l0,0h0l-.07,0,0,0c-1.07-1.61-3.15-2.57-4.65-2.13a1.87,1.87,0,0,0-1.34,1.27l.26.21-.32,0,.06-.24a4.66,4.66,0,0,0-2.75-1.07,2.3,2.3,0,0,0-2,.79,4.87,4.87,0,0,0-2.57-.92,2,2,0,0,0-2.17,2.82,1.36,1.36,0,0,0,.11.25,4.16,4.16,0,0,0-3.75-.24,2,2,0,0,0-.36.26,1.45,1.45,0,0,0-.24.26c0-.11-.11-.21-.17-.32a3.92,3.92,0,0,0-.69-.88c-1.39-1.32-3.59-1.8-4.92-1.07a1.85,1.85,0,0,0-.79,2.43,9.07,9.07,0,0,0-1.11.4,3.33,3.33,0,0,0-3.25.78,1.84,1.84,0,0,0-.44,1.16,3.28,3.28,0,0,0-3.1.81c-1,1.12-.32,2.87,1.38,3.93l.28-.05c0,.07,0,.14,0,.21l-.24-.14,0,0a2.54,2.54,0,0,0-1.4.79c-.95,1.13-.32,2.9,1.41,4a5,5,0,0,0,1.6.63s0,0,0,0h0s0,0,0,.05l0,0c-.92,1.14-.29,2.88,1.43,3.92a5,5,0,0,0,1.63.64,3.46,3.46,0,0,0,.34.44,4,4,0,0,0-1.89.14c-1.59.55-1.83,2.13-.53,3.55a5.45,5.45,0,0,0,1.37,1l0,0h0V288l-.05,0c-1.56.56-1.78,2.13-.49,3.53a5.68,5.68,0,0,0,2.28,1.45l.15-.17.2.28-.35-.11a1.9,1.9,0,0,0,0,2.13,4.74,4.74,0,0,0,2,1.88,2,2,0,0,0,.06,2,5.3,5.3,0,0,0,4.67,2.53,3.23,3.23,0,0,0,.66-.12,5.26,5.26,0,0,0,2.94.79,2.83,2.83,0,0,0,1.27-.37,5.36,5.36,0,0,0,4.42,2.14,2,2,0,0,0,2.08-1.51.9.9,0,1,1,1.7.36,5.27,5.27,0,0,0,4.66,2.52,2.68,2.68,0,0,0,.66-.11A5.25,5.25,0,0,0,848,306a3,3,0,0,0,1.28-.37,5.39,5.39,0,0,0,4.43,2.14,2,2,0,0,0,2.07-1.52,2.08,2.08,0,0,0,1.53-1,5.12,5.12,0,0,0,2.81.71c1.75-.11,2.55-1.37,1.85-2.84.16-.12.32-.23.47-.36a4.42,4.42,0,0,0,1.52.17c1.78-.11,2.59-1.43,1.8-2.94h0a1.81,1.81,0,0,0,.75-2.7,4.5,4.5,0,0,0-1.48-1.57,2,2,0,0,0,1.8-2.81l-.2-.47c-.08-.14-.16-.27-.25-.4l.39.14a3.86,3.86,0,0,0,1.11.19,2,2,0,0,0,2.17-2.81,4.78,4.78,0,0,0-2.55-2.59,10.24,10.24,0,0,0-.22-1.16,2.68,2.68,0,0,0-.23-3.07,5.23,5.23,0,0,0-1.2-1.28,2.74,2.74,0,0,0-.29-3c-1.07-1.63-3.14-2.6-4.65-2.18v.25l-.24-.18.2-.07h0a3.72,3.72,0,0,0-.62-1.71,5.12,5.12,0,0,0-1.58-1.53,4.47,4.47,0,0,0-.41-.35,2.7,2.7,0,0,0-.29-3c-1.06-1.63-3.14-2.61-4.65-2.19v.25l-.23-.17.2-.07h0a3.63,3.63,0,0,0-.61-1.7C851.62,264.19,849.52,263.22,848,263.65Z" transform="translate(-16.49 -206)"/><path class="cls-9" d="M794.75,269.41a2,2,0,0,0-.14,1.22h.07l-.06,0s0,0,0,0c-1.92-.21-4,.77-4.62,2.21a1.89,1.89,0,0,0,.12,1.84,1.91,1.91,0,0,1,.33-.06,2.4,2.4,0,0,0-.18.26l-.15-.2a4.66,4.66,0,0,0-2.58,1.43,2.26,2.26,0,0,0-.65,2,4.82,4.82,0,0,0-2.35,1.38,2,2,0,0,0,.77,3.47l.26.08a4.13,4.13,0,0,0-2.59,2.73,2.12,2.12,0,0,0,0,.43,2.09,2.09,0,0,0,0,.36l-.35-.08a4.06,4.06,0,0,0-1.11,0c-1.91.22-3.69,1.6-4,3.09a1.86,1.86,0,0,0,1.36,2.17,9.81,9.81,0,0,0-.41,1.1,3.33,3.33,0,0,0-1.48,3,1.84,1.84,0,0,0,.61,1.08,3.22,3.22,0,0,0-1.36,2.89c.25,1.45,2,2.1,3.9,1.46a2,2,0,0,1,.13-.25l.16.14-.26.1h0a2.5,2.5,0,0,0-.29,1.58c.26,1.46,2,2.11,3.93,1.45a5.2,5.2,0,0,0,1.51-.81s0,0,0,0h.05l-.05,0c.28,1.43,2,2.06,3.93,1.41a5,5,0,0,0,1.53-.85,2.51,2.51,0,0,0,.55,0,4.14,4.14,0,0,0-1.1,1.55c-.59,1.56.47,2.77,2.39,2.67a5.19,5.19,0,0,0,1.67-.38v0s0,0,0,0l0,0-.06,0c-.57,1.56.5,2.73,2.4,2.64a5.63,5.63,0,0,0,2.58-.82.85.85,0,0,1,0-.23c.11,0,.23,0,.34,0l-.3.2a1.91,1.91,0,0,0,1.61,1.4,4.78,4.78,0,0,0,2.71-.31,2,2,0,0,0,1.58,1.23,5.26,5.26,0,0,0,4.93-2,3.5,3.5,0,0,0,.34-.58,5.24,5.24,0,0,0,2.48-1.75,2.77,2.77,0,0,0,.53-1.21,5.37,5.37,0,0,0,4.48-2,2,2,0,0,0,.17-2.56,2.26,2.26,0,0,0,.31-1.57,2.38,2.38,0,0,0,1.06.5,5.28,5.28,0,0,0,4.92-2,2.73,2.73,0,0,0,.34-.58,5.21,5.21,0,0,0,2.48-1.75,2.8,2.8,0,0,0,.54-1.21,5.38,5.38,0,0,0,4.48-2,2,2,0,0,0,.16-2.57,2.07,2.07,0,0,0,.24-1.79,5.09,5.09,0,0,0,2.34-1.7c1-1.42.58-2.84-1-3.24l0-.59a4.45,4.45,0,0,0,1.1-1.06c1.06-1.44.57-2.91-1.1-3.27h0a1.81,1.81,0,0,0-1.59-2.3,4.53,4.53,0,0,0-2.15.12,2,2,0,0,0-1-3.17,4.13,4.13,0,0,0-.5-.15,3.54,3.54,0,0,0-.47-.07,2.6,2.6,0,0,0,.36-.21,3.58,3.58,0,0,0,.86-.73,2,2,0,0,0-.77-3.47,4.77,4.77,0,0,0-3.61.3c-.33-.2-.67-.39-1-.57a2.69,2.69,0,0,0-2.51-1.79,5.2,5.2,0,0,0-1.76.1,2.72,2.72,0,0,0-2.47-1.7c-1.94-.22-4,.75-4.66,2.18l.19.16-.29.06c0-.06,0-.13.08-.2l0,0A3.52,3.52,0,0,0,811,267a5.43,5.43,0,0,0-2.2.23l-.52.09a2.76,2.76,0,0,0-2.48-1.69c-1.93-.22-4,.74-4.66,2.18l.19.16-.28.06c0-.06.05-.13.08-.2s0,0,0,0a3.62,3.62,0,0,0-1.7-.63C797.48,267,795.39,268,794.75,269.41Z" transform="translate(-16.49 -206)"/><path class="cls-9" d="M811.19,255.79a2,2,0,0,0-.47,1.14h.06l-.06,0v0c-1.79-.74-4.05-.36-5.05.84a1.92,1.92,0,0,0-.39,1.81,1.76,1.76,0,0,1,.33,0l-.24.2-.09-.23a4.69,4.69,0,0,0-2.87.66,2.27,2.27,0,0,0-1.18,1.76,4.76,4.76,0,0,0-2.64.68,2,2,0,0,0-.22,3.55l.24.15a4.1,4.1,0,0,0-3.24,1.91,1.63,1.63,0,0,0-.15.4,1.51,1.51,0,0,0-.06.36l-.31-.18a4.63,4.63,0,0,0-1.07-.33c-1.9-.31-4,.52-4.67,1.88a1.85,1.85,0,0,0,.71,2.46,8,8,0,0,0-.7.95,3.34,3.34,0,0,0-2.25,2.47,1.84,1.84,0,0,0,.29,1.2,3.26,3.26,0,0,0-2.1,2.41c-.16,1.47,1.34,2.56,3.34,2.48a1.34,1.34,0,0,1,.21-.2,1.74,1.74,0,0,0,.11.18l-.28,0h0a2.55,2.55,0,0,0-.71,1.44c-.15,1.47,1.37,2.58,3.38,2.48a5.65,5.65,0,0,0,1.68-.37v0h0l0,0,0,0c-.13,1.45,1.38,2.54,3.39,2.43a4.86,4.86,0,0,0,1.71-.39,2.88,2.88,0,0,0,.52.17,4.11,4.11,0,0,0-1.49,1.18c-1,1.35-.31,2.8,1.56,3.23a5.19,5.19,0,0,0,1.72.1.08.08,0,0,1,0,0h0l0,0h-.06c-1,1.33-.27,2.76,1.58,3.19a5.49,5.49,0,0,0,2.7-.08.83.83,0,0,1,0-.22l.32.12-.35.1a1.91,1.91,0,0,0,1.17,1.79,4.71,4.71,0,0,0,2.69.44,2,2,0,0,0,1.18,1.63,5.28,5.28,0,0,0,5.28-.53,3.58,3.58,0,0,0,.48-.47,5.24,5.24,0,0,0,2.87-1,2.93,2.93,0,0,0,.85-1,5.38,5.38,0,0,0,4.86-.72,2,2,0,0,0,.87-2.42,2.21,2.21,0,0,0,.72-1.42,2.4,2.4,0,0,0,.88.77,5.32,5.32,0,0,0,5.28-.53,3.68,3.68,0,0,0,.49-.47,5.22,5.22,0,0,0,2.86-1,2.75,2.75,0,0,0,.85-1,5.37,5.37,0,0,0,4.87-.71,2,2,0,0,0,.86-2.42,2.1,2.1,0,0,0,.72-1.66,5.16,5.16,0,0,0,2.72-1c1.39-1.07,1.34-2.57-.06-3.39.07-.18.13-.37.18-.55a4.54,4.54,0,0,0,1.36-.72c1.41-1.09,1.34-2.64-.17-3.44h0a1.81,1.81,0,0,0-.9-2.65,4.33,4.33,0,0,0-2.1-.47,2,2,0,0,0-.09-3.33,4.55,4.55,0,0,0-.43-.28,3.43,3.43,0,0,0-.44-.19l.41-.11a3.62,3.62,0,0,0,1-.46,2,2,0,0,0,.22-3.55,4.74,4.74,0,0,0-3.56-.7,11.09,11.09,0,0,0-.84-.84,2.66,2.66,0,0,0-1.91-2.41,5.18,5.18,0,0,0-1.72-.39,2.72,2.72,0,0,0-1.92-2.31c-1.79-.75-4.06-.39-5.07.81.05.07.1.14.14.21l-.29,0,.12-.17,0,0a3.63,3.63,0,0,0-1.46-1.07,5.31,5.31,0,0,0-2.18-.38,4.75,4.75,0,0,0-.53-.05,2.7,2.7,0,0,0-1.91-2.31c-1.8-.75-4.07-.39-5.08.81a1.43,1.43,0,0,1,.14.2h-.29a1.09,1.09,0,0,1,.13-.17l0,0a3.61,3.61,0,0,0-1.46-1.07C814.48,254.2,812.2,254.58,811.19,255.79Z" transform="translate(-16.49 -206)"/><circle class="cls-6" cx="788" cy="115.87" r="8.59"/><circle class="cls-6" cx="836.3" cy="110.7" r="8.59"/></g><path class="cls-12" d="M876.85,546c2.49,57.39.18,127.48,5.07,181.65,1.08,11.89,12.43,90.75,14.2,102.56" transform="translate(-16.49 -206)"/><rect class="cls-7" x="873.84" y="826.22" width="33.19" height="6.9" rx="1.87" transform="translate(1814.87 1395.6) rotate(176.39)"/></g><g id="Tall_Girl" data-name="Tall Girl"><g id="Head"><g id="Face"><circle id="Ear" class="cls-13" cx="994.64" cy="133.51" r="8.08"/><path id="Face-2" data-name="Face" class="cls-13" d="M1015.45,336.33a43.13,43.13,0,0,1-.56,6.34c-.06.38-4.65,12.44-9.8,19.87a20.22,20.22,0,0,1-4.08,4.58c-5.18,3.9-11.25,5.75-17.37,4.74a21.59,21.59,0,0,1-11.84-6.28,28.08,28.08,0,0,1-3.25-4c-2.84-4.25-4.18-13.78-4.77-20.41-.34-3.93-.43-6.83-.4-7,3-18.48,17-31.56,31.26-29.21C1007.21,307.05,1015.75,320.48,1015.45,336.33Z" transform="translate(-16.49 -206)"/><path class="cls-13" d="M971.8,365.58l3.52-16.81,26.8-.79,3,14.56a20.22,20.22,0,0,1-4.08,4.58c-5.18,3.9-11.25,5.75-17.37,4.74A21.59,21.59,0,0,1,971.8,365.58Z" transform="translate(-16.49 -206)"/></g><g id="Hair-_Ponytail" data-name="Hair- Ponytail"><path class="cls-14" d="M1020.52,289.87c3.05,1.44,5.66,4.36,8,7.23,4.63,5.78,8.91,12.08,14.53,16.69,4.36,3.57,9.33,5.95,13.44,9.91,1.46,1.41,2.78,3,4.18,4.46a89.67,89.67,0,0,0,7.75,7c.29,1.71-.73,6.22-2.15,6.5s-6.6-1.49-8-1.27c-3.47.53-3.76,5.4-7.52,5.09-4.21-.35-8.33-4.88-11.76-8.86-8.76-10.17-16.62-23.33-26.46-32.26a17.59,17.59,0,0,1-4.44-5.21C1004,290.63,1014.28,286.94,1020.52,289.87Z" transform="translate(-16.49 -206)"/><path class="cls-14" d="M989.29,325.4c-1.48-5.38-7-16.33-1.23-20.86s15.8-2.53,22.3,4.47S990.83,331,989.29,325.4Z" transform="translate(-16.49 -206)"/><path class="cls-14" d="M963,327.63c6.28-4.8-.87-16.43,7.55-21.81s18.72-4.35,23,2.32S956.74,332.43,963,327.63Z" transform="translate(-16.49 -206)"/><path class="cls-14" d="M1016.46,336.33c-2.28-5.06-19.31-.11-21.16-6.85s4.62-14.59,14.47-17.54S1018.75,341.39,1016.46,336.33Z" transform="translate(-16.49 -206)"/><path class="cls-14" d="M1014,325.23c-13-2.84-31.35,14.3-46.78,9.62s-16.76-23.12,4.12-24.46C990.23,309.17,1027,328.07,1014,325.23Z" transform="translate(-16.49 -206)"/><rect class="cls-15" x="1001.64" y="296.3" width="14.25" height="14.25" transform="translate(81.07 625.99) rotate(-46.86)"/></g></g><g id="Neck"><path class="cls-13" d="M1009.58,418.64l-42.19-6.06,3.36-42A22,22,0,0,0,984,378.47c6.12,1,12.2-.83,17.37-4.74a22.74,22.74,0,0,0,4.81-5.66Z" transform="translate(-16.49 -206)"/><path class="cls-13" d="M1006.22,368.07a22.74,22.74,0,0,1-4.81,5.66c-5.17,3.91-11.25,5.75-17.37,4.74a22,22,0,0,1-13.29-7.86l1-5a21.59,21.59,0,0,0,11.84,6.28c6.12,1,12.19-.84,17.37-4.74a20.22,20.22,0,0,0,4.08-4.58Z" transform="translate(-16.49 -206)"/><path class="cls-16" d="M1006.22,368.07a22.74,22.74,0,0,1-4.81,5.66c-5.17,3.91-11.25,5.75-17.37,4.74a22,22,0,0,1-13.29-7.86l1-5a21.59,21.59,0,0,0,11.84,6.28c6.12,1,12.19-.84,17.37-4.74a20.22,20.22,0,0,0,4.08-4.58Z" transform="translate(-16.49 -206)"/></g><path id="Mouth-_Smile" data-name="Mouth- Smile" class="cls-10" d="M982.32,355.86l10.19-.62.06,1c.12,2-2.72,3.74-3.79,3.8l-2.18.13c-1.07.07-4.1-1.34-4.22-3.31Z" transform="translate(-16.49 -206)"/><polygon class="cls-13" points="934.28 219.88 864.41 281.28 856.31 255.36 933.18 192.78 934.28 219.88"/><g id="Torso"><polygon id="Torso-_Belly" data-name="Torso- Belly" class="cls-13" points="990.6 367.04 938.2 380.19 941.33 259.15 1011.09 259.19 990.6 367.04"/><path id="Crop_Top-_Sand" data-name="Crop Top- Sand" class="cls-17" d="M1027.18,471.66l-69.84,3.2a2,2,0,0,1-2-1.42l-16.23-28.72a26.61,26.61,0,0,1,5.59-28.87c2.46-2.51,4.14-16.92,6.08-18.65a24.59,24.59,0,0,1,15.53-6.77,2,2,0,0,1,2.2,1.67C969.2,398,972.67,415.94,988,415c10-.63,21.18-7.66,20.33-26.22a1.92,1.92,0,0,1,.43-1.29h0a2.07,2.07,0,0,1,1.67-.74c13.4.55,27.28,15.15,24.91,17.58-6.68,6.86-1,24.62-1.42,28.05L1029.09,470a2,2,0,0,1-1.91,1.7" transform="translate(-16.49 -206)"/></g><g id="Shoe-_Sporty" data-name="Shoe- Sporty"><polygon id="A" class="cls-13" points="950.29 684.8 965.12 683.79 960.52 633.26 945.69 634.27 950.29 684.8"/><path class="cls-15" d="M943.34,918.69c-3.54,11.33,55.75,0,46.67-10-6.71-7.41-14.25-15.46-27.14-12.69S946.32,909.15,943.34,918.69Z" transform="translate(-16.49 -206)"/><path class="cls-18" d="M943.34,918.69c.69,4.09,47.82-3.38,46.67-10-1.7-9.85-14.25-15.46-27.14-12.69S941.68,908.83,943.34,918.69Z" transform="translate(-16.49 -206)"/><polygon class="cls-18" points="972.38 701.47 948.39 705.38 947.9 678.04 966.73 674.97 972.38 701.47"/><rect class="cls-15" x="950.51" y="901.22" width="8.19" height="2.62" rx="0.8" transform="translate(962.28 -616.96) rotate(47.66)"/><rect class="cls-15" x="958.03" y="897.24" width="8.19" height="2.62" rx="0.8" transform="translate(961.79 -623.81) rotate(47.66)"/></g><g id="Shoe-_Sporty-2" data-name="Shoe- Sporty"><polygon class="cls-13" points="1020.68 695.41 1004.06 696.58 999.45 650.73 1016.07 649.56 1020.68 695.41"/><path class="cls-15" d="M1017.15,902.55c-12.84,3-16.34,13.43-19.18,23-3.36,11.39,55.74-.87,46.51-10.74-6.82-7.31-14.48-15.24-27.33-12.27Z" transform="translate(-16.49 -206)"/><path class="cls-18" d="M1017.15,902.55c-12.84,3-21,13.18-19.18,23,.76,4.08,47.76-4.11,46.51-10.74-1.85-9.83-14.48-15.24-27.33-12.27Z" transform="translate(-16.49 -206)"/><polygon class="cls-18" points="1020.78 681.24 1026.83 707.65 1002.91 711.93 1002 684.6 1020.78 681.24"/><path class="cls-15" d="M1008,906.31l3.81,4.06a1.3,1.3,0,0,1-.06,1.85h0a1.3,1.3,0,0,1-1.85-.06l-3.81-4Z" transform="translate(-16.49 -206)"/><path class="cls-15" d="M1015.49,902.21l3.81,4.06a1.31,1.31,0,0,1-.06,1.85h0a1.3,1.3,0,0,1-1.85-.06l-3.81-4Z" transform="translate(-16.49 -206)"/></g><g id="Arm"><path id="Hand" class="cls-13" d="M1023.45,550.37c.82,2.41,10.29-.54,10.29-.54s-15.81,13-13,14.84c1.26.8,12.35-8.67,12.35-8.67.09.45-11.8,13.38-10.27,14.61,2.41,1.93,14.37-12.53,14.58-12.37,0,0-9.3,13.86-8.07,14.63,3.12,2,12.3-12.07,12.7-12.06,0,0-7.88,11.67-6,12.62,3.77,2,15.51-20.41,19.55-28.07,1-1.83-.65-.94-2.28-2.34l-8.12-4.89C1033.07,542.26,1022.86,548.65,1023.45,550.37Z" transform="translate(-16.49 -206)"/><polygon class="cls-13" points="1009.23 219.12 1078 281.74 1086.56 255.97 1014.46 195.27 1009.23 219.12"/><path class="cls-13" d="M1095.92,455.65,1036.75,548l10,8.78,61-74.14c4-5.47,3-14.47-2.11-18.78Z" transform="translate(-16.49 -206)"/></g><g id="Arm-2" data-name="Arm"><path class="cls-13" d="M935.61,548.06c-.92,2.3-9.94-1.37-9.94-1.37s14.65,14.09,11.81,15.65c-1.26.68-11.53-9.53-11.53-9.53-.1.44,10.75,14.12,9.21,15.2-2.42,1.7-13.28-13.49-13.49-13.34,0,0,8.31,14.38,7.08,15-3.11,1.66-11.3-12.87-11.69-12.89,0,0,7,12.11,5.23,12.9-3.75,1.62-14-21.33-17.53-29.19-.85-1.89.68-.88,2.33-2.12l8.1-4.15C926.69,539.31,936.26,546.42,935.61,548.06Z" transform="translate(-16.49 -206)"/><path class="cls-13" d="M883.72,454.32l37.06,83.95-11.62,12.38-41.24-71.39c-3.12-6-.76-14.75,4.92-18.25Z" transform="translate(-16.49 -206)"/></g><path class="cls-19" d="M959.69,862.76c.9,7.7,10.35-.15,19.83.81,13.6,1.36,1.15-105.55,3-216.09.14-9,.52-6.37,1.26.52,13.31,124.33,21.94,191.2,27.32,212.35,0,0,26.07,8.45,25.62.7-7-122.5-7.14-210.86,1.25-225.27,15.44-26.54-9-72.77-23.92-77.37-13.84-4.28-46.84-.82-61.07-.58-3.86.07-5.83,3.41-6.93,7.15C938,592.33,930.53,613.39,959.69,862.76Z" transform="translate(-16.49 -206)"/></g><g id="Harley_Koo" data-name="Harley Koo"><polygon class="cls-13" points="657.63 225.82 723.91 291.32 734.26 266.57 660.93 205.53 657.63 225.82"/><polygon class="cls-13" points="615.69 373.33 669.98 383.07 659.23 264.65 588.04 268.87 615.69 373.33"/><path class="cls-13" d="M658.44,383.13l-4.64-16.27-27.39.83-2.13,14.45a20.48,20.48,0,0,0,4.45,4.25,23.87,23.87,0,0,0,18,3.6A22.23,22.23,0,0,0,658.44,383.13Z" transform="translate(-16.49 -206)"/><path class="cls-13" d="M623.19,437.39l42.69-8.47-6-40.93a22.53,22.53,0,0,1-13.08,8.5,23.83,23.83,0,0,1-18-3.6,22.86,22.86,0,0,1-5.26-5.26Z" transform="translate(-16.49 -206)"/><polygon class="cls-13" points="572.96 676.12 589.8 678.54 598.19 634.02 581.35 631.59 572.96 676.12"/><polygon class="cls-13" points="689.62 676.74 668.44 678.11 663.31 628.41 684.49 627.05 689.62 676.74"/><path class="cls-19" d="M704.67,848.38c-.34,7.84-11,.22-21.1,1.53-14.43,1.88-10.73-119.61-23.23-209.62-1.25-9-10.88-6.42-11.51.57C641.08,727.12,617.5,850.1,612,849.26c-15-2.3-19,6.57-18.54-1.27,11.89-216.2-11-280.4,24-296.62,13.94-6.45,49.87-2.53,65-2.79,4.11-.08,6.34,3.23,7.66,7C699.85,582.91,714.38,622.87,704.67,848.38Z" transform="translate(-16.49 -206)"/><polygon class="cls-13" points="587.44 229.48 521.16 294.98 510.81 270.23 580.61 206.43 587.44 229.48"/><path class="cls-13" d="M612.07,357.08a40.84,40.84,0,0,0,1,6.18c.08.37,5.51,11.91,11.24,18.88a20.48,20.48,0,0,0,4.45,4.25,23.87,23.87,0,0,0,18,3.6,22.23,22.23,0,0,0,11.69-6.86,27.3,27.3,0,0,0,3.07-4.09c2.63-4.33,3.4-13.76,3.59-20.28.11-3.88,0-6.72,0-6.9-4.26-17.93-19.34-29.9-33.72-26.75C618.65,327.89,610.77,341.56,612.07,357.08Z" transform="translate(-16.49 -206)"/><path class="cls-13" d="M623.47,387.63a22.86,22.86,0,0,0,5.26,5.26,23.83,23.83,0,0,0,18,3.6,22.53,22.53,0,0,0,13.08-8.5l-1.39-4.86A22.23,22.23,0,0,1,646.75,390a23.87,23.87,0,0,1-18-3.6,20.48,20.48,0,0,1-4.45-4.25Z" transform="translate(-16.49 -206)"/><path class="cls-16" d="M623.47,387.63a22.86,22.86,0,0,0,5.26,5.26,23.83,23.83,0,0,0,18,3.6,22.53,22.53,0,0,0,13.08-8.5l-1.39-4.86A22.23,22.23,0,0,1,646.75,390a23.87,23.87,0,0,1-18-3.6,20.48,20.48,0,0,1-4.45-4.25Z" transform="translate(-16.49 -206)"/><path class="cls-20" d="M638.08,344.8c1.18-5.36,6.18-16.43,0-20.51s-16.29-1.53-22.48,5.71S636.86,350.37,638.08,344.8Z" transform="translate(-16.49 -206)"/><path class="cls-20" d="M665,345.41c-6.71-4.33-.14-16.15-9.08-20.92s-19.37-3.14-23.29,3.65S671.74,349.74,665,345.41Z" transform="translate(-16.49 -206)"/><path class="cls-20" d="M611,357.14c2-5.09,19.71-1.27,21.18-8s-5.63-14-15.86-16.32S609,362.23,611,357.14Z" transform="translate(-16.49 -206)"/><path class="cls-20" d="M612.91,346.11c13.12-3.57,32.89,12.14,48.34,6.63s15.67-23.66-5.73-23.73C636.11,329,599.79,349.68,612.91,346.11Z" transform="translate(-16.49 -206)"/><path class="cls-10" d="M654.21,371.21H636.66v1.59c0,3.25,5.06,5.88,6.9,5.88h3.76c1.83,0,6.89-2.63,6.89-5.88Z" transform="translate(-16.49 -206)"/><path class="cls-13" d="M728.19,481l88.08-31,11.88,12.16L752.61,498c-6.34,2.68-15.11-.18-18.3-6Z" transform="translate(-16.49 -206)"/><ellipse class="cls-13" cx="602.62" cy="154.54" rx="12.23" ry="11.74"/><path class="cls-13" d="M827.23,436c2.29,1.05-2,9.65-2,9.65s15.33-13.46,16.73-10.58c.62,1.28-10.47,10.69-10.47,10.69.44.14,15.1-9.64,16.11-8.07,1.58,2.49-14.63,12.17-14.5,12.39,0,0,15.22-7.24,15.81-6,1.49,3.15-13.87,10.26-13.92,10.63,0,0,12.83-6.13,13.51-4.31,1.41,3.78-22.68,12.37-30.93,15.34-2,.72-.85-.71-2-2.41l-3.71-8.2C817.72,444.19,825.6,435.26,827.23,436Z" transform="translate(-16.49 -206)"/><path class="cls-13" d="M534.2,469.61l66.15,87-9.66,9.2-66.92-69c-4.41-5.13-3.93-14,1-18.53Z" transform="translate(-16.49 -206)"/><path class="cls-13" d="M614.07,558.09c-.69,2.41-10.54.09-10.54.09s17,11.82,14.15,13.77c-1.23.86-13.14-7.76-13.14-7.76-.06.45,12.87,12.41,11.39,13.7-2.34,2-15.45-11.41-15.65-11.24,0,0,10.36,13,9.14,13.85-3,2.1-13.3-11.09-13.7-11.06,0,0,8.76,11,7,12-3.73,2.14-17.1-19.07-21.71-26.33-1.11-1.75.6-1,2.19-2.43l8-5.28C603.74,550.73,614.56,556.38,614.07,558.09Z" transform="translate(-16.49 -206)"/><g id="Shirt-_Dust-2" data-name="Shirt- Dust"><path class="cls-17" d="M683.72,559c-14.13,12.94-63.35,14.39-76,0-18.68-21.19-17.16-95.71-15.25-131.41a20.28,20.28,0,0,1,20.12-19.34h68a20.29,20.29,0,0,1,20.12,19.23C702.8,463.64,704.63,539.85,683.72,559Z" transform="translate(-16.49 -206)"/><path class="cls-17" d="M604.33,410.16c6.58.89,17.5,13.23,16.25,19.53-1.84,9.28-22.7,24.64-32.94,31.7a7.25,7.25,0,0,1-9.63-1.08l-14.53-17.46a6.56,6.56,0,0,1,1-9.23C574,425.42,594.58,408.84,604.33,410.16Z" transform="translate(-16.49 -206)"/><path class="cls-17" d="M667.51,429.07c-.08-6.39,11-18.63,17.64-18.4,9.83.34,28.81,17.8,37.63,26.45a6.57,6.57,0,0,1,.35,9.3l-15.77,16.45a7.25,7.25,0,0,1-9.65.45C687.83,455.55,667.63,438.52,667.51,429.07Z" transform="translate(-16.49 -206)"/></g><path class="cls-10" d="M650.7,911.8c6.92,11.25-81.3,3-69.62-7.64,8.64-7.83,18.39-16.35,37.62-14.24S644.88,902.33,650.7,911.8Z" transform="translate(-16.49 -206)"/><path class="cls-7" d="M650.7,911.8c-.37,4.17-70.26-.86-69.62-7.64.95-10,18.39-16.35,37.62-14.24S651.61,901.77,650.7,911.8Z" transform="translate(-16.49 -206)"/><polygon class="cls-7" points="566.08 696.91 601.66 699.58 598.14 671.96 570.2 669.87 566.08 696.91"/><path class="cls-10" d="M630.47,899.5l5.69-5.12c.4-.35.28-.87-.25-1.16l-1.18-.64a1.58,1.58,0,0,0-1.67.12l-5.69,5.12c-.39.36-.27.88.26,1.16l1.17.64A1.54,1.54,0,0,0,630.47,899.5Z" transform="translate(-16.49 -206)"/><path class="cls-10" d="M618.9,895.88l5.69-5.12c.39-.35.28-.87-.25-1.16l-1.18-.64a1.58,1.58,0,0,0-1.67.12l-5.69,5.13c-.39.35-.27.87.26,1.15l1.17.64A1.54,1.54,0,0,0,618.9,895.88Z" transform="translate(-16.49 -206)"/><path class="cls-10" d="M745.12,911.38c6.92,11.25-81.3,3-69.62-7.64,8.64-7.83,18.39-16.35,37.62-14.24S739.3,901.91,745.12,911.38Z" transform="translate(-16.49 -206)"/><path class="cls-7" d="M745.12,911.38c-.37,4.17-70.26-.86-69.62-7.64,1-10,18.39-16.35,37.62-14.24S746,901.35,745.12,911.38Z" transform="translate(-16.49 -206)"/><polygon class="cls-7" points="660.5 696.49 696.08 699.16 692.56 671.54 664.62 669.45 660.5 696.49"/><path class="cls-10" d="M724.89,899.08l5.7-5.12c.39-.35.27-.87-.26-1.16l-1.18-.64a1.58,1.58,0,0,0-1.67.12l-5.69,5.12c-.39.36-.27.88.26,1.16l1.17.64A1.54,1.54,0,0,0,724.89,899.08Z" transform="translate(-16.49 -206)"/><path class="cls-10" d="M713.32,895.46l5.69-5.12c.39-.35.28-.87-.25-1.16l-1.18-.64a1.58,1.58,0,0,0-1.67.12l-5.69,5.12c-.39.36-.27.88.26,1.16l1.17.64A1.54,1.54,0,0,0,713.32,895.46Z" transform="translate(-16.49 -206)"/></g><g id="Table_with_Pizza_and_Soda" data-name="Table with Pizza and Soda"><g id="Tabletop-_Wooden_depth" data-name="Tabletop- Wooden depth"><g id="Table_Leg-_Wooden_Depth" data-name="Table Leg- Wooden Depth"><polygon class="cls-21" points="207.66 554.73 185.6 554.73 183.38 552.48 182.49 551.59 179.36 548.43 201.42 548.43 207.66 554.73"/><polygon class="cls-22" points="207.66 554.73 207.66 800 185.6 800 179.36 793.71 179.36 548.43 182.49 551.59 183.38 552.48 185.6 554.73 207.66 554.73"/></g><g id="Table_Leg-_Wooden_Depth-2" data-name="Table Leg- Wooden Depth"><polygon class="cls-21" points="530.3 554.73 508.24 554.73 506.02 552.48 505.13 551.59 502 548.43 524.06 548.43 530.3 554.73"/><polygon class="cls-22" points="530.3 554.73 530.3 800 508.24 800 502 793.71 502 548.43 505.13 551.59 506.02 552.48 508.24 554.73 530.3 554.73"/></g><polyline class="cls-22" points="113.67 498.62 113.67 743.89 91.61 743.89 85.37 737.59 85.37 492.32"/><polyline class="cls-22" points="436.32 498.62 436.32 743.89 414.26 743.89 408.01 737.59 408.01 492.32"/><polygon class="cls-22" points="530.11 544.47 530.11 572.53 183.06 572.53 84.87 516.57 84.87 488.51 134.1 516.57 148.03 524.51 183.06 544.47 530.11 544.47"/><polygon class="cls-21" points="530.11 544.47 183.06 544.47 148.03 524.51 134.1 516.57 84.87 488.51 431.92 488.51 530.11 544.47"/></g><g id="Pizza_Box" data-name="Pizza Box"><polygon class="cls-23" points="306.8 504.15 164.49 504.15 150.12 495.44 144.41 491.97 124.22 479.73 266.53 479.73 306.8 504.15"/><polygon class="cls-24" points="306.8 504.15 306.8 522 164.49 522 124.22 497.58 124.22 479.73 144.41 491.97 150.12 495.44 164.49 504.15 306.8 504.15"/><g id="Pizza"><ellipse class="cls-21" cx="214.22" cy="491.36" rx="59.62" ry="9.31"/><ellipse class="cls-15" cx="214.22" cy="490.92" rx="52.35" ry="6.68"/><ellipse class="cls-25" cx="214.22" cy="490.92" rx="44.77" ry="5.71"/><ellipse class="cls-26" cx="191.37" cy="490.32" rx="6.02" ry="2.64"/><ellipse class="cls-26" cx="211.18" cy="491.56" rx="6.02" ry="2.64"/><ellipse class="cls-26" cx="238.53" cy="489.3" rx="6.02" ry="2.64"/></g></g><g id="Soda-_Brown" data-name="Soda- Brown"><path class="cls-26" d="M382.26,668.63v45.48a12.84,12.84,0,0,1-12.83,12.83H347a12.84,12.84,0,0,1-12.84-12.83V668.63c0-23.66,10.76-42.84,24-42.84S382.26,645,382.26,668.63Z" transform="translate(-16.49 -206)"/><path class="cls-27" d="M338.35,411.27h6.77a3.59,3.59,0,0,1,3.59,3.59v6a1.74,1.74,0,0,1-1.74,1.74H336.5a1.74,1.74,0,0,1-1.74-1.74v-6A3.59,3.59,0,0,1,338.35,411.27Z"/><rect class="cls-18" x="317.71" y="460.42" width="48.06" height="32.47"/></g><g id="Soda-_Green" data-name="Soda- Green"><path class="cls-18" d="M438.68,650.76v45.47a12.84,12.84,0,0,1-12.84,12.84H403.45a12.84,12.84,0,0,1-12.83-12.84V650.76c0-23.67,10.76-42.85,24-42.85S438.68,627.09,438.68,650.76Z" transform="translate(-16.49 -206)"/><path class="cls-28" d="M394.77,393.39h6.77a3.59,3.59,0,0,1,3.59,3.59v6a1.74,1.74,0,0,1-1.74,1.74H392.92a1.74,1.74,0,0,1-1.74-1.74v-6A3.59,3.59,0,0,1,394.77,393.39Z"/><rect class="cls-29" x="374.13" y="442.54" width="48.06" height="32.47"/></g><g id="Cups"><polygon class="cls-30" points="425.13 536.76 401.06 536.76 395.72 508.09 429.86 508.09 425.13 536.76"/><polygon class="cls-30" points="459.91 523.08 435.85 523.08 430.5 494.41 464.64 494.41 459.91 523.08"/></g></g><g id="Calendar"><rect class="cls-18" x="189.46" y="244.67" width="134.86" height="119.89"/><rect class="cls-18" x="189.46" y="125.39" width="134.86" height="119.89"/><rect class="cls-31" x="197.64" y="250.42" width="118.51" height="21.98"/><rect class="cls-31" x="195.62" y="336.16" width="21.68" height="21.98"/><rect class="cls-31" x="221.07" y="336.16" width="21.68" height="21.98"/><rect class="cls-31" x="246.52" y="336.16" width="21.68" height="21.98"/><rect class="cls-31" x="271.97" y="336.16" width="21.68" height="21.98"/><rect class="cls-31" x="297.42" y="336.16" width="21.68" height="21.98"/><rect class="cls-31" x="195.62" y="308.46" width="21.68" height="21.98"/><rect class="cls-31" x="221.07" y="308.46" width="21.68" height="21.98"/><rect class="cls-31" x="246.52" y="308.46" width="21.68" height="21.98"/><rect class="cls-31" x="271.97" y="308.46" width="21.68" height="21.98"/><rect class="cls-31" x="297.42" y="308.46" width="21.68" height="21.98"/><rect class="cls-31" x="195.62" y="280.76" width="21.68" height="21.98"/><rect class="cls-31" x="221.07" y="280.76" width="21.68" height="21.98"/><rect class="cls-31" x="246.52" y="280.76" width="21.68" height="21.98"/><rect class="cls-31" x="271.97" y="280.76" width="21.68" height="21.98"/><rect class="cls-31" x="297.42" y="280.76" width="21.68" height="21.98"/><path class="cls-32" d="M331,445.26H213.75s4.06-5.33,4.37-7.07c4.19-24,3.54-61.58-1-93-.29-2-3.4-8-3.4-8H331s3,6.87,3.4,9.12c4.23,26.43,5.32,69.38,1,91.83C335.05,439.92,331,445.26,331,445.26Z" transform="translate(-16.49 -206)"/><circle id="Pin" class="cls-33" cx="256.16" cy="131.51" r="2.63"/><g id="X_s_and_O_s" data-name="X&apos;s and O&apos;s"><path class="cls-34" d="M244.1,535.11a8.91,8.91,0,0,1-6-2.15c-3.82-3.54-4.85-9.68-2.34-14,2.36-4.07,9.67-9.56,19.25-7a3.44,3.44,0,1,1-1.78,6.64c-6-1.61-10.44,1.94-11.52,3.8a4.9,4.9,0,0,0,1.06,5.49,3.22,3.22,0,0,0,2.84,0c1.27-.61,1.88-2,1.81-4.24a3.44,3.44,0,0,1,6.88-.21c.15,5-2,9-5.89,10.73A10.28,10.28,0,0,1,244.1,535.11Z" transform="translate(-16.49 -206)"/><path class="cls-35" d="M307.91,509a3.47,3.47,0,0,1-2-.64L288.7,496a3.44,3.44,0,1,1,4-5.6l17.22,12.29a3.44,3.44,0,0,1-2,6.24Z" transform="translate(-16.49 -206)"/><path class="cls-35" d="M292.11,508.12a3.39,3.39,0,0,1-2.4-1,3.43,3.43,0,0,1-.06-4.86L304,487.56a3.44,3.44,0,1,1,4.92,4.81l-14.39,14.72A3.4,3.4,0,0,1,292.11,508.12Z" transform="translate(-16.49 -206)"/><path class="cls-35" d="M333.36,509a3.41,3.41,0,0,1-2-.64L314.15,496a3.44,3.44,0,1,1,4-5.6l17.22,12.29a3.44,3.44,0,0,1-2,6.24Z" transform="translate(-16.49 -206)"/><path class="cls-35" d="M317.56,508.12a3.44,3.44,0,0,1-2.46-5.84l14.39-14.72a3.44,3.44,0,1,1,4.92,4.81L320,507.09A3.4,3.4,0,0,1,317.56,508.12Z" transform="translate(-16.49 -206)"/><path class="cls-35" d="M231.56,536.66a3.4,3.4,0,0,1-2-.64l-17.22-12.29a3.44,3.44,0,0,1,4-5.6l17.22,12.29a3.44,3.44,0,0,1-2,6.24Z" transform="translate(-16.49 -206)"/><path class="cls-35" d="M215.76,535.82A3.43,3.43,0,0,1,213.3,530l14.38-14.72a3.44,3.44,0,0,1,4.92,4.81l-14.38,14.72A3.44,3.44,0,0,1,215.76,535.82Z" transform="translate(-16.49 -206)"/></g><path class="cls-36" d="M270.42,383.81a13.5,13.5,0,0,1-8.5-3.07A12.71,12.71,0,0,1,258,365.87c2.11-5.26,5.62-6,8.71-6.6,3.63-.74,7.38-1.5,11.57-10.48a2.51,2.51,0,1,1,4.54,2.12c-5.25,11.27-10.95,12.43-15.11,13.27-2.72.55-4,.8-5.06,3.56a7.7,7.7,0,0,0,2.42,9.1,8.41,8.41,0,0,0,10.14.45c2.5-1.68,2.28-3,1.79-5.92-1-5.78-.77-11.37,12-16.38a2.51,2.51,0,0,1,1.83,4.67c-10.06,3.94-9.54,7-8.89,10.88.52,3.14,1.24,7.43-3.94,10.91A13.6,13.6,0,0,1,270.42,383.81Z" transform="translate(-16.49 -206)"/><path class="cls-29" d="M281,384.82a13.48,13.48,0,0,1-8.5-3.07,12.72,12.72,0,0,1-3.92-14.86c2.12-5.27,5.62-6,8.72-6.61,3.63-.74,7.38-1.5,11.57-10.48a2.51,2.51,0,1,1,4.54,2.12c-5.26,11.27-10.95,12.43-15.11,13.27-2.72.56-4,.81-5.06,3.56a7.7,7.7,0,0,0,2.42,9.1,8.41,8.41,0,0,0,10.14.45c2.5-1.68,2.28-3,1.79-5.92-1-5.77-.77-11.37,12-16.37a2.5,2.5,0,1,1,1.83,4.66c-10.06,3.94-9.54,7-8.9,10.88.53,3.14,1.25,7.43-3.93,10.91A13.6,13.6,0,0,1,281,384.82Z" transform="translate(-16.49 -206)"/><path class="cls-36" d="M242.39,407.78c.05-1.54.1-4,.21-6.55.05-1.21.18-2.41.33-3.61.09-.76.16-.81.92-.73,1,.11,2,.28,3.06.43.73.11,1.45.24,2.17.36l.15,0c.5.16.57.24.55.75-.1,1.84-.17,3.69-.33,5.53a81.53,81.53,0,0,0-.33,9.38c0,1.26.06,2.53.17,3.78a9.24,9.24,0,0,0,2.45,5.79,4.63,4.63,0,0,0,6.32.61,9.37,9.37,0,0,0,2.48-2.69,13.89,13.89,0,0,0,2-5c.25-1.35.41-2.71.54-4.07a58.49,58.49,0,0,0,.21-6.35q0-4.61-.05-9.21c0-.22.06-.3.27-.29.59,0,1.17,0,1.76,0s1.28,0,1.92.09,1.39.14,2.09.22h.08c.44.1.44.11.46.55.05.84.14,1.68.14,2.52,0,2.55,0,5.09,0,7.64,0,1.94,0,3.87,0,5.8a38.55,38.55,0,0,1-.49,5.69,36,36,0,0,1-1,4.93,16,16,0,0,1-3,5.81,9.65,9.65,0,0,1-7.52,3.61c-1,0-2,0-2.94,0a10.2,10.2,0,0,1-4.15-1.16,13.85,13.85,0,0,1-7.11-8.72,25,25,0,0,1-1-5.61C242.47,414.49,242.43,411.62,242.39,407.78Z" transform="translate(-16.49 -206)"/><path class="cls-36" d="M300.65,413.51c-.14-5-.19-9.95-.12-14.93,0-1.06.06-2.13.08-3.19a.23.23,0,0,1,.2-.26,5.5,5.5,0,0,1,.69-.11,36.83,36.83,0,0,1,5.75.23,21.72,21.72,0,0,1,9.33,3.76A12.28,12.28,0,0,1,319.9,403a12.81,12.81,0,0,1,1.5,4.16,12.36,12.36,0,0,1,.16,1.72c0,1.56,0,3.12-.06,4.68A19.09,19.09,0,0,1,314.45,428a16,16,0,0,1-3.86,2.49,24.58,24.58,0,0,1-5.31,1.58,11.24,11.24,0,0,1-1.31.08c-.59,0-1.18.08-1.77.1a4,4,0,0,1-.78-.07c-.36-.08-.46-.24-.46-.6,0-2.08,0-4.16,0-6.23-.06-3.08-.16-6.16-.24-9.23ZM307,425a13.11,13.11,0,0,0,1.24-.56,10.44,10.44,0,0,0,3.24-3.07,18.21,18.21,0,0,0,3.14-9.2c.06-.8.05-1.61.11-2.41a6,6,0,0,0-2.12-5.2,7.79,7.79,0,0,0-4-1.75c-.53-.09-1.07-.11-1.66-.17C306.91,410.06,307,417.47,307,425Z" transform="translate(-16.49 -206)"/><path class="cls-36" d="M281.85,401c-.48,0-.94,0-1.39,0-1.82.13-3.65.08-5.47.06-.65,0-1.31,0-2,0h-.21c-.44,0-.53-.08-.56-.53-.06-.8-.12-1.6-.15-2.41,0-1,0-2.09-.07-3.13a4.75,4.75,0,0,0,0-.53.41.41,0,0,1,.37-.52,3.29,3.29,0,0,1,.54-.05c1.74,0,3.48,0,5.22-.07,2.18,0,4.37-.11,6.56-.18s4.1-.15,6.14-.22c1.8-.06,3.59-.12,5.38-.16a8.29,8.29,0,0,1,.85.06.22.22,0,0,1,.22.23,3.73,3.73,0,0,1,0,.47c0,1.78,0,3.55,0,5.33a8.34,8.34,0,0,1-.13,1c0,.22-.16.3-.38.28-.42,0-.83-.05-1.25-.05l-6.74.06-.09,0c0,.47,0,.93,0,1.39,0,.88,0,1.75.07,2.63.06,1.44.16,2.88.22,4.31s.12,2.84.16,4.26c.1,2.86.19,5.73.29,8.59.08,2.29.18,4.58.27,6.86,0,.77.1,1.54.11,2.31a5.45,5.45,0,0,1-.11,1.06.46.46,0,0,1-.47.4,31,31,0,0,1-4.09.12c-.51,0-1-.1-1.53-.17a1.91,1.91,0,0,1-.45-.13.37.37,0,0,1-.25-.37c-.15-3.44-.31-6.88-.45-10.32-.13-3.11-.26-6.23-.35-9.34s-.11-6.21-.17-9.32C282,402.3,281.89,401.65,281.85,401Z" transform="translate(-16.49 -206)"/></g></svg>