<svg id="Meetups" xmlns="http://www.w3.org/2000/svg" viewBox="0 0 1108.21 757.9"><defs><style>.cls-1{fill:#cdebfc;}.cls-2{fill:#42210b;}.cls-3{fill:#754c24;}.cls-4{fill:#d48800;}.cls-5{fill:#fbb03b;}.cls-6{fill:#7a4e2d;}.cls-11,.cls-7{fill:#1a1a1a;}.cls-8{fill:orange;}.cls-9{fill:#160e00;}.cls-10{fill:#fff;}.cls-11{opacity:0.4;}.cls-12{fill:none;stroke:#f2f2f2;stroke-miterlimit:10;stroke-width:4px;}.cls-13{fill:#ffbca2;}.cls-14{fill:#940007;}.cls-15{fill:#c1272d;}.cls-16{fill:#666;opacity:0.3;}.cls-17{fill:#fff1d6;}.cls-18{fill:#f2f2f2;}.cls-19{fill:#00003c;}.cls-20{fill:#1b1464;}.cls-21{fill:#c69c6d;}.cls-22{fill:#a67c52;}.cls-23{fill:#dbded6;}.cls-24{fill:#998675;}.cls-25{fill:#c6bda6;}.cls-26{fill:#9b272d;}.cls-27{fill:#ed1c24;}.cls-28{fill:#39b54a;}.cls-29{fill:#009245;}.cls-30{fill:#e6f2f2;opacity:0.96;}.cls-31{fill:#e7e9d9;}.cls-32{fill:#4d4d4d;}.cls-33{fill:#b3b3b3;}.cls-34,.cls-35{fill:#d4145a;}.cls-34{opacity:0.84;}.cls-36{fill:#f7931e;}</style></defs><title>Meetups</title><path id="Light_Blue_Blob_2" data-name="Light Blue Blob 2" class="cls-1" d="M1118.32,1055.4H81.6a619,619,0,0,0-7.31-229.91c-6.22-28-14.45-55.83-15.45-84.5-2.69-76.66,45.34-144.26,80.91-212.23,16.2-30.92,30.5-63.61,54.37-89.08,37.49-40,97.61-57.2,150.58-43,40,10.7,73.62,37,109.64,57.37s79.51,35.35,118.36,21c24-8.84,42.7-27.6,61.85-44.54C688.06,383.14,751.92,346,821.8,331.06s146-6.28,206.93,31.08c32.87,20.15,127.4,177.47-7.63,284.12-25.65,20.26-40.79,53.93-43.06,86.54-3.16,45.38,32.14,84.56,70.35,109.2S1245.83,940.92,1118.32,1055.4Z" transform="translate(-58.73 -324.13)"/><g id="Lamar_Hackson" data-name="Lamar Hackson"><polygon class="cls-2" points="748.91 597.84 732 597.29 733.14 559.07 750.05 559.61 748.91 597.84"/><path class="cls-3" d="M752,948.16c.52,2.41,1.56,4.14,2.78,4.14h58.88a1.6,1.6,0,0,0,1.58-1.83c-.11-.71-.22-1.48-.34-2.31Z" transform="translate(-58.73 -324.13)"/><path class="cls-4" d="M752,948.16h62.9c-1.57-12.07-3.18-36.17-5.75-38.39a1,1,0,0,0-.29-.15c-9.83-2.16-15.91,6.53-23.49,14.15-6,6-12.9,11.33-23.31,10.21C752.52,933,750.77,942.45,752,948.16Z" transform="translate(-58.73 -324.13)"/><rect class="cls-4" x="787.87" y="905.76" width="23.78" height="34.02" rx="2.22" transform="translate(1540.78 1521.41) rotate(-180)"/><path class="cls-3" d="M795.18,905.76h17a5,5,0,0,1,5,5v2.88a0,0,0,0,1,0,0H795.18a2.89,2.89,0,0,1-2.89-2.89v-2.09a2.89,2.89,0,0,1,2.89-2.89Z" transform="translate(1550.69 1495.26) rotate(-180)"/><rect class="cls-5" x="784.76" y="914.88" width="9.09" height="3.32" rx="1.22" transform="translate(1519.89 1508.97) rotate(180)"/><rect class="cls-5" x="781.57" y="922.03" width="9.09" height="3.32" rx="1.22" transform="translate(1513.51 1523.26) rotate(-180)"/><rect class="cls-5" x="776.31" y="928.72" width="9.09" height="3.32" rx="1.22" transform="translate(1502.98 1536.65) rotate(-180)"/><polygon class="cls-2" points="839.41 621.12 822.55 622.58 819.16 584.49 836.02 583.03 839.41 621.12"/><path class="cls-3" d="M845.39,972.8c.8,2.33,2.05,3.93,3.26,3.79l58.46-7a1.6,1.6,0,0,0,1.35-2c-.19-.68-.4-1.44-.6-2.25Z" transform="translate(-58.73 -324.13)"/><path class="cls-4" d="M845.39,972.8l62.47-7.44c-3-11.8-7.44-35.54-10.26-37.44a.79.79,0,0,0-.3-.11c-10-1-15,8.36-21.66,16.82-5.23,6.66-11.47,12.78-21.93,12.9C844.08,957.64,843.47,967.28,845.39,972.8Z" transform="translate(-58.73 -324.13)"/><rect class="cls-4" x="875.44" y="925.22" width="23.78" height="34.02" rx="2.22" transform="translate(1821.13 1448.8) rotate(173.21)"/><path class="cls-3" d="M881.18,924.73h17a5,5,0,0,1,5,5v2.88a0,0,0,0,1,0,0H881.18a2.89,2.89,0,0,1-2.89-2.89v-2.09A2.89,2.89,0,0,1,881.18,924.73Z" transform="translate(1826.25 1421.36) rotate(173.21)"/><rect class="cls-5" x="871.68" y="935.63" width="9.09" height="3.32" rx="1.22" transform="translate(1798.4 1440.27) rotate(173.21)"/><rect class="cls-5" x="870.58" y="942.95" width="9.09" height="3.32" rx="1.22" transform="translate(1797.08 1454.99) rotate(173.21)"/><rect class="cls-5" x="867.37" y="950.08" width="9.09" height="3.32" rx="1.22" transform="translate(1791.52 1469.58) rotate(173.21)"/><polygon class="cls-6" points="724.84 189.26 662.77 250.59 653.09 227.42 721.75 170.26 724.84 189.26"/><path class="cls-7" d="M787.66,887.62c.62,7.33,10.33.22,19.75,1.44,13.51,1.76,17.34-99.86,23.12-204.46.47-8.49.65-6,1.24.54,12,132.57,35.29,235.08,49.45,230.55,13.55-4.33,18.06,6.13,17.36-1.19-21-219.45,8-282.5-33.41-313.16-11.56-8.55-46.69-2.37-60.89-2.62-3.85-.07-5.93,3-7.17,6.53C788.08,630.88,767.51,650.54,787.66,887.62Z" transform="translate(-58.73 -324.13)"/><polygon class="cls-6" points="826.4 195.85 888.46 257.18 898.15 234.01 832.79 174.26 826.4 195.85"/><path class="cls-6" d="M732.94,559.4l-82.48-29.06-11.12,11.38,70.73,33.64c5.94,2.51,14.15-.16,17.14-5.58Z" transform="translate(-58.73 -324.13)"/><path class="cls-6" d="M640.2,517.3c-2.14,1,1.91,9,1.91,9s-14.36-12.61-15.67-9.91c-.58,1.2,9.81,10,9.81,10-.41.13-14.14-9-15.08-7.55-1.48,2.32,13.7,11.39,13.57,11.59,0,0-14.25-6.78-14.8-5.61-1.4,3,13,9.61,13,10,0,0-12-5.75-12.65-4-1.32,3.53,21.24,11.58,29,14.36,1.86.67.8-.67,1.88-2.26l3.48-7.67C649.11,525,641.73,516.61,640.2,517.3Z" transform="translate(-58.73 -324.13)"/><path class="cls-6" d="M950.43,551.94,888.49,633.4l9,8.62,62.66-64.61c4.13-4.8,3.69-13.11-.93-17.35Z" transform="translate(-58.73 -324.13)"/><path class="cls-6" d="M875.64,634.79c.64,2.25,9.87.08,9.87.08s-15.87,11.07-13.26,12.89c1.16.81,12.31-7.26,12.31-7.26.06.42-12,11.62-10.66,12.83,2.18,1.9,14.46-10.69,14.65-10.53,0,0-9.7,12.19-8.56,13,2.86,2,12.45-10.39,12.83-10.35,0,0-8.21,10.26-6.52,11.23,3.49,2,16-17.85,20.33-24.65,1-1.63-.56-.9-2-2.28l-7.46-4.94C885.31,627.89,875.18,633.18,875.64,634.79Z" transform="translate(-58.73 -324.13)"/><g id="Shirt-_Dust" data-name="Shirt- Dust"><path class="cls-8" d="M885.06,635.93c3.16,19.61-102.9,19.33-98.43,0,8.43-36.44-2.46-99.57-.67-136.72.55-11.29,8.83-20.12,18.84-20.12h63.66c10,0,18.23,8.76,18.84,20C889.31,536.71,878.11,592.66,885.06,635.93Z" transform="translate(-58.73 -324.13)"/><path class="cls-8" d="M797.1,480.88c6.16.83,16.39,12.38,15.22,18.28-1.72,8.69-21.25,23.08-30.84,29.69a6.8,6.8,0,0,1-9-1l-13.61-16.36a6.15,6.15,0,0,1,.94-8.64C768.68,495.16,788,479.64,797.1,480.88Z" transform="translate(-58.73 -324.13)"/><path class="cls-8" d="M856.27,498.58c-.08-6,10.26-17.44,16.51-17.22,9.21.31,27,16.66,35.24,24.76a6.15,6.15,0,0,1,.33,8.71l-14.76,15.4a6.8,6.8,0,0,1-9,.43C875.3,523.38,856.38,507.43,856.27,498.58Z" transform="translate(-58.73 -324.13)"/></g><g id="Dude_Head" data-name="Dude Head"><path class="cls-9" d="M827.5,435.18a1.89,1.89,0,0,0-.51-1.05l0,0h0s0,0,0-.06l0,0a4.39,4.39,0,0,0,2.59-4.1,1.77,1.77,0,0,0-1-1.41l-.23.21v-.3a2.18,2.18,0,0,1,.23.09,4.53,4.53,0,0,0,1.34-2.45,2.19,2.19,0,0,0-.49-1.95,4.48,4.48,0,0,0,1.18-2.29,1.9,1.9,0,0,0-2.37-2.39l-.25.07a4,4,0,0,0,.7-3.5,2.08,2.08,0,0,0-.2-.36,1.09,1.09,0,0,0-.21-.26l.32-.12a3.63,3.63,0,0,0,.91-.54c1.42-1.14,2.15-3.14,1.62-4.48a1.75,1.75,0,0,0-2.18-1.05,9.3,9.3,0,0,0-.23-1.1,3.15,3.15,0,0,0-.33-3.14,1.71,1.71,0,0,0-1-.56,3.11,3.11,0,0,0-.37-3c-.94-1-2.66-.67-3.86.8a2.35,2.35,0,0,1,0,.27,1.38,1.38,0,0,0-.2,0l.16-.21,0,0a2.48,2.48,0,0,0-.57-1.41c-.95-1-2.69-.67-3.89.82a5.31,5.31,0,0,0-.8,1.42l0,0h0l0,0a.43.43,0,0,0,0-.05c-.94-1-2.66-.63-3.86.85a5,5,0,0,0-.8,1.46,3.47,3.47,0,0,0-.45.26,4,4,0,0,0,.11-1.8c-.32-1.55-1.78-2-3.27-.93a4.83,4.83,0,0,0-1.15,1.15v.05h0a.13.13,0,0,1,0-.05c-.33-1.53-1.78-1.94-3.26-.91a5.25,5.25,0,0,0-1.64,2,.73.73,0,0,1,.14.16l-.29.15a1.77,1.77,0,0,1,.15-.31,1.82,1.82,0,0,0-2-.31,4.54,4.54,0,0,0-2,1.62,1.89,1.89,0,0,0-1.89-.2,5,5,0,0,0-3,4.07,4.42,4.42,0,0,0,0,.64,5,5,0,0,0-1.1,2.65,2.67,2.67,0,0,0,.18,1.24,5.09,5.09,0,0,0-2.56,3.89,1.89,1.89,0,0,0,1.16,2.14,2.13,2.13,0,0,0,.55,1.41,2.23,2.23,0,0,0-1.11.14,5,5,0,0,0-2.95,4.06,2.69,2.69,0,0,0,0,.64,5,5,0,0,0-1.11,2.65,2.66,2.66,0,0,0,.19,1.24,5.12,5.12,0,0,0-2.57,3.89,1.91,1.91,0,0,0,1.17,2.14,2,2,0,0,0,.71,1.56,4.82,4.82,0,0,0-1,2.55c-.12,1.65,1,2.57,2.43,2.09.09.17.18.33.28.49a4,4,0,0,0-.35,1.4c-.12,1.69,1,2.62,2.53,2.06h0a1.71,1.71,0,0,0,2.43,1,4.3,4.3,0,0,0,1.67-1.19,1.86,1.86,0,0,0,2.4,2,3.62,3.62,0,0,0,.47-.13,3.89,3.89,0,0,0,.42-.19l-.19.35a3.78,3.78,0,0,0-.32,1,1.91,1.91,0,0,0,2.37,2.39,4.52,4.52,0,0,0,2.75-2.06,8.48,8.48,0,0,0,1.11-.07,2.52,2.52,0,0,0,2.92.17,4.85,4.85,0,0,0,1.36-1,2.59,2.59,0,0,0,2.84.1,4.41,4.41,0,0,0,2.63-4.09l-.24,0,.2-.2c0,.07,0,.13,0,.2v0a3.39,3.39,0,0,0,1.68-.36,4.85,4.85,0,0,0,1.64-1.3c.13-.1.26-.22.38-.33a2.59,2.59,0,0,0,2.84.1,4.42,4.42,0,0,0,2.63-4.1.85.85,0,0,1-.23,0l.19-.19a1.29,1.29,0,0,1,0,.19v0a3.37,3.37,0,0,0,1.68-.36A4.41,4.41,0,0,0,827.5,435.18Z" transform="translate(-58.73 -324.13)"/><path class="cls-9" d="M877.17,412.37a1.87,1.87,0,0,0-1-.53l0,0v0s0,0,0-.06h0a4.38,4.38,0,0,0-.42-4.83,1.77,1.77,0,0,0-1.67-.51,2.87,2.87,0,0,1,0,.31l-.18-.24.23-.07a4.39,4.39,0,0,0-.4-2.76,2.16,2.16,0,0,0-1.57-1.25,4.53,4.53,0,0,0-.44-2.54,1.9,1.9,0,0,0-3.33-.48.83.83,0,0,0-.16.21,4,4,0,0,0-1.56-3.21,1.76,1.76,0,0,0-.37-.17,1.44,1.44,0,0,0-.33-.08l.19-.29a3.78,3.78,0,0,0,.39-1c.44-1.76-.18-3.8-1.41-4.55a1.76,1.76,0,0,0-2.38.48,8.13,8.13,0,0,0-.84-.73,3.18,3.18,0,0,0-2.16-2.32,1.77,1.77,0,0,0-1.16.18,3.1,3.1,0,0,0-2.12-2.17c-1.37-.26-2.52,1.07-2.59,3a1.2,1.2,0,0,1,.17.21l-.17.09v-.3a2.36,2.36,0,0,0-1.31-.78c-1.38-.26-2.54,1.09-2.59,3a4.69,4.69,0,0,0,.22,1.61h0l0,.05s0,0,0-.06c-1.36-.23-2.51,1.11-2.56,3a4.69,4.69,0,0,0,.23,1.64,3,3,0,0,0-.2.48,4.11,4.11,0,0,0-1-1.5c-1.19-1-2.61-.5-3.17,1.23a5.1,5.1,0,0,0-.22,1.61l0,0h0l0,0v-.06c-1.19-1-2.59-.47-3.14,1.25a5.27,5.27,0,0,0-.13,2.56.78.78,0,0,1,.21,0c0,.1-.09.2-.14.29,0-.11,0-.22-.07-.33a1.81,1.81,0,0,0-1.78,1,4.43,4.43,0,0,0-.62,2.51,1.86,1.86,0,0,0-1.63,1,5,5,0,0,0,.1,5,2.5,2.5,0,0,0,.4.49,4.9,4.9,0,0,0,.72,2.79,2.59,2.59,0,0,0,.9.88,5.07,5.07,0,0,0,.3,4.65,1.89,1.89,0,0,0,2.22,1,2.1,2.1,0,0,0,1.28.79,2.25,2.25,0,0,0-.79.78,5,5,0,0,0,.1,5,2.92,2.92,0,0,0,.4.5,4.88,4.88,0,0,0,.72,2.78,2.64,2.64,0,0,0,.9.87,5.12,5.12,0,0,0,.3,4.66,1.9,1.9,0,0,0,2.22,1,2,2,0,0,0,1.51.81,4.92,4.92,0,0,0,.73,2.64c.91,1.39,2.33,1.47,3.21.2.17.08.34.16.51.22a4.34,4.34,0,0,0,.57,1.34c.92,1.41,2.39,1.47,3.26.1h0a1.71,1.71,0,0,0,2.57-.64,4.15,4.15,0,0,0,.61-1.95,1.87,1.87,0,0,0,3.15.17,4,4,0,0,0,.3-.39,2.42,2.42,0,0,0,.21-.39c0,.13,0,.25.07.39a3.52,3.52,0,0,0,.36,1,1.91,1.91,0,0,0,3.33.48,4.46,4.46,0,0,0,.94-3.31,9.53,9.53,0,0,0,.85-.72,2.55,2.55,0,0,0,2.43-1.63,5,5,0,0,0,.5-1.59,2.56,2.56,0,0,0,2.32-1.63,4.41,4.41,0,0,0-.37-4.85l-.21.11,0-.27.15.13,0,0a3.34,3.34,0,0,0,1.12-1.31,4.82,4.82,0,0,0,.53-2,4.21,4.21,0,0,0,.09-.49,2.59,2.59,0,0,0,2.33-1.64,4.43,4.43,0,0,0-.37-4.86l-.21.12c0-.08,0-.18,0-.27l.15.13,0,0a3.33,3.33,0,0,0,1.11-1.29A4.41,4.41,0,0,0,877.17,412.37Z" transform="translate(-58.73 -324.13)"/><path class="cls-9" d="M814.23,418.62a1.86,1.86,0,0,0-.51-1l0,0h0a.17.17,0,0,1,0-.05l0,0c1.65-.81,2.81-2.64,2.59-4.1a1.76,1.76,0,0,0-1-1.42,2.39,2.39,0,0,1-.23.22c0-.11,0-.21,0-.3l.22.08a4.41,4.41,0,0,0,1.35-2.45,2.16,2.16,0,0,0-.49-1.94,4.55,4.55,0,0,0,1.18-2.29A1.91,1.91,0,0,0,815,403a1.21,1.21,0,0,0-.25.08,4,4,0,0,0,.7-3.5,2.08,2.08,0,0,0-.2-.36,1.94,1.94,0,0,0-.21-.27l.32-.11a4.35,4.35,0,0,0,.91-.54c1.42-1.14,2.14-3.15,1.62-4.49a1.76,1.76,0,0,0-2.18-1.05c-.06-.37-.14-.74-.23-1.09a3.17,3.17,0,0,0-.33-3.15,1.82,1.82,0,0,0-1-.56,3.09,3.09,0,0,0-.37-3c-.94-1-2.66-.67-3.87.8a2.13,2.13,0,0,1,0,.27l-.2,0,.16-.21,0,0a2.36,2.36,0,0,0-.57-1.42c-.94-1-2.68-.66-3.88.83a4.91,4.91,0,0,0-.8,1.42l0,0h0l0,0a.09.09,0,0,1,0-.05c-.94-1-2.66-.64-3.86.85a4.71,4.71,0,0,0-.8,1.45,3.47,3.47,0,0,0-.45.26,3.92,3.92,0,0,0,.1-1.79c-.31-1.56-1.77-2-3.26-.94a4.83,4.83,0,0,0-1.15,1.15v0h0s0,0,0-.05c-.33-1.53-1.78-1.93-3.26-.9a5.33,5.33,0,0,0-1.65,2,1.14,1.14,0,0,1,.15.16,2.69,2.69,0,0,0-.29.16,3.09,3.09,0,0,1,.14-.32,1.83,1.83,0,0,0-2-.31,4.58,4.58,0,0,0-2,1.62,1.86,1.86,0,0,0-1.89-.19,5,5,0,0,0-3,4.07,4.28,4.28,0,0,0,0,.63,5,5,0,0,0-1.11,2.66,2.82,2.82,0,0,0,.19,1.24,5.07,5.07,0,0,0-2.56,3.89,1.9,1.9,0,0,0,1.16,2.14,2.1,2.1,0,0,0,.54,1.4,2.32,2.32,0,0,0-1.1.14,5,5,0,0,0-2.95,4.06,2.67,2.67,0,0,0,0,.64,5,5,0,0,0-1.11,2.66,2.66,2.66,0,0,0,.19,1.24,5.09,5.09,0,0,0-2.57,3.89,1.9,1.9,0,0,0,1.17,2.14,2,2,0,0,0,.71,1.56,4.88,4.88,0,0,0-1,2.54c-.11,1.66,1,2.57,2.44,2.1.09.16.18.33.28.48a4.25,4.25,0,0,0-.36,1.41c-.11,1.69,1,2.61,2.54,2.06h0a1.7,1.7,0,0,0,2.43,1,4.27,4.27,0,0,0,1.67-1.18,1.86,1.86,0,0,0,2.4,2,2.52,2.52,0,0,0,.47-.13,3,3,0,0,0,.41-.18,3.84,3.84,0,0,0-.18.35,3.78,3.78,0,0,0-.32,1,1.91,1.91,0,0,0,2.37,2.39,4.5,4.5,0,0,0,2.75-2.07,10.6,10.6,0,0,0,1.11-.06,2.54,2.54,0,0,0,2.92.17,4.51,4.51,0,0,0,1.35-1,2.57,2.57,0,0,0,2.84.11,4.44,4.44,0,0,0,2.64-4.1l-.24,0,.2-.19c0,.06,0,.13,0,.19v0a3.3,3.3,0,0,0,1.68-.36,5,5,0,0,0,1.64-1.29,4,4,0,0,0,.37-.34,2.57,2.57,0,0,0,2.84.1,4.42,4.42,0,0,0,2.64-4.09l-.24,0,.2-.19c0,.06,0,.13,0,.2v0a3.44,3.44,0,0,0,1.67-.36A4.42,4.42,0,0,0,814.23,418.62Z" transform="translate(-58.73 -324.13)"/><path class="cls-6" d="M815.81,462.54,815,483.6c5.78,4.86,13,7,20,5.39a22.21,22.21,0,0,0,14.07-10.93l-2-18.85a22.23,22.23,0,0,1-17.21,7.85A25.58,25.58,0,0,1,815.81,462.54Z" transform="translate(-58.73 -324.13)"/><path class="cls-2" d="M815.93,459.28v.25l0,.37A25.63,25.63,0,0,0,829.33,464a22.31,22.31,0,0,0,17.44-8.15l-.14-1.35-.31-2.88-16.58,4.19L825,457Z" transform="translate(-58.73 -324.13)"/><path class="cls-6" d="M800.45,421a48.42,48.42,0,0,0,.11,12.84,35.09,35.09,0,0,0,.84,5.27,34.42,34.42,0,0,0,12.34,19.25c.71.54,1.43,1,2.17,1.5A25.63,25.63,0,0,0,829.33,464a22.31,22.31,0,0,0,17.44-8.15c.22-.28.45-.55.66-.83a28.59,28.59,0,0,0,5.63-15.12,31.6,31.6,0,0,0,0-5.59,59.83,59.83,0,0,0-.73-6.29,59.11,59.11,0,0,0-3.68-13v0c-2.27-5.33-5.69-10.52-10.83-13.75a22.3,22.3,0,0,0-13-3.29,29.68,29.68,0,0,0-9.88,1.93C804.89,403.84,801.45,413.16,800.45,421Z" transform="translate(-58.73 -324.13)"/><path class="cls-10" d="M818.55,450.2c.28,3,4.05,5,8.43,4.6s7.68-3.16,7.39-6.12S818.26,447.24,818.55,450.2Z" transform="translate(-58.73 -324.13)"/><path class="cls-2" d="M815.91,459.9l-.1,2.64a25.58,25.58,0,0,0,14.11,4.52,22.23,22.23,0,0,0,17.21-7.85l-.36-3.38A22.31,22.31,0,0,1,829.33,464,25.63,25.63,0,0,1,815.91,459.9Z" transform="translate(-58.73 -324.13)"/><path class="cls-11" d="M815.91,459.9l-.1,2.64a25.58,25.58,0,0,0,14.11,4.52,22.23,22.23,0,0,0,17.21-7.85l-.36-3.38A22.31,22.31,0,0,1,829.33,464,25.63,25.63,0,0,1,815.91,459.9Z" transform="translate(-58.73 -324.13)"/><path class="cls-9" d="M846.49,378.75a1.77,1.77,0,0,0-1,.64l0,0v0l-.06,0s0,0,0,0c-1-1.53-3-2.44-4.41-2a1.82,1.82,0,0,0-1.27,1.21,2.43,2.43,0,0,1,.25.2l-.3,0a1.55,1.55,0,0,1,.05-.23,4.44,4.44,0,0,0-2.6-1,2.15,2.15,0,0,0-1.86.75,4.47,4.47,0,0,0-2.43-.87,1.91,1.91,0,0,0-2.06,2.66,1.36,1.36,0,0,0,.11.25,3.92,3.92,0,0,0-3.56-.23,1.72,1.72,0,0,0-.34.24,1.37,1.37,0,0,0-.23.25l-.15-.31a4.45,4.45,0,0,0-.66-.83c-1.32-1.25-3.4-1.71-4.66-1a1.76,1.76,0,0,0-.76,2.3,9.37,9.37,0,0,0-1,.38,3.13,3.13,0,0,0-3.07.74,1.75,1.75,0,0,0-.42,1.1,3.08,3.08,0,0,0-2.93.76c-.9,1.07-.31,2.73,1.31,3.72l.26,0c0,.06,0,.13,0,.2l-.23-.14,0,0a2.42,2.42,0,0,0-1.33.76c-.9,1.07-.3,2.75,1.33,3.74a5.18,5.18,0,0,0,1.51.6l0,0v0l0,.05H816c-.87,1.07-.27,2.72,1.36,3.71a4.87,4.87,0,0,0,1.55.61,3.81,3.81,0,0,0,.32.41,4,4,0,0,0-1.8.13c-1.49.52-1.72,2-.49,3.36a4.87,4.87,0,0,0,1.29,1l0,0h0a.43.43,0,0,1,0,.05l-.06,0c-1.47.53-1.68,2-.46,3.35a5.26,5.26,0,0,0,2.16,1.37,1.07,1.07,0,0,1,.14-.16l.19.26-.33-.1a1.83,1.83,0,0,0,0,2,4.5,4.5,0,0,0,1.88,1.78,1.86,1.86,0,0,0,.06,1.9,5,5,0,0,0,4.42,2.4,3.8,3.8,0,0,0,.62-.11,5,5,0,0,0,2.79.75,2.65,2.65,0,0,0,1.2-.35,5.08,5.08,0,0,0,4.19,2,1.9,1.9,0,0,0,2-1.43,2.11,2.11,0,0,0,1.32-.73,2.27,2.27,0,0,0,.29,1.07A5,5,0,0,0,843,418.2a3.07,3.07,0,0,0,.63-.1,4.9,4.9,0,0,0,2.77.74,2.57,2.57,0,0,0,1.21-.35,5.07,5.07,0,0,0,4.2,2,1.89,1.89,0,0,0,2-1.44,2,2,0,0,0,1.45-.91,4.93,4.93,0,0,0,2.66.67c1.65-.11,2.42-1.31,1.75-2.7l.45-.33a4.43,4.43,0,0,0,1.44.16c1.69-.11,2.45-1.36,1.7-2.79h0a1.72,1.72,0,0,0,.71-2.56,4.21,4.21,0,0,0-1.4-1.49,1.87,1.87,0,0,0,1.71-2.65,4.43,4.43,0,0,0-.2-.45c-.07-.13-.15-.26-.23-.39a2.35,2.35,0,0,0,.37.14,3.79,3.79,0,0,0,1,.18,1.91,1.91,0,0,0,2.06-2.66,4.53,4.53,0,0,0-2.42-2.45,8.86,8.86,0,0,0-.21-1.1,2.51,2.51,0,0,0-.22-2.91,4.9,4.9,0,0,0-1.14-1.22,2.56,2.56,0,0,0-.27-2.83,4.43,4.43,0,0,0-4.41-2.06,1.91,1.91,0,0,1,0,.24l-.22-.18.19-.06h0a3.26,3.26,0,0,0-.58-1.62,5,5,0,0,0-1.5-1.46l-.38-.32a2.59,2.59,0,0,0-.28-2.83,4.41,4.41,0,0,0-4.41-2.07,1,1,0,0,1,0,.24l-.22-.17.2-.07h0a3.41,3.41,0,0,0-.57-1.61C849.91,379.25,847.92,378.33,846.49,378.75Z" transform="translate(-58.73 -324.13)"/><path class="cls-9" d="M796,384.2a1.83,1.83,0,0,0-.13,1.16H796l-.05,0a.06.06,0,0,1,0,0c-1.83-.2-3.79.73-4.38,2.09a1.76,1.76,0,0,0,.11,1.74l.31-.06-.17.25-.14-.19a4.51,4.51,0,0,0-2.45,1.35,2.17,2.17,0,0,0-.61,1.91,4.5,4.5,0,0,0-2.23,1.31,1.91,1.91,0,0,0,.73,3.29l.25.07a3.92,3.92,0,0,0-2.45,2.58,1.44,1.44,0,0,0,0,.41,1.22,1.22,0,0,0,0,.34l-.33-.07a3.7,3.7,0,0,0-1.06,0c-1.81.21-3.49,1.51-3.76,2.93a1.74,1.74,0,0,0,1.28,2.05,11.16,11.16,0,0,0-.39,1.05,3.17,3.17,0,0,0-1.4,2.84,1.78,1.78,0,0,0,.58,1,3.06,3.06,0,0,0-1.29,2.74c.24,1.37,1.89,2,3.69,1.38l.13-.23.15.13-.25.09h0a2.39,2.39,0,0,0-.27,1.5c.24,1.38,1.91,2,3.72,1.38a5,5,0,0,0,1.43-.78v0h0l0,0c.27,1.36,1.92,2,3.72,1.34a4.8,4.8,0,0,0,1.46-.8,2.94,2.94,0,0,0,.52,0,4,4,0,0,0-1,1.46c-.56,1.48.45,2.62,2.27,2.54a5.17,5.17,0,0,0,1.58-.36s0,0,0,0h0l0,0-.06,0c-.54,1.47.48,2.58,2.27,2.5a5.56,5.56,0,0,0,2.45-.78,1.43,1.43,0,0,1,0-.22l.32,0-.28.19a1.79,1.79,0,0,0,1.52,1.32,4.54,4.54,0,0,0,2.57-.29,1.88,1.88,0,0,0,1.5,1.17,5,5,0,0,0,4.67-1.86,3.54,3.54,0,0,0,.32-.55,4.9,4.9,0,0,0,2.35-1.66,2.6,2.6,0,0,0,.51-1.14,5.1,5.1,0,0,0,4.24-1.93,1.91,1.91,0,0,0,.16-2.43,2.16,2.16,0,0,0,.29-1.48,2.22,2.22,0,0,0,1,.47,5,5,0,0,0,4.67-1.86,2.61,2.61,0,0,0,.32-.55,4.9,4.9,0,0,0,2.35-1.65,2.64,2.64,0,0,0,.51-1.15,5.11,5.11,0,0,0,4.25-1.92,1.9,1.9,0,0,0,.15-2.43,2,2,0,0,0,.23-1.7,5,5,0,0,0,2.22-1.61c1-1.34.54-2.7-.95-3.08a5.07,5.07,0,0,0,0-.55,4.39,4.39,0,0,0,1-1c1-1.36.53-2.75-1-3.09h0a1.71,1.71,0,0,0-1.5-2.18,4.2,4.2,0,0,0-2,.11,1.86,1.86,0,0,0-.95-3,2.54,2.54,0,0,0-.47-.14,2.12,2.12,0,0,0-.45-.07l.35-.2a3.37,3.37,0,0,0,.81-.69,1.9,1.9,0,0,0-.73-3.28,4.5,4.5,0,0,0-3.43.28,7.56,7.56,0,0,0-1-.54,2.53,2.53,0,0,0-2.38-1.7,4.86,4.86,0,0,0-1.66.09,2.58,2.58,0,0,0-2.35-1.6,4.4,4.4,0,0,0-4.41,2.06l.19.15-.28.06a1.07,1.07,0,0,0,.07-.19l0,0a3.19,3.19,0,0,0-1.61-.59,4.86,4.86,0,0,0-2.08.22,4.33,4.33,0,0,0-.5.08,2.58,2.58,0,0,0-2.34-1.6,4.42,4.42,0,0,0-4.42,2.06.9.9,0,0,1,.18.15l-.26.06a1.46,1.46,0,0,1,.07-.19,0,0,0,0,0,0,0,3.43,3.43,0,0,0-1.61-.59A4.41,4.41,0,0,0,796,384.2Z" transform="translate(-58.73 -324.13)"/><path class="cls-9" d="M811.61,371.3a1.88,1.88,0,0,0-.44,1.07l0,0h0l-.05,0s0,0,0,0c-1.7-.69-3.84-.34-4.78.81a1.76,1.76,0,0,0-.38,1.7l.32,0-.23.2-.09-.23a4.53,4.53,0,0,0-2.72.63,2.18,2.18,0,0,0-1.12,1.67,4.53,4.53,0,0,0-2.5.64,1.91,1.91,0,0,0-.2,3.36,1.64,1.64,0,0,0,.22.14,4,4,0,0,0-3.07,1.81,2,2,0,0,0-.14.39,1.33,1.33,0,0,0-.05.34l-.3-.17a3.85,3.85,0,0,0-1-.31c-1.8-.3-3.78.49-4.43,1.77a1.76,1.76,0,0,0,.67,2.33,10.88,10.88,0,0,0-.66.9,3.21,3.21,0,0,0-2.13,2.34,1.76,1.76,0,0,0,.28,1.15,3.09,3.09,0,0,0-2,2.28c-.14,1.38,1.27,2.43,3.17,2.34l.2-.19a1,1,0,0,0,.1.17l-.26,0h0a2.46,2.46,0,0,0-.67,1.37c-.15,1.4,1.29,2.44,3.2,2.35a4.8,4.8,0,0,0,1.59-.36,0,0,0,0,1,0,0h0l0,0-.05,0c-.12,1.38,1.31,2.41,3.21,2.31a4.79,4.79,0,0,0,1.62-.36,4.92,4.92,0,0,0,.5.16,3.85,3.85,0,0,0-1.41,1.11c-.95,1.28-.3,2.65,1.48,3.06a4.87,4.87,0,0,0,1.62.09s0,0,0,0h0l0,0h-.06c-.92,1.27-.26,2.62,1.5,3a5.29,5.29,0,0,0,2.56-.08,1.49,1.49,0,0,1,0-.21l.31.11-.33.1a1.82,1.82,0,0,0,1.1,1.7,4.59,4.59,0,0,0,2.55.42,1.89,1.89,0,0,0,1.12,1.54,5,5,0,0,0,5-.51,3.24,3.24,0,0,0,.46-.44,4.9,4.9,0,0,0,2.72-.94,2.73,2.73,0,0,0,.8-1,5.07,5.07,0,0,0,4.61-.68,1.91,1.91,0,0,0,.82-2.29,2.14,2.14,0,0,0,.68-1.34,2.33,2.33,0,0,0,.84.72,5,5,0,0,0,5-.5,3.24,3.24,0,0,0,.46-.44,4.93,4.93,0,0,0,2.72-.95,2.49,2.49,0,0,0,.79-1,5.12,5.12,0,0,0,4.62-.68,1.9,1.9,0,0,0,.82-2.29A2,2,0,0,0,841,399a4.81,4.81,0,0,0,2.58-.94c1.31-1,1.27-2.43-.06-3.21.06-.18.12-.35.17-.53a4.39,4.39,0,0,0,1.29-.67c1.33-1,1.27-2.5-.16-3.27h0a1.72,1.72,0,0,0-.85-2.51,4.09,4.09,0,0,0-2-.45,1.88,1.88,0,0,0-.08-3.16l-.41-.26a3,3,0,0,0-.41-.18l.38-.1a3.56,3.56,0,0,0,1-.44,1.91,1.91,0,0,0,.21-3.36,4.55,4.55,0,0,0-3.38-.67,9.81,9.81,0,0,0-.79-.79,2.52,2.52,0,0,0-1.81-2.29,5.13,5.13,0,0,0-1.63-.36,2.57,2.57,0,0,0-1.81-2.19,4.41,4.41,0,0,0-4.81.77l.13.19h-.27a1,1,0,0,1,.12-.16l0,0a3.36,3.36,0,0,0-1.39-1A5,5,0,0,0,825,373l-.5-.05a2.58,2.58,0,0,0-1.82-2.19,4.42,4.42,0,0,0-4.81.77,1.43,1.43,0,0,1,.14.2l-.28,0,.12-.16,0,0a3.38,3.38,0,0,0-1.38-1A4.41,4.41,0,0,0,811.61,371.3Z" transform="translate(-58.73 -324.13)"/><circle class="cls-6" cx="746.54" cy="109.77" r="8.14"/><circle class="cls-6" cx="792.3" cy="104.87" r="8.14"/></g><path class="cls-12" d="M873.82,646.27c2.35,54.37.17,120.78,4.8,172.09,1,11.27,11.78,86,13.45,97.17" transform="translate(-58.73 -324.13)"/><rect class="cls-7" x="870.97" y="911.71" width="31.44" height="6.54" rx="1.77" transform="translate(1770.52 1448.15) rotate(176.39)"/></g><g id="Tall_Girl" data-name="Tall Girl"><g id="Head"><g id="Face"><circle id="Ear" class="cls-13" cx="942.3" cy="126.49" r="7.66"/><path id="Face-2" data-name="Face" class="cls-13" d="M1005.13,447.59a41.29,41.29,0,0,1-.54,6c-.05.36-4.4,11.79-9.29,18.83a18.94,18.94,0,0,1-3.86,4.34c-4.9,3.69-10.66,5.45-16.46,4.49a20.52,20.52,0,0,1-11.21-5.95,27,27,0,0,1-3.08-3.76c-2.68-4-4-13.06-4.51-19.34-.33-3.72-.41-6.47-.39-6.64,2.89-17.51,16.14-29.9,29.62-27.67C997.32,419.86,1005.41,432.58,1005.13,447.59Z" transform="translate(-58.73 -324.13)"/><path class="cls-13" d="M963.77,475.31l3.33-15.93,25.39-.75,2.81,13.8a18.94,18.94,0,0,1-3.86,4.34c-4.9,3.69-10.66,5.45-16.46,4.49A20.52,20.52,0,0,1,963.77,475.31Z" transform="translate(-58.73 -324.13)"/></g><g id="Hair-_Ponytail" data-name="Hair- Ponytail"><path class="cls-14" d="M1009.92,403.58c2.9,1.36,5.36,4.13,7.55,6.85,4.39,5.48,8.44,11.44,13.77,15.81,4.13,3.39,8.84,5.64,12.73,9.39,1.38,1.34,2.63,2.83,4,4.23a88.31,88.31,0,0,0,7.35,6.63c.28,1.62-.69,5.89-2,6.16s-6.25-1.42-7.62-1.21c-3.29.5-3.57,5.12-7.13,4.83-4-.33-7.89-4.63-11.14-8.4-8.3-9.63-15.74-22.1-25.07-30.56a16.92,16.92,0,0,1-4.21-4.94C994.32,404.3,1004,400.81,1009.92,403.58Z" transform="translate(-58.73 -324.13)"/><path class="cls-14" d="M980.34,437.24c-1.4-5.09-6.68-15.47-1.17-19.76s15-2.39,21.13,4.23S981.8,442.54,980.34,437.24Z" transform="translate(-58.73 -324.13)"/><path class="cls-14" d="M955.46,439.35c5.95-4.55-.83-15.56,7.16-20.66s17.73-4.12,21.76,2.2S949.51,443.9,955.46,439.35Z" transform="translate(-58.73 -324.13)"/><path class="cls-14" d="M1006.08,447.6c-2.16-4.79-18.3-.11-20.05-6.49s4.39-13.82,13.71-16.62S1008.25,452.39,1006.08,447.6Z" transform="translate(-58.73 -324.13)"/><path class="cls-14" d="M1003.7,437.08c-12.35-2.69-29.7,13.55-44.32,9.12S943.5,424.3,963.29,423C981.23,421.86,1016.05,439.78,1003.7,437.08Z" transform="translate(-58.73 -324.13)"/><rect class="cls-15" x="992.04" y="409.67" width="13.5" height="13.5" transform="translate(-46.77 536.31) rotate(-46.86)"/></g></g><g id="Neck"><path class="cls-13" d="M999.57,525.58l-40-5.75,3.19-39.76a20.87,20.87,0,0,0,12.59,7.45c5.79,1,11.55-.78,16.46-4.49a21.82,21.82,0,0,0,4.55-5.36Z" transform="translate(-58.73 -324.13)"/><path class="cls-13" d="M996.38,477.67a21.82,21.82,0,0,1-4.55,5.36c-4.91,3.71-10.67,5.45-16.46,4.49a20.87,20.87,0,0,1-12.59-7.45l1-4.76A20.52,20.52,0,0,0,975,481.26c5.8,1,11.56-.8,16.46-4.49a18.94,18.94,0,0,0,3.86-4.34Z" transform="translate(-58.73 -324.13)"/><path class="cls-16" d="M996.38,477.67a21.82,21.82,0,0,1-4.55,5.36c-4.91,3.71-10.67,5.45-16.46,4.49a20.87,20.87,0,0,1-12.59-7.45l1-4.76A20.52,20.52,0,0,0,975,481.26c5.8,1,11.56-.8,16.46-4.49a18.94,18.94,0,0,0,3.86-4.34Z" transform="translate(-58.73 -324.13)"/></g><path id="Mouth-_Smile" data-name="Mouth- Smile" class="cls-10" d="M973.74,466.1l9.65-.59.05.91c.12,1.86-2.57,3.54-3.58,3.6l-2.07.13c-1,.06-3.88-1.28-4-3.14Z" transform="translate(-58.73 -324.13)"/><polygon class="cls-13" points="885.12 208.31 818.93 266.48 811.25 241.92 884.08 182.64 885.12 208.31"/><g id="Torso"><polygon id="Torso-_Belly" data-name="Torso- Belly" class="cls-13" points="938.47 347.73 888.83 360.18 891.8 245.51 957.89 245.55 938.47 347.73"/><path id="Crop_Top-_Sand" data-name="Crop Top- Sand" class="cls-17" d="M1016.23,575.81l-66.15,3a1.89,1.89,0,0,1-1.93-1.33l-15.38-27.22a25.21,25.21,0,0,1,5.3-27.35c2.32-2.37,3.92-16,5.76-17.67a23.34,23.34,0,0,1,14.71-6.41,1.88,1.88,0,0,1,2.09,1.58c.68,5.57,4,22.59,18.5,21.69,9.47-.6,20.06-7.26,19.26-24.84a1.76,1.76,0,0,1,.41-1.22h0a2,2,0,0,1,1.57-.71c12.7.53,25.85,14.36,23.6,16.66-6.32,6.5-.92,23.32-1.34,26.57l-4.58,35.62a1.89,1.89,0,0,1-1.82,1.61" transform="translate(-58.73 -324.13)"/></g><g id="Shoe-_Sporty" data-name="Shoe- Sporty"><polygon id="A" class="cls-13" points="900.29 648.77 914.34 647.81 909.98 599.94 895.93 600.9 900.29 648.77"/><path class="cls-15" d="M936.81,999.31c-3.35,10.74,52.81,0,44.22-9.5-6.36-7-13.51-14.65-25.72-12S939.63,990.27,936.81,999.31Z" transform="translate(-58.73 -324.13)"/><path class="cls-18" d="M936.81,999.31c.66,3.88,45.3-3.2,44.22-9.5-1.61-9.33-13.51-14.65-25.72-12S935.23,990,936.81,999.31Z" transform="translate(-58.73 -324.13)"/><polygon class="cls-18" points="921.21 664.56 898.49 668.26 898.02 642.36 915.86 639.46 921.21 664.56"/><rect class="cls-15" x="943.6" y="982.76" width="7.76" height="2.49" rx="0.76" transform="translate(977.94 -703.22) rotate(47.66)"/><rect class="cls-15" x="950.72" y="978.99" width="7.76" height="2.49" rx="0.76" transform="translate(977.47 -709.71) rotate(47.66)"/></g><g id="Shoe-_Sporty-2" data-name="Shoe- Sporty"><polygon class="cls-13" points="966.97 658.82 951.23 659.93 946.86 616.49 962.6 615.38 966.97 658.82"/><path class="cls-15" d="M1006.74,984c-12.17,2.81-15.49,12.72-18.17,21.8-3.19,10.79,52.8-.82,44.06-10.18-6.46-6.92-13.73-14.43-25.89-11.62Z" transform="translate(-58.73 -324.13)"/><path class="cls-18" d="M1006.74,984c-12.17,2.81-19.9,12.49-18.17,21.8.71,3.87,45.24-3.89,44.06-10.18-1.75-9.3-13.73-14.43-25.89-11.62Z" transform="translate(-58.73 -324.13)"/><polygon class="cls-18" points="967.06 645.39 972.79 670.41 950.13 674.47 949.27 648.57 967.06 645.39"/><path class="cls-15" d="M998.1,987.59l3.61,3.84a1.23,1.23,0,0,1-.05,1.75h0a1.25,1.25,0,0,1-1.76,0l-3.61-3.84Z" transform="translate(-58.73 -324.13)"/><path class="cls-15" d="M1005.16,983.7l3.61,3.84a1.25,1.25,0,0,1-.06,1.76h0a1.23,1.23,0,0,1-1.75,0l-3.61-3.84Z" transform="translate(-58.73 -324.13)"/></g><g id="Arm"><path id="Hand" class="cls-13" d="M1012.7,650.37c.78,2.28,9.75-.51,9.75-.51s-15,12.34-12.28,14.06c1.2.76,11.7-8.21,11.7-8.21.09.43-11.17,12.67-9.72,13.84,2.28,1.83,13.61-11.87,13.81-11.72,0,0-8.82,13.13-7.64,13.86,2.94,1.84,11.64-11.44,12-11.43,0,0-7.46,11.06-5.73,12,3.57,1.86,14.69-19.33,18.53-26.59.92-1.74-.62-.89-2.17-2.22l-7.69-4.63C1021.82,642.7,1012.14,648.75,1012.7,650.37Z" transform="translate(-58.73 -324.13)"/><polygon class="cls-13" points="956.12 207.59 1021.28 266.92 1029.39 242.5 961.08 184.99 956.12 207.59"/><path class="cls-13" d="M1081.35,560.64l-56,87.53,9.48,8.31,57.82-70.23c3.78-5.19,2.82-13.71-2-17.79Z" transform="translate(-58.73 -324.13)"/></g><g id="Arm-2" data-name="Arm"><path class="cls-13" d="M929.48,648.18c-.86,2.18-9.41-1.29-9.41-1.29s13.88,13.35,11.18,14.82c-1.19.65-10.91-9-10.91-9-.11.42,10.18,13.38,8.72,14.41-2.3,1.61-12.58-12.78-12.78-12.64,0,0,7.87,13.62,6.7,14.24-2.94,1.58-10.7-12.19-11.07-12.21,0,0,6.67,11.48,5,12.22-3.56,1.54-13.26-20.2-16.61-27.65-.8-1.79.64-.83,2.21-2l7.67-3.94C921,639.89,930.1,646.63,929.48,648.18Z" transform="translate(-58.73 -324.13)"/><path class="cls-13" d="M880.33,559.38l35.1,79.53-11,11.73L865.36,583c-3-5.7-.72-14,4.66-17.29Z" transform="translate(-58.73 -324.13)"/></g><path class="cls-19" d="M952.29,946.33c.86,7.29,9.81-.14,18.8.76,12.88,1.29,1.08-100,2.81-204.72.14-8.5.5-6,1.2.5C987.71,860.66,995.89,924,1001,944c0,0,24.7,8,24.28.67-6.66-116.06-6.77-199.77,1.18-213.42,14.63-25.15-8.51-68.94-22.66-73.3-13.11-4-44.38-.78-57.86-.55-3.65.07-5.52,3.23-6.57,6.78C931.71,690.13,924.67,710.08,952.29,946.33Z" transform="translate(-58.73 -324.13)"/></g><g id="Harley_Koo" data-name="Harley Koo"><polygon class="cls-13" points="623.03 213.94 685.82 275.99 695.62 252.55 626.16 194.72 623.03 213.94"/><polygon class="cls-13" points="583.29 353.69 634.72 362.92 624.54 250.72 557.1 254.72 583.29 353.69"/><path class="cls-13" d="M666.9,491.94l-4.39-15.42-26,.79-2,13.69a19,19,0,0,0,4.21,4,22.61,22.61,0,0,0,17.08,3.41A21.06,21.06,0,0,0,666.9,491.94Z" transform="translate(-58.73 -324.13)"/><path class="cls-13" d="M633.51,543.34l40.44-8-5.74-38.78a21.31,21.31,0,0,1-12.38,8,22.56,22.56,0,0,1-17.08-3.41,21.44,21.44,0,0,1-5-5Z" transform="translate(-58.73 -324.13)"/><polygon class="cls-13" points="542.81 640.54 558.77 642.84 566.71 600.66 550.76 598.36 542.81 640.54"/><polygon class="cls-13" points="653.34 641.13 633.27 642.43 628.4 595.34 648.47 594.05 653.34 641.13"/><path class="cls-19" d="M710.69,932.7c-.32,7.43-10.45.21-20,1.45-13.67,1.78-10.17-113.32-22-198.59-1.19-8.52-10.31-6.08-10.91.55-7.34,81.71-29.68,198.22-34.87,197.43-14.22-2.18-18,6.22-17.56-1.2,11.26-204.83-10.4-265.65,22.77-281,13.21-6.12,47.24-2.4,61.61-2.66,3.9-.06,6,3.07,7.26,6.61C706.13,681.21,719.89,719.06,710.69,932.7Z" transform="translate(-58.73 -324.13)"/><polygon class="cls-13" points="556.53 217.41 493.74 279.46 483.94 256.01 550.06 195.57 556.53 217.41"/><path class="cls-13" d="M623,467.25a39.18,39.18,0,0,0,.93,5.86c.07.35,5.22,11.28,10.65,17.89a19,19,0,0,0,4.21,4,22.61,22.61,0,0,0,17.08,3.41,21.06,21.06,0,0,0,11.07-6.49,26.19,26.19,0,0,0,2.91-3.88c2.49-4.11,3.22-13,3.4-19.22.1-3.66,0-6.36,0-6.53-4-17-18.33-28.33-31.95-25.34C629.2,439.61,621.74,452.55,623,467.25Z" transform="translate(-58.73 -324.13)"/><path class="cls-13" d="M633.77,496.2a21.44,21.44,0,0,0,5,5,22.56,22.56,0,0,0,17.08,3.41,21.31,21.31,0,0,0,12.38-8l-1.31-4.6a21.06,21.06,0,0,1-11.07,6.49A22.61,22.61,0,0,1,638.75,495a19,19,0,0,1-4.21-4Z" transform="translate(-58.73 -324.13)"/><path class="cls-16" d="M633.77,496.2a21.44,21.44,0,0,0,5,5,22.56,22.56,0,0,0,17.08,3.41,21.31,21.31,0,0,0,12.38-8l-1.31-4.6a21.06,21.06,0,0,1-11.07,6.49A22.61,22.61,0,0,1,638.75,495a19,19,0,0,1-4.21-4Z" transform="translate(-58.73 -324.13)"/><path class="cls-20" d="M647.61,455.62c1.11-5.07,5.86-15.56,0-19.43s-15.43-1.45-21.3,5.41S646.46,460.9,647.61,455.62Z" transform="translate(-58.73 -324.13)"/><path class="cls-20" d="M673.14,456.2c-6.36-4.1-.13-15.31-8.6-19.82s-18.35-3-22.07,3.46S679.5,460.3,673.14,456.2Z" transform="translate(-58.73 -324.13)"/><path class="cls-20" d="M622,467.31c1.91-4.82,18.67-1.2,20.06-7.56s-5.34-13.28-15-15.46S620.08,472.14,622,467.31Z" transform="translate(-58.73 -324.13)"/><path class="cls-20" d="M623.77,456.86c12.43-3.38,31.15,11.5,45.79,6.28s14.84-22.41-5.43-22.48C645.75,440.6,611.33,460.24,623.77,456.86Z" transform="translate(-58.73 -324.13)"/><path class="cls-10" d="M662.89,480.64H646.27v1.51c0,3.07,4.79,5.57,6.53,5.57h3.56c1.74,0,6.53-2.5,6.53-5.57Z" transform="translate(-58.73 -324.13)"/><path class="cls-13" d="M733,584.62l83.45-29.41,11.25,11.52-71.57,34c-6,2.53-14.31-.17-17.33-5.65Z" transform="translate(-58.73 -324.13)"/><ellipse class="cls-13" cx="570.91" cy="146.41" rx="11.58" ry="11.12"/><path class="cls-13" d="M826.81,542c2.16,1-1.94,9.14-1.94,9.14s14.53-12.76,15.86-10c.58,1.21-9.93,10.13-9.93,10.13.42.13,14.32-9.14,15.27-7.64,1.49,2.35-13.87,11.52-13.74,11.73,0,0,14.42-6.86,15-5.68,1.41,3-13.14,9.73-13.19,10.08,0,0,12.15-5.81,12.8-4.08,1.33,3.58-21.49,11.72-29.3,14.53-1.88.68-.81-.68-1.9-2.29l-3.52-7.76C817.79,549.78,825.26,541.32,826.81,542Z" transform="translate(-58.73 -324.13)"/><path class="cls-13" d="M549.2,573.87l62.66,82.42L602.71,665l-63.39-65.37c-4.18-4.86-3.73-13.26.94-17.55Z" transform="translate(-58.73 -324.13)"/><path class="cls-13" d="M624.86,657.69c-.65,2.28-10,.09-10,.09s16,11.19,13.41,13c-1.17.81-12.46-7.35-12.46-7.35-.06.43,12.2,11.75,10.79,13-2.21,1.93-14.63-10.82-14.82-10.65,0,0,9.81,12.33,8.66,13.12-2.89,2-12.6-10.51-13-10.47,0,0,8.3,10.38,6.59,11.36-3.53,2-16.2-18.06-20.57-24.94-1-1.65.58-.91,2.08-2.3l7.55-5C615.08,650.72,625.33,656.07,624.86,657.69Z" transform="translate(-58.73 -324.13)"/><g id="Shirt-_Dust-2" data-name="Shirt- Dust"><path class="cls-17" d="M690.85,658.55c-13.38,12.25-60,13.63-72,0-17.7-20.07-16.26-90.67-14.45-124.49a19.22,19.22,0,0,1,19.06-18.33h64.41a19.21,19.21,0,0,1,19,18.22C708.92,568.2,710.66,640.4,690.85,658.55Z" transform="translate(-58.73 -324.13)"/><path class="cls-17" d="M615.63,517.54c6.24.85,16.58,12.54,15.4,18.5-1.74,8.8-21.5,23.35-31.2,30a6.86,6.86,0,0,1-9.13-1l-13.77-16.54a6.24,6.24,0,0,1,1-8.75C586.88,532,606.4,516.29,615.63,517.54Z" transform="translate(-58.73 -324.13)"/><path class="cls-17" d="M675.49,535.45c-.07-6,10.39-17.64,16.71-17.42,9.31.32,27.29,16.86,35.65,25.05a6.22,6.22,0,0,1,.33,8.81l-14.93,15.59a6.88,6.88,0,0,1-9.15.43C694.74,560.55,675.61,544.41,675.49,535.45Z" transform="translate(-58.73 -324.13)"/></g><path class="cls-10" d="M659.57,992.79c6.55,10.65-77,2.8-66-7.24,8.19-7.42,17.43-15.49,35.64-13.49S654.05,983.82,659.57,992.79Z" transform="translate(-58.73 -324.13)"/><path class="cls-7" d="M659.57,992.79c-.36,3.94-66.57-.82-66-7.24.9-9.5,17.43-15.49,35.64-13.49S660.42,983.28,659.57,992.79Z" transform="translate(-58.73 -324.13)"/><polygon class="cls-7" points="536.29 660.24 570 662.76 566.66 636.61 540.2 634.62 536.29 660.24"/><path class="cls-10" d="M640.41,981.14l5.39-4.86c.37-.33.26-.82-.25-1.1l-1.11-.6a1.49,1.49,0,0,0-1.58.11l-5.39,4.86c-.37.33-.26.82.24,1.09l1.11.61A1.5,1.5,0,0,0,640.41,981.14Z" transform="translate(-58.73 -324.13)"/><path class="cls-10" d="M629.44,977.71l5.39-4.86c.37-.33.26-.82-.24-1.1l-1.11-.6a1.5,1.5,0,0,0-1.59.11l-5.39,4.86c-.37.33-.26.82.25,1.09l1.11.61A1.49,1.49,0,0,0,629.44,977.71Z" transform="translate(-58.73 -324.13)"/><path class="cls-10" d="M749,992.39c6.55,10.65-77,2.8-66-7.24,8.19-7.42,17.43-15.49,35.64-13.49S743.5,983.42,749,992.39Z" transform="translate(-58.73 -324.13)"/><path class="cls-7" d="M749,992.39c-.36,4-66.56-.82-66-7.24.91-9.5,17.43-15.49,35.64-13.49S749.88,982.88,749,992.39Z" transform="translate(-58.73 -324.13)"/><polygon class="cls-7" points="625.74 659.84 659.46 662.37 656.12 636.21 629.65 634.22 625.74 659.84"/><path class="cls-10" d="M729.86,980.74l5.39-4.86c.37-.33.26-.82-.24-1.09l-1.12-.61a1.49,1.49,0,0,0-1.58.11l-5.39,4.86c-.37.33-.26.82.24,1.1l1.11.6A1.5,1.5,0,0,0,729.86,980.74Z" transform="translate(-58.73 -324.13)"/><path class="cls-10" d="M718.89,977.31l5.4-4.86c.37-.33.26-.82-.25-1.09l-1.11-.61a1.49,1.49,0,0,0-1.58.11L716,975.72c-.37.33-.27.82.24,1.1l1.11.6A1.49,1.49,0,0,0,718.89,977.31Z" transform="translate(-58.73 -324.13)"/></g><g id="Table_with_Pizza_and_Soda" data-name="Table with Pizza and Soda"><g id="Tabletop-_Wooden_depth" data-name="Tabletop- Wooden depth"><g id="Table_Leg-_Wooden_Depth" data-name="Table Leg- Wooden Depth"><polygon class="cls-21" points="196.74 525.54 175.84 525.54 173.73 523.41 172.89 522.57 169.92 519.58 190.82 519.58 196.74 525.54"/><polygon class="cls-22" points="196.74 525.54 196.74 757.9 175.84 757.9 169.92 751.94 169.92 519.58 172.89 522.57 173.73 523.41 175.84 525.54 196.74 525.54"/></g><g id="Table_Leg-_Wooden_Depth-2" data-name="Table Leg- Wooden Depth"><polygon class="cls-21" points="502.4 525.54 481.5 525.54 479.39 523.41 478.55 522.57 475.58 519.58 496.49 519.58 502.4 525.54"/><polygon class="cls-22" points="502.4 525.54 502.4 757.9 481.5 757.9 475.58 751.94 475.58 519.58 478.55 522.57 479.39 523.41 481.5 525.54 502.4 525.54"/></g><polyline class="cls-22" points="107.69 472.38 107.69 704.75 86.79 704.75 80.88 698.78 80.88 466.42"/><polyline class="cls-22" points="413.36 472.38 413.36 704.75 392.46 704.75 386.54 698.78 386.54 466.42"/><polygon class="cls-22" points="502.22 515.82 502.22 542.4 173.43 542.4 80.4 489.39 80.4 462.81 127.05 489.39 140.24 496.91 173.43 515.82 502.22 515.82"/><polygon class="cls-21" points="502.22 515.82 173.43 515.82 140.24 496.91 127.05 489.39 80.4 462.81 409.19 462.81 502.22 515.82"/></g><g id="Pizza_Box" data-name="Pizza Box"><polygon class="cls-23" points="290.66 477.62 155.83 477.62 142.22 469.37 136.81 466.08 117.69 454.48 252.51 454.48 290.66 477.62"/><polygon class="cls-24" points="290.66 477.62 290.66 494.54 155.83 494.54 117.69 471.4 117.69 454.48 136.81 466.08 142.22 469.37 155.83 477.62 290.66 477.62"/><g id="Pizza"><ellipse class="cls-21" cx="202.94" cy="465.5" rx="56.48" ry="8.82"/><ellipse class="cls-15" cx="202.94" cy="465.09" rx="49.59" ry="6.33"/><ellipse class="cls-25" cx="202.94" cy="465.09" rx="42.41" ry="5.41"/><ellipse class="cls-26" cx="181.3" cy="464.52" rx="5.7" ry="2.5"/><ellipse class="cls-26" cx="200.07" cy="465.69" rx="5.7" ry="2.5"/><ellipse class="cls-26" cx="225.98" cy="463.55" rx="5.7" ry="2.5"/></g></g><g id="Soda-_Brown" data-name="Soda- Brown"><path class="cls-26" d="M405.25,762.41V805.5a12.17,12.17,0,0,1-12.16,12.16H371.88a12.17,12.17,0,0,1-12.16-12.16V762.41c0-22.42,10.2-40.58,22.77-40.58S405.25,740,405.25,762.41Z" transform="translate(-58.73 -324.13)"/><path class="cls-27" d="M320.55,389.63H327a3.4,3.4,0,0,1,3.4,3.4v5.69a1.65,1.65,0,0,1-1.65,1.65h-9.92a1.65,1.65,0,0,1-1.65-1.65V393A3.4,3.4,0,0,1,320.55,389.63Z"/><rect class="cls-18" x="300.99" y="436.19" width="45.53" height="30.76"/></g><g id="Soda-_Green" data-name="Soda- Green"><path class="cls-18" d="M458.7,745.48v43.08a12.17,12.17,0,0,1-12.16,12.16H425.33a12.17,12.17,0,0,1-12.16-12.16V745.48c0-22.42,10.19-40.59,22.77-40.59S458.7,723.06,458.7,745.48Z" transform="translate(-58.73 -324.13)"/><path class="cls-28" d="M374,372.69h6.42a3.4,3.4,0,0,1,3.4,3.4v5.69a1.65,1.65,0,0,1-1.65,1.65h-9.92a1.65,1.65,0,0,1-1.65-1.65V376.1A3.4,3.4,0,0,1,374,372.69Z"/><rect class="cls-29" x="354.44" y="419.25" width="45.53" height="30.76"/></g><g id="Cups"><polygon class="cls-30" points="402.75 508.52 379.96 508.52 374.89 481.36 407.24 481.36 402.75 508.52"/><polygon class="cls-30" points="435.71 495.56 412.92 495.56 407.85 468.4 440.19 468.4 435.71 495.56"/></g></g><g id="Calendar"><rect class="cls-18" x="179.49" y="231.8" width="127.76" height="113.58"/><rect class="cls-18" x="179.49" y="118.79" width="127.76" height="113.58"/><rect class="cls-31" x="187.24" y="237.25" width="112.27" height="20.82"/><rect class="cls-31" x="185.32" y="318.47" width="20.54" height="20.82"/><rect class="cls-31" x="209.44" y="318.47" width="20.54" height="20.82"/><rect class="cls-31" x="233.55" y="318.47" width="20.54" height="20.82"/><rect class="cls-31" x="257.66" y="318.47" width="20.54" height="20.82"/><rect class="cls-31" x="281.77" y="318.47" width="20.54" height="20.82"/><rect class="cls-31" x="185.32" y="292.23" width="20.54" height="20.82"/><rect class="cls-31" x="209.44" y="292.23" width="20.54" height="20.82"/><rect class="cls-31" x="233.55" y="292.23" width="20.54" height="20.82"/><rect class="cls-31" x="257.66" y="292.23" width="20.54" height="20.82"/><rect class="cls-31" x="281.77" y="292.23" width="20.54" height="20.82"/><rect class="cls-31" x="185.32" y="265.98" width="20.54" height="20.82"/><rect class="cls-31" x="209.44" y="265.98" width="20.54" height="20.82"/><rect class="cls-31" x="233.55" y="265.98" width="20.54" height="20.82"/><rect class="cls-31" x="257.66" y="265.98" width="20.54" height="20.82"/><rect class="cls-31" x="281.77" y="265.98" width="20.54" height="20.82"/><path class="cls-32" d="M356.71,550.79H245.61s3.85-5,4.13-6.69c4-22.78,3.36-58.34-.91-88.09-.27-1.87-3.22-7.55-3.22-7.55h111.1s2.88,6.51,3.22,8.64c4,25,5,65.73.92,87C360.53,545.74,356.71,550.79,356.71,550.79Z" transform="translate(-58.73 -324.13)"/><circle id="Pin" class="cls-33" cx="242.68" cy="124.59" r="2.49"/><g id="X_s_and_O_s" data-name="X&apos;s and O&apos;s"><path class="cls-34" d="M274.36,635.92a8.43,8.43,0,0,1-5.72-2,11.11,11.11,0,0,1-2.22-13.25c2.24-3.86,9.16-9.06,18.24-6.63a3.26,3.26,0,0,1-1.69,6.3c-5.71-1.53-9.89,1.83-10.91,3.6a4.62,4.62,0,0,0,1,5.2,3,3,0,0,0,2.69,0c1.2-.57,1.78-1.92,1.71-4a3.26,3.26,0,0,1,6.52-.2c.14,4.79-1.89,8.49-5.58,10.17A9.86,9.86,0,0,1,274.36,635.92Z" transform="translate(-58.73 -324.13)"/><path class="cls-35" d="M334.82,611.15a3.28,3.28,0,0,1-1.9-.61l-16.31-11.65a3.26,3.26,0,1,1,3.79-5.3l16.31,11.64a3.26,3.26,0,0,1-1.89,5.92Z" transform="translate(-58.73 -324.13)"/><path class="cls-35" d="M319.85,610.35a3.26,3.26,0,0,1-2.33-5.54l13.62-13.94a3.26,3.26,0,0,1,4.66,4.56l-13.62,13.94A3.27,3.27,0,0,1,319.85,610.35Z" transform="translate(-58.73 -324.13)"/><path class="cls-35" d="M358.93,611.15a3.22,3.22,0,0,1-1.89-.61l-16.32-11.65a3.26,3.26,0,1,1,3.79-5.3l16.31,11.64a3.26,3.26,0,0,1-1.89,5.92Z" transform="translate(-58.73 -324.13)"/><path class="cls-35" d="M344,610.35a3.26,3.26,0,0,1-2.33-5.54l13.63-13.94a3.26,3.26,0,0,1,4.66,4.56l-13.63,13.94A3.26,3.26,0,0,1,344,610.35Z" transform="translate(-58.73 -324.13)"/><path class="cls-35" d="M262.48,637.39a3.22,3.22,0,0,1-1.89-.61l-16.32-11.64a3.26,3.26,0,0,1,3.79-5.31l16.31,11.65a3.26,3.26,0,0,1-1.89,5.91Z" transform="translate(-58.73 -324.13)"/><path class="cls-35" d="M247.51,636.59a3.25,3.25,0,0,1-2.33-5.53l13.63-13.95a3.26,3.26,0,0,1,4.66,4.56l-13.63,13.94A3.22,3.22,0,0,1,247.51,636.59Z" transform="translate(-58.73 -324.13)"/></g><path class="cls-36" d="M299.3,492.58a12.77,12.77,0,0,1-8.05-2.91,12,12,0,0,1-3.71-14.08c2-5,5.32-5.67,8.25-6.26,3.44-.7,7-1.42,11-9.93a2.38,2.38,0,1,1,4.31,2c-5,10.68-10.38,11.77-14.32,12.57-2.58.53-3.75.76-4.8,3.38a7.32,7.32,0,0,0,2.29,8.62,8,8,0,0,0,9.61.42c2.37-1.59,2.16-2.85,1.7-5.61-.91-5.47-.73-10.77,11.38-15.51a2.37,2.37,0,1,1,1.73,4.42c-9.52,3.73-9,6.63-8.42,10.31.49,3,1.17,7-3.74,10.33A12.83,12.83,0,0,1,299.3,492.58Z" transform="translate(-58.73 -324.13)"/><path class="cls-29" d="M309.34,493.54a12.77,12.77,0,0,1-8-2.91,12,12,0,0,1-3.71-14.08c2-5,5.32-5.67,8.25-6.26,3.44-.7,7-1.42,11-9.93a2.38,2.38,0,1,1,4.31,2c-5,10.68-10.38,11.77-14.32,12.57-2.57.52-3.75.76-4.8,3.37a7.32,7.32,0,0,0,2.3,8.63,8,8,0,0,0,9.61.42c2.36-1.59,2.15-2.85,1.69-5.61-.91-5.47-.73-10.77,11.38-15.51a2.37,2.37,0,1,1,1.73,4.42c-9.52,3.73-9,6.63-8.42,10.31.49,3,1.17,7-3.73,10.33A12.86,12.86,0,0,1,309.34,493.54Z" transform="translate(-58.73 -324.13)"/><path class="cls-36" d="M272.74,515.28c.05-1.45.1-3.83.2-6.2.05-1.14.17-2.28.31-3.41.09-.73.15-.77.88-.7,1,.1,1.93.26,2.89.41.69.1,1.38.22,2.06.33l.14,0c.47.15.54.22.52.7-.09,1.75-.16,3.51-.31,5.25a79.78,79.78,0,0,0-.32,8.88c0,1.2.06,2.4.17,3.59a8.7,8.7,0,0,0,2.32,5.48,4.38,4.38,0,0,0,6,.58,8.79,8.79,0,0,0,2.35-2.55,13.17,13.17,0,0,0,1.92-4.71c.22-1.28.38-2.57.51-3.86a57.29,57.29,0,0,0,.2-6l-.06-8.73c0-.2.06-.28.26-.27l1.66,0c.61,0,1.22.05,1.83.1s1.31.13,2,.2h.08c.42.09.42.1.44.52,0,.8.13,1.59.13,2.39,0,2.41,0,4.82,0,7.24,0,1.83,0,3.66,0,5.5a37.46,37.46,0,0,1-.46,5.39,33.89,33.89,0,0,1-1,4.66,14.94,14.94,0,0,1-2.83,5.5,9.12,9.12,0,0,1-7.12,3.43c-.93,0-1.86,0-2.79,0a9.64,9.64,0,0,1-3.93-1.1,13.11,13.11,0,0,1-6.74-8.26,24.07,24.07,0,0,1-1-5.32C272.82,521.65,272.78,518.92,272.74,515.28Z" transform="translate(-58.73 -324.13)"/><path class="cls-36" d="M327.93,520.72q-.19-7.07-.11-14.15c0-1,.06-2,.08-3a.22.22,0,0,1,.19-.24,4.63,4.63,0,0,1,.65-.1,36.75,36.75,0,0,1,5.45.21,18.66,18.66,0,0,1,5.4,1.6,18,18,0,0,1,3.44,2,11.69,11.69,0,0,1,3.14,3.74,12,12,0,0,1,1.42,3.94,10,10,0,0,1,.15,1.63c0,1.48,0,3-.05,4.44A18.08,18.08,0,0,1,341,534.41a15.17,15.17,0,0,1-3.66,2.36,23.35,23.35,0,0,1-5,1.49c-.41.07-.83,0-1.24.08l-1.69.09a3,3,0,0,1-.73-.07c-.34-.07-.44-.22-.44-.57,0-2,0-3.93,0-5.9-.05-2.91-.15-5.83-.22-8.74C328,522.34,328,521.53,327.93,520.72Zm6,10.84c.42-.19.82-.32,1.18-.53a10,10,0,0,0,3.07-2.91,17.22,17.22,0,0,0,3-8.71c.06-.76.05-1.53.1-2.29a5.61,5.61,0,0,0-2-4.92,7.33,7.33,0,0,0-3.77-1.66c-.51-.08-1-.11-1.58-.16C333.87,517.45,334,524.47,334,531.56Z" transform="translate(-58.73 -324.13)"/><path class="cls-36" d="M310.12,508.87c-.45,0-.88,0-1.32,0-1.72.13-3.45.08-5.17.06-.62,0-1.24,0-1.87,0h-.2c-.41,0-.5-.08-.53-.5-.06-.76-.12-1.52-.14-2.28,0-1,0-2-.06-3,0-.17,0-.33-.05-.5s.06-.43.34-.49a3.07,3.07,0,0,1,.52-.06c1.65,0,3.29,0,4.94-.06,2.07,0,4.15-.1,6.22-.17l5.82-.21c1.7-.06,3.39-.11,5.09-.15a7,7,0,0,1,.8.06.21.21,0,0,1,.21.22,3.12,3.12,0,0,1,0,.44c0,1.68,0,3.37,0,5.05a6.86,6.86,0,0,1-.12.91.3.3,0,0,1-.36.28c-.4,0-.79,0-1.19,0l-6.38,0-.09,0c0,.44,0,.88,0,1.32,0,.83,0,1.66.07,2.49.06,1.36.15,2.72.21,4.09s.11,2.68.16,4c.09,2.71.17,5.43.27,8.14.08,2.17.16,4.33.25,6.5,0,.73.1,1.45.11,2.18a4.88,4.88,0,0,1-.11,1,.44.44,0,0,1-.45.38,29.34,29.34,0,0,1-3.87.11c-.48,0-1-.1-1.45-.16a2,2,0,0,1-.42-.12.34.34,0,0,1-.24-.35c-.14-3.26-.29-6.52-.43-9.78-.12-3-.25-5.9-.33-8.85s-.1-5.88-.16-8.83C310.22,510.09,310.16,509.48,310.12,508.87Z" transform="translate(-58.73 -324.13)"/></g></svg>