<svg id="Layer_5" data-name="Layer 5" xmlns="http://www.w3.org/2000/svg" viewBox="0 0 486.09 512"><defs><style>.cls-1{fill:#333;}</style></defs><path class="cls-1" d="M550.42,569.63a10,10,0,1,0,2.93,7.07A10.08,10.08,0,0,0,550.42,569.63Z" transform="translate(-258.19 -362.36)"/><path class="cls-1" d="M375.31,722.55l-.09-.1-.1-.1a10,10,0,1,0-14,14.27h0l.19.19a10,10,0,0,0,14-14.26Z" transform="translate(-258.19 -362.36)"/><path class="cls-1" d="M712.27,526.69A32.06,32.06,0,0,0,682,548.4H660.26v-27c0-87.69-71.34-159-159-159s-159,71.34-159,159v27H320.49a32,32,0,0,0-62.3,10.3v1.61a28,28,0,0,0,28,28,10,10,0,1,0,0-20,8,8,0,0,1-8-8V558.7a12,12,0,0,1,24,0v36.58a198.74,198.74,0,0,0,29.25,103.93,10,10,0,0,0,17.06-10.46,178.66,178.66,0,0,1-26.31-93.47V568.4h20v27c0,87.68,71.34,159,159,159s159-71.34,159-159v-27h20v26.88c0,98.72-80.31,179-179,179a178.72,178.72,0,0,1-92.88-26A10,10,0,0,0,398,765.47a198.42,198.42,0,0,0,73.26,26.58v22.3h-30a50.07,50.07,0,0,0-50,50,10,10,0,0,0,10,10h200a10,10,0,0,0,10-10,50.07,50.07,0,0,0-50-50h-30V792.06c95.57-14.51,169-97.23,169-196.78V558.7a12,12,0,0,1,24,0v1.61a8,8,0,0,1-8,8,10,10,0,1,0,0,20,28,28,0,0,0,28-28V558.7A32,32,0,0,0,712.27,526.69Zm-211,207.74a138.21,138.21,0,0,1-77.69-23.78L526.39,607.81a10,10,0,0,0-14.15-14.14L407.72,698.19a138.71,138.71,0,0,1-45.51-102.78v-74c0-76.66,62.37-139,139-139a138.43,138.43,0,0,1,92.19,35.06L441.24,569.63a10,10,0,1,0,14.14,14.15l152-152a138.4,138.4,0,0,1,32.85,89.64v74h0C640.26,672.06,577.89,734.43,501.24,734.43Zm-10,59.89h20v20h-20Zm70,40a30.06,30.06,0,0,1,28.29,20H412.93a30.07,30.07,0,0,1,28.3-20Z" transform="translate(-258.19 -362.36)"/></svg>