<svg id="v2" xmlns="http://www.w3.org/2000/svg" viewBox="0 0 135 150"><defs><style>.cls-1{fill:#333;}</style></defs><g id="musicarts"><path class="cls-1" d="M49,120.58l-1.78-8.46-2.64,8.46H42.42l-2.66-8.47L38,120.58H34.91l3.22-13.51h2.74l2.62,8.29,2.6-8.29h2.74l3.22,13.51Z"/><path class="cls-1" d="M53.18,116.79v-5h3v5c0,1,.38,1.61,1.32,1.61s1.67-.7,1.67-2v-4.57h3v8.76h-3v-1.07a3.38,3.38,0,0,1-2.68,1.27C54.14,120.78,53.18,119.18,53.18,116.79Z"/><path class="cls-1" d="M63.73,117.32h3c0,1.29,1.17,1.39,1.91,1.39S70,118.5,70,118c0-1.74-5.86-.25-5.86-3.62,0-1.69,1.43-2.71,4.15-2.71,2.5,0,4.09.85,4.38,2.86H69.71a1.27,1.27,0,0,0-1.43-1c-.46,0-1.17.12-1.17.6,0,1.19,5.86-.1,5.86,3.63,0,2.31-2,3.08-4.43,3.08C65.82,120.78,63.91,119.83,63.73,117.32Z"/><path class="cls-1" d="M74.35,108.62a1.75,1.75,0,0,1,3.49,0,1.75,1.75,0,1,1-3.49,0Zm.26,3.2h3v8.76h-3Z"/><path class="cls-1" d="M79.18,116.19a4.44,4.44,0,0,1,4.67-4.57c2.84,0,4.65,1.69,4.79,3.72h-3a1.45,1.45,0,0,0-1.61-1.41c-1.35,0-1.91,1.11-1.91,2.26s.56,2.29,1.91,2.29a1.45,1.45,0,0,0,1.61-1.41h3c-.14,2-2,3.71-4.79,3.71A4.45,4.45,0,0,1,79.18,116.19Z"/><path class="cls-1" d="M45.42,144.42l-.62-.79a5.66,5.66,0,0,1-3.36,1c-2.64,0-4.49-1.36-4.49-3.83a4.47,4.47,0,0,1,2.53-3.92A5,5,0,0,1,38.37,134c0-2.25,2.08-3.26,4.09-3.26,2.36,0,4.11,1.35,4.11,3.19s-1.64,2.67-3.28,3.55l1.77,2.12,1.53-1.8,2.11,1.8-1.87,2.11,2.28,2.74Zm-2.23-2.82L41,138.82a2.37,2.37,0,0,0-1.05,1.85,1.49,1.49,0,0,0,1.63,1.53A2.59,2.59,0,0,0,43.19,141.6Zm-1.33-5.95c1.06-.52,1.87-1,1.87-1.82a1,1,0,0,0-1.15-1,1.2,1.2,0,0,0-1.33,1.25A2.94,2.94,0,0,0,41.86,135.65Z"/><path class="cls-1" d="M58.81,130.91h2.53l5.48,13.51h-3.2l-1-2.73H57.5l-1,2.73h-3.2Zm3,8.35-1.7-4.81-1.71,4.81Z"/><path class="cls-1" d="M68,135.66h3v1.07a2.79,2.79,0,0,1,2.22-1.27,2.54,2.54,0,0,1,1,.2v2.77h-.19a2.55,2.55,0,0,0-1.17-.29c-1.12,0-1.84.76-1.84,2.3v4H68Z"/><path class="cls-1" d="M76.58,138H75v-2.3h1.59v-3.33h3v3.33h1.59V138H79.54v6.46h-3Z"/><path class="cls-1" d="M81.71,141.16h3c0,1.29,1.18,1.39,1.91,1.39s1.37-.22,1.37-.77c0-1.73-5.86-.24-5.86-3.62,0-1.68,1.43-2.7,4.15-2.7,2.51,0,4.1.85,4.38,2.86H87.69c-.1-.8-.84-1-1.43-1s-1.17.12-1.17.59c0,1.2,5.86-.09,5.86,3.64,0,2.31-2,3.07-4.43,3.07C83.8,144.61,81.89,143.66,81.71,141.16Z"/><path class="cls-1" d="M63.26,51.39a1.84,1.84,0,0,0-.53.08h0l-5.54,1.58a1.93,1.93,0,0,0,.52,3.78,1.88,1.88,0,0,0,.53-.07l3.09-.88v6.83L37.41,69.53V62.7l4.14-1.18a1.93,1.93,0,0,0-1.06-3.71L35,59.38h0a1.92,1.92,0,0,0-1.4,1.85V85.78a9.56,9.56,0,0,0-5.79-1.94,9.65,9.65,0,1,0,9.65,9.65V73.54l23.92-6.82V77.86a9.64,9.64,0,1,0,3.86,7.71V53.32a1.94,1.94,0,0,0-1.93-1.93ZM27.76,99.27a5.79,5.79,0,1,1,5.79-5.78A5.78,5.78,0,0,1,27.76,99.27Zm27.78-7.91a5.79,5.79,0,1,1,5.79-5.79A5.8,5.8,0,0,1,55.54,91.36Z"/><path class="cls-1" d="M116.11,4.76a1.93,1.93,0,0,0-1.69-.32L94.28,10.25a1.93,1.93,0,0,0-1.4,1.85V36.64A9.53,9.53,0,0,0,87.1,34.7a9.65,9.65,0,1,0,9.64,9.65v-20L115.49,19a1.92,1.92,0,0,0,1.39-1.85V6.3a1.9,1.9,0,0,0-.77-1.54Zm-29,45.38a5.79,5.79,0,1,1,5.78-5.79A5.8,5.8,0,0,1,87.1,50.14ZM113,15.69,96.74,20.38V13.55L113,8.86Z"/><path class="cls-1" d="M109.09,71.64l-9.32-1.35-4.16-8.44a1.94,1.94,0,0,0-1.73-1.08,1.92,1.92,0,0,0-1.73,1.08L88,70.29l-9.31,1.35A1.94,1.94,0,0,0,77.11,73a1.91,1.91,0,0,0,.49,2l6.74,6.57-1.59,9.28a1.92,1.92,0,0,0,2.8,2l8.33-4.38,8.33,4.38a1.91,1.91,0,0,0,.9.23,1.94,1.94,0,0,0,1.9-2.26l-1.59-9.28,6.74-6.57a1.94,1.94,0,0,0-1.07-3.29ZM100,79.45a1.91,1.91,0,0,0-.56,1.71l1.1,6.42-5.77-3a1.89,1.89,0,0,0-1.79,0l-5.77,3,1.1-6.42a1.93,1.93,0,0,0-.55-1.71L83.09,74.9,89.54,74a1.91,1.91,0,0,0,1.45-1l2.89-5.85,2.88,5.85a1.93,1.93,0,0,0,1.45,1l6.45.94Z"/><path class="cls-1" d="M24.41,21.87l-1.28,7.44a2,2,0,0,0,.77,1.89,1.91,1.91,0,0,0,2,.14l6.69-3.51,6.68,3.51a1.93,1.93,0,0,0,2.8-2l-1.27-7.44,5.4-5.28a1.91,1.91,0,0,0,.49-2,1.93,1.93,0,0,0-1.55-1.32l-7.48-1.08L34.35,5.44a2,2,0,0,0-1.73-1.07,1.93,1.93,0,0,0-1.73,1.07l-3.34,6.78L20.07,13.3A1.93,1.93,0,0,0,19,16.59Zm4.69-6a1.94,1.94,0,0,0,1.46-1.06l2.06-4.17,2.06,4.17a1.92,1.92,0,0,0,1.45,1.06l4.61.67-3.33,3.25a1.91,1.91,0,0,0-.56,1.71l.79,4.59-4.12-2.17a1.93,1.93,0,0,0-.9-.22,1.9,1.9,0,0,0-.9.22L27.6,26.11l.78-4.59a1.93,1.93,0,0,0-.55-1.71l-3.34-3.25Z"/><path class="cls-1" d="M63.26,21A1.92,1.92,0,0,0,61.33,23v1.92a1.93,1.93,0,0,0,3.86,0V23A1.93,1.93,0,0,0,63.26,21Z"/><path class="cls-1" d="M63.26,34.52a1.92,1.92,0,0,0-1.93,1.93v1.93a1.93,1.93,0,0,0,3.86,0V36.45A1.93,1.93,0,0,0,63.26,34.52Z"/><path class="cls-1" d="M71,28.73H69a1.93,1.93,0,1,0,0,3.86H71a1.93,1.93,0,1,0,0-3.86Z"/><path class="cls-1" d="M55.54,32.59h1.93a1.93,1.93,0,1,0,0-3.86H55.54a1.93,1.93,0,1,0,0,3.86Z"/><path class="cls-1" d="M49.37,59.21a2,2,0,0,0,1.36-.56,2,2,0,0,0,.57-1.37,1.95,1.95,0,0,0-1.93-1.93,1.93,1.93,0,0,0-1.93,1.93,1.91,1.91,0,0,0,1.93,1.93Z"/></g></svg>