<svg id="Music_Lab" data-name="Music Lab" xmlns="http://www.w3.org/2000/svg" viewBox="0 0 1157.71 1135.69"><defs><style>.cls-1{fill:#cdebfc;}.cls-2{fill:#edd8ae;}.cls-3{fill:#453737;}.cls-4{fill:#4d4d4d;}.cls-5{fill:#c69c6d;}.cls-6{fill:#333;}.cls-7{fill:#e6e6e6;}.cls-8{fill:#ccc;}.cls-9{fill:#ef5a2d;}.cls-10{fill:#241f21;}.cls-11{fill:#fff;}.cls-12{fill:#60d76e;}.cls-13{fill:#6ed6d4;}.cls-14{fill:#f2f2f2;}.cls-15{fill:#252a2d;}.cls-16{fill:#3d6514;stroke:#85f501;stroke-miterlimit:10;stroke-width:8px;}.cls-17{fill:#d7d7d8;}.cls-18{fill:#fbb03b;}.cls-19{fill:#024366;}.cls-20{fill:#f9fbfc;}.cls-21{fill:#1a1a1a;}.cls-22{fill:#b5b5b5;}.cls-23{fill:#9cbee3;}.cls-24{fill:#de842e;}</style></defs><title>Music Lab</title><path class="cls-1" d="M281.76,161.62c98-34.85,208,33.64,308.53,6.93,52.19-13.87,94.44-51.69,143.76-73.67C804.83,63.36,891.34,67.47,956.77,109s106.45,120.28,99.06,197.4c-4.47,46.66-25,90.13-35.7,135.78s-17.25,109.48,23.51,132.63c81.47,46.27,110,163.77,118.88,231.16,7.77,59.22,8.65,304.11-101.49,355.14-53.12,24.62-99.27-21.85-144.77-58.69-289.76-234.66-516.69-123.18-584.8-76.23s-146.1,84.93-228.81,86.24c-9.73.15-20-.35-28.25-5.45-13.76-8.47-16.92-26.51-20-42.37C0,787.78,198.94,638.77,210.35,571.07c7.45-44.13-18.71-69.47-38.16-105.51C117.71,364.55,170,201.39,281.76,161.62Z" transform="translate(-44.97 -32.27)"/><g id="Guitar"><path class="cls-2" d="M864.05,1113.16c-31.4,26.78-67.74,30.55-105.77,17.79-44.21-14.82-80.43-41.42-107.82-79.23-38.49-53.12-27.73-107.5,13.71-150a169.23,169.23,0,0,1,45.68-33c35.08-17.26,63.07-41.34,84.31-74,6.72-10.33,14-20.67,22.68-29.29,23.48-23.36,52-26.61,84.24-10.85,7,3.43,13.79,7.36,21.74,11.6L954,791.55c42.54,32.29,49.54,75.87,15.81,115.49-31.17,36.65-50.76,77-57.67,124.72C907.43,1064.61,889.2,1091.69,864.05,1113.16Z" transform="translate(-44.97 -32.27)"/><polygon class="cls-3" points="841.19 856.36 800.04 825.75 997.23 568.89 1030.44 593.58 841.19 856.36"/><path class="cls-2" d="M1072.35,624.45l-25.07-19.81c-15.86-13.19-15-22,3-33.32,8.29-5.22,17.55-9.87,23.81-17,5.63-6.45,8-15.86,11.31-24.17,2.12-5.3,2.43-11.4,5-16.4,7.43-14.34,12.8-15.29,25.9-5.61,7.87,5.8,28.48,19.24,30.08,20.46,13,9.75,12.2,17.16.58,28.39-4,3.9-9.78,6-14.26,9.51-7,5.56-15.32,10.55-19.88,17.8-5.06,8-6.87,18.25-9.48,27.69C1097.71,632.46,1089.54,635.85,1072.35,624.45Z" transform="translate(-44.97 -32.27)"/><circle class="cls-4" cx="796.93" cy="872.91" r="47.12"/><rect class="cls-3" x="721.29" y="989.57" width="92.8" height="20.41" transform="translate(703.31 -292.86) rotate(36.64)"/></g><path class="cls-1" d="M1201.23,1027.8a1.5,1.5,0,0,0,0-3,1.5,1.5,0,0,0,0,3Z" transform="translate(-44.97 -32.27)"/><g id="Cajon-_Striped" data-name="Cajon- Striped"><rect x="188.03" y="314.23" width="11.18" height="26.42" transform="translate(-94.18 2.36) rotate(-9.07)"/><rect x="299.07" y="296.5" width="11.18" height="26.42" transform="translate(-90 19.65) rotate(-9.07)"/><path class="cls-5" d="M300.46,130.24l-156.7,25L168,336.53l164.41-26.25Zm-56.9,143.15c-.32.08-.66.14-1,.19a34.77,34.77,0,0,1-3.65.39,35.68,35.68,0,0,1-26-62.05c.45-.44.93-.83,1.42-1.23a35.65,35.65,0,0,1,38.39-4.32c.44.21.89.44,1.32.69a35.67,35.67,0,0,1-10.55,66.33Z" transform="translate(-44.97 -32.27)"/><path class="cls-4" d="M272.19,232.71a35.66,35.66,0,0,1-28.63,40.68c-.32.08-.66.14-1,.19a34.77,34.77,0,0,1-3.65.39,35.68,35.68,0,0,1-26-62.05c.45-.44.93-.83,1.42-1.23a35.65,35.65,0,0,1,38.39-4.32c.44.21.89.44,1.32.69A35.61,35.61,0,0,1,272.19,232.71Z" transform="translate(-44.97 -32.27)"/><path class="cls-2" d="M179.77,221.74l-16.45-69.6,14.4-2.3,2.64,71.82A.3.3,0,0,1,179.77,221.74Z" transform="translate(-44.97 -32.27)"/><path class="cls-2" d="M212,144.38l2.43,66.31c-.49.4-1,.79-1.42,1.23l-15.41-65.24Z" transform="translate(-44.97 -32.27)"/><path class="cls-2" d="M251.59,138.05l2.52,69c-.43-.25-.88-.48-1.32-.69l-15.61-66Z" transform="translate(-44.97 -32.27)"/><path class="cls-2" d="M296.18,203.15l-16.45-69.6,14.41-2.3,2.64,71.82A.3.3,0,0,1,296.18,203.15Z" transform="translate(-44.97 -32.27)"/><path class="cls-2" d="M202.41,258.23l16.45,69.6-14.4,2.3-2.64-71.82A.3.3,0,0,1,202.41,258.23Z" transform="translate(-44.97 -32.27)"/><path class="cls-2" d="M168.44,263.65l16.45,69.61-14.4,2.3-2.64-71.83A.3.3,0,0,1,168.44,263.65Z" transform="translate(-44.97 -32.27)"/><path class="cls-2" d="M255.18,322.6l-14.38,2.3L238.93,274a34.77,34.77,0,0,0,3.65-.39c.32-.05.66-.11,1-.19Z" transform="translate(-44.97 -32.27)"/><path class="cls-2" d="M280.92,246.26l16.45,69.6-14.4,2.3-2.64-71.82A.3.3,0,0,1,280.92,246.26Z" transform="translate(-44.97 -32.27)"/><path class="cls-2" d="M309.91,241.63l16.45,69.6-14.4,2.3-2.64-71.82A.3.3,0,0,1,309.91,241.63Z" transform="translate(-44.97 -32.27)"/></g><g id="OP1"><rect class="cls-6" x="728.55" y="164.16" width="24.41" height="24.42" transform="translate(208.45 729.19) rotate(-63.6)"/><rect class="cls-6" x="716.66" y="188.1" width="24.41" height="24.42" transform="translate(180.41 731.85) rotate(-63.6)"/><rect class="cls-6" x="704.78" y="212.04" width="24.41" height="24.42" transform="translate(152.36 734.5) rotate(-63.6)"/><rect class="cls-6" x="692.89" y="235.98" width="24.41" height="24.42" transform="translate(124.32 737.15) rotate(-63.6)"/><rect class="cls-6" x="744.92" y="121.09" width="50.79" height="50.79" transform="translate(251.64 739.07) rotate(-63.6)"/><rect class="cls-6" x="752.17" y="175.89" width="24.41" height="24.41" transform="translate(211.07 756.87) rotate(-63.6)"/><rect class="cls-6" x="740.28" y="199.83" width="24.41" height="24.41" transform="translate(183.02 759.52) rotate(-63.6)"/><rect class="cls-6" x="728.4" y="223.77" width="24.41" height="24.41" transform="translate(154.98 762.17) rotate(-63.6)"/><rect class="cls-6" x="716.52" y="247.71" width="24.41" height="24.41" transform="translate(126.93 764.82) rotate(-63.6)"/><rect class="cls-6" x="787.67" y="163.67" width="24.41" height="24.41" transform="translate(241.73 781.88) rotate(-63.6)"/><rect class="cls-6" x="775.79" y="187.61" width="24.41" height="24.41" transform="translate(213.68 784.53) rotate(-63.6)"/><rect class="cls-6" x="763.9" y="211.56" width="24.41" height="24.41" transform="translate(185.64 787.19) rotate(-63.6)"/><rect class="cls-6" x="752.02" y="235.5" width="24.41" height="24.41" transform="translate(157.6 789.84) rotate(-63.6)"/><rect class="cls-6" x="740.14" y="259.44" width="24.41" height="24.41" transform="translate(129.55 792.49) rotate(-63.6)"/><rect class="cls-6" x="811.5" y="132.62" width="24.06" height="50.72" transform="translate(270.9 793.12) rotate(-63.6)"/><rect class="cls-6" x="811.29" y="175.4" width="24.41" height="24.42" transform="translate(244.34 809.55) rotate(-63.6)"/><rect class="cls-6" x="799.41" y="199.34" width="24.41" height="24.42" transform="translate(216.3 812.21) rotate(-63.6)"/><rect class="cls-6" x="756.34" y="259.19" width="51.14" height="24.42" transform="translate(146.19 818.84) rotate(-63.6)"/><rect class="cls-6" x="793.53" y="219.56" width="24.41" height="37.81" transform="translate(188.92 821.89) rotate(-63.6)"/><rect class="cls-6" x="823.03" y="211.07" width="24.41" height="24.41" transform="translate(218.92 839.88) rotate(-63.6)"/><rect class="cls-6" x="779.96" y="270.92" width="51.14" height="24.41" transform="translate(148.81 846.51) rotate(-63.6)"/><rect class="cls-6" x="822.96" y="240.87" width="24.41" height="24.42" transform="translate(192.18 856.36) rotate(-63.6)"/><rect class="cls-6" x="846.65" y="222.79" width="24.41" height="24.41" transform="translate(221.53 867.55) rotate(-63.6)"/><rect class="cls-6" x="803.58" y="282.64" width="51.14" height="24.41" transform="translate(151.42 874.18) rotate(-63.6)"/><rect class="cls-6" x="851.15" y="160.71" width="50.79" height="77.01" transform="translate(263.41 863.51) rotate(-63.6)"/><rect class="cls-6" x="870.28" y="234.51" width="24.41" height="24.42" transform="translate(224.15 895.22) rotate(-63.6)"/><rect class="cls-6" x="852.46" y="248.89" width="24.41" height="37.65" transform="translate(195.45 890.92) rotate(-63.6)"/><rect class="cls-6" x="827.2" y="294.37" width="51.14" height="24.42" transform="translate(154.04 901.85) rotate(-63.6)"/><rect class="cls-6" x="893.9" y="246.24" width="24.41" height="24.41" transform="translate(226.77 922.89) rotate(-63.6)"/><rect class="cls-6" x="850.83" y="306.09" width="51.14" height="24.41" transform="translate(156.66 929.52) rotate(-63.6)"/><rect class="cls-6" x="888.06" y="266.43" width="24.41" height="37.92" transform="translate(199.39 932.63) rotate(-63.6)"/><rect class="cls-6" x="910.27" y="203.16" width="50.79" height="50.79" transform="translate(269.96 932.77) rotate(-63.6)"/><rect class="cls-6" x="917.52" y="257.96" width="24.41" height="24.42" transform="translate(229.38 950.56) rotate(-63.6)"/><rect class="cls-6" x="874.45" y="317.82" width="51.14" height="24.42" transform="translate(159.27 957.19) rotate(-63.6)"/><rect class="cls-6" x="941.14" y="269.69" width="24.41" height="24.41" transform="translate(232 978.23) rotate(-63.6)"/><rect class="cls-6" x="923.38" y="284.16" width="24.41" height="37.53" transform="translate(203.3 974) rotate(-63.6)"/><rect class="cls-6" x="898.07" y="329.55" width="51.14" height="24.41" transform="translate(161.89 984.86) rotate(-63.6)"/><rect class="cls-6" x="964.76" y="281.42" width="24.41" height="24.41" transform="translate(234.62 1005.9) rotate(-63.6)"/><rect class="cls-6" x="921.69" y="341.27" width="51.14" height="24.41" transform="translate(164.51 1012.53) rotate(-63.6)"/><rect class="cls-6" x="957.64" y="226.68" width="50.79" height="50.79" transform="translate(275.2 988.25) rotate(-63.6)"/><rect class="cls-6" x="959.13" y="301.76" width="24.41" height="37.81" transform="translate(207.26 1015.88) rotate(-63.6)"/><rect class="cls-6" x="988.39" y="293.14" width="24.41" height="24.42" transform="translate(237.23 1033.57) rotate(-63.6)"/><rect class="cls-6" x="945.31" y="352.99" width="51.14" height="24.42" transform="translate(167.12 1040.2) rotate(-63.6)"/><rect class="cls-6" x="988.57" y="323.07" width="24.41" height="24.41" transform="translate(210.53 1050.35) rotate(-63.6)"/><rect class="cls-6" x="1012.01" y="304.87" width="24.41" height="24.41" transform="translate(239.85 1061.24) rotate(-63.6)"/><rect class="cls-6" x="968.94" y="364.72" width="51.14" height="24.41" transform="translate(169.74 1067.87) rotate(-63.6)"/><rect class="cls-6" x="1005.01" y="250.19" width="50.79" height="50.79" transform="translate(280.45 1043.74) rotate(-63.6)"/><rect class="cls-6" x="1059.4" y="268.71" width="24.41" height="24.41" transform="translate(298.56 1083.61) rotate(-63.6)"/><rect class="cls-6" x="1047.51" y="292.65" width="24.41" height="24.41" transform="translate(270.51 1086.26) rotate(-63.6)"/><rect class="cls-6" x="1035.63" y="316.59" width="24.41" height="24.41" transform="translate(242.47 1088.91) rotate(-63.6)"/><rect class="cls-6" x="992.56" y="376.45" width="51.14" height="24.41" transform="translate(172.36 1095.54) rotate(-63.6)"/><rect class="cls-6" x="1018.07" y="331.1" width="24.41" height="37.65" transform="translate(213.79 1084.92) rotate(-63.6)"/><rect class="cls-7" x="968.94" y="364.72" width="51.14" height="24.41" transform="translate(169.74 1067.87) rotate(-63.6)"/><rect class="cls-7" x="945.31" y="352.99" width="51.14" height="24.42" transform="translate(167.12 1040.2) rotate(-63.6)"/><rect class="cls-7" x="921.69" y="341.27" width="51.14" height="24.41" transform="translate(164.51 1012.53) rotate(-63.6)"/><rect class="cls-7" x="898.07" y="329.55" width="51.14" height="24.41" transform="translate(161.89 984.86) rotate(-63.6)"/><rect class="cls-7" x="874.45" y="317.82" width="51.14" height="24.42" transform="translate(159.27 957.19) rotate(-63.6)"/><rect class="cls-7" x="850.83" y="306.09" width="51.14" height="24.41" transform="translate(156.66 929.52) rotate(-63.6)"/><rect class="cls-7" x="827.2" y="294.37" width="51.14" height="24.42" transform="translate(154.04 901.85) rotate(-63.6)"/><rect class="cls-7" x="803.58" y="282.64" width="51.14" height="24.41" transform="translate(151.42 874.18) rotate(-63.6)"/><rect class="cls-7" x="779.96" y="270.92" width="51.14" height="24.41" transform="translate(148.81 846.51) rotate(-63.6)"/><rect class="cls-7" x="756.34" y="259.19" width="51.14" height="24.42" transform="translate(146.19 818.84) rotate(-63.6)"/><rect class="cls-7" x="740.14" y="259.44" width="24.41" height="24.41" transform="translate(129.55 792.49) rotate(-63.6)"/><rect class="cls-7" x="716.52" y="247.71" width="24.41" height="24.41" transform="translate(126.93 764.82) rotate(-63.6)"/><rect class="cls-7" x="692.89" y="235.98" width="24.41" height="24.42" transform="translate(124.32 737.15) rotate(-63.6)"/><rect class="cls-7" x="992.56" y="376.45" width="51.14" height="24.41" transform="translate(172.36 1095.54) rotate(-63.6)"/><path class="cls-8" d="M772.73,289.89h0a8.24,8.24,0,0,0,11.11-3.55L795,263.9a8.25,8.25,0,0,0-3.89-11h0A8.24,8.24,0,0,0,780,256.46l-11.14,22.43A8.26,8.26,0,0,0,772.73,289.89Z" transform="translate(-44.97 -32.27)"/><path class="cls-8" d="M796.35,301.62h0a8.25,8.25,0,0,0,11.11-3.56l11.14-22.43a8.26,8.26,0,0,0-3.89-11h0a8.25,8.25,0,0,0-11.11,3.55l-11.14,22.44A8.26,8.26,0,0,0,796.35,301.62Z" transform="translate(-44.97 -32.27)"/><path class="cls-8" d="M820,313.34h0a8.24,8.24,0,0,0,11.11-3.55l11.14-22.44a8.24,8.24,0,0,0-3.89-11h0a8.24,8.24,0,0,0-11.11,3.55l-11.14,22.43A8.26,8.26,0,0,0,820,313.34Z" transform="translate(-44.97 -32.27)"/><path class="cls-8" d="M843.59,325.07h0a8.27,8.27,0,0,0,11.12-3.56l11.13-22.43a8.24,8.24,0,0,0-3.89-11h0a8.26,8.26,0,0,0-11.11,3.55l-11.13,22.44A8.25,8.25,0,0,0,843.59,325.07Z" transform="translate(-44.97 -32.27)"/><path class="cls-8" d="M867.22,336.79h0a8.25,8.25,0,0,0,11.11-3.55l11.13-22.43a8.24,8.24,0,0,0-3.88-11h0a8.25,8.25,0,0,0-11.12,3.55l-11.13,22.43A8.24,8.24,0,0,0,867.22,336.79Z" transform="translate(-44.97 -32.27)"/><path class="cls-8" d="M890.84,348.52h0A8.26,8.26,0,0,0,902,345l11.14-22.44a8.26,8.26,0,0,0-3.89-11h0a8.25,8.25,0,0,0-11.11,3.56L887,337.52A8.26,8.26,0,0,0,890.84,348.52Z" transform="translate(-44.97 -32.27)"/><path class="cls-8" d="M914.46,360.24h0a8.24,8.24,0,0,0,11.11-3.55l11.14-22.43a8.26,8.26,0,0,0-3.89-11h0a8.24,8.24,0,0,0-11.11,3.55l-11.14,22.43A8.26,8.26,0,0,0,914.46,360.24Z" transform="translate(-44.97 -32.27)"/><path class="cls-8" d="M938.08,372h0a8.25,8.25,0,0,0,11.11-3.55L960.33,346a8.26,8.26,0,0,0-3.89-11h0a8.25,8.25,0,0,0-11.11,3.56L934.19,361A8.26,8.26,0,0,0,938.08,372Z" transform="translate(-44.97 -32.27)"/><path class="cls-8" d="M961.7,383.69h0a8.25,8.25,0,0,0,11.12-3.55L984,357.71a8.24,8.24,0,0,0-3.89-11h0A8.25,8.25,0,0,0,969,350.26L957.82,372.7A8.24,8.24,0,0,0,961.7,383.69Z" transform="translate(-44.97 -32.27)"/><path class="cls-8" d="M985.33,395.42h0a8.25,8.25,0,0,0,11.11-3.55l11.13-22.44a8.25,8.25,0,0,0-3.88-11h0A8.27,8.27,0,0,0,992.57,362l-11.13,22.43A8.24,8.24,0,0,0,985.33,395.42Z" transform="translate(-44.97 -32.27)"/><path class="cls-8" d="M1009,407.15h0a8.26,8.26,0,0,0,11.11-3.56l11.14-22.43a8.26,8.26,0,0,0-3.89-11h0a8.24,8.24,0,0,0-11.11,3.55l-11.14,22.44A8.25,8.25,0,0,0,1009,407.15Z" transform="translate(-44.97 -32.27)"/><rect class="cls-7" x="752.02" y="235.5" width="24.41" height="24.41" transform="translate(157.6 789.84) rotate(-63.6)"/><rect class="cls-7" x="728.4" y="223.77" width="24.41" height="24.41" transform="translate(154.98 762.17) rotate(-63.6)"/><rect class="cls-7" x="704.78" y="212.04" width="24.41" height="24.42" transform="translate(152.36 734.5) rotate(-63.6)"/><rect class="cls-7" x="763.9" y="211.56" width="24.41" height="24.41" transform="translate(185.64 787.19) rotate(-63.6)"/><rect class="cls-7" x="740.28" y="199.83" width="24.41" height="24.41" transform="translate(183.02 759.52) rotate(-63.6)"/><rect class="cls-7" x="716.66" y="188.1" width="24.41" height="24.42" transform="translate(180.41 731.85) rotate(-63.6)"/><rect class="cls-7" x="775.79" y="187.61" width="24.41" height="24.41" transform="translate(213.68 784.53) rotate(-63.6)"/><rect class="cls-7" x="752.17" y="175.89" width="24.41" height="24.41" transform="translate(211.07 756.87) rotate(-63.6)"/><rect class="cls-7" x="728.55" y="164.16" width="24.41" height="24.42" transform="translate(208.45 729.19) rotate(-63.6)"/><rect class="cls-8" x="695.95" y="239.04" width="18.31" height="18.31" rx="9.15" transform="translate(138.9 -319.89) rotate(26.4)"/><rect class="cls-8" x="719.57" y="250.77" width="18.31" height="18.31" rx="9.15" transform="translate(146.58 -329.17) rotate(26.4)"/><rect class="cls-8" x="743.19" y="262.49" width="18.31" height="18.31" rx="9.15" transform="translate(154.26 -338.45) rotate(26.4)"/><rect class="cls-9" x="707.83" y="215.1" width="18.31" height="18.31" rx="9.15" transform="translate(129.5 -327.67) rotate(26.4)"/><rect class="cls-8" x="731.45" y="226.82" width="18.31" height="18.31" rx="9.15" transform="translate(137.18 -336.95) rotate(26.4)"/><rect class="cls-8" x="755.08" y="238.55" width="18.31" height="18.31" rx="9.15" transform="translate(144.85 -346.23) rotate(26.4)"/><rect class="cls-8" x="719.72" y="191.16" width="18.31" height="18.31" rx="9.15" transform="translate(120.09 -335.45) rotate(26.4)"/><rect class="cls-8" x="743.34" y="202.88" width="18.31" height="18.31" rx="9.15" transform="translate(127.77 -344.73) rotate(26.4)"/><rect class="cls-8" x="766.96" y="214.61" width="18.31" height="18.31" rx="9.15" transform="translate(135.45 -354.01) rotate(26.4)"/><rect class="cls-8" x="731.6" y="167.22" width="18.31" height="18.31" rx="9.15" transform="translate(110.69 -343.23) rotate(26.4)"/><rect class="cls-8" x="755.22" y="178.94" width="18.31" height="18.31" rx="9.15" transform="translate(118.37 -352.51) rotate(26.4)"/><rect class="cls-7" x="744.92" y="121.09" width="50.79" height="50.79" transform="translate(251.64 739.07) rotate(-63.6)"/><rect class="cls-7" x="1005.01" y="250.19" width="50.79" height="50.79" transform="translate(280.45 1043.74) rotate(-63.6)"/><rect class="cls-7" x="957.64" y="226.68" width="50.79" height="50.79" transform="translate(275.2 988.25) rotate(-63.6)"/><rect class="cls-7" x="1047.51" y="292.65" width="24.41" height="24.41" transform="translate(270.51 1086.26) rotate(-63.6)"/><rect class="cls-7" x="1059.4" y="268.71" width="24.41" height="24.41" transform="translate(298.56 1083.61) rotate(-63.6)"/><rect class="cls-8" x="1050.57" y="295.71" width="18.31" height="18.31" rx="9.15" transform="translate(201.08 -471.65) rotate(26.4)"/><rect class="cls-8" x="1062.45" y="271.76" width="18.31" height="18.31" rx="9.15" transform="translate(191.67 -479.43) rotate(26.4)"/><rect class="cls-8" x="778.84" y="190.67" width="18.31" height="18.31" rx="9.15" transform="translate(126.04 -361.79) rotate(26.4)"/><rect class="cls-7" x="846.65" y="222.79" width="24.41" height="24.41" transform="translate(221.53 867.55) rotate(-63.6)"/><rect class="cls-7" x="823.03" y="211.07" width="24.41" height="24.41" transform="translate(218.92 839.88) rotate(-63.6)"/><rect class="cls-7" x="799.41" y="199.34" width="24.41" height="24.42" transform="translate(216.3 812.21) rotate(-63.6)"/><rect class="cls-8" x="802.46" y="202.39" width="18.31" height="18.31" rx="9.15" transform="translate(133.72 -371.07) rotate(26.4)"/><rect class="cls-7" x="787.67" y="163.67" width="24.41" height="24.41" transform="translate(241.73 781.88) rotate(-63.6)"/><rect class="cls-8" x="790.73" y="166.73" width="18.31" height="18.31" rx="9.15" transform="translate(116.64 -369.57) rotate(26.4)"/><rect class="cls-7" x="811.29" y="175.4" width="24.41" height="24.42" transform="translate(244.34 809.55) rotate(-63.6)"/><rect class="cls-8" x="814.35" y="178.45" width="18.31" height="18.31" rx="9.15" transform="translate(124.31 -378.85) rotate(26.4)"/><rect class="cls-8" x="826.09" y="214.12" width="18.31" height="18.31" rx="9.15" transform="translate(141.4 -380.35) rotate(26.4)"/><rect class="cls-8" x="849.71" y="225.84" width="18.31" height="18.31" rx="9.15" transform="translate(149.07 -389.63) rotate(26.4)"/><rect class="cls-7" x="917.52" y="257.96" width="24.41" height="24.42" transform="translate(229.38 950.56) rotate(-63.6)"/><rect class="cls-7" x="893.9" y="246.24" width="24.41" height="24.41" transform="translate(226.77 922.89) rotate(-63.6)"/><rect class="cls-7" x="870.28" y="234.51" width="24.41" height="24.42" transform="translate(224.15 895.22) rotate(-63.6)"/><rect class="cls-8" x="873.33" y="237.57" width="18.31" height="18.31" rx="9.15" transform="translate(156.75 -398.91) rotate(26.4)"/><rect class="cls-8" x="896.95" y="249.29" width="18.31" height="18.31" rx="9.15" transform="translate(164.42 -408.19) rotate(26.4)"/><rect class="cls-8" x="920.57" y="261.02" width="18.31" height="18.31" rx="9.15" transform="translate(172.1 -417.47) rotate(26.4)"/><rect class="cls-7" x="988.39" y="293.14" width="24.41" height="24.42" transform="translate(237.23 1033.57) rotate(-63.6)"/><rect class="cls-7" x="964.76" y="281.42" width="24.41" height="24.41" transform="translate(234.62 1005.9) rotate(-63.6)"/><rect class="cls-7" x="941.14" y="269.69" width="24.41" height="24.41" transform="translate(232 978.23) rotate(-63.6)"/><rect class="cls-8" x="944.2" y="272.75" width="18.31" height="18.31" rx="9.15" transform="translate(179.78 -426.75) rotate(26.4)"/><rect class="cls-8" x="967.82" y="284.47" width="18.31" height="18.31" rx="9.15" transform="translate(187.45 -436.03) rotate(26.4)"/><rect class="cls-8" x="991.44" y="296.2" width="18.31" height="18.31" rx="9.15" transform="translate(195.13 -445.31) rotate(26.4)"/><rect class="cls-7" x="1035.63" y="316.59" width="24.41" height="24.41" transform="translate(242.47 1088.91) rotate(-63.6)"/><rect class="cls-7" x="1012.01" y="304.87" width="24.41" height="24.41" transform="translate(239.85 1061.24) rotate(-63.6)"/><rect class="cls-8" x="1015.06" y="307.92" width="18.31" height="18.31" rx="9.15" transform="translate(202.81 -454.59) rotate(26.4)"/><rect class="cls-8" x="1038.68" y="319.65" width="18.31" height="18.31" rx="9.15" transform="translate(210.48 -463.87) rotate(26.4)"/><rect class="cls-7" x="822.96" y="240.87" width="24.41" height="24.42" transform="translate(192.18 856.36) rotate(-63.6)"/><rect class="cls-7" x="793.53" y="219.56" width="24.41" height="37.81" transform="translate(188.92 821.89) rotate(-63.6)"/><rect class="cls-7" x="888.06" y="266.43" width="24.41" height="37.92" transform="translate(199.39 932.63) rotate(-63.6)"/><rect class="cls-7" x="852.46" y="248.89" width="24.41" height="37.65" transform="translate(195.45 890.92) rotate(-63.6)"/><rect class="cls-6" x="897.76" y="279.53" width="18.31" height="18.31" rx="9.15" transform="translate(177.95 -405.39) rotate(26.4)"/><rect class="cls-7" x="923.38" y="284.16" width="24.41" height="37.53" transform="translate(203.3 974) rotate(-63.6)"/><rect class="cls-6" x="919.63" y="290.39" width="18.31" height="18.31" rx="9.15" transform="translate(185.06 -413.98) rotate(26.4)"/><rect class="cls-6" x="826.01" y="243.92" width="18.31" height="18.31" rx="9.15" transform="translate(154.64 -377.21) rotate(26.4)"/><rect class="cls-6" x="849.57" y="255.61" width="18.31" height="18.31" rx="9.15" transform="translate(162.29 -386.46) rotate(26.4)"/><rect class="cls-6" x="802.46" y="232.23" width="18.31" height="18.31" rx="9.15" transform="translate(146.98 -367.95) rotate(26.4)"/><rect class="cls-7" x="988.57" y="323.07" width="24.41" height="24.41" transform="translate(210.53 1050.35) rotate(-63.6)"/><rect class="cls-7" x="959.13" y="301.76" width="24.41" height="37.81" transform="translate(207.26 1015.88) rotate(-63.6)"/><rect class="cls-7" x="1018.07" y="331.1" width="24.41" height="37.65" transform="translate(213.79 1084.92) rotate(-63.6)"/><rect class="cls-6" x="991.62" y="326.13" width="18.31" height="18.31" rx="9.15" transform="translate(208.46 -442.27) rotate(26.4)"/><rect class="cls-6" x="1015.18" y="337.82" width="18.31" height="18.31" rx="9.15" transform="translate(216.11 -451.52) rotate(26.4)"/><rect class="cls-6" x="968.07" y="314.43" width="18.31" height="18.31" rx="9.15" transform="translate(200.8 -433.01) rotate(26.4)"/><rect class="cls-7" x="910.27" y="203.16" width="50.79" height="50.79" transform="translate(269.96 932.77) rotate(-63.6)"/><rect class="cls-10" x="851.15" y="160.71" width="50.79" height="77.01" transform="translate(263.41 863.51) rotate(-63.6)"/><rect class="cls-7" x="811.5" y="132.62" width="24.06" height="50.72" transform="translate(270.9 793.12) rotate(-63.6)"/><rect class="cls-11" x="802.61" y="142.79" width="18.31" height="18.31" rx="9.15" transform="translate(107.23 -377.35) rotate(26.4)"/><rect class="cls-12" x="969.99" y="239.03" width="26.09" height="26.09" rx="13.04" transform="translate(275.2 988.25) rotate(-63.6)"/><rect class="cls-13" x="922.62" y="215.51" width="26.09" height="26.09" rx="13.04" transform="translate(269.96 932.76) rotate(-63.6)"/><rect class="cls-9" x="1017.36" y="262.54" width="26.09" height="26.09" rx="13.04" transform="translate(280.45 1043.74) rotate(-63.6)"/><path class="cls-14" d="M855,201.92a15,15,0,1,1,20.16-6.78A15,15,0,0,1,855,201.92Zm12.42-25a12.9,12.9,0,1,0,5.83,17.3A12.91,12.91,0,0,0,867.39,176.89Z" transform="translate(-44.97 -32.27)"/><path class="cls-14" d="M887.56,218.1a15,15,0,1,1,20.17-6.78A15.05,15.05,0,0,1,887.56,218.1Zm12.43-25a12.91,12.91,0,1,0,5.82,17.3A12.91,12.91,0,0,0,900,193.07Z" transform="translate(-44.97 -32.27)"/><polygon class="cls-14" points="840.06 191.99 806.62 175.39 802.57 161.37 804.62 160.77 808.41 173.9 840.17 189.66 852.91 184.74 853.68 186.74 840.06 191.99"/><path class="cls-14" d="M891.2,210.78a6.86,6.86,0,1,1,9.2-3.1A6.88,6.88,0,0,1,891.2,210.78Zm5.15-10.39a4.73,4.73,0,1,0,2.13,6.34A4.73,4.73,0,0,0,896.35,200.39Z" transform="translate(-44.97 -32.27)"/><path class="cls-14" d="M858.6,194.6a6.87,6.87,0,1,1,9.2-3.1A6.87,6.87,0,0,1,858.6,194.6Zm5.16-10.39a4.73,4.73,0,1,0,2.13,6.34A4.74,4.74,0,0,0,863.76,184.21Z" transform="translate(-44.97 -32.27)"/><rect class="cls-10" x="750.85" y="162.2" width="21.86" height="2.93" rx="1.46" transform="translate(107.23 -353.9) rotate(26.4)"/><rect class="cls-10" x="767.04" y="129.59" width="21.86" height="2.93" rx="1.46" transform="translate(94.42 -364.5) rotate(26.4)"/><rect class="cls-10" x="748.66" y="158.12" width="30.3" height="2.93" rx="1.46" transform="translate(105.63 -355.23) rotate(26.4)"/><rect class="cls-10" x="747.73" y="154.05" width="36.19" height="2.93" rx="1.46" transform="translate(104.03 -356.55) rotate(26.4)"/><rect class="cls-10" x="746.24" y="149.97" width="43.23" height="2.93" rx="1.46" transform="translate(102.43 -357.88) rotate(26.4)"/><rect class="cls-10" x="748.26" y="145.89" width="43.23" height="2.93" rx="1.46" transform="translate(100.83 -359.2) rotate(26.4)"/><rect class="cls-10" x="750.28" y="141.82" width="43.23" height="2.93" rx="1.46" transform="translate(99.23 -360.52) rotate(26.4)"/><rect class="cls-10" x="755.82" y="137.74" width="36.19" height="2.93" rx="1.46" transform="translate(97.62 -361.85) rotate(26.4)"/><rect class="cls-10" x="760.79" y="133.67" width="30.3" height="2.93" rx="1.46" transform="translate(96.02 -363.17) rotate(26.4)"/><rect class="cls-6" x="760.58" y="244.06" width="7.29" height="7.29" transform="translate(144.85 -346.23) rotate(26.4)"/><path class="cls-6" d="M739.16,231.09l-3,6.42a1.09,1.09,0,0,0,1.09,1.55l7.14-.62a1.1,1.1,0,0,0,.8-1.72l-4.12-5.8A1.09,1.09,0,0,0,739.16,231.09Z" transform="translate(-44.97 -32.27)"/><path class="cls-6" d="M755.87,99.38,676.69,258.9l344.39,171,79.19-159.52ZM1066.1,264.56,1088,275.41l-10.85,21.87-21.87-10.86Zm-11.89,23.94,21.87,10.85-10.85,21.87-21.87-10.85Zm-11.88,23.94,21.87,10.85-10.86,21.87-21.87-10.85ZM1019,241.55l45.49,22.58-22.58,45.49L996.37,287Zm-11.1,81,10.86-21.87,21.87,10.86-10.86,21.87Zm9.28,7.19-10.85,21.87-21.87-10.85,10.86-21.87Zm-22-40.78L1017,299.84l-10.86,21.87-21.87-10.86Zm-35.25,12.34,33.87,16.81L982.85,340,949,323.2Zm.78-2.2,10.85-21.87,21.87,10.86L982.48,310Zm11-81.1,45.49,22.59-22.58,45.49L949,263.53Zm-47.37-23.51L969.7,217.1l-22.58,45.5L901.63,240Zm21.88,70.15-10.85,21.87-21.88-10.86,10.86-21.87ZM900.6,242.09l21.87,10.85-10.86,21.87L889.74,264ZM888.71,266l34,16.86-10.85,21.87-34-16.86ZM853.34,159.35l69,34.24-22.58,45.49-69-34.24ZM842.5,240.5l10.85-21.86,21.87,10.85-10.85,21.87Zm9,7.07-10.85,21.87L818.8,258.58l10.86-21.87Zm-21.8-40.66,21.87,10.86-10.85,21.86-21.87-10.85ZM828,206l-10.85,21.87-21.88-10.86,10.86-21.87Zm-20.84-12.93L818,171.24l21.87,10.86L829,204Zm21,42.83-10.86,21.87L783.37,241l10.85-21.86Zm-21.94-100,45.43,22.56L840.89,180l-45.43-22.55ZM710.61,264.56,688.74,253.7l10.85-21.87,21.87,10.86Zm11.88-23.94-21.87-10.86,10.86-21.87,21.87,10.86Zm11.89-24-21.87-10.85L723.36,184l21.87,10.86Zm11.88-23.94-21.87-10.85L735.24,160l21.88,10.86Zm-12,83.55-21.87-10.85,10.86-21.87,21.86,10.85Zm11.88-23.94-21.86-10.86,10.85-21.86L757,230.47ZM758,228.4l-21.87-10.86L747,195.68l21.87,10.85Zm11.88-23.94L748,193.6l10.86-21.86,21.87,10.85Zm11.89-23.94-45.5-22.58,22.58-45.5L804.35,135ZM757.85,288,736,277.15l10.86-21.87,21.87,10.86Zm11.88-23.94-21.86-10.85,10.85-21.87,21.87,10.86Zm11.89-23.94-21.87-10.85L770.6,207.4l21.87,10.86Zm11.88-23.94-21.87-10.85,10.86-21.87,21.87,10.85Zm11.89-23.94-21.87-10.85,10.85-21.87,21.87,10.85ZM781.48,299.73,759.6,288.87l22.74-45.8,21.87,10.85Zm23.62,11.73L783.23,300.6,806,254.79l21.86,10.86Zm23.62,11.72-21.87-10.85,22.74-45.81,21.86,10.85Zm23.62,11.73-21.87-10.86,22.74-45.81,21.87,10.86ZM876.11,287l-33.73-16.75,10.85-21.86L887,265.16ZM888,263.08l-21.87-10.85L877,230.36l21.88,10.86Zm-12,83.55-21.87-10.85L876.83,290l21.87,10.85Zm23.63,11.73L877.71,347.5l22.74-45.81,21.87,10.86Zm23.62,11.72-21.87-10.85,22.74-45.81,21.86,10.85ZM947,322.2l-33.61-16.69,10.85-21.86,33.62,16.68Zm11.89-23.94L937,287.41l10.85-21.87,21.87,10.85Zm-12,83.55L925,371l22.74-45.81L969.56,336Zm23.62,11.72-21.87-10.85,22.74-45.81,21.87,10.86Zm23.62,11.73L972.2,394.4l22.74-45.8,21.87,10.85ZM1017.69,417l-21.87-10.85,22.74-45.81,21.87,10.86Zm24-47.75L1008,352.49l10.85-21.87,33.73,16.74Z" transform="translate(-44.97 -32.27)"/><path class="cls-6" d="M1021.69,431.64,674.9,259.51,755.27,97.59l346.79,172.14ZM678.48,258.3l342,169.76,78-157.13-342-169.76Zm339.81,160.47L687,254.3l71.3-143.65,307.09,152.43.15-.31,24.27,12-35.66,71.82.26.13-12,24.26-.25-.13Zm-20.68-13.24,19.48,9.66,21.55-43.41-19.48-9.67ZM974,393.8l19.48,9.67L1015,360.05l-19.48-9.66Zm-23.62-11.73,19.48,9.67,21.55-43.41-19.48-9.67Zm-23.62-11.72L946.22,380l21.55-43.42-19.47-9.66Zm-23.62-11.72,19.47,9.66,21.55-43.41-19.47-9.67ZM879.5,346.9,899,356.57l21.55-43.42-19.48-9.67Zm-23.62-11.73,19.48,9.67,21.55-43.41-19.48-9.67Zm-23.62-11.72,19.48,9.67,21.55-43.42L853.81,280Zm-23.62-11.73,19.47,9.67L849.66,278l-19.47-9.67ZM785,300l19.47,9.67L826,266.25l-19.47-9.67Zm-23.63-11.73,19.48,9.67,21.55-43.41-19.48-9.67Zm-23.62-11.72,19.48,9.66,9.66-19.47-19.47-9.67Zm-23.62-11.73,19.48,9.67L743.29,255l-19.47-9.67ZM690.53,253.1,710,262.76l9.66-19.47-19.47-9.67Zm59.13-.49,19.47,9.66,9.67-19.47-19.48-9.67ZM726,240.88l19.47,9.67,9.67-19.48-19.48-9.66Zm-23.63-11.72,19.48,9.66,9.67-19.47-19.48-9.67Zm307.37,122.73,31.33,15.55,9.67-19.48-31.33-15.55ZM986.2,340.18l19.48,9.67,9.66-19.48-19.47-9.66Zm-35.43-17.59,31.47,15.63,9.67-19.48-31.47-15.62Zm-35.62-17.68,31.22,15.5L956,300.94l-31.23-15.5Zm-35.5-17.62L911.22,303l9.67-19.47-31.57-15.67Zm-35.48-17.61,31.34,15.55,9.66-19.47-31.33-15.55ZM820.59,258l19.48,9.67,9.67-19.48-19.48-9.67Zm-35.43-17.59L816.64,256l9.67-19.47-31.48-15.62Zm-23.62-11.72L781,238.33l9.66-19.47-19.47-9.67Zm-23.62-11.73,19.48,9.67,9.66-19.48-19.47-9.66ZM714.3,205.21l19.47,9.67,9.67-19.47L724,185.74Zm319,128.49,19.47,9.67,9.67-19.47-19.48-9.67ZM1009.65,322l19.47,9.67,9.67-19.48-19.48-9.66ZM986,310.25l19.48,9.67,9.67-19.47-19.48-9.67ZM962.4,298.53l19.47,9.66,9.67-19.47-19.47-9.67ZM938.78,286.8l19.47,9.67L967.92,277l-19.47-9.67Zm-23.62-11.72,19.47,9.66,9.67-19.47-19.48-9.67Zm-23.62-11.73L911,273l9.67-19.48-19.48-9.66Zm-23.63-11.72,19.48,9.66,9.67-19.47-19.48-9.67ZM844.29,239.9l19.47,9.67,9.67-19.48L854,220.43Zm-23.62-11.72,19.47,9.66,9.67-19.47-19.47-9.67Zm-23.62-11.73,19.47,9.67,9.67-19.48L806.71,197Zm-23.62-11.73,19.47,9.67,9.67-19.47-19.48-9.67ZM749.81,193l19.47,9.67,9.66-19.48-19.47-9.66Zm-23.63-11.73,19.48,9.67,9.66-19.47-19.47-9.67Zm319,128.49,19.47,9.67,9.67-19.47-19.47-9.67Zm-47-23.32,43.1,21.39,21.39-43.1-43.1-21.39Zm-47.37-23.52,43.1,21.4,21.39-43.1-43.1-21.39Zm-47.37-23.51,43.1,21.39,21.39-43.09-43.1-21.4Zm-70.87-35.17,66.59,33,21.4-43.1L854,161.14Zm-23.62-11.73,19.48,9.67,9.66-19.48L818.6,173Zm-23.62-11.73,19.47,9.67L814.45,171,795,161.31Zm-47.25-23.45,43.1,21.4,21.4-43.1-43.1-21.4Zm319,128.49,19.48,9.67,9.66-19.48-19.47-9.66ZM797.26,156.87l43,21.37,9.51-19.16-43-21.36Z" transform="translate(-44.97 -32.27)"/></g><g id="Serum_Wavetable" data-name="Serum Wavetable"><rect class="cls-4" x="95.07" y="900.49" width="314.5" height="190.11" transform="translate(137.72 -61.38) rotate(10.33)"/><rect class="cls-15" x="115.24" y="905.6" width="136.6" height="91.87" transform="translate(128.71 -49.76) rotate(10.33)"/><rect class="cls-15" x="270.34" y="933.18" width="128.91" height="91.87" transform="translate(136.11 -76.45) rotate(10.33)"/><path class="cls-16" d="M250.69,963.77c1.67-9.17-10.6-23.35-28.33-26.58s-28.44,7.29-35.89,14.87c-5.4,5.49-20.16,17.71-37.11,14.64-16-2.9-28.78-17.18-27.11-26.35" transform="translate(-44.97 -32.27)"/><polyline class="cls-16" points="225.81 935.16 260.19 920.02 314.99 972.84 348.21 957.49"/><circle class="cls-15" cx="66.49" cy="1013.48" r="10.36"/><rect class="cls-17" x="103.54" y="1044.43" width="2.91" height="7.87" transform="translate(-872.04 1507.36) rotate(-112.07)"/><circle class="cls-15" cx="172.77" cy="1033.22" r="10.36"/><rect class="cls-17" x="221.48" y="1056.9" width="2.91" height="7.87" transform="translate(818.5 154.05) rotate(48.09)"/><circle class="cls-15" cx="105.87" cy="1020.68" r="10.36"/><rect class="cls-17" x="142.66" y="1050.88" width="2.91" height="7.87" transform="matrix(-0.27, -0.96, 0.96, -0.27, -878.9, 1443.05)"/><circle class="cls-15" cx="147.36" cy="1028.65" r="10.36"/><rect class="cls-17" x="192.13" y="1050.12" width="2.91" height="7.87" transform="translate(147.27 -49.9) rotate(10.33)"/><circle class="cls-15" cx="179.37" cy="996.49" r="10.36"/><rect class="cls-17" x="229.82" y="1025.53" width="2.91" height="7.87" transform="translate(1233.96 871.84) rotate(95.84)"/><circle class="cls-15" cx="154.02" cy="992.12" r="10.36"/><rect class="cls-17" x="198.79" y="1013.6" width="2.91" height="7.87" transform="translate(140.82 -51.68) rotate(10.33)"/><circle class="cls-15" cx="123.21" cy="986.39" r="10.36"/><rect class="cls-17" x="161.98" y="1009.61" width="2.91" height="7.87" transform="translate(-690.68 349.4) rotate(-42.85)"/><circle class="cls-15" cx="97.41" cy="981.8" r="10.36"/><rect class="cls-17" x="142.18" y="1003.27" width="2.91" height="7.87" transform="translate(138.05 -41.69) rotate(10.33)"/><rect class="cls-15" x="106.12" y="1002.19" width="22.24" height="14.17" transform="translate(137.99 -36.93) rotate(10.33)"/><path class="cls-17" d="M121,1006.25l-.29.28a1.3,1.3,0,0,0,.67,2.21l.47.09a1.3,1.3,0,0,0,1.41-1.83l-.17-.37A1.3,1.3,0,0,0,121,1006.25Z" transform="translate(-44.97 -32.27)"/><path class="cls-17" d="M121.79,1013.52l.29-.29a1.3,1.3,0,0,0-.67-2.21l-.47-.08a1.3,1.3,0,0,0-1.41,1.83l.17.37A1.3,1.3,0,0,0,121.79,1013.52Z" transform="translate(-44.97 -32.27)"/><circle class="cls-15" cx="218.37" cy="1041.46" r="10.36"/><rect class="cls-17" x="256.5" y="1065.37" width="2.91" height="7.87" transform="translate(-777.45 558.51) rotate(-50.65)"/><circle class="cls-15" cx="325.07" cy="1060.97" r="10.36"/><rect class="cls-17" x="364.4" y="1083.72" width="2.91" height="7.87" transform="translate(-624.09 404.33) rotate(-36.84)"/><circle class="cls-15" cx="257.79" cy="1048.38" r="10.36"/><rect class="cls-17" x="294.63" y="1078.73" width="2.91" height="7.87" transform="translate(-700.07 1646.28) rotate(-106.77)"/><circle class="cls-15" cx="299.29" cy="1056.35" r="10.36"/><rect class="cls-17" x="344.05" y="1077.83" width="2.91" height="7.87" transform="translate(154.7 -76.7) rotate(10.33)"/><circle class="cls-15" cx="331.43" cy="1023.99" r="10.36"/><rect class="cls-17" x="378.33" y="1058.42" width="2.91" height="7.87" transform="translate(1182.36 1774.72) rotate(150.97)"/><circle class="cls-15" cx="306.09" cy="1019.81" r="10.36"/><rect class="cls-17" x="347.07" y="1041.65" width="2.91" height="7.87" transform="translate(-401.76 166.41) rotate(-21.35)"/><circle class="cls-15" cx="274.68" cy="1013.91" r="10.36"/><rect class="cls-17" x="325.16" y="1041.92" width="2.91" height="7.87" transform="translate(1310.83 637.73) rotate(87.28)"/><circle class="cls-15" cx="249.33" cy="1009.5" r="10.36"/><rect class="cls-17" x="294.1" y="1030.98" width="2.91" height="7.87" transform="translate(145.49 -68.5) rotate(10.33)"/><rect class="cls-15" x="258.04" y="1029.9" width="22.24" height="14.17" transform="translate(145.43 -63.73) rotate(10.33)"/><path class="cls-17" d="M272.88,1034l-.29.29a1.3,1.3,0,0,0,.68,2.21l.46.09a1.31,1.31,0,0,0,1.42-1.84l-.18-.37A1.3,1.3,0,0,0,272.88,1034Z" transform="translate(-44.97 -32.27)"/><path class="cls-17" d="M273.72,1041.23l.29-.29a1.3,1.3,0,0,0-.68-2.21l-.46-.09a1.31,1.31,0,0,0-1.42,1.83l.18.37A1.3,1.3,0,0,0,273.72,1041.23Z" transform="translate(-44.97 -32.27)"/></g><g id="Guitar-2" data-name="Guitar"><path class="cls-18" d="M804.33,562.61c-9.27-14.84-21.62-27.25-35.19-38.21S741.13,503,727.39,492c-9.6-7.7-14.67-17.95-15.9-30.35-1.55-15.66-3.42-31.35-9-46.22-4.51-11.95-11.63-22-23.08-28.34-4.37-2.41-9.14-2.76-13.36.27-3.82,2.75-3.39,7.09-2.59,11a156.31,156.31,0,0,0,4.1,15.64c4.1,13.18-.55,25.66-12.23,32.82a54,54,0,0,1-24.44,8.27c.64,2.33,1.6,4.44,3.84,5.68,10.16-1.4,21-1.11,29.1-8.79,12.85-12.28,17.29-26.93,10.92-44.19-1.48-4-5.13-9.56-1.07-12.23,4.49-2.94,8.38,2.61,11.59,5.78A51.67,51.67,0,0,1,701.13,435c1,12.63,2.22,25.18,5.51,37.54,3.91,14.67,12.91,25.47,24.48,34.29,17.35,13.23,35.55,25.39,51.11,40.86,4.66,4.64,9.39,9.28,12.13,15.42,3.85,8.6-.17,15.09-9.58,15.5-5.92.25-11.75-.89-17.41-2.32-20.36-5.16-39.59-4-57,9,10.32,18.64,9.27,19.57-9.73,29.61-6.23,3.31-12.34,6.83-18.57,10.14-8.31,4.4-12.5,3.08-17.38-5.16-1.3-2.17-1.93-4.86-4.43-6.19-22,10.24-34.5-4.24-44.54-24.9-6.41-13.18-7.36-28.1-9-42.48-2.75-24.17-14.35-43.77-29.39-61.91-1-1.26-2.19-2.45-3.24-3.71-2.51-3.07-3.9-6.64-2.66-10.47,1.34-4.15,5.31-3.95,8.81-4.32,2-.21,4.27.12,6-1.51a73.3,73.3,0,0,0-10.26-19.54c-4.65,13-15.79,15.7-27.52,16.94-10,1.06-18.4-2.27-24.21-11.14a189.77,189.77,0,0,0-11.29-15.31c-3.52-4.32-7.14-9.79-13.69-8.06-6.85,1.82-8.46,8.25-9.41,14.43-1.54,9.88.77,19.18,5,28,9.41,19.62,23.61,35.46,39.72,49.78,22.73,20.21,38.32,43.45,38.81,75.75.4,26.56,4.79,53.1,16.19,77.48,15.8,33.76,35.87,47.49,72.45,44.88,35.28-2.52,99.35-40,123.22-57.68C818.25,635.5,825.72,596.88,804.33,562.61Zm-6.14,42.5c-.44,3.27-3.3,4.45-6.06,5.12-16.56,4-32.68,2.5-48-4.94-6.84-3.34-7.21-7.62-1.76-10.75,5.45-2.54,11.25-3.18,17.16-3.13,11.84.08,23.43,1.36,34,7.3C796,600.09,798.64,601.79,798.19,605.11Z" transform="translate(-44.97 -32.27)"/><path class="cls-19" d="M782.23,547.69c-15.56-15.47-33.76-27.63-51.11-40.86-11.57-8.82-20.57-19.62-24.48-34.29-3.29-12.36-4.5-24.91-5.51-37.54a51.67,51.67,0,0,0-15.9-33.62c-3.21-3.17-7.1-8.72-11.59-5.78-4.06,2.67-.41,8.21,1.07,12.23,6.37,17.26,1.93,31.91-10.92,44.19-8,7.68-18.94,7.39-29.1,8.79.21,3.69-.55,7-3.85,9.18a163.18,163.18,0,0,1-24.68,13.25c-4.94,2.19-9,1-11.7-4.18-2.56-5-5.5-9.78-8.26-14.65-1.71,1.63-3.94,1.3-6,1.51-3.5.37-7.47.17-8.81,4.32-1.24,3.83.15,7.4,2.66,10.47,1,1.26,2.19,2.45,3.24,3.71,15,18.14,26.64,37.74,29.39,61.91,1.64,14.38,2.59,29.3,9,42.48,10,20.66,22.55,35.14,44.54,24.9-4-9.85-2.7-13.82,6.54-18.92s18.44-10.29,27.79-15.19c7.11-3.72,12.15-1.74,15.78,5.71,17.43-13,36.66-14.18,57-9,5.66,1.43,11.49,2.57,17.41,2.32,9.41-.41,13.43-6.9,9.58-15.5C791.62,557,786.89,552.33,782.23,547.69ZM606.5,495.58c5.78-3.1,11.52-6.29,17.27-9.45L640.42,477c3.88-2.14,7.37-1.72,9.69,2.19s.81,7.4-2.92,9.49q-17.16,9.66-34.53,18.93c-3.84,2.06-7.53,1.41-9.55-2.66S602.52,497.72,606.5,495.58ZM630,534.67c5.32-3,10.68-5.87,16-8.8v0c5.13-2.82,10.24-5.69,15.42-8.44,4.08-2.17,8.36-3,11,1.75s.14,8.11-4,10.42q-16,8.88-32.06,17.56c-4.11,2.21-8.23,2.66-10.81-2.29S626,536.91,630,534.67Zm67.48,25c1.67,4.5-.76,7.07-4.52,8.83-13.37,4.52-26.67,9-40,13.49-4.21,1.41-7.49.15-9.1-4.1-1.74-4.57.85-7.32,4.74-8.7q20.18-7.18,40.53-13.93C693,553.91,696,555.77,697.44,559.63Z" transform="translate(-44.97 -32.27)"/><path class="cls-20" d="M660.24,613.71c-4-9.84-2.7-13.81,6.54-18.92s18.44-10.29,27.79-15.19c7.1-3.72,12.15-1.73,15.78,5.72,10.32,18.63,9.28,19.55-9.73,29.61-6.23,3.29-12.34,6.82-18.57,10.13-8.31,4.4-12.5,3.08-17.39-5.16C663.37,617.72,662.74,615,660.24,613.71Z" transform="translate(-44.97 -32.27)"/><path class="cls-20" d="M742.4,594.53c5.45-2.53,11.25-3.16,17.16-3.12,11.84.09,23.44,1.36,34,7.29,2.47,1.39,5.07,3.09,4.62,6.41s-3.3,4.46-6.07,5.12c-16.55,4-32.67,2.5-48-5C737.32,602,737,597.67,742.4,594.53Z" transform="translate(-44.97 -32.27)"/><path class="cls-20" d="M692.92,568.46c-13.37,4.51-26.67,9-40,13.49-4.21,1.41-7.49.15-9.1-4.1-1.74-4.57.86-7.31,4.74-8.7q20.18-7.18,40.53-13.93c3.95-1.31,6.93.54,8.35,4.41C699.1,564.14,696.69,566.7,692.92,568.46Z" transform="translate(-44.97 -32.27)"/><path class="cls-20" d="M623.77,486.13,640.42,477c3.88-2.14,7.37-1.72,9.68,2.19s.82,7.39-2.91,9.49q-17.16,9.66-34.52,18.93c-3.85,2.07-7.54,1.41-9.56-2.66s-.6-7.23,3.39-9.37C612.28,492.48,618,489.28,623.77,486.13Z" transform="translate(-44.97 -32.27)"/><path class="cls-20" d="M646,525.84c5.14-2.82,10.25-5.69,15.42-8.44,4.08-2.17,8.35-3,11,1.75s.14,8.11-4,10.42q-16,8.89-32.06,17.56c-4.11,2.21-8.23,2.66-10.81-2.3s.41-7.91,4.4-10.16c5.31-3,10.68-5.88,16-8.81Z" transform="translate(-44.97 -32.27)"/><path class="cls-2" d="M637,460.29v.23c0,3.68-1,7-4.54,9.35a200.32,200.32,0,0,1-27.23,14.63c-5.42,2.46-9.77,1.42-12.44-3.77-.34-.66-3.23-6.23-8-15.41-2.65-5.11-5.9-11.34-9.62-18.47-40-76.69-134.66-257.9-142.71-272-.09-.18-.19-.34-.29-.5l31.51-18.86c29.21,56.13,147.9,263.09,169.87,299.34A52.05,52.05,0,0,0,637,460.29Z" transform="translate(-44.97 -32.27)"/><path class="cls-19" d="M406,34,428,169.3a10.88,10.88,0,0,0-7.45-2.15c-4.36.19-6.74-2.39-7.71-6.22S393.69,53,394.13,49.19C395,42.13,398.32,36.45,406,34Z" transform="translate(-44.97 -32.27)"/><path class="cls-18" d="M427.65,71.79c7.4,11.25,30.29,34.51,32.18,36.62,4.42,4.94,5.56,10.13.21,16.08-4.86,5.4-3.82,11.44-2.86,17.31.2,1.27,2.51,6.1,6.47,13.71l-31.51,18.86A16.66,16.66,0,0,0,428,169.3L406,34c7.73-2.52,15.32-2.69,21.31,2.49,9.11,7.9,9.38,19.46.19,28.73C424.13,68.54,426.46,70,427.65,71.79Z" transform="translate(-44.97 -32.27)"/></g><g id="Microphone"><path class="cls-21" d="M664.24,815l-6.54,12.39a9.84,9.84,0,0,1-13.22,4.14L539.85,777.29l16.61-31.41,103.76,55.89A9.83,9.83,0,0,1,664.24,815Z" transform="translate(-44.97 -32.27)"/><path class="cls-21" d="M517.19,720.34h0a21.36,21.36,0,0,1,21.36,21.36V764.9a5.2,5.2,0,0,1-5.2,5.2H501a5.2,5.2,0,0,1-5.2-5.2V741.7A21.36,21.36,0,0,1,517.19,720.34Z" transform="translate(-428.31 821.93) rotate(-62.14)"/><rect class="cls-22" x="525.91" y="754.15" width="35.52" height="10.14" transform="translate(-426.58 852.8) rotate(-62.14)"/></g><g id="Microphone-2" data-name="Microphone"><path class="cls-21" d="M475.17,830.24l-11.1,8.56a9.83,9.83,0,0,1-13.74-1.72L377.64,744.3l28.13-21.69L477,816.52A9.83,9.83,0,0,1,475.17,830.24Z" transform="translate(-44.97 -32.27)"/><path class="cls-21" d="M370.33,680.84h0a21.36,21.36,0,0,1,21.36,21.36v23.21a5.2,5.2,0,0,1-5.2,5.2H354.17a5.2,5.2,0,0,1-5.2-5.2V702.2A21.36,21.36,0,0,1,370.33,680.84Z" transform="matrix(0.79, -0.61, 0.61, 0.79, -398.82, 340.64)"/><rect class="cls-23" x="370.85" y="724.38" width="35.52" height="10.14" transform="translate(-409.5 356.74) rotate(-37.63)"/></g><polygon class="cls-21" points="330.7 381.09 294.08 387.2 296.75 372.44 334.48 371.69 330.7 381.09"/><path class="cls-24" d="M276.06,442.6,252.45,670.92s-1.07,7.64-1.2,11c-2.72,69.27-63.51,58.4-63.51,58.4-52.93-6.09-43.68-69.22-43.68-69.22,5.72-37.78-13.17-74.53-20.11-86.47l-15-10.55a1.58,1.58,0,0,1,.31-2.81l71.34-24.06a1.58,1.58,0,0,1,2.07,1.87l-3,17.48c15.09,47.18,13.21,94.25,11.64,112.7-.28,3.27,1.87,6.29,5.12,7.73a10.4,10.4,0,0,0,3.7.86c4.46.22,8.22-2.46,8.82-6.24,5.74-37.36,33.48-216.17,38.15-248.86.34-2.36,3.7-10,6.23-12.8a43.88,43.88,0,0,1,31.65-14.09l56.78-1.14-2.67,14.76-45.68,6.47C283.88,427.54,276.92,434.23,276.06,442.6Z" transform="translate(-44.97 -32.27)"/><ellipse class="cls-18" cx="249.58" cy="455.92" rx="11.76" ry="10.33" transform="translate(-287.25 591.65) rotate(-80.16)"/><ellipse class="cls-18" cx="244.81" cy="483.41" rx="11.76" ry="10.33" transform="translate(-318.3 609.74) rotate(-80.16)"/><ellipse class="cls-18" cx="235.27" cy="538.4" rx="11.76" ry="10.33" transform="translate(-380.38 645.94) rotate(-80.16)"/><ellipse class="cls-18" cx="240.04" cy="510.91" rx="11.76" ry="10.33" transform="translate(-349.34 627.84) rotate(-80.16)"/><ellipse class="cls-18" cx="230.51" cy="565.89" rx="11.76" ry="10.33" transform="translate(-411.43 664.04) rotate(-80.16)"/><ellipse class="cls-18" cx="225.74" cy="593.39" rx="11.76" ry="10.33" transform="translate(-442.47 682.13) rotate(-80.16)"/><ellipse class="cls-18" cx="220.97" cy="620.88" rx="11.76" ry="10.33" transform="translate(-473.51 700.23) rotate(-80.16)"/><ellipse class="cls-18" cx="147.47" cy="617.47" rx="19.91" ry="22.65" transform="translate(-120.47 -9.19) rotate(-7.13)"/><ellipse class="cls-18" cx="154.14" cy="670.81" rx="19.91" ry="22.65" transform="translate(-127.04 -7.95) rotate(-7.13)"/><ellipse class="cls-18" cx="184.94" cy="712.13" rx="14.21" ry="12.17" transform="matrix(0.15, -0.99, 0.99, 0.15, -591.6, 758.26)"/><ellipse class="cls-18" cx="214.59" cy="714.42" rx="14.21" ry="12.17" transform="translate(-568.56 789.55) rotate(-81.56)"/><rect class="cls-18" x="200.43" y="635.61" width="5.07" height="42.18" rx="2.54" transform="translate(25.35 -50) rotate(6.05)"/><path class="cls-18" d="M227.82,652.49h0c-.19,1.77-1,3.13-1.85,3l-22.09-2.34c-.84-.09-1.36-1.59-1.17-3.36h0c.18-1.77,1-3.14,1.85-3.05l22.08,2.34C227.48,649.21,228,650.72,227.82,652.49Z" transform="translate(-44.97 -32.27)"/><path class="cls-18" d="M227.84,666.76h0c-.18,1.78-1,3.14-1.85,3l-22.08-2.34c-.84-.09-1.36-1.6-1.17-3.37h0c.18-1.77,1-3.13,1.85-3l22.08,2.34C227.51,663.49,228,665,227.84,666.76Z" transform="translate(-44.97 -32.27)"/></svg>