<svg id="Layer_1" data-name="Layer 1" xmlns="http://www.w3.org/2000/svg" viewBox="0 0 181.82 141.82"><title>Newsletter Icon</title><path d="M774.32,445.91l-79.88,66.37-79.81-64.84a29.81,29.81,0,0,1,19.81-7.5H756.37A29.82,29.82,0,0,1,774.32,445.91Z" transform="translate(-604.5 -439.94)"/><path d="M786.32,469.89v81.92a30,30,0,0,1-30,30H634.44a30,30,0,0,1-29.94-30V469.89a29.43,29.43,0,0,1,.56-5.75L688.51,532a9.5,9.5,0,0,0,12.06-.07l.19-.16,84.39-70.11A29.43,29.43,0,0,1,786.32,469.89Z" transform="translate(-604.5 -439.94)"/></svg>