<svg id="v2" xmlns="http://www.w3.org/2000/svg" viewBox="0 0 135 150"><defs><style>.cls-1{fill:#333;}</style></defs><g id="socialcauses"><path class="cls-1" d="M31.69,116.32h3.1a2.18,2.18,0,0,0,2.46,2.23c1,0,1.92-.36,1.92-1.47,0-1.61-1.9-1.69-3.75-2.19-1.61-.43-3.32-1.15-3.32-3.61,0-2.94,2.43-4.21,4.79-4.21s4.89,1.25,4.89,4.3H38.86a1.82,1.82,0,0,0-2-1.88c-1.06,0-1.75.46-1.75,1.37,0,1.29,1.41,1.45,3,1.78,2,.44,4.11,1.1,4.11,4C42.16,120,39.32,121,37,121,34.23,121,31.63,119.62,31.69,116.32Z"/><path class="cls-1" d="M43.15,116.4a4.69,4.69,0,0,1,5-4.59,4.69,4.69,0,0,1,5,4.59c0,2.8-2.2,4.56-5,4.56S43.15,119.2,43.15,116.4Zm7,0c0-1.09-.47-2.28-2-2.28s-2,1.19-2,2.28.43,2.23,2,2.23S50.18,117.53,50.18,116.42Z"/><path class="cls-1" d="M54.33,116.38A4.44,4.44,0,0,1,59,111.81c2.84,0,4.65,1.69,4.79,3.71h-3a1.45,1.45,0,0,0-1.61-1.4c-1.35,0-1.91,1.11-1.91,2.26s.56,2.29,1.91,2.29a1.46,1.46,0,0,0,1.61-1.41h3c-.14,2-1.95,3.7-4.79,3.7A4.44,4.44,0,0,1,54.33,116.38Z"/><path class="cls-1" d="M65.12,108.81a1.73,1.73,0,0,1,1.74-1.74,1.75,1.75,0,0,1,1.75,1.74,1.77,1.77,0,0,1-1.75,1.75A1.75,1.75,0,0,1,65.12,108.81Zm.26,3.2h3v8.76h-3Z"/><path class="cls-1" d="M70,116.4a4.26,4.26,0,0,1,4.35-4.59,3.71,3.71,0,0,1,3,1.27v-1h3v8.74h-3v-1.06a3.59,3.59,0,0,1-3,1.25A4.24,4.24,0,0,1,70,116.4Zm7.35,0a2.09,2.09,0,1,0-2.09,2.19A2,2,0,0,0,77.34,116.4Z"/><path class="cls-1" d="M82.66,105.87h3v14.9h-3Z"/><path class="cls-1" d="M99.87,120.77l-.62-.78a5.71,5.71,0,0,1-3.36,1c-2.63,0-4.49-1.36-4.49-3.83a4.44,4.44,0,0,1,2.53-3.91,5.07,5.07,0,0,1-1.11-2.9c0-2.25,2.08-3.25,4.09-3.25,2.36,0,4.12,1.34,4.12,3.18s-1.64,2.67-3.29,3.55l1.77,2.12,1.53-1.8,2.11,1.8L101.28,118l2.29,2.73ZM97.64,118l-2.2-2.78a2.37,2.37,0,0,0-1,1.85A1.49,1.49,0,0,0,96,118.55,2.59,2.59,0,0,0,97.64,118Zm-1.33-6c1.06-.52,1.87-1,1.87-1.82a1,1,0,0,0-1.15-1,1.21,1.21,0,0,0-1.33,1.25A2.94,2.94,0,0,0,96.31,112Z"/><path class="cls-1" d="M33.88,137.82a6.72,6.72,0,0,1,7-6.94c3.12,0,5.74,1.81,6.31,4.75H44a3.11,3.11,0,0,0-3.2-2,4.26,4.26,0,0,0,0,8.49A3.09,3.09,0,0,0,44,140h3.15c-.57,3-3.28,4.76-6.35,4.76A6.71,6.71,0,0,1,33.88,137.82Z"/><path class="cls-1" d="M48,140.23a4.25,4.25,0,0,1,4.36-4.58,3.73,3.73,0,0,1,3,1.27v-1h3v8.74h-3v-1.06a3.64,3.64,0,0,1-3,1.25A4.24,4.24,0,0,1,48,140.23Zm7.36,0a2.09,2.09,0,1,0-2.09,2.2A2,2,0,0,0,55.38,140.23Z"/><path class="cls-1" d="M60.48,140.82v-5h3v5c0,1,.39,1.61,1.33,1.61s1.67-.7,1.67-2v-4.57h3v8.76h-3v-1.08a3.35,3.35,0,0,1-2.68,1.27C61.44,144.8,60.48,143.2,60.48,140.82Z"/><path class="cls-1" d="M71,141.35h3c0,1.29,1.17,1.39,1.91,1.39s1.37-.22,1.37-.77c0-1.74-5.86-.24-5.86-3.62,0-1.69,1.42-2.7,4.15-2.7,2.5,0,4.09.85,4.37,2.86H77c-.09-.8-.83-1-1.42-1s-1.17.11-1.17.59c0,1.19,5.85-.1,5.85,3.64,0,2.31-2,3.07-4.42,3.07C73.12,144.8,71.2,143.85,71,141.35Z"/><path class="cls-1" d="M81.12,140.23c0-2.73,2.16-4.58,5.1-4.58,2.67,0,4.85,1.61,4.85,4.39v.76H84.28a1.86,1.86,0,0,0,1.88,1.88A1.68,1.68,0,0,0,88,141.53h3c-.58,2.19-2.4,3.27-4.75,3.27C83.2,144.8,81.12,143,81.12,140.23Zm6.79-1a1.66,1.66,0,0,0-1.79-1.52,1.71,1.71,0,0,0-1.8,1.52Z"/><path class="cls-1" d="M91.92,141.35h3c0,1.29,1.17,1.39,1.91,1.39s1.37-.22,1.37-.77c0-1.74-5.86-.24-5.86-3.62,0-1.69,1.43-2.7,4.15-2.7,2.5,0,4.09.85,4.38,2.86H97.9c-.1-.8-.84-1-1.43-1s-1.17.11-1.17.59c0,1.19,5.86-.1,5.86,3.64,0,2.31-2,3.07-4.43,3.07C94,144.8,92.1,143.85,91.92,141.35Z"/><path class="cls-1" d="M52.91,21.32a9.6,9.6,0,1,0-9.59,9.59A9.61,9.61,0,0,0,52.91,21.32Zm-9.59,5.76a5.76,5.76,0,1,1,5.76-5.76A5.77,5.77,0,0,1,43.32,27.08Z"/><path class="cls-1" d="M43.32,50.1A24.95,24.95,0,1,0,18.37,25.16,25,25,0,0,0,43.32,50.1ZM33.73,44a9.6,9.6,0,0,1,19.18,0,21.14,21.14,0,0,1-19.18,0ZM43.32,4.05a21.1,21.1,0,0,1,13.16,37.6,13.43,13.43,0,0,0-26.32,0A21.1,21.1,0,0,1,43.32,4.05Z"/><path class="cls-1" d="M101.28,69.68a9.6,9.6,0,1,0-9.6,9.59A9.62,9.62,0,0,0,101.28,69.68Zm-9.6,5.76a5.76,5.76,0,1,1,5.76-5.76A5.77,5.77,0,0,1,91.68,75.44Z"/><path class="cls-1" d="M91.68,48.57a24.95,24.95,0,1,0,24.95,24.95A25,25,0,0,0,91.68,48.57ZM82.09,92.33a9.6,9.6,0,0,1,19.18,0,21.14,21.14,0,0,1-19.18,0ZM104.84,90a13.43,13.43,0,0,0-26.32,0,21.11,21.11,0,1,1,26.32,0Z"/><path class="cls-1" d="M63.66,89.64A13.45,13.45,0,0,1,50.23,76.2V74.28h1.92a1.92,1.92,0,0,0,1.53-3.07L42.17,55.86a1.92,1.92,0,0,0-3.07,0L27.58,71.21a2,2,0,0,0-.18,2,1.93,1.93,0,0,0,1.72,1.06H31V76.2A17.3,17.3,0,0,0,48.31,93.48H63.66a1.92,1.92,0,0,0,0-3.84Zm-15.35,0A13.45,13.45,0,0,1,34.88,76.2V72.37A1.92,1.92,0,0,0,33,70.45l7.67-10.24,7.68,10.24a1.92,1.92,0,0,0-1.92,1.92V76.2a17.26,17.26,0,0,0,6.43,13.44Z"/><path class="cls-1" d="M71.34,9A13.44,13.44,0,0,1,84.77,22.47v1.92H82.85a1.92,1.92,0,0,0-1.53,3.07L92.83,42.81a1.92,1.92,0,0,0,3.07,0l11.52-15.35a1.92,1.92,0,0,0-1.54-3.07H104V22.47c0-.52,0-1-.07-1.55a1.92,1.92,0,1,0-3.82.34c0,.4.05.81.05,1.21v3.84A1.92,1.92,0,0,0,102,28.23L94.37,38.46,86.69,28.23a1.92,1.92,0,0,0,1.92-1.92V22.47A17.22,17.22,0,0,0,82.18,9h4.51a13.25,13.25,0,0,1,4.47.76,1.92,1.92,0,1,0,1.28-3.62,17.24,17.24,0,0,0-5.75-1H71.34a1.92,1.92,0,0,0,0,3.84Z"/><circle class="cls-1" cx="98.78" cy="13.07" r="1.92"/></g></svg>