<svg id="v2" xmlns="http://www.w3.org/2000/svg" viewBox="0 0 135 150"><defs><style>.cls-1{fill:#333;}</style></defs><g id="sports"><path class="cls-1" d="M29.83,116.91h3.11a2.17,2.17,0,0,0,2.46,2.23c1,0,1.92-.36,1.92-1.47,0-1.61-1.9-1.69-3.75-2.18-1.61-.44-3.32-1.16-3.32-3.62,0-2.94,2.42-4.21,4.79-4.21s4.89,1.25,4.89,4.31H37a1.83,1.83,0,0,0-2-1.89c-1,0-1.74.46-1.74,1.37,0,1.29,1.4,1.46,3,1.79,1.95.43,4.11,1.09,4.11,4,0,3.32-2.84,4.33-5.21,4.33C32.37,121.56,29.77,120.21,29.83,116.91Z"/><path class="cls-1" d="M42.09,112.61h3v1a3.64,3.64,0,0,1,3-1.25,4.59,4.59,0,0,1,0,9.16,3.68,3.68,0,0,1-3-1.27v6h-3ZM49.24,117a2.09,2.09,0,1,0-2.08,2.19A2,2,0,0,0,49.24,117Z"/><path class="cls-1" d="M53.65,117c0-2.74,2.26-4.59,5-4.59a4.69,4.69,0,0,1,5,4.59c0,2.8-2.2,4.57-5,4.57S53.65,119.79,53.65,117Zm7,0c0-1.09-.48-2.28-2-2.28a2,2,0,0,0-2,2.28c0,1.11.44,2.23,2,2.23S60.69,118.12,60.69,117Z"/><path class="cls-1" d="M65.2,112.61h3v1.06a2.82,2.82,0,0,1,2.22-1.27,2.37,2.37,0,0,1,1,.21v2.76h-.18a2.69,2.69,0,0,0-1.17-.28c-1.13,0-1.85.75-1.85,2.3v4h-3Z"/><path class="cls-1" d="M73.83,114.9H72.24v-2.29h1.59v-3.34h3v3.34h1.59v2.29H76.79v6.46h-3Z"/><path class="cls-1" d="M79,118.1h3c0,1.29,1.17,1.39,1.91,1.39s1.37-.21,1.37-.76c0-1.74-5.86-.25-5.86-3.62,0-1.69,1.42-2.71,4.15-2.71,2.5,0,4.09.86,4.37,2.86H84.93c-.09-.79-.83-1-1.42-1s-1.18.12-1.18.6c0,1.19,5.86-.1,5.86,3.63,0,2.31-2,3.08-4.42,3.08C81,121.56,79.13,120.61,79,118.1Z"/><path class="cls-1" d="M101.72,121.36l-.62-.78a5.7,5.7,0,0,1-3.35,1c-2.64,0-4.49-1.37-4.49-3.83a4.44,4.44,0,0,1,2.53-3.92,5,5,0,0,1-1.12-2.89c0-2.25,2.09-3.26,4.1-3.26,2.35,0,4.11,1.35,4.11,3.18s-1.64,2.68-3.29,3.55l1.77,2.12,1.54-1.8,2.1,1.8-1.87,2.12,2.29,2.73Zm-2.23-2.82-2.2-2.77a2.34,2.34,0,0,0-1.05,1.84,1.49,1.49,0,0,0,1.63,1.53A2.57,2.57,0,0,0,99.49,118.54Zm-1.33-5.94c1.06-.53,1.88-1,1.88-1.83a1,1,0,0,0-1.16-1A1.21,1.21,0,0,0,97.55,111,3.08,3.08,0,0,0,98.16,112.6Z"/><path class="cls-1" d="M37.06,131.69h7.82v2.71H40v2.67h4.65v2.71H40v5.42h-3Z"/><path class="cls-1" d="M46.43,133.24a1.75,1.75,0,0,1,3.49,0,1.75,1.75,0,1,1-3.49,0Zm.26,3.2h3v8.76h-3Z"/><path class="cls-1" d="M52.59,138.74H51v-2.3h1.59v-3.33h3v3.33h1.59v2.3H55.55v6.46h-3Z"/><path class="cls-1" d="M58.48,136.44h3v1.07a3.36,3.36,0,0,1,2.68-1.27c2.34,0,3.29,1.61,3.29,4v5h-3v-5c0-1-.39-1.61-1.32-1.61s-1.67.7-1.67,2v4.57h-3Z"/><path class="cls-1" d="M68.77,140.83c0-2.74,2.16-4.59,5.1-4.59,2.67,0,4.85,1.61,4.85,4.39v.76H71.93a1.85,1.85,0,0,0,1.88,1.88,1.69,1.69,0,0,0,1.79-1.14h3c-.58,2.18-2.4,3.26-4.75,3.26C70.86,145.39,68.77,143.61,68.77,140.83Zm6.79-1.05a1.65,1.65,0,0,0-1.78-1.51A1.72,1.72,0,0,0,72,139.78Z"/><path class="cls-1" d="M79.58,141.94h3c0,1.29,1.18,1.39,1.91,1.39s1.37-.21,1.37-.77c0-1.73-5.86-.24-5.86-3.62,0-1.68,1.43-2.7,4.15-2.7,2.51,0,4.1.85,4.38,2.86H85.55c-.1-.8-.83-1-1.43-1s-1.17.12-1.17.59c0,1.2,5.86-.09,5.86,3.64,0,2.31-2,3.07-4.42,3.07C81.66,145.39,79.75,144.44,79.58,141.94Z"/><path class="cls-1" d="M89.7,141.94h3c0,1.29,1.17,1.39,1.91,1.39s1.37-.21,1.37-.77c0-1.73-5.86-.24-5.86-3.62,0-1.68,1.43-2.7,4.15-2.7,2.5,0,4.09.85,4.38,2.86H95.68c-.1-.8-.84-1-1.43-1s-1.17.12-1.17.59c0,1.2,5.85-.09,5.85,3.64,0,2.31-2,3.07-4.42,3.07C91.79,145.39,89.88,144.44,89.7,141.94Z"/><path class="cls-1" d="M24.86,95.42a1.9,1.9,0,1,0,.66-3.75A23.31,23.31,0,1,1,38.31,47.09l-1.16,2.33A20.72,20.72,0,1,0,50.26,70.63h2.6a23.25,23.25,0,0,1-19.12,21,1.9,1.9,0,0,0,.33,3.78,2,2,0,0,0,.34,0,27,27,0,0,0,21.49-20,9.16,9.16,0,0,0,4.31,2.23v3.89H58.54a1.91,1.91,0,1,0,0,3.81h7.14a1.91,1.91,0,0,0,0-3.81H64V77.69a9.16,9.16,0,0,0,5.45-14.44L92,38.31l2.15,5.74a27.22,27.22,0,1,0,3.57-1.33L91.17,25.27h10.91a5,5,0,0,0,4.65,3.12.74.74,0,0,1,0,1.48h-2.32a5,5,0,0,0,0,10.06h2.32a10.8,10.8,0,0,0,0-21.6,5,5,0,0,0-4.65,3.13H88.43A1.91,1.91,0,0,0,86.64,24l1.93,5.17H49.75L48.54,26a5.55,5.55,0,0,0,1.89-2,1.71,1.71,0,0,1,1.49-.87H60a3.15,3.15,0,0,0,2.92-4.35h0a8.4,8.4,0,0,0-7.81-5.25H35.62a4.72,4.72,0,0,0-4.71,4.72,8.56,8.56,0,0,0,8.55,8.55h5.32L46.35,31,40,43.68a26.83,26.83,0,0,0-10.39-2.07,27.12,27.12,0,0,0-4.77,53.81Zm80.51-50a23.31,23.31,0,1,1-9.91,2.21l.9,2.43A20.72,20.72,0,1,0,125.5,73.62a1.9,1.9,0,0,0-3.7-.9A16.91,16.91,0,1,1,97.71,53.65l4.06,10.88a5.52,5.52,0,1,0,3.6-1.34h0l-4.06-10.88a17.24,17.24,0,0,1,4.1-.5A16.85,16.85,0,0,1,121.8,64.73a1.9,1.9,0,0,0,3.7-.9,20.7,20.7,0,0,0-25.57-15.1L99,46.29A23.35,23.35,0,0,1,105.37,45.42Zm0,21.58a1.73,1.73,0,1,1-1.73,1.73A1.72,1.72,0,0,1,105.37,67ZM41.72,48.8a23.34,23.34,0,0,1,11.14,18h-2.6a20.74,20.74,0,0,0-9.71-15.7Zm-6.89,18a5.51,5.51,0,0,0-1.17-1.89l5.18-10.38a16.94,16.94,0,0,1,7.6,12.27Zm-5.2.18a1.73,1.73,0,1,1-1.72,1.73A1.72,1.72,0,0,1,29.63,67Zm0,18.64a16.92,16.92,0,0,1,0-33.83,16.71,16.71,0,0,1,5.81,1L30.25,63.23a4.21,4.21,0,0,0-.62,0,5.54,5.54,0,1,0,5.2,7.44H46.44A16.94,16.94,0,0,1,29.63,85.64ZM64,73.73v-5a1.9,1.9,0,1,0-3.8,0v5a5.36,5.36,0,1,1,3.8,0Zm42.72-51.59a7,7,0,0,1,0,14h-2.32a1.22,1.22,0,0,1,0-2.44h2.32a4.55,4.55,0,1,0,0-9.09,1.23,1.23,0,0,1,0-2.45ZM90,33l.47,1.28L66.6,60.74a9.11,9.11,0,0,0-4.49-1.18c-.34,0-.67,0-1,0L51.17,33ZM34.71,18.24a.91.91,0,0,1,.91-.91H55.13a4.61,4.61,0,0,1,3.8,2h-7a5.55,5.55,0,0,0-4.8,2.8,1.73,1.73,0,0,1-1.5.87H39.46A4.75,4.75,0,0,1,34.71,18.24ZM48.17,35.87l9.32,24.94A9.63,9.63,0,0,0,55.9,62a27.18,27.18,0,0,0-12.48-16.6Z"/></g></svg>