<svg id="Startup_Lab" data-name="Startup Lab" xmlns="http://www.w3.org/2000/svg" viewBox="0 0 1046.63 1078.09"><defs><style>.cls-1{fill:#cdebfc;}.cls-2{fill:#21b0ea;}.cls-3{fill:#fff;}.cls-4{fill:#f2f2f2;}.cls-5{fill:#4d4d4d;}.cls-6{fill:#010101;}.cls-7{fill:#332833;}.cls-8{fill:#4d414d;}.cls-9{fill:#999;}.cls-10{fill:#df3100;}.cls-11{fill:#22b573;}.cls-12{fill:#ffe631;}.cls-13{fill:#f7931e;}.cls-14{fill:#d74724;}.cls-15{fill:#22b5d2;}</style></defs><title>Startup Lab</title><path class="cls-1" d="M268.32,199.82c27.59-92.59,117.5-161.37,211.42-161.73C493,38,506.43,39.27,518.59,44.6c16.38,7.17,28.95,21.08,40.68,34.88,30.31,35.65,61,75,104.65,89.78,50.53,17.12,106,1,156.23-16.92,183-65.13,285.71,52,285.69,123.24,0,41.74-19.44,80.43-39.09,116.92-19.54,36.29-40.62,74.25-75.24,95.43-42,25.72-92.06,32.36-133.38,59.26C676,665.78,927.51,734.66,963.17,840.1c94.38,279-409.11,326.79-478.62,230.92C388.83,939,391.06,872.4,158.74,880c-16.21.53-31.25-2.67-46.41-8.61C50.49,847.14,83.14,561.72,249,349,279.27,310.17,253.9,248.2,268.32,199.82Z" transform="translate(-83.21 -38.09)"/><g id="Book"><path class="cls-2" d="M309.09,599.49,426.5,830.8a6,6,0,0,1-2.66,8.13L253.73,925.29a45.73,45.73,0,0,1-32.35,3.45l-4.67-1.22A18.57,18.57,0,0,1,204.85,918L87.41,693a7.84,7.84,0,0,1,3.43-10.64c38-19.13,189.09-94.32,189.09-94.32a.69.69,0,0,1,.93.3l2.68,5.29a.68.68,0,0,1-.31.92L97.62,688.78l19,4.92,188.27-95.56A3.1,3.1,0,0,1,309.09,599.49Z" transform="translate(-83.21 -38.09)"/><path class="cls-3" d="M291.54,603,118.19,691a.72.72,0,1,1-.66-1.29l173.36-88a.72.72,0,0,1,.65,1.29Z" transform="translate(-83.21 -38.09)"/><path class="cls-3" d="M287.26,600.89,111.32,690.2a.73.73,0,1,1-.66-1.3L286.6,599.59a.73.73,0,1,1,.66,1.3Z" transform="translate(-83.21 -38.09)"/><path class="cls-3" d="M281.55,599.49,105.61,688.8a.72.72,0,1,1-.65-1.29L280.9,598.2a.72.72,0,0,1,.65,1.29Z" transform="translate(-83.21 -38.09)"/></g><rect class="cls-4" x="148.57" y="655.67" width="163.18" height="41.78" transform="translate(-366.11 141) rotate(-27.1)"/><rect class="cls-5" x="239.23" y="846.85" width="163.18" height="26.47" transform="translate(-439.75 202.44) rotate(-27.1)"/><path class="cls-3" d="M208.1,752.07A73.75,73.75,0,0,0,236.57,832a10.4,10.4,0,0,0,16.17-6h0a10.41,10.41,0,0,0-4.17-10.91,52.86,52.86,0,1,1,38.67,9,10.39,10.39,0,0,0-8.49,7.86h0a10.37,10.37,0,0,0,11.59,12.68,73.63,73.63,0,1,0-82.24-92.54Z" transform="translate(-83.21 -38.09)"/><path class="cls-3" d="M784.55,338.08c-8-21.24-12.13-33.25-20-54.55q-11-29.92-22.09-59.85a77,77,0,0,0-3.85-8.91c-8.81-17-32.64-26-51.13-17.65-13.16,5.93-22,15.92-28.08,28.74-3.28,6.9-4.25,13.95-1.95,21.26a125,125,0,0,0,6.86,17.7,21.59,21.59,0,0,0,11.56,10.57,89.54,89.54,0,0,0,10.61,3.13c15,4.18,28.64,1.42,41-7.86,1.77-1.34,2.07-1,2.72.82,10,27.33,16.49,45.31,26.57,72.62.57,1.56,1.1,3.13,1.74,4.67a14.9,14.9,0,0,0,3.27,4.94,28.4,28.4,0,0,1,23.83-9.24A16,16,0,0,0,784.55,338.08Zm-102.9-78.95a12.73,12.73,0,0,1,0,2.69,4.56,4.56,0,0,1-7.5,3,13,13,0,0,1-3.29-4.25,58.62,58.62,0,0,1-6.72-20,12.5,12.5,0,0,1,.11-4.27c.73-3.45,3.72-4.54,6.46-2.29s4.2,5.28,5.6,8.37c.87,1.92,1.48,3.95,2.22,5.92C679.92,251.82,681.33,255.33,681.65,259.13Zm28.56-18.71c-3.12,1.3-6.32,2.49-9.54,3.51a4.58,4.58,0,0,1-5.76-2.71,4.67,4.67,0,0,1,2.66-6c1.58-.71,3.25-1.22,4.87-1.82s2.95-1.17,4.46-1.63a4.68,4.68,0,0,1,6,2.66A4.58,4.58,0,0,1,710.21,240.42Z" transform="translate(-83.21 -38.09)"/><path class="cls-6" d="M678.53,248.32c1.39,3.5,2.8,7,3.12,10.81a12.73,12.73,0,0,1,0,2.69,4.56,4.56,0,0,1-7.5,3,13,13,0,0,1-3.29-4.25,58.55,58.55,0,0,1-6.72-20,12.75,12.75,0,0,1,.1-4.27c.74-3.45,3.73-4.54,6.47-2.29s4.2,5.28,5.6,8.37C677.19,244.31,677.8,246.34,678.53,248.32Z" transform="translate(-83.21 -38.09)"/><path class="cls-6" d="M702.44,233.43c1.48-.55,2.95-1.17,4.46-1.63a4.68,4.68,0,0,1,6,2.66,4.58,4.58,0,0,1-2.66,6c-3.13,1.3-6.31,2.49-9.54,3.52a4.59,4.59,0,0,1-5.76-2.72,4.67,4.67,0,0,1,2.66-6C699.15,234.54,700.82,234,702.44,233.43Z" transform="translate(-83.21 -38.09)"/><path class="cls-6" d="M785.6,344.47a14.09,14.09,0,0,1-5.55,10.64,13.94,13.94,0,0,1-18.28-1.4,28.4,28.4,0,0,1,23.83-9.24Z" transform="translate(-83.21 -38.09)"/><path class="cls-3" d="M892,194.41h124.62a34.11,34.11,0,0,1,34.11,34.11V368.41a49.3,49.3,0,0,1-49.3,49.3H907.2a49.3,49.3,0,0,1-49.3-49.3V228.53A34.11,34.11,0,0,1,892,194.41Z" transform="translate(239.11 -509.83) rotate(33.12)"/><rect class="cls-6" x="938.11" y="262.1" width="79.93" height="16.91" rx="3.81" transform="translate(223.57 -528.58) rotate(33.12)"/><rect class="cls-6" x="881.23" y="267.17" width="192.85" height="6.26" transform="translate(223.36 -528.39) rotate(33.12)"/><path class="cls-3" d="M842.79,528.17a28.35,28.35,0,0,1,9.7-23.64,14.92,14.92,0,0,0-4.88-3.37c-1.52-.67-3.09-1.23-4.63-1.83-27.11-10.6-45-17.4-72.1-28-1.76-.68-2.14-1-.77-2.74,9.52-12.15,12.54-25.78,8.65-40.81-.92-3.57-1.56-7.22-2.93-10.67a21.59,21.59,0,0,0-10.34-11.76,123,123,0,0,0-17.57-7.2c-7.26-2.44-14.33-1.6-21.3,1.54-12.93,5.84-23.09,14.48-29.26,27.52-8.67,18.33-.16,42.33,16.66,51.46a79.94,79.94,0,0,0,8.84,4q29.7,11.63,59.41,23.22c21.14,8.27,33.08,12.63,54.16,21A15.83,15.83,0,0,0,842.79,528.17ZM748.72,419.28c-2-.77-4-1.42-5.88-2.33-3.06-1.46-6.1-3-8.26-5.76s-1.05-5.74,2.42-6.42a13,13,0,0,1,4.26,0,58.69,58.69,0,0,1,19.87,7.1,12.83,12.83,0,0,1,4.18,3.38,4.55,4.55,0,0,1-3.15,7.43,12.11,12.11,0,0,1-2.69-.06C755.67,422.21,752.19,420.74,748.72,419.28ZM734.2,453.35a4.68,4.68,0,0,1-2.54-6c.48-1.5,1.13-2.95,1.71-4.42s1.17-3.27,1.92-4.84a4.66,4.66,0,0,1,6-2.54,4.59,4.59,0,0,1,2.6,5.81c-1.09,3.2-2.34,6.37-3.7,9.47A4.58,4.58,0,0,1,734.2,453.35Z" transform="translate(-83.21 -38.09)"/><path class="cls-6" d="M748.72,419.28c3.47,1.46,6.95,2.93,10.75,3.32a12.11,12.11,0,0,0,2.69.07,4.56,4.56,0,0,0,3.15-7.44,12.94,12.94,0,0,0-4.18-3.38,58.69,58.69,0,0,0-19.87-7.1,12.69,12.69,0,0,0-4.26,0c-3.47.68-4.61,3.64-2.42,6.42s5.2,4.3,8.26,5.76C744.74,417.86,746.75,418.51,748.72,419.28Z" transform="translate(-83.21 -38.09)"/><path class="cls-6" d="M733.37,442.9c-.58,1.47-1.23,2.92-1.71,4.42a4.68,4.68,0,0,0,2.55,6,4.58,4.58,0,0,0,6-2.55c1.36-3.1,2.61-6.27,3.7-9.47a4.58,4.58,0,0,0-2.6-5.81,4.66,4.66,0,0,0-6,2.54C734.54,439.63,734,441.28,733.37,442.9Z" transform="translate(-83.21 -38.09)"/><path class="cls-6" d="M842.79,528.17a14.1,14.1,0,0,0,10.75-5.34,13.93,13.93,0,0,0-1-18.3,28.35,28.35,0,0,0-9.7,23.64Z" transform="translate(-83.21 -38.09)"/><g id="Laptop-_Black_with_Crane" data-name="Laptop- Black with Crane"><path class="cls-7" d="M1013.27,1042.36l-399.9-95a23.5,23.5,0,0,1-16.91-30.16l87.65-268a23.5,23.5,0,0,1,27.76-15.56l399.9,95a23.5,23.5,0,0,1,16.9,30.16l-87.64,268A23.5,23.5,0,0,1,1013.27,1042.36Z" transform="translate(-83.21 -38.09)"/><path class="cls-8" d="M991,1009.19,651.5,928.57a16.71,16.71,0,0,1-12-21.45l75-229.22a16.7,16.7,0,0,1,19.74-11.06l339.45,80.61a16.71,16.71,0,0,1,12,21.45l-75,229.23A16.7,16.7,0,0,1,991,1009.19Z" transform="translate(-83.21 -38.09)"/><rect class="cls-7" x="460.88" y="974.33" width="562.99" height="34.19" rx="2.51" transform="translate(165.96 -182.79) rotate(13.36)"/><rect class="cls-4" x="558.59" y="929.76" width="27.41" height="5.76" rx="0.32" transform="translate(147.78 -145.08) rotate(13.36)"/><rect class="cls-4" x="929.83" y="1017.93" width="27.41" height="5.76" rx="0.32" transform="translate(178.2 -228.48) rotate(13.36)"/><rect class="cls-4" x="888.58" y="1008.13" width="27.41" height="5.76" rx="0.32" transform="translate(174.82 -219.21) rotate(13.36)"/><rect class="cls-4" x="847.33" y="998.33" width="27.41" height="5.76" rx="0.32" transform="translate(171.44 -209.95) rotate(13.36)"/><rect class="cls-4" x="806.08" y="988.54" width="27.41" height="5.76" rx="0.32" transform="translate(168.06 -200.68) rotate(13.36)"/><rect class="cls-4" x="764.83" y="978.74" width="27.41" height="5.76" rx="0.32" transform="translate(164.68 -191.42) rotate(13.36)"/><rect class="cls-4" x="723.58" y="968.95" width="27.41" height="5.76" rx="0.32" transform="translate(161.3 -182.15) rotate(13.36)"/><rect class="cls-4" x="682.33" y="959.15" width="27.41" height="5.76" rx="0.32" transform="translate(157.92 -172.88) rotate(13.36)"/><rect class="cls-4" x="641.09" y="949.35" width="27.41" height="5.76" rx="0.32" transform="translate(154.54 -163.62) rotate(13.36)"/><rect class="cls-4" x="599.84" y="939.56" width="27.41" height="5.76" rx="0.32" transform="translate(151.16 -154.35) rotate(13.36)"/><rect class="cls-9" x="728.42" y="705.35" width="34.28" height="28.35" rx="14.17" transform="translate(103.22 -190.89) rotate(13.36)"/><rect class="cls-9" x="715.28" y="747.68" width="34.28" height="28.35" rx="14.17" transform="translate(112.65 -186.71) rotate(13.36)"/><rect class="cls-9" x="702.15" y="790.01" width="34.28" height="28.35" rx="14.17" transform="translate(122.07 -182.53) rotate(13.36)"/><rect class="cls-9" x="689.01" y="832.34" width="34.28" height="28.35" rx="14.17" transform="translate(131.5 -178.35) rotate(13.36)"/><rect class="cls-9" x="675.88" y="874.67" width="34.28" height="28.35" rx="14.17" transform="translate(140.92 -174.16) rotate(13.36)"/><rect class="cls-10" x="796.27" y="723.75" width="53.49" height="28.35" rx="14.17" transform="translate(109.57 -208.29) rotate(13.36)"/><rect class="cls-9" x="865.53" y="740.2" width="53.49" height="28.35" rx="14.17" transform="translate(115.24 -223.85) rotate(13.36)"/><rect class="cls-10" x="802.62" y="770.43" width="51.19" height="28.35" rx="14.17" transform="translate(120.5 -208.23) rotate(13.36)"/><rect class="cls-9" x="868.84" y="788.72" width="72.78" height="28.35" rx="14.17" transform="translate(126.81 -225.53) rotate(13.36)"/><rect class="cls-10" x="763.21" y="897.42" width="51.19" height="28.35" rx="14.17" transform="translate(148.77 -195.68) rotate(13.36)"/><rect class="cls-9" x="829.72" y="913.22" width="51.19" height="28.35" rx="14.17" transform="translate(154.22 -210.62) rotate(13.36)"/><rect class="cls-9" x="894.53" y="929.62" width="59.71" height="28.35" rx="14.17" transform="translate(159.88 -226.14) rotate(13.36)"/><rect class="cls-10" x="817.86" y="818.1" width="39.36" height="28.35" rx="14.17" transform="translate(131.76 -209.09) rotate(13.36)"/><rect class="cls-10" x="804.72" y="860.43" width="39.36" height="28.35" rx="14.17" transform="matrix(0.97, 0.23, -0.23, 0.97, 141.19, -204.91)"/><rect class="cls-11" x="872.22" y="831.27" width="41.58" height="28.35" rx="14.17" transform="translate(136.31 -221.55) rotate(13.36)"/><rect class="cls-9" x="926.33" y="849.44" width="86.41" height="28.35" rx="14.17" transform="translate(142.58 -238.74) rotate(13.36)"/><rect class="cls-11" x="858.88" y="875.29" width="56.24" height="28.35" rx="14.17" transform="translate(146.32 -218.97) rotate(13.36)"/><rect class="cls-9" x="928.28" y="891.77" width="56.24" height="28.35" rx="14.17" transform="translate(152 -234.56) rotate(13.36)"/></g><rect class="cls-11" x="303.84" y="347.42" width="89.14" height="54.06" transform="translate(613.6 710.82) rotate(-180)"/><path class="cls-11" d="M353.47,336.28h29.58a0,0,0,0,1,0,0v10.07a10.19,10.19,0,0,1-10.19,10.19h-9.21a10.19,10.19,0,0,1-10.19-10.19V336.28A0,0,0,0,1,353.47,336.28Z" transform="translate(653.31 654.74) rotate(-180)"/><path class="cls-11" d="M313.76,336.28h29.58a0,0,0,0,1,0,0v10.07a10.19,10.19,0,0,1-10.19,10.19h-9.21a10.19,10.19,0,0,1-10.19-10.19V336.28a0,0,0,0,1,0,0Z" transform="translate(573.89 654.74) rotate(-180)"/><rect class="cls-11" x="428.26" y="455.47" width="89.14" height="54.06" transform="translate(948.67 823.66) rotate(168.57)"/><path class="cls-11" d="M471.95,440.95h29.58a0,0,0,0,1,0,0V451a10.19,10.19,0,0,1-10.19,10.19h-9.21A10.19,10.19,0,0,1,471.95,451V440.95A0,0,0,0,1,471.95,440.95Z" transform="translate(969.98 758.7) rotate(168.57)"/><path class="cls-11" d="M433,448.82H462.6a0,0,0,0,1,0,0v10.07a10.19,10.19,0,0,1-10.19,10.19h-9.21A10.19,10.19,0,0,1,433,458.89V448.82A0,0,0,0,1,433,448.82Z" transform="translate(894.46 781.99) rotate(168.57)"/><rect class="cls-12" x="392.97" y="347.42" width="89.14" height="54.06" transform="translate(791.87 710.82) rotate(-180)"/><path class="cls-12" d="M442.61,336.28h29.58a0,0,0,0,1,0,0v10.07A10.19,10.19,0,0,1,462,356.54h-9.21a10.19,10.19,0,0,1-10.19-10.19V336.28a0,0,0,0,1,0,0Z" transform="translate(831.59 654.74) rotate(-180)"/><path class="cls-12" d="M402.9,336.28h29.58a0,0,0,0,1,0,0v10.07a10.19,10.19,0,0,1-10.19,10.19h-9.21a10.19,10.19,0,0,1-10.19-10.19V336.28A0,0,0,0,1,402.9,336.28Z" transform="translate(752.16 654.74) rotate(-180)"/><rect class="cls-12" x="482.35" y="347.42" width="89.14" height="54.06" transform="translate(970.62 710.82) rotate(-180)"/><path class="cls-12" d="M532,336.28h29.58a0,0,0,0,1,0,0v10.07a10.19,10.19,0,0,1-10.19,10.19h-9.21A10.19,10.19,0,0,1,532,346.36V336.28A0,0,0,0,1,532,336.28Z" transform="translate(1010.33 654.74) rotate(-180)"/><path class="cls-12" d="M492.27,336.28h29.58a0,0,0,0,1,0,0v10.07a10.19,10.19,0,0,1-10.19,10.19h-9.21a10.19,10.19,0,0,1-10.19-10.19V336.28A0,0,0,0,1,492.27,336.28Z" transform="translate(930.91 654.74) rotate(-180)"/><rect class="cls-13" x="214.7" y="347.42" width="89.14" height="54.06" transform="translate(435.33 710.82) rotate(-180)"/><path class="cls-13" d="M264.34,336.28h29.58a0,0,0,0,1,0,0v10.07a10.19,10.19,0,0,1-10.19,10.19h-9.21a10.19,10.19,0,0,1-10.19-10.19V336.28A0,0,0,0,1,264.34,336.28Z" transform="translate(475.04 654.74) rotate(-180)"/><path class="cls-13" d="M224.62,336.28H254.2a0,0,0,0,1,0,0v10.07A10.19,10.19,0,0,1,244,356.54h-9.21a10.19,10.19,0,0,1-10.19-10.19V336.28A0,0,0,0,1,224.62,336.28Z" transform="translate(395.62 654.74) rotate(-180)"/><rect class="cls-14" x="214.7" y="293.37" width="89.14" height="54.06" transform="translate(435.33 602.71) rotate(-180)"/><path class="cls-14" d="M264.34,282.23h29.58a0,0,0,0,1,0,0V292.3a10.19,10.19,0,0,1-10.19,10.19h-9.21a10.19,10.19,0,0,1-10.19-10.19V282.23A0,0,0,0,1,264.34,282.23Z" transform="translate(475.04 546.63) rotate(-180)"/><path class="cls-14" d="M224.62,282.23H254.2a0,0,0,0,1,0,0V292.3A10.19,10.19,0,0,1,244,302.49h-9.21a10.19,10.19,0,0,1-10.19-10.19V282.23A0,0,0,0,1,224.62,282.23Z" transform="translate(395.62 546.63) rotate(-180)"/><rect class="cls-13" x="303.84" y="293.37" width="89.14" height="54.06" transform="translate(613.6 602.71) rotate(-180)"/><path class="cls-13" d="M353.47,282.23h29.58a0,0,0,0,1,0,0V292.3a10.19,10.19,0,0,1-10.19,10.19h-9.21a10.19,10.19,0,0,1-10.19-10.19V282.23A0,0,0,0,1,353.47,282.23Z" transform="translate(653.31 546.63) rotate(-180)"/><path class="cls-13" d="M313.76,282.23h29.58a0,0,0,0,1,0,0V292.3a10.19,10.19,0,0,1-10.19,10.19h-9.21a10.19,10.19,0,0,1-10.19-10.19V282.23A0,0,0,0,1,313.76,282.23Z" transform="translate(573.89 546.63) rotate(-180)"/><rect class="cls-13" x="392.97" y="293.37" width="89.14" height="54.06" transform="translate(791.87 602.71) rotate(-180)"/><path class="cls-13" d="M442.61,282.23h29.58a0,0,0,0,1,0,0V292.3A10.19,10.19,0,0,1,462,302.49h-9.21a10.19,10.19,0,0,1-10.19-10.19V282.23a0,0,0,0,1,0,0Z" transform="translate(831.59 546.63) rotate(-180)"/><path class="cls-13" d="M402.9,282.23h29.58a0,0,0,0,1,0,0V292.3a10.19,10.19,0,0,1-10.19,10.19h-9.21A10.19,10.19,0,0,1,402.9,292.3V282.23A0,0,0,0,1,402.9,282.23Z" transform="translate(752.16 546.63) rotate(-180)"/><rect class="cls-13" x="392.97" y="240.02" width="89.14" height="54.06" transform="translate(791.87 496) rotate(-180)"/><path class="cls-13" d="M442.61,228.88h29.58a0,0,0,0,1,0,0V239A10.19,10.19,0,0,1,462,249.14h-9.21A10.19,10.19,0,0,1,442.61,239V228.88A0,0,0,0,1,442.61,228.88Z" transform="translate(831.59 439.93) rotate(-180)"/><path class="cls-13" d="M402.9,228.88h29.58a0,0,0,0,1,0,0V239a10.19,10.19,0,0,1-10.19,10.19h-9.21A10.19,10.19,0,0,1,402.9,239V228.88A0,0,0,0,1,402.9,228.88Z" transform="translate(752.16 439.93) rotate(-180)"/><rect class="cls-15" x="303.84" y="239.31" width="89.14" height="54.06" transform="translate(613.6 494.59) rotate(-180)"/><path class="cls-15" d="M353.47,228.17h29.58a0,0,0,0,1,0,0v10.07a10.19,10.19,0,0,1-10.19,10.19h-9.21a10.19,10.19,0,0,1-10.19-10.19V228.17A0,0,0,0,1,353.47,228.17Z" transform="translate(653.31 438.52) rotate(-180)"/><path class="cls-15" d="M313.76,228.17h29.58a0,0,0,0,1,0,0v10.07a10.19,10.19,0,0,1-10.19,10.19h-9.21a10.19,10.19,0,0,1-10.19-10.19V228.17A0,0,0,0,1,313.76,228.17Z" transform="translate(573.89 438.52) rotate(-180)"/><rect class="cls-15" x="524.2" y="506.02" width="89.14" height="54.06" transform="translate(722.32 1237.64) rotate(-150.82)"/><path class="cls-15" d="M585,508.11h29.58a0,0,0,0,1,0,0v10.07a10.19,10.19,0,0,1-10.19,10.19h-9.21A10.19,10.19,0,0,1,585,518.19V508.11a0,0,0,0,1,0,0Z" transform="translate(787.61 1225.03) rotate(-150.82)"/><path class="cls-15" d="M550.31,488.75h29.58a0,0,0,0,1,0,0v10.07A10.19,10.19,0,0,1,569.7,509H560.5a10.19,10.19,0,0,1-10.19-10.19V488.75a0,0,0,0,1,0,0Z" transform="translate(732.1 1171.86) rotate(-150.82)"/><rect class="cls-15" x="267.1" y="104.28" width="89.14" height="54.06" transform="matrix(-0.99, -0.15, 0.15, -0.99, 516.77, 269.99)"/><path class="cls-15" d="M320.73,96.45h29.58a0,0,0,0,1,0,0v10.07a10.19,10.19,0,0,1-10.19,10.19h-9.21a10.19,10.19,0,0,1-10.19-10.19V96.45A0,0,0,0,1,320.73,96.45Z" transform="translate(567.93 224.41) rotate(-171.33)"/><path class="cls-15" d="M281.47,90.47h29.58a0,0,0,0,1,0,0v10.07a10.19,10.19,0,0,1-10.19,10.19h-9.21a10.19,10.19,0,0,1-10.19-10.19V90.47a0,0,0,0,1,0,0Z" transform="translate(490.77 206.6) rotate(-171.33)"/><rect class="cls-11" x="392.97" y="188.26" width="89.14" height="54.06" transform="translate(791.87 392.48) rotate(-180)"/><path class="cls-11" d="M442.61,177.11h29.58a0,0,0,0,1,0,0v10.07A10.19,10.19,0,0,1,462,197.38h-9.21a10.19,10.19,0,0,1-10.19-10.19V177.11A0,0,0,0,1,442.61,177.11Z" transform="translate(831.59 336.4) rotate(-180)"/><path class="cls-11" d="M402.9,177.11h29.58a0,0,0,0,1,0,0v10.07a10.19,10.19,0,0,1-10.19,10.19h-9.21a10.19,10.19,0,0,1-10.19-10.19V177.11A0,0,0,0,1,402.9,177.11Z" transform="translate(752.16 336.4) rotate(-180)"/><polygon class="cls-14" points="320.46 110.67 319.67 110.67 319.67 101.83 350.04 101.83 350.04 110.95 320.46 110.95 320.46 110.67"/><rect class="cls-14" x="359.38" y="101.83" width="0.79" height="8.84"/><rect class="cls-14" x="388.96" y="101.83" width="0.04" height="8.84"/><rect class="cls-14" x="399.13" y="101.83" width="0.54" height="8.84"/><rect class="cls-14" x="310.54" y="155.61" width="89.13" height="0.28"/><path class="cls-14" d="M473,139v.95h-.75v8.84h0v-8.84H443.38V139a10.19,10.19,0,0,1,10.19-10.19h9.2a10.22,10.22,0,0,1,3,.45h0l.19.06h0A10.19,10.19,0,0,1,473,139Z" transform="translate(-83.21 -38.09)"/><path class="cls-14" d="M433.25,139V149H403.67V139a10.19,10.19,0,0,1,10.19-10.19h9.2a10.09,10.09,0,0,1,3,.46h0A10.19,10.19,0,0,1,433.25,139Z" transform="translate(-83.21 -38.09)"/><polygon class="cls-14" points="438.63 101.55 438.63 155.61 310.54 155.61 310.54 101.83 319.67 101.83 319.67 110.67 320.46 110.67 320.46 110.95 350.04 110.95 350.04 101.83 359.38 101.83 359.38 110.67 360.17 110.67 360.17 101.83 388.96 101.83 388.96 110.67 389 110.67 389 101.83 399.13 101.83 399.13 110.67 428.71 110.67 428.71 101.55 438.63 101.55"/><polygon class="cls-14" points="398.88 101.55 398.88 101.83 389 101.83 389 110.67 388.96 110.67 388.96 101.83 360.17 101.83 360.17 110.67 359.38 110.67 359.38 101.83 350.04 101.83 350.04 110.95 320.46 110.95 320.46 110.67 319.67 110.67 319.67 101.83 310.54 101.83 310.54 155.61 309.74 155.61 309.74 101.55 398.88 101.55"/><path class="cls-14" d="M472.17,138.69v1.23H443.38v8.84h-.79V138.69a10.18,10.18,0,0,1,9.19-10.14c.34,0,.69-.05,1-.05H462a9.42,9.42,0,0,1,1.51.12,9.88,9.88,0,0,1,2.24.61h0A10.18,10.18,0,0,1,472.17,138.69Z" transform="translate(-83.21 -38.09)"/><path class="cls-14" d="M432.46,138.69v10.07H402.88V138.69a10.19,10.19,0,0,1,10.18-10.19h9.21a10.06,10.06,0,0,1,3.81.74h0A10.2,10.2,0,0,1,432.46,138.69Z" transform="translate(-83.21 -38.09)"/><polygon class="cls-14" points="428.71 101.55 428.71 110.67 399.13 110.67 399.13 101.83 389 101.83 389 110.67 388.96 110.67 388.96 101.83 360.17 101.83 360.17 110.67 359.38 110.67 359.38 101.83 350.04 101.83 350.04 110.95 349.5 110.95 349.5 101.55 428.71 101.55"/><path class="cls-14" d="M511.92,138.69v10.07H482.34V138.69a10.19,10.19,0,0,1,10.19-10.19h9.2A10.19,10.19,0,0,1,511.92,138.69Z" transform="translate(-83.21 -38.09)"/><path class="cls-14" d="M472.21,138.69v10.07h0v-8.84H443.38v8.84h-.75V138.69a10.19,10.19,0,0,1,9.15-10.14c.34,0,.69-.05,1-.05H462a9.42,9.42,0,0,1,1.51.12,9.75,9.75,0,0,1,2.46.68h0A10.2,10.2,0,0,1,472.21,138.69Z" transform="translate(-83.21 -38.09)"/><polygon class="cls-11" points="449.99 201.76 449.27 201.42 453.07 193.43 480.5 206.47 476.58 214.7 449.87 202.01 449.99 201.76"/><rect class="cls-11" x="566.18" y="252.33" width="8.84" height="0.79" transform="translate(14.26 621.58) rotate(-64.59)"/><rect class="cls-11" x="592.56" y="265.23" width="8.84" height="0.04" transform="translate(18 652.56) rotate(-64.59)"/><rect class="cls-11" x="601.98" y="269.46" width="8.84" height="0.54" transform="translate(19.33 663.62) rotate(-64.59)"/><rect class="cls-11" x="545" y="250.86" width="0.28" height="89.13" transform="translate(-38.85 622.96) rotate(-64.59)"/><path class="cls-11" d="M600,260.73l-.4.86-.68-.32-3.79,8,0,0,3.79-8-26-12.35.41-.86a10.18,10.18,0,0,1,13.57-4.83l8.31,3.95a10.11,10.11,0,0,1,2.52,1.69s0,0,0,0l.15.14s0,0,0,0A10.19,10.19,0,0,1,600,260.73Z" transform="translate(-83.21 -38.09)"/><path class="cls-11" d="M564.12,243.69l-4.33,9.1L533.08,240.1l4.32-9.1A10.19,10.19,0,0,1,551,226.17l8.31,4a10.33,10.33,0,0,1,2.53,1.71h0A10.19,10.19,0,0,1,564.12,243.69Z" transform="translate(-83.21 -38.09)"/><polygon class="cls-11" points="560.64 244.23 537.44 293.06 421.74 238.09 444.82 189.51 453.07 193.43 449.27 201.42 449.99 201.76 449.87 202.01 476.58 214.7 480.5 206.47 488.93 210.47 485.14 218.46 485.85 218.8 489.65 210.81 515.65 223.17 511.86 231.15 511.89 231.17 515.69 223.19 524.84 227.53 521.04 235.52 547.76 248.21 551.68 239.97 560.64 244.23"/><polygon class="cls-11" points="524.73 227.17 524.61 227.43 515.69 223.19 511.89 231.17 511.86 231.15 515.65 223.17 489.65 210.81 485.85 218.8 485.14 218.46 488.93 210.47 480.5 206.47 476.58 214.7 449.87 202.01 449.99 201.76 449.27 201.42 453.07 193.43 444.82 189.51 421.74 238.09 421.02 237.75 444.22 188.92 524.73 227.17"/><path class="cls-11" d="M599.39,260.14l-.53,1.11-26-12.35-3.8,8-.71-.33,4.32-9.1a10.18,10.18,0,0,1,12.65-5.22c.32.12.65.26,1,.41l8.31,3.94a9.94,9.94,0,0,1,1.31.76,10.23,10.23,0,0,1,1.76,1.51s0,0,0,0A10.18,10.18,0,0,1,599.39,260.14Z" transform="translate(-83.21 -38.09)"/><path class="cls-11" d="M563.52,243.1l-4.32,9.1-26.72-12.7,4.32-9.09a10.19,10.19,0,0,1,13.57-4.84l8.32,4a9.93,9.93,0,0,1,3.13,2.3h0A10.18,10.18,0,0,1,563.52,243.1Z" transform="translate(-83.21 -38.09)"/><polygon class="cls-11" points="551.68 239.97 547.76 248.21 521.04 235.52 524.84 227.53 515.69 223.19 511.89 231.17 511.86 231.15 515.65 223.17 489.65 210.81 485.85 218.8 485.14 218.46 488.93 210.47 480.5 206.47 476.58 214.7 476.1 214.47 480.13 205.98 551.68 239.97"/><path class="cls-11" d="M635.29,277.2,631,286.3l-26.71-12.7,4.32-9.09a10.17,10.17,0,0,1,13.57-4.83l8.31,3.94A10.19,10.19,0,0,1,635.29,277.2Z" transform="translate(-83.21 -38.09)"/><path class="cls-11" d="M599.43,260.16l-4.32,9.1,0,0,3.79-8-26-12.35-3.8,8-.67-.32,4.32-9.09a10.19,10.19,0,0,1,12.61-5.24c.32.12.65.26,1,.41l8.31,3.94a10.86,10.86,0,0,1,3.24,2.43s0,0,0,0A10.21,10.21,0,0,1,599.43,260.16Z" transform="translate(-83.21 -38.09)"/><polygon class="cls-12" points="129.94 445.78 129.21 446.07 125.87 437.89 154 426.43 157.44 434.87 130.05 446.04 129.94 445.78"/><rect class="cls-12" x="247.5" y="460.51" width="0.79" height="8.84" transform="translate(-240.32 89.82) rotate(-22.17)"/><rect class="cls-12" x="274.92" y="449.49" width="0.04" height="8.84" transform="translate(-234.16 99.21) rotate(-22.17)"/><rect class="cls-12" x="284.32" y="445.56" width="0.54" height="8.84" transform="translate(-231.97 102.56) rotate(-22.17)"/><rect class="cls-12" x="217.68" y="512.4" width="89.13" height="0.28" transform="translate(-257.22 98.75) rotate(-22.17)"/><path class="cls-12" d="M273.63,448.65l.35.88-.69.28,3.34,8.19,0,0-3.34-8.19-26.66,10.86-.36-.88a10.19,10.19,0,0,1,5.59-13.28l8.52-3.47a10.18,10.18,0,0,1,3-.72s0,0,0,0h.23A10.2,10.2,0,0,1,273.63,448.65Z" transform="translate(-83.21 -38.09)"/><path class="cls-12" d="M236.85,463.63l3.8,9.33-27.39,11.16-3.8-9.32a10.19,10.19,0,0,1,5.59-13.29l8.52-3.47a10.13,10.13,0,0,1,3-.71h0A10.17,10.17,0,0,1,236.85,463.63Z" transform="translate(-83.21 -38.09)"/><polygon class="cls-12" points="235.93 392.74 256.33 442.81 137.71 491.14 117.42 441.33 125.87 437.89 129.21 446.07 129.94 445.78 130.05 446.04 157.44 434.87 154 426.43 162.65 422.9 165.98 431.09 166.72 430.79 163.38 422.61 190.04 411.74 193.38 419.93 193.41 419.91 190.08 411.73 199.46 407.9 202.79 416.09 230.19 404.93 226.75 396.48 235.93 392.74"/><polygon class="cls-12" points="199.12 407.74 199.23 408 190.08 411.73 193.41 419.91 193.38 419.93 190.04 411.74 163.38 422.61 166.72 430.79 165.98 431.09 162.65 422.9 154 426.43 157.44 434.87 130.05 446.04 129.94 445.78 129.21 446.07 125.87 437.89 117.42 441.33 137.71 491.14 136.97 491.44 116.57 441.38 199.12 407.74"/><path class="cls-12" d="M272.79,448.69l.46,1.14-26.66,10.86,3.34,8.19-.74.3-3.79-9.33A10.18,10.18,0,0,1,250.08,447l.94-.44,8.52-3.47a9.74,9.74,0,0,1,1.45-.46,10.12,10.12,0,0,1,2.3-.28s0,0,0,0A10.2,10.2,0,0,1,272.79,448.69Z" transform="translate(-83.21 -38.09)"/><path class="cls-12" d="M236,463.67l3.8,9.33-27.39,11.16-3.8-9.33a10.18,10.18,0,0,1,5.58-13.27l8.53-3.48a10.06,10.06,0,0,1,3.81-.75h0A10.19,10.19,0,0,1,236,463.67Z" transform="translate(-83.21 -38.09)"/><polygon class="cls-12" points="226.75 396.48 230.19 404.93 202.79 416.09 199.46 407.9 190.08 411.73 193.41 419.91 193.38 419.93 190.04 411.74 163.38 422.61 166.72 430.79 165.98 431.09 162.65 422.9 154 426.43 157.44 434.87 156.94 435.08 153.39 426.37 226.75 396.48"/><path class="cls-12" d="M309.6,433.69l3.8,9.33L286,454.18l-3.8-9.33a10.17,10.17,0,0,1,5.59-13.28l8.52-3.47A10.18,10.18,0,0,1,309.6,433.69Z" transform="translate(-83.21 -38.09)"/><path class="cls-12" d="M272.83,448.67l3.8,9.33,0,0-3.34-8.19-26.66,10.86,3.34,8.19-.7.28-3.8-9.32A10.21,10.21,0,0,1,250.08,447l.94-.44,8.52-3.47a9.74,9.74,0,0,1,1.45-.46,9.5,9.5,0,0,1,2.53-.29h0A10.23,10.23,0,0,1,272.83,448.67Z" transform="translate(-83.21 -38.09)"/><polygon class="cls-14" points="390.57 621.61 389.83 621.32 393.08 613.1 421.33 624.24 417.98 632.73 390.46 621.87 390.57 621.61"/><rect class="cls-14" x="507.55" y="669.62" width="8.84" height="0.79" transform="translate(-382.38 862.32) rotate(-68.47)"/><rect class="cls-14" x="534.72" y="680.71" width="8.84" height="0.04" transform="translate(-375.15 894.37) rotate(-68.47)"/><rect class="cls-14" x="544.41" y="684.28" width="8.84" height="0.54" transform="translate(-372.57 905.81) rotate(-68.47)"/><rect class="cls-14" x="489.32" y="669.78" width="0.28" height="89.13" transform="translate(-437.87 869.44) rotate(-68.47)"/><path class="cls-14" d="M541.83,676l-.35.88-.7-.27-3.24,8.22h0l3.24-8.23L514,666.05l.35-.89a10.2,10.2,0,0,1,13.22-5.74l8.56,3.38a10,10,0,0,1,2.62,1.52l0,0,.15.12,0,0A10.19,10.19,0,0,1,541.83,676Z" transform="translate(-83.21 -38.09)"/><path class="cls-14" d="M504.89,661.45l-3.7,9.36L473.68,660l3.69-9.37a10.19,10.19,0,0,1,13.22-5.74l8.56,3.38a10,10,0,0,1,2.64,1.53h0A10.2,10.2,0,0,1,504.89,661.45Z" transform="translate(-83.21 -38.09)"/><polygon class="cls-14" points="503.84 656.49 484 706.78 364.85 659.78 384.58 609.75 393.08 613.1 389.83 621.32 390.57 621.61 390.46 621.87 417.98 632.73 421.33 624.24 430.02 627.67 426.77 635.89 427.51 636.18 430.75 627.96 457.53 638.52 454.29 646.75 454.33 646.76 457.57 638.54 466.99 642.26 463.75 650.48 491.27 661.34 494.61 652.85 503.84 656.49"/><polygon class="cls-14" points="466.86 641.9 466.76 642.17 457.57 638.54 454.33 646.76 454.29 646.75 457.53 638.52 430.75 627.96 427.51 636.18 426.77 635.89 430.02 627.67 421.33 624.24 417.98 632.73 390.46 621.87 390.57 621.61 389.83 621.32 393.08 613.1 384.58 609.75 364.85 659.78 364.11 659.48 383.94 609.19 466.86 641.9"/><path class="cls-14" d="M541.2,675.47l-.46,1.14L514,666.05l-3.24,8.22L510,674l3.7-9.37A10.18,10.18,0,0,1,526,658.55c.33.1.66.21,1,.34l8.56,3.37a10.44,10.44,0,0,1,3.22,2.06l0,0A10.2,10.2,0,0,1,541.2,675.47Z" transform="translate(-83.21 -38.09)"/><path class="cls-14" d="M504.26,660.9l-3.7,9.36L473,659.41l3.7-9.37A10.18,10.18,0,0,1,490,644.3l8.57,3.38a10,10,0,0,1,3.27,2.08h0A10.21,10.21,0,0,1,504.26,660.9Z" transform="translate(-83.21 -38.09)"/><polygon class="cls-14" points="494.61 652.85 491.27 661.34 463.75 650.48 466.99 642.26 457.57 638.54 454.33 646.76 454.29 646.75 457.53 638.52 430.75 627.96 427.51 636.18 426.77 635.89 430.02 627.67 421.33 624.24 417.98 632.73 417.48 632.53 420.93 623.78 494.61 652.85"/><path class="cls-14" d="M578.17,690.05l-3.69,9.37L547,688.57l3.7-9.37a10.17,10.17,0,0,1,13.21-5.74l8.56,3.38A10.17,10.17,0,0,1,578.17,690.05Z" transform="translate(-83.21 -38.09)"/><path class="cls-14" d="M541.23,675.48l-3.69,9.37h0l3.24-8.23L514,666.05l-3.24,8.22L510,674l3.7-9.37A10.19,10.19,0,0,1,526,658.55c.33.1.66.21,1,.34l8.56,3.37a9.55,9.55,0,0,1,1.36.67,9.72,9.72,0,0,1,2,1.53l0,0A10.19,10.19,0,0,1,541.23,675.48Z" transform="translate(-83.21 -38.09)"/></svg>