<svg id="New_Font" data-name="New Font" xmlns="http://www.w3.org/2000/svg" viewBox="0 0 904.56 278.25"><defs><style>.cls-1{fill:#f7931e;}.cls-2{fill:#4d4d4d;}</style></defs><title>Student Innovators Glacial</title><rect class="cls-1" y="228.67" width="175.22" height="49.57"/><path class="cls-1" d="M249.15,472c-4.88-44.07-42.67-78.58-87-78.34A88.93,88.93,0,0,0,133,398.91C72,420.63,54.71,499.27,100.55,545.26c12,12.06,19.07,25.74,20.86,41.77a12.46,12.46,0,0,0,12.3,11.26h56a12.45,12.45,0,0,0,12.27-11c2.13-15.74,10.93-34.38,22.33-45.84C244.46,521.15,252.32,500.89,249.15,472ZM204.3,527.22c-7.84,7.9-16.31,17.65-17.78,28.46a8.59,8.59,0,0,1-8.44,7.6H162.17V422.73c30.43-.15,56.37,23.55,59.72,53.8C224.11,496.37,218.12,513.31,204.3,527.22Z" transform="translate(-74.57 -393.67)"/><path class="cls-1" d="M300.59,557.71a12.83,12.83,0,1,1,25.65,0,12.83,12.83,0,1,1-25.65,0Zm1.92,23.51h21.88v64.35H302.51Z" transform="translate(-74.57 -393.67)"/><path class="cls-1" d="M341.63,581.22h21.88v7.84a24.86,24.86,0,0,1,19.74-9.33c17.17,0,24.15,11.83,24.15,29.36v36.48H385.53V609.09c0-7.56-2.92-11.83-9.76-11.83s-12.26,5.13-12.26,14.75v33.56H341.63Z" transform="translate(-74.57 -393.67)"/><path class="cls-1" d="M423.08,581.22H445v7.84a24.83,24.83,0,0,1,19.73-9.33c17.18,0,24.16,11.83,24.16,29.36v36.48H467V609.09c0-7.56-2.92-11.83-9.76-11.83S445,602.39,445,612v33.56H423.08Z" transform="translate(-74.57 -393.67)"/><path class="cls-1" d="M498.68,613.43c0-20.09,16.61-33.7,36.77-33.7s36.63,13.61,36.63,33.7c0,20.6-16.18,33.57-36.63,33.57S498.68,634,498.68,613.43Zm51.66.15c0-8-3.49-16.75-14.89-16.75s-15,8.76-15,16.75c0,8.19,3.2,16.38,15,16.38S550.34,621.77,550.34,613.58Z" transform="translate(-74.57 -393.67)"/><path class="cls-1" d="M574,581.22h22l15.32,46,15.32-46h22.16l-24.51,64.35h-25.8Z" transform="translate(-74.57 -393.67)"/><path class="cls-1" d="M651.31,613.43c0-19.24,12.26-33.7,32-33.7,8.12,0,16.32,2.35,22,9.33v-7.69H727.2v64.2H705.33V637.8c-4.42,6.63-13.9,9.2-22,9.2C663.57,647,651.31,632.74,651.31,613.43Zm54,0c0-8.41-5.13-16-15.32-16s-15.32,7.62-15.32,16,5.06,16.11,15.32,16.11S705.33,621.91,705.33,613.43Z" transform="translate(-74.57 -393.67)"/><path class="cls-1" d="M748.65,598.11H737V581.22h11.69V563.71h21.73v17.51h11.69v16.89H770.38v47.46H748.65Z" transform="translate(-74.57 -393.67)"/><path class="cls-1" d="M786.06,613.43c0-20.09,16.6-33.7,36.77-33.7,20,0,36.63,13.61,36.63,33.7,0,20.6-16.18,33.57-36.63,33.57S786.06,634,786.06,613.43Zm51.66.15c0-8-3.49-16.75-14.89-16.75s-15,8.76-15,16.75c0,8.19,3.21,16.38,15,16.38S837.72,621.77,837.72,613.58Z" transform="translate(-74.57 -393.67)"/><path class="cls-1" d="M870.86,581.22h21.87v7.84c3.21-4.63,9-9.33,16.32-9.33a18,18,0,0,1,7.2,1.49v20.31h-1.36a19.55,19.55,0,0,0-8.62-2.06c-8.27,0-13.54,5.55-13.54,16.88v29.22H870.86Z" transform="translate(-74.57 -393.67)"/><path class="cls-1" d="M920.17,621.63h18.89c0,9.47,7.49,10.19,12.2,10.19,5.08,0,8.73-1.57,8.73-5.63,0-12.76-37.41-1.78-37.41-26.58,0-12.4,9.11-19.88,26.51-19.88,16,0,26.14,6.27,27.94,21H958.32c-.62-5.84-5.33-7.41-9.1-7.41-2.92,0-7.5.85-7.5,4.34,0,8.77,37.41-.71,37.41,26.73,0,17-12.63,22.59-28.24,22.59C933.48,647,921.28,640,920.17,621.63Z" transform="translate(-74.57 -393.67)"/><path class="cls-2" d="M299.59,494.17h10.19c.14,9.91,7.2,14,16.39,14,9.91,0,14.25-4.7,14.25-10.12,0-15.89-38.76-5.77-38.76-29.86,0-12.4,10.19-18.88,23.16-18.88s22.66,6.63,23.37,18.88H337.93c-.57-6.77-6.42-10.12-13.11-10.12-8.48,0-13,4.28-13,9.2,0,14.46,38.83,4.84,38.83,29.78,0,13.47-11.26,19.88-25.29,19.88C310.21,517,300.3,510.35,299.59,494.17Z" transform="translate(-74.57 -393.67)"/><path class="cls-2" d="M373.13,460.32H357v-9.47h16.11V432.91h10.19v17.94h15.89v9.47H383.32v54.73H373.13Z" transform="translate(-74.57 -393.67)"/><path class="cls-2" d="M409.4,493.89v-43h10.19v41.61c0,10.05,5.13,14.25,13.75,14.25,14.47,0,20.45-11.83,20.45-24.65V450.85H464v64.2H453.79V503.93c-4.56,7.77-11.68,12.4-21.73,12.4C417.45,516.33,409.4,507.5,409.4,493.89Z" transform="translate(-74.57 -393.67)"/><path class="cls-2" d="M479.94,482.91c0-19.24,13.11-33.56,31.21-33.56,9.91,0,18.1,4.42,24.23,12.4V418.6h10.19v96.45H535.38v-11c-6.13,8.05-14.46,12.4-24.23,12.4C493.2,516.48,479.94,502.37,479.94,482.91Zm55.44,0c0-14.25-9.48-23.87-22.59-23.87-12.9,0-22.66,9.34-22.66,23.87,0,14.33,9.48,23.95,22.66,23.95C525.62,506.86,535.38,497.52,535.38,482.91Z" transform="translate(-74.57 -393.67)"/><path class="cls-2" d="M561.1,483.05c0-19.09,14.82-34,33.57-34a33.49,33.49,0,0,1,33.56,33.57v4.27H571.72c2.07,11.33,9.62,19.53,23.37,19.53,10.62,0,18.1-4.78,20.38-11.55h11.4c-3.06,12.12-15.6,21.17-31.63,21.17C574.78,516.05,561.1,501.51,561.1,483.05Zm56.44-4.77a23.19,23.19,0,0,0-45.82,0Z" transform="translate(-74.57 -393.67)"/><path class="cls-2" d="M643.83,450.85H654V462c4.49-7.76,11.69-12.47,21.74-12.47,14.6,0,22.58,8.91,22.58,22.52v43H688.16V473.44c0-10.05-5.14-14.26-13.69-14.26C660,459.18,654,471,654,483.84v31.21H643.83Z" transform="translate(-74.57 -393.67)"/><path class="cls-2" d="M724.71,460.32H708.6v-9.47h16.11V432.91H734.9v17.94h15.89v9.47H734.9v54.73H724.71Z" transform="translate(-74.57 -393.67)"/></svg>