<svg id="Layer_3" data-name="Layer 3" xmlns="http://www.w3.org/2000/svg" viewBox="0 0 932.86 278.25"><defs><style>.cls-1{fill:#f7931e;}.cls-2{fill:#4d4d4d;}</style></defs><title>Student Innovators Full</title><rect class="cls-1" y="228.67" width="175.22" height="49.57"/><path class="cls-1" d="M249.15,470c-4.88-44.08-42.67-78.58-87-78.34A88.93,88.93,0,0,0,133,396.94C72,418.66,54.71,497.3,100.55,543.29c12,12.06,19.07,25.73,20.86,41.77a12.45,12.45,0,0,0,12.3,11.25h56a12.45,12.45,0,0,0,12.27-11c2.13-15.74,10.93-34.38,22.33-45.84C244.46,519.17,252.32,498.91,249.15,470Zm-44.85,55.2c-7.84,7.9-16.31,17.66-17.78,28.46a8.58,8.58,0,0,1-8.44,7.6H162.17V420.75c30.43-.14,56.37,23.55,59.72,53.81C224.11,494.39,218.12,511.33,204.3,525.24Z" transform="translate(-74.57 -391.7)"/><path class="cls-2" d="M568.25,446V412.72H579v96.71c-2.47.76-4.88.33-7.51.31-1.41-2.83-1.36-6-2.31-9.47-9.43,8.94-20.55,12.43-33.06,10.64a34.36,34.36,0,0,1-21.36-11.46c-11.94-13.45-12.33-35.58-1-49.85C526,434.23,545.8,432.8,568.25,446ZM543.1,500.36c14.65,0,25.86-11.31,25.91-26,0-15.3-11-26.78-25.88-26.85C528,447.41,517,458.59,517.06,474S527.86,500.4,543.1,500.36Z" transform="translate(-74.57 -391.7)"/><path class="cls-2" d="M654.84,488.18h10.52c-4.44,16.87-23.09,25.9-40.1,22.49-20-4-31.63-23.1-27.85-44.52,3.34-18.88,20.19-32.06,40.66-29.2,19.55,2.74,32.37,20.71,29.62,41.44H608.61A22,22,0,0,0,624.37,499C636.28,502.68,646.44,499.12,654.84,488.18ZM608.48,467.4h48c-2.5-12.6-11.21-19.93-23.38-20C620.13,447.27,611.21,454.42,608.48,467.4Z" transform="translate(-74.57 -391.7)"/><path class="cls-2" d="M300.78,488.25h10.13c5.29,11.42,13.89,15.32,26,11.79,5.3-1.54,9.07-5.91,9-10.45,0-4.27-2.67-7.49-8.41-9.18a128.49,128.49,0,0,0-14.33-3.05,45.31,45.31,0,0,1-10.21-3c-13.13-5.61-15.14-23.25-3.73-32,9.62-7.37,27.22-7.65,37.15-.67,5.52,3.88,8.19,9.29,8.81,16.16-3.09,1.91-6.43.16-9.38,1-5.24-11-15.27-15-26-10.79-4.37,1.7-7.13,5.17-7,9,.2,4.5,3,7,7,8,6,1.52,12.15,2.6,18.22,4a44.7,44.7,0,0,1,7,2.05c6.72,2.71,11,7.58,11.73,15,.81,8.18-1.26,15.34-8.59,19.84-12,7.39-24.49,7.49-36.76.88C304.54,503,301.2,496.57,300.78,488.25Z" transform="translate(-74.57 -391.7)"/><path class="cls-2" d="M747.55,509.52H736.67c0-12.41,0-24.54,0-36.68a45.87,45.87,0,0,0-.86-10.75c-3.6-14.89-19.57-20.24-31.2-10.31-5.84,5-8.26,11.55-8.26,19.14,0,12.62,0,25.24,0,38.14-3.61,1.46-7.14.3-10.5.85-1.24-5.57-1.63-56.26-.61-71.17,1-1.26,2.45-.66,3.7-.71s2.67-.37,4,.64c1.82,2.56.31,6.25,2.79,9.1,5.12-4.94,10.71-8.92,17.93-10.44,17.92-3.77,33.07,7.21,33.82,25.72C748,478.34,747.55,493.69,747.55,509.52Z" transform="translate(-74.57 -391.7)"/><path class="cls-2" d="M426.88,438.19h10.65c1.51,1.79.74,3.91.76,5.84.12,12.18-.21,24.38.26,36.55.59,15.22,13.9,23.84,27.8,18.36,8.89-3.5,11.95-11,12.18-19.87.28-11.28.09-22.56.1-33.85,0-2.21,0-4.42,0-6.92H489c1.36,1.13.78,2.82.78,4.29.05,12,0,23.92,0,35.88,0,7.09-1.07,13.91-5,20-6.75,10.35-20.72,15.22-34.42,12-13-3-21.22-11.74-22.68-25C426,470,427.4,454.47,426.88,438.19Z" transform="translate(-74.57 -391.7)"/><path class="cls-2" d="M387.7,448.25c0,13.35-.24,25.72.08,38.07.21,7.89,4.85,12.22,12.71,12.76,3.06.21,6.14,0,9.51,0v10.2c-6.26,1-12.65,1.05-18.75-1.18-8.74-3.2-13.61-9.77-14.42-19.2-.91-10.57-.23-21.17-.41-31.76-.05-2.66,0-5.32,0-8.19-4.32-1.05-8.32-.25-12.24-.66,1.55-4.35,14.52-19,22.64-25.53,1.76,4.85.1,9.78,1.27,15.2h21.6v10.25Z" transform="translate(-74.57 -391.7)"/><path class="cls-2" d="M783.74,448.19c0,13.22-.31,25.58.1,37.91.28,8.3,5,12.51,13.22,13,2.84.18,5.7,0,8.9,0v10.19a40.12,40.12,0,0,1-18.69-1.16c-8.38-2.68-14.09-10.73-14.42-20.66-.35-10.59-.16-21.19-.21-31.78,0-2.22,0-4.43,0-7.07H760.23c1.46-4.44,14.46-19.17,23-26.08V438h22.62v10.19Z" transform="translate(-74.57 -391.7)"/><path class="cls-1" d="M739.42,642.45H725.33c-1.9-1.39-.74-3.74-2.61-5.33-15,10-30.49,10.84-45.51-.13-13.19-9.63-18-29.09-11.46-45.07,4.72-11.61,13.27-19.1,25.35-21.84,11.6-2.65,22.51-.51,32.13,7.28,1-2.48,1.71-4.31,2.48-6.28h13.71Zm-56.89-35.64c0,11.24,8.36,19.68,19.36,19.59s19.24-8.69,19.1-20a19.12,19.12,0,0,0-19.16-19.27C690.76,587.17,682.52,595.56,682.53,606.81Z" transform="translate(-74.57 -391.7)"/><path class="cls-1" d="M544.65,569.12c21.92-.12,38.69,16.29,38.55,37.73s-16.34,37.56-37.88,37.93-38.75-16.19-38.88-37.56C506.32,585.53,522.64,569.25,544.65,569.12Zm19,38c.1-11.26-7.52-19.58-18.23-19.9-11-.32-19.3,8-19.34,19.42,0,11.78,7.64,19.81,18.88,19.79C555.8,626.44,563.52,618.46,563.62,607.16Z" transform="translate(-74.57 -391.7)"/><path class="cls-1" d="M848.28,569.12c21.93-.1,38.71,16.37,38.5,37.78s-16.4,37.55-37.93,37.88S810.12,628.53,810,607.16C809.94,585.47,826.27,569.23,848.28,569.12Zm.38,57.35c11.08-.09,18.76-8.43,18.55-20.13-.2-11.08-8.4-19.29-19-19.07-10.84.21-18.54,8.35-18.53,19.56C829.66,618.57,837.39,626.55,848.66,626.47Z" transform="translate(-74.57 -391.7)"/><path class="cls-1" d="M409.34,642.34H389.93c0-11.32,0-22.32,0-33.31,0-3.16.05-6.32-.12-9.47-.4-7.42-3.2-11.4-8.74-12.68-6.79-1.57-13.34,1.15-16.58,7-2.22,4-2.7,8.5-2.69,13.06,0,11.67,0,23.35,0,35.36H343.24v-71c3.86-1,8-.07,12.47-.56,1.22,2.77,2.36,5.38,3.71,8.47,1.77-1.39,3.39-2.72,5.06-4,12.7-9.42,37.39-9.57,43.48,13.59a19.65,19.65,0,0,1,.6,3.31C410.11,608.8,408.88,625.43,409.34,642.34Z" transform="translate(-74.57 -391.7)"/><path class="cls-1" d="M446.06,642.43H427.37V571.22H439.8c2.17,1.81,1.89,5.46,4.24,7.93,6.24-5.84,13.56-9.61,22.46-9.71,14.18-.15,24.06,8.22,26.3,22.42,1.31,8.3.61,16.65.72,25s0,16.63,0,25.39H474.19c0-4.61,0-9.27,0-13.93,0-9.24.09-18.49-.11-27.73-.19-8.87-3.57-13.23-10.4-14-8-.93-14.4,3.49-16.53,11.43A37.61,37.61,0,0,0,446,608C446.1,619.27,446.06,630.53,446.06,642.43Z" transform="translate(-74.57 -391.7)"/><path class="cls-1" d="M988.55,592.55c-3.47-7.52-9.73-10.16-16.57-7-2.41,1.1-4.16,2.69-4.26,5.48-.11,3,1.94,4.58,4.32,5.32,3.8,1.19,7.74,2,11.63,2.85,2.81.65,5.7,1,8.44,1.89,8.24,2.56,14.37,7.38,15.2,16.72s-2.34,16.88-10.26,22-16.68,5.62-25.7,4.46a28.15,28.15,0,0,1-14.57-6.07c-5.62-4.63-8.53-10.7-8.63-18.47h17.76c1.88,6.36,6.58,9.58,13.31,9,4.28-.34,8.4-1.65,9.39-7-.64-3.9-3.32-5.53-6.83-6.31-5.63-1.24-11.32-2.3-16.86-3.89-10.31-3-15-8.61-15.76-18.4a20.78,20.78,0,0,1,12.53-20.53c11.36-5,22.91-5.21,33.91,1.33,6.8,4,10,10.39,10.42,18.69Z" transform="translate(-74.57 -391.7)"/><path class="cls-1" d="M585.89,571.18h20.38l17.24,47.66,17-47.69h19.7c-9.35,23.94-18.56,47.54-27.82,71.28H614.56Q600.54,607.55,585.89,571.18Z" transform="translate(-74.57 -391.7)"/><path class="cls-1" d="M763,586.71H751.5c-1.56-2.33-1.21-4.17.55-6.06q12.63-13.51,25.17-27.12c1-1.13,2.19-1.43,4-1,1.5,5.67,0,11.75,1,18.11h18.66c1.37,5.48.35,10.53.74,16.21H782.51c0,10.09-.28,19.52.1,28.93.25,6.34,3.45,9,9.91,9.41,2.85.18,5.72,0,8.93,0v17.52c-7.62-.27-15.57,1.09-23.27-1.67s-12.31-8.44-14.14-16.55c-1.61-7.15-.86-14.38-1-21.58C762.93,597.78,763,592.63,763,586.71Z" transform="translate(-74.57 -391.7)"/><path class="cls-1" d="M900.71,642.32v-71c3.9-.89,7.8-.4,11.78-.26,1.16,2.75,2.27,5.35,3.57,8.43,7.39-8.22,16.4-9.85,26.64-8.38V588.4c-4,.27-8,.27-11.88.85-6.64,1-9,3.62-10.63,10.26-1,4-.65,8.08-.68,12.12-.09,9.93-.07,19.86-.11,29.79,0,.18-.18.36-.47.9Z" transform="translate(-74.57 -391.7)"/><path class="cls-1" d="M324,642.39h-18.3V571.23H324Z" transform="translate(-74.57 -391.7)"/><path class="cls-1" d="M324.11,543.91v17c-6.15.87-12.2.28-18.47.43V543.91Z" transform="translate(-74.57 -391.7)"/></svg>