<svg id="v2" xmlns="http://www.w3.org/2000/svg" viewBox="0 0 135 150"><defs><style>.cls-1{fill:#333;}</style></defs><g id="techgaming"><path class="cls-1" d="M42.22,110.39H38.36v-2.7H49.05v2.7H45.2V121.2h-3Z"/><path class="cls-1" d="M47.58,116.82c0-2.73,2.16-4.58,5.1-4.58,2.67,0,4.85,1.61,4.85,4.39v.76H50.74a1.86,1.86,0,0,0,1.88,1.88,1.7,1.7,0,0,0,1.79-1.15h3c-.58,2.18-2.4,3.27-4.75,3.27C49.66,121.39,47.58,119.61,47.58,116.82Zm6.79-1a1.66,1.66,0,0,0-1.79-1.52,1.71,1.71,0,0,0-1.8,1.52Z"/><path class="cls-1" d="M58.78,116.8a4.43,4.43,0,0,1,4.66-4.56c2.85,0,4.66,1.68,4.8,3.71h-3a1.46,1.46,0,0,0-1.61-1.41c-1.35,0-1.91,1.12-1.91,2.26s.56,2.29,1.91,2.29a1.45,1.45,0,0,0,1.61-1.4h3c-.14,2-1.95,3.7-4.8,3.7A4.44,4.44,0,0,1,58.78,116.8Z"/><path class="cls-1" d="M69.83,106.3h3v7.21a3.4,3.4,0,0,1,2.69-1.27c2.34,0,3.29,1.61,3.29,4v5h-3v-5c0-1-.4-1.59-1.33-1.59a2,2,0,0,0-1.67,2.18v4.38h-3Z"/><path class="cls-1" d="M92.79,121.2l-.62-.79a5.7,5.7,0,0,1-3.35,1c-2.64,0-4.49-1.37-4.49-3.83a4.45,4.45,0,0,1,2.53-3.92,5,5,0,0,1-1.12-2.89c0-2.25,2.09-3.26,4.1-3.26,2.35,0,4.11,1.35,4.11,3.18s-1.64,2.68-3.29,3.55l1.78,2.13L94,114.54l2.1,1.81-1.87,2.11,2.29,2.74Zm-2.23-2.83-2.2-2.77a2.37,2.37,0,0,0-1,1.84A1.49,1.49,0,0,0,88.94,119,2.58,2.58,0,0,0,90.56,118.37Zm-1.32-5.94c1.05-.52,1.87-1,1.87-1.82a1,1,0,0,0-1.16-1,1.21,1.21,0,0,0-1.33,1.25A3,3,0,0,0,89.24,112.43Z"/><path class="cls-1" d="M45.76,137.83v.37c0,4.79-2.92,7-6.53,7a6.94,6.94,0,1,1-.12-13.88c3.12,0,5.74,1.8,6.31,4.74H42.29a3.1,3.1,0,0,0-3.2-2c-2.18,0-4,1.53-4,4.29a3.84,3.84,0,0,0,4.08,4.19c1.77,0,3.21-.82,3.51-2.23H39.33v-2.43Z"/><path class="cls-1" d="M46.64,140.66A4.25,4.25,0,0,1,51,136.07a3.71,3.71,0,0,1,3,1.27v-1.05h3V145H54V144a3.62,3.62,0,0,1-3,1.25A4.23,4.23,0,0,1,46.64,140.66Zm7.35,0a2.09,2.09,0,1,0-2.09,2.19A2,2,0,0,0,54,140.66Z"/><path class="cls-1" d="M74,139.39V145H71v-4.64c0-1.25-.28-1.93-1.35-1.93s-1.53.68-1.53,1.93V145h-3v-4.64c0-1.25-.34-1.93-1.33-1.93s-1.55.68-1.55,1.93V145h-3v-8.75h3v1.06a3.25,3.25,0,0,1,2.62-1.27,2.7,2.7,0,0,1,2.61,1.39,3.63,3.63,0,0,1,3.11-1.39A3.1,3.1,0,0,1,74,139.39Z"/><path class="cls-1" d="M75.9,133.07a1.75,1.75,0,0,1,3.49,0,1.75,1.75,0,1,1-3.49,0Zm.26,3.21h3V145h-3Z"/><path class="cls-1" d="M81.49,136.28h3v1.06a3.41,3.41,0,0,1,2.69-1.27c2.34,0,3.29,1.61,3.29,4v5h-3v-5c0-1-.4-1.61-1.33-1.61s-1.67.7-1.67,2V145h-3Z"/><path class="cls-1" d="M92,146.15h3c.06,1.11.83,1.65,2.18,1.65a1.79,1.79,0,0,0,2-2V144a3.59,3.59,0,0,1-3,1.25,4.58,4.58,0,0,1,0-9.14,3.7,3.7,0,0,1,3,1.27v-1.06h3v9.53c0,2.88-2.08,4.19-5.06,4.19C94.54,150,92.14,149,92,146.15Zm7.22-5.51a2.09,2.09,0,1,0-2.09,2.19A2,2,0,0,0,99.21,140.64Z"/><path class="cls-1" d="M118.38,80.86l-1.69-4.54a2,2,0,0,0-3.81,1.42l1.69,4.53a13.85,13.85,0,0,1-24.76,12.1L87.75,91a8.53,8.53,0,0,0-7.36-12.86,8.56,8.56,0,0,0-8.29,6.51H62.9a8.54,8.54,0,0,0-16.83,2A8.48,8.48,0,0,0,47.25,91l-2.06,3.33a13.85,13.85,0,0,1-24.76-12.1l9.74-26.21a17.26,17.26,0,0,1,16.11-11.2H88.72a17.25,17.25,0,0,1,16.11,11.2l1.68,4.53a2,2,0,1,0,3.81-1.41l-1.68-4.54A21.34,21.34,0,0,0,88.72,40.8H84A11.79,11.79,0,0,0,72.38,31H69.53V29.52A10.87,10.87,0,0,0,58.66,18.65H37.32A6.81,6.81,0,0,1,37.32,5H67.53a2,2,0,1,0,0-4.06H37.32a10.87,10.87,0,0,0,0,21.74H58.66a6.82,6.82,0,0,1,6.81,6.81V31H62.62A11.79,11.79,0,0,0,51,40.8H46.28A21.34,21.34,0,0,0,26.36,54.64L16.62,80.86a17.91,17.91,0,0,0,32,15.64L50.19,94A8.54,8.54,0,0,0,62.9,88.75h9.2A8.54,8.54,0,0,0,84.81,94l1.54,2.48a17.91,17.91,0,0,0,32-15.64ZM62.62,35.11h9.76a7.74,7.74,0,0,1,7.45,5.69H55.17A7.74,7.74,0,0,1,62.62,35.11Zm-8,56.08a4.47,4.47,0,1,1,4.47-4.47A4.47,4.47,0,0,1,54.61,91.19Zm21.31-4.47a4.47,4.47,0,1,1,4.47,4.47A4.47,4.47,0,0,1,75.92,86.72Z"/><path class="cls-1" d="M86.37,63.32a6.5,6.5,0,1,0,6.5-6.51A6.51,6.51,0,0,0,86.37,63.32Zm8.94,0a2.44,2.44,0,1,1-2.44-2.44A2.45,2.45,0,0,1,95.31,63.32Z"/><path class="cls-1" d="M68.49,63.32A6.5,6.5,0,1,0,75,56.81,6.51,6.51,0,0,0,68.49,63.32Zm8.94,0A2.44,2.44,0,1,1,75,60.88,2.45,2.45,0,0,1,77.43,63.32Z"/><path class="cls-1" d="M47.41,51.53a6.11,6.11,0,0,0-6.08,5.7,6.1,6.1,0,0,0,0,12.17,6.1,6.1,0,0,0,12.17,0,6.1,6.1,0,0,0,0-12.17A6.12,6.12,0,0,0,47.41,51.53Zm7.73,11.79a2,2,0,0,1-2,2H51.48a2,2,0,0,0-2,2V69a2,2,0,0,1-4.07,0V67.38a2,2,0,0,0-2-2H41.73a2,2,0,1,1,0-4.06h1.62a2,2,0,0,0,2-2V57.63a2,2,0,0,1,4.07,0v1.62a2,2,0,0,0,2,2H53.1A2,2,0,0,1,55.14,63.32Z"/><path class="cls-1" d="M109.57,68.46A2,2,0,1,0,113,67a2,2,0,0,0-3.47,1.44Z"/></g></svg>